<svg xmlns="http://www.w3.org/2000/svg" xmlns:v="https://svgstorm.com"
viewBox = "0 0 1024 1024"
width="1024"
height="1024">
<g fill="None" fill-opacity="0.0" stroke="#FEFFFF" stroke-opacity="1.00" stroke-width="0.3"><path d="
M 0.00 1024.00 
L 1024.00 1024.00
L 1024.00 0.00
L 0.00 0.00
L 0.00 1024.00
M 662.00 462.00 
C 668.92 461.33 677.15 461.34 684.00 462.00
C 700.63 462.00 719.81 466.04 733.70 473.31 C 747.58 480.57 757.51 491.83 770.25 498.75 C 782.98 505.68 798.70 523.11 783.75 534.75 C 768.81 546.40 754.26 546.12 735.78 548.78 C 717.29 551.44 694.60 549.25 675.00 550.00 C 655.40 550.75 632.86 549.43 613.00 550.00
C 612.65 561.80 616.05 584.09 601.92 588.92 C 587.80 593.76 568.84 590.43 555.00 589.00 C 541.16 587.57 522.95 588.80 520.00 573.00
C 511.94 570.37 496.85 574.87 491.75 565.25 C 486.65 555.63 476.76 561.66 466.98 563.98 C 457.20 566.29 448.72 569.22 438.93 571.93 C 429.14 574.64 420.34 576.06 410.33 579.33 C 400.31 582.60 388.36 582.22 377.00 582.00 C 365.64 581.78 352.52 582.16 341.00 582.00
C 339.57 568.06 358.01 568.35 367.22 562.22 C 376.44 556.10 389.73 554.52 398.00 547.00
C 349.71 542.28 303.23 529.82 258.00 514.00
C 254.52 513.45 249.31 514.76 246.00 514.00 C 242.69 513.24 235.98 515.83 234.00 513.00
C 228.62 505.32 244.95 499.50 242.78 490.78 C 240.60 482.06 260.02 480.71 265.00 481.00
C 257.92 453.31 246.30 426.92 240.00 399.00
C 261.45 395.24 283.95 399.22 296.75 416.25 C 309.55 433.27 320.01 437.67 333.25 453.75 C 346.49 469.83 366.30 474.88 388.00 473.00 C 409.70 471.12 436.50 470.46 459.00 470.00
C 454.96 462.22 445.29 459.12 439.25 452.75 C 433.22 446.37 420.60 442.28 422.00 432.00
C 442.85 431.86 466.05 429.78 484.22 438.78 C 502.40 447.77 516.97 448.43 535.22 457.78 C 553.48 467.12 572.69 465.37 594.02 464.02 C 615.36 462.68 640.27 462.92 662.00 462.00 Z"/>
</g>
<g fill="None" fill-opacity="0.0" stroke="#020202" stroke-opacity="1.00" stroke-width="0.3"><path d="
M 234.00 513.00 
C 241.89 513.46 250.91 511.94 258.00 514.00
C 303.23 529.82 349.71 542.28 398.00 547.00
C 389.73 554.52 376.44 556.10 367.22 562.22 C 358.01 568.35 339.57 568.06 341.00 582.00
C 352.52 582.16 365.64 581.78 377.00 582.00 C 388.36 582.22 400.31 582.60 410.33 579.33 C 420.34 576.06 429.14 574.64 438.93 571.93 C 448.72 569.22 457.20 566.29 466.98 563.98 C 476.76 561.66 486.65 555.63 491.75 565.25 C 496.85 574.87 511.94 570.37 520.00 573.00
C 522.95 588.80 541.16 587.57 555.00 589.00 C 568.84 590.43 587.80 593.76 601.92 588.92 C 616.05 584.09 612.65 561.80 613.00 550.00
C 632.86 549.43 655.40 550.75 675.00 550.00 C 694.60 549.25 717.29 551.44 735.78 548.78 C 754.26 546.12 768.81 546.40 783.75 534.75 C 798.70 523.11 782.98 505.68 770.25 498.75 C 757.51 491.83 747.58 480.57 733.70 473.31 C 719.81 466.04 700.63 462.00 684.00 462.00
C 676.67 462.00 669.33 462.00 662.00 462.00
C 640.27 462.92 615.36 462.68 594.02 464.02 C 572.69 465.37 553.48 467.12 535.22 457.78 C 516.97 448.43 502.40 447.77 484.22 438.78 C 466.05 429.78 442.85 431.86 422.00 432.00
C 420.60 442.28 433.22 446.37 439.25 452.75 C 445.29 459.12 454.96 462.22 459.00 470.00
C 436.50 470.46 409.70 471.12 388.00 473.00 C 366.30 474.88 346.49 469.83 333.25 453.75 C 320.01 437.67 309.55 433.27 296.75 416.25 C 283.95 399.22 261.45 395.24 240.00 399.00
C 246.30 426.92 257.92 453.31 265.00 481.00
C 260.02 480.71 240.60 482.06 242.78 490.78 C 244.95 499.50 228.62 505.32 234.00 513.00
M 291.00 424.00 
C 296.29 429.29 302.15 434.33 307.00 440.00
C 311.41 445.16 316.64 449.90 321.00 455.00
C 324.86 458.86 329.06 463.36 333.00 467.00
C 336.29 469.60 339.67 472.83 344.00 473.00
C 335.04 477.08 321.28 475.55 310.00 477.00 C 298.72 478.44 286.13 477.63 275.00 480.00
C 267.01 456.15 259.15 432.17 252.00 408.00
C 268.12 405.04 282.31 409.91 291.00 424.00
M 531.00 465.00 
C 524.75 467.31 512.36 468.40 504.00 468.00 C 495.64 467.60 481.87 470.30 474.33 468.67 C 466.79 467.04 464.14 458.60 457.75 455.25 C 451.36 451.90 446.19 445.80 441.00 441.00
C 474.15 437.57 500.68 458.11 531.00 465.00
M 687.00 471.00 
C 702.37 471.00 716.55 474.47 730.00 481.00
C 721.64 483.54 709.58 483.67 712.00 495.00 C 714.42 506.33 720.53 507.38 729.67 509.33 C 738.82 511.28 751.73 509.82 760.01 508.01 C 768.28 506.20 773.27 509.28 778.75 517.25 C 784.23 525.22 772.80 532.37 764.93 533.93 C 757.05 535.48 747.17 538.29 737.99 538.99 C 728.82 539.70 718.15 541.12 708.00 541.00 C 697.85 540.88 685.52 541.06 675.00 541.00 C 664.48 540.94 653.70 541.03 643.00 541.00 C 632.30 540.97 620.77 541.02 610.00 541.00
C 608.92 533.98 600.44 530.22 594.00 530.00
C 601.07 524.09 617.05 528.18 619.00 517.00
C 602.68 513.82 586.71 522.78 570.32 526.32 C 553.93 529.86 537.47 535.98 520.99 539.99 C 504.52 544.01 488.91 548.83 472.32 553.32 C 455.74 557.82 439.52 561.66 422.78 566.78 C 406.04 571.90 384.87 575.63 367.00 572.00
C 407.90 553.49 449.20 535.93 490.00 517.00
C 466.18 511.84 448.98 527.72 427.31 535.31 C 405.63 542.89 377.77 535.57 355.33 531.67 C 332.89 527.78 310.14 520.50 288.00 515.00
C 287.13 514.85 286.16 513.83 286.00 513.00
C 297.33 513.00 308.67 513.00 320.00 513.00
C 324.67 513.00 329.33 513.00 334.00 513.00
C 334.42 512.40 334.42 505.60 334.00 505.00
C 305.33 505.00 276.67 505.00 248.00 505.00
C 247.73 503.72 248.77 502.28 250.00 502.00
C 252.19 496.14 251.63 490.10 260.67 490.67 C 269.71 491.24 274.55 487.48 283.00 488.00 C 291.45 488.52 297.90 485.99 306.01 486.01 C 314.12 486.03 322.07 485.19 330.00 485.00 C 337.93 484.81 344.07 483.04 352.02 483.02 C 359.98 483.01 367.93 481.79 376.00 482.00 C 384.07 482.21 391.92 480.87 400.00 481.00 C 408.08 481.13 415.92 479.83 424.00 480.00 C 432.08 480.17 439.88 478.56 448.00 479.00 C 456.12 479.44 462.92 477.68 471.00 478.00 C 479.08 478.32 486.86 476.63 495.00 477.00 C 503.14 477.37 511.04 476.41 519.00 476.00 C 526.96 475.59 535.13 475.77 543.00 475.00 C 550.87 474.23 559.36 476.70 567.00 475.00 C 574.64 473.30 583.26 475.35 591.00 474.00 C 598.74 472.65 607.12 473.93 615.00 473.00 C 622.88 472.07 630.99 472.64 639.00 472.00 C 647.01 471.36 654.70 471.00 663.00 471.00
C 670.55 470.27 679.52 470.28 687.00 471.00
M 754.00 498.00 
C 745.58 501.40 723.56 505.90 721.00 493.00
C 733.03 490.90 744.96 487.70 754.00 498.00
M 582.00 538.00 
C 584.67 538.00 587.33 538.00 590.00 538.00
C 587.45 552.18 586.92 567.84 590.00 582.00
C 580.57 581.58 567.59 582.24 558.93 580.07 C 550.26 577.90 537.46 581.07 530.77 575.23 C 524.08 569.39 531.45 552.87 531.00 546.00
C 543.59 544.40 554.83 537.53 568.00 538.00
C 572.40 537.57 577.66 537.58 582.00 538.00
M 601.00 541.00 
C 604.88 552.21 607.04 570.20 599.00 579.00
C 596.66 567.28 594.22 551.21 601.00 541.00
M 521.00 550.00 
C 519.92 554.45 519.84 559.23 520.00 564.00
C 512.94 562.81 500.99 564.73 499.00 556.00
C 506.22 553.62 513.40 551.05 521.00 550.00 Z"/>
</g>
<g fill="None" fill-opacity="0.0" stroke="#FAFAFA" stroke-opacity="1.00" stroke-width="0.3"><path d="
M 333.00 467.00 
C 328.60 463.53 324.59 459.20 321.00 455.00
C 316.64 449.90 311.41 445.16 307.00 440.00
C 301.71 434.71 295.85 429.67 291.00 424.00
C 282.31 409.91 268.12 405.04 252.00 408.00
C 259.15 432.17 267.01 456.15 275.00 480.00
C 286.13 477.63 298.72 478.44 310.00 477.00 C 321.28 475.55 335.04 477.08 344.00 473.00
C 339.67 472.83 336.29 469.60 333.00 467.00 Z"/>
</g>
<g fill="None" fill-opacity="0.0" stroke="#6E6E6E" stroke-opacity="1.00" stroke-width="0.3"><path d="
M 307.00 440.00 
C 302.15 434.33 296.29 429.29 291.00 424.00
C 295.85 429.67 301.71 434.71 307.00 440.00 Z"/>
</g>
<g fill="None" fill-opacity="0.0" stroke="#F4F4F4" stroke-opacity="1.00" stroke-width="0.3"><path d="
M 531.00 465.00 
C 500.68 458.11 474.15 437.57 441.00 441.00
C 446.19 445.80 451.36 451.90 457.75 455.25 C 464.14 458.60 466.79 467.04 474.33 468.67 C 481.87 470.30 495.64 467.60 504.00 468.00 C 512.36 468.40 524.75 467.31 531.00 465.00 Z"/>
</g>
<g fill="None" fill-opacity="0.0" stroke="#707070" stroke-opacity="1.00" stroke-width="0.3"><path d="
M 333.00 467.00 
C 329.06 463.36 324.86 458.86 321.00 455.00
C 324.59 459.20 328.60 463.53 333.00 467.00 Z"/>
</g>
<g fill="None" fill-opacity="0.0" stroke="#8A8A8A" stroke-opacity="1.00" stroke-width="0.3"><path d="
M 662.00 462.00 
C 669.33 462.00 676.67 462.00 684.00 462.00
C 677.15 461.34 668.92 461.33 662.00 462.00 Z"/>
</g>
<g fill="None" fill-opacity="0.0" stroke="#848484" stroke-opacity="1.00" stroke-width="0.3"><path d="
M 663.00 471.00 
C 671.00 471.00 679.00 471.00 687.00 471.00
C 679.52 470.28 670.55 470.27 663.00 471.00 Z"/>
</g>
<g fill="None" fill-opacity="0.0" stroke="#FBFBFB" stroke-opacity="1.00" stroke-width="0.3"><path d="
M 250.00 502.00 
C 250.25 506.25 262.44 503.17 268.00 504.00 C 273.56 504.83 284.04 503.15 290.00 504.00 C 295.96 504.85 306.55 502.56 312.00 504.00 C 317.45 505.44 330.97 500.67 334.00 505.00
C 334.42 505.60 334.42 512.40 334.00 513.00
C 332.30 515.42 322.96 514.00 320.00 514.00
C 314.96 514.00 308.95 514.85 304.00 514.00 C 299.05 513.15 291.85 515.67 288.00 515.00
C 310.14 520.50 332.89 527.78 355.33 531.67 C 377.77 535.57 405.63 542.89 427.31 535.31 C 448.98 527.72 466.18 511.84 490.00 517.00
C 449.20 535.93 407.90 553.49 367.00 572.00
C 384.87 575.63 406.04 571.90 422.78 566.78 C 439.52 561.66 455.74 557.82 472.32 553.32 C 488.91 548.83 504.52 544.01 520.99 539.99 C 537.47 535.98 553.93 529.86 570.32 526.32 C 586.71 522.78 602.68 513.82 619.00 517.00
C 617.05 528.18 601.07 524.09 594.00 530.00
C 600.44 530.22 608.92 533.98 610.00 541.00
C 620.77 541.02 632.30 540.97 643.00 541.00 C 653.70 541.03 664.48 540.94 675.00 541.00 C 685.52 541.06 697.85 540.88 708.00 541.00 C 718.15 541.12 728.82 539.70 737.99 538.99 C 747.17 538.29 757.05 535.48 764.93 533.93 C 772.80 532.37 784.23 525.22 778.75 517.25 C 773.27 509.28 768.28 506.20 760.01 508.01 C 751.73 509.82 738.82 511.28 729.67 509.33 C 720.53 507.38 714.42 506.33 712.00 495.00 C 709.58 483.67 721.64 483.54 730.00 481.00
C 716.55 474.47 702.37 471.00 687.00 471.00
C 679.00 471.00 671.00 471.00 663.00 471.00
C 654.70 471.00 647.01 471.36 639.00 472.00 C 630.99 472.64 622.88 472.07 615.00 473.00 C 607.12 473.93 598.74 472.65 591.00 474.00 C 583.26 475.35 574.64 473.30 567.00 475.00 C 559.36 476.70 550.87 474.23 543.00 475.00 C 535.13 475.77 526.96 475.59 519.00 476.00 C 511.04 476.41 503.14 477.37 495.00 477.00 C 486.86 476.63 479.08 478.32 471.00 478.00 C 462.92 477.68 456.12 479.44 448.00 479.00 C 439.88 478.56 432.08 480.17 424.00 480.00 C 415.92 479.83 408.08 481.13 400.00 481.00 C 391.92 480.87 384.07 482.21 376.00 482.00 C 367.93 481.79 359.98 483.01 352.02 483.02 C 344.07 483.04 337.93 484.81 330.00 485.00 C 322.07 485.19 314.12 486.03 306.01 486.01 C 297.90 485.99 291.45 488.52 283.00 488.00 C 274.55 487.48 269.71 491.24 260.67 490.67 C 251.63 490.10 252.19 496.14 250.00 502.00
M 684.00 486.00 
C 686.09 488.99 684.00 501.18 684.00 505.00 C 684.00 508.82 686.09 521.01 684.00 524.00
C 682.20 526.57 676.70 524.14 674.00 525.00
C 673.48 516.91 674.69 508.00 674.00 500.00 C 673.31 492.00 673.20 480.34 684.00 486.00
M 389.00 493.00 
C 389.00 497.67 389.00 502.33 389.00 507.00
C 385.67 507.00 382.33 507.00 379.00 507.00
C 379.00 502.33 379.00 497.67 379.00 493.00
C 382.33 493.00 385.67 493.00 389.00 493.00
M 418.00 493.00 
C 418.00 497.67 418.00 502.33 418.00 507.00
C 414.67 507.00 411.33 507.00 408.00 507.00
C 406.94 499.10 407.31 489.64 418.00 493.00
M 438.00 507.00 
C 435.90 505.53 436.41 495.59 438.00 494.00
C 440.09 491.91 444.15 493.51 447.00 493.00
C 447.00 497.67 447.00 502.33 447.00 507.00
C 444.00 507.00 441.00 507.00 438.00 507.00
M 467.00 507.00 
C 464.90 505.53 465.41 495.59 467.00 494.00
C 469.09 491.91 473.15 493.51 476.00 493.00
C 476.00 497.67 476.00 502.33 476.00 507.00
C 473.00 507.00 470.00 507.00 467.00 507.00
M 496.00 507.00 
C 494.51 505.95 494.09 496.83 495.00 495.00
C 499.77 485.35 510.19 500.99 505.00 507.00
C 502.00 507.00 499.00 507.00 496.00 507.00
M 533.00 507.00 
C 530.99 508.41 526.26 505.94 524.00 507.00
C 524.00 502.67 524.00 498.33 524.00 494.00
C 529.98 485.45 539.45 502.48 533.00 507.00
M 563.00 493.00 
C 563.00 497.67 563.00 502.33 563.00 507.00
C 560.00 507.00 557.00 507.00 554.00 507.00
C 554.00 502.33 554.00 497.67 554.00 493.00
C 557.00 493.00 560.00 493.00 563.00 493.00
M 592.00 507.00 
C 589.99 508.41 585.26 505.94 583.00 507.00
C 583.00 502.67 583.00 498.33 583.00 494.00
C 588.98 485.45 598.45 502.48 592.00 507.00
M 621.00 507.00 
C 618.99 508.41 614.26 505.94 612.00 507.00
C 612.00 502.33 612.00 497.67 612.00 493.00
C 615.00 493.00 618.00 493.00 621.00 493.00
C 622.91 494.34 622.85 505.70 621.00 507.00
M 650.00 507.00 
C 647.99 508.41 643.26 505.94 641.00 507.00
C 641.00 502.67 641.00 498.33 641.00 494.00
C 646.98 485.45 656.45 502.48 650.00 507.00 Z"/>
</g>
<g fill="None" fill-opacity="0.0" stroke="#8E8E8E" stroke-opacity="1.00" stroke-width="0.3"><path d="
M 684.00 524.00 
C 681.00 524.00 678.00 524.00 675.00 524.00
C 675.00 511.33 675.00 498.67 675.00 486.00
C 678.00 486.00 681.00 486.00 684.00 486.00
C 673.20 480.34 673.31 492.00 674.00 500.00 C 674.69 508.00 673.48 516.91 674.00 525.00
C 676.70 524.14 682.20 526.57 684.00 524.00 Z"/>
</g>
<g fill="None" fill-opacity="0.0" stroke="#010101" stroke-opacity="1.00" stroke-width="0.3"><path d="
M 684.00 524.00 
C 686.09 521.01 684.00 508.82 684.00 505.00 C 684.00 501.18 686.09 488.99 684.00 486.00
C 681.00 486.00 678.00 486.00 675.00 486.00
C 675.00 498.67 675.00 511.33 675.00 524.00
C 678.00 524.00 681.00 524.00 684.00 524.00 Z"/>
</g>
<g fill="None" fill-opacity="0.0" stroke="#ECEBEA" stroke-opacity="1.00" stroke-width="0.3"><path d="
M 754.00 498.00 
C 744.96 487.70 733.03 490.90 721.00 493.00
C 723.56 505.90 745.58 501.40 754.00 498.00 Z"/>
</g>
<g fill="None" fill-opacity="0.0" stroke="#0E0E0E" stroke-opacity="1.00" stroke-width="0.3"><path d="
M 389.00 493.00 
C 385.67 493.00 382.33 493.00 379.00 493.00
C 379.00 497.67 379.00 502.33 379.00 507.00
C 382.33 507.00 385.67 507.00 389.00 507.00
C 389.00 502.33 389.00 497.67 389.00 493.00 Z"/>
</g>
<g fill="None" fill-opacity="0.0" stroke="#0A0A0A" stroke-opacity="1.00" stroke-width="0.3"><path d="
M 418.00 493.00 
C 407.31 489.64 406.94 499.10 408.00 507.00
C 411.33 507.00 414.67 507.00 418.00 507.00
C 418.00 502.33 418.00 497.67 418.00 493.00 Z"/>
</g>
<g fill="None" fill-opacity="0.0" stroke="#080808" stroke-opacity="1.00" stroke-width="0.3"><path d="
M 438.00 494.00 
C 435.96 496.91 439.53 503.74 438.00 507.00
C 441.00 507.00 444.00 507.00 447.00 507.00
C 447.00 502.33 447.00 497.67 447.00 493.00
C 444.15 493.51 440.09 491.91 438.00 494.00 Z"/>
</g>
<g fill="None" fill-opacity="0.0" stroke="#040404" stroke-opacity="1.00" stroke-width="0.3"><path d="
M 467.00 494.00 
C 464.96 496.91 468.53 503.74 467.00 507.00
C 470.00 507.00 473.00 507.00 476.00 507.00
C 476.00 502.33 476.00 497.67 476.00 493.00
C 473.15 493.51 469.09 491.91 467.00 494.00 Z"/>
</g>
<g fill="None" fill-opacity="0.0" stroke="#050505" stroke-opacity="1.00" stroke-width="0.3"><path d="
M 495.00 495.00 
C 494.23 496.85 497.66 504.09 496.00 507.00
C 499.00 507.00 502.00 507.00 505.00 507.00
C 510.19 500.99 499.77 485.35 495.00 495.00 Z"/>
</g>
<g fill="None" fill-opacity="0.0" stroke="#676767" stroke-opacity="1.00" stroke-width="0.3"><path d="
M 524.00 494.00 
C 527.00 494.00 530.00 494.00 533.00 494.00
C 533.00 498.33 533.00 502.67 533.00 507.00
C 539.45 502.48 529.98 485.45 524.00 494.00 Z"/>
</g>
<g fill="None" fill-opacity="0.0" stroke="#020202" stroke-opacity="1.00" stroke-width="0.3"><path d="
M 563.00 493.00 
C 560.00 493.00 557.00 493.00 554.00 493.00
C 554.00 497.67 554.00 502.33 554.00 507.00
C 557.00 507.00 560.00 507.00 563.00 507.00
C 563.00 502.33 563.00 497.67 563.00 493.00 Z"/>
</g>
<g fill="None" fill-opacity="0.0" stroke="#6E6E6E" stroke-opacity="1.00" stroke-width="0.3"><path d="
M 583.00 494.00 
C 586.00 494.00 589.00 494.00 592.00 494.00
C 592.00 498.33 592.00 502.67 592.00 507.00
C 598.45 502.48 588.98 485.45 583.00 494.00 Z"/>
</g>
<g fill="None" fill-opacity="0.0" stroke="#040404" stroke-opacity="1.00" stroke-width="0.3"><path d="
M 621.00 507.00 
C 621.00 502.33 621.00 497.67 621.00 493.00
C 618.00 493.00 615.00 493.00 612.00 493.00
C 612.00 497.67 612.00 502.33 612.00 507.00
C 614.26 505.94 618.99 508.41 621.00 507.00 Z"/>
</g>
<g fill="None" fill-opacity="0.0" stroke="#868686" stroke-opacity="1.00" stroke-width="0.3"><path d="
M 621.00 507.00 
C 622.85 505.70 622.91 494.34 621.00 493.00
C 621.00 497.67 621.00 502.33 621.00 507.00 Z"/>
</g>
<g fill="None" fill-opacity="0.0" stroke="#7B7B7B" stroke-opacity="1.00" stroke-width="0.3"><path d="
M 641.00 494.00 
C 644.00 494.00 647.00 494.00 650.00 494.00
C 650.00 498.33 650.00 502.67 650.00 507.00
C 656.45 502.48 646.98 485.45 641.00 494.00 Z"/>
</g>
<g fill="None" fill-opacity="0.0" stroke="#656565" stroke-opacity="1.00" stroke-width="0.3"><path d="
M 438.00 507.00 
C 439.53 503.74 435.96 496.91 438.00 494.00
C 436.41 495.59 435.90 505.53 438.00 507.00 Z"/>
</g>
<g fill="None" fill-opacity="0.0" stroke="#6F6F6F" stroke-opacity="1.00" stroke-width="0.3"><path d="
M 467.00 507.00 
C 468.53 503.74 464.96 496.91 467.00 494.00
C 465.41 495.59 464.90 505.53 467.00 507.00 Z"/>
</g>
<g fill="None" fill-opacity="0.0" stroke="#020202" stroke-opacity="1.00" stroke-width="0.3"><path d="
M 533.00 507.00 
C 533.00 502.67 533.00 498.33 533.00 494.00
C 530.00 494.00 527.00 494.00 524.00 494.00
C 524.00 498.33 524.00 502.67 524.00 507.00
C 526.26 505.94 530.99 508.41 533.00 507.00 Z"/>
</g>
<g fill="None" fill-opacity="0.0" stroke="#010101" stroke-opacity="1.00" stroke-width="0.3"><path d="
M 592.00 507.00 
C 592.00 502.67 592.00 498.33 592.00 494.00
C 589.00 494.00 586.00 494.00 583.00 494.00
C 583.00 498.33 583.00 502.67 583.00 507.00
C 585.26 505.94 589.99 508.41 592.00 507.00 Z"/>
</g>
<g fill="None" fill-opacity="0.0" stroke="#010101" stroke-opacity="1.00" stroke-width="0.3"><path d="
M 650.00 507.00 
C 650.00 502.67 650.00 498.33 650.00 494.00
C 647.00 494.00 644.00 494.00 641.00 494.00
C 641.00 498.33 641.00 502.67 641.00 507.00
C 643.26 505.94 647.99 508.41 650.00 507.00 Z"/>
</g>
<g fill="None" fill-opacity="0.0" stroke="#656565" stroke-opacity="1.00" stroke-width="0.3"><path d="
M 496.00 507.00 
C 497.66 504.09 494.23 496.85 495.00 495.00
C 494.09 496.83 494.51 505.95 496.00 507.00 Z"/>
</g>
<g fill="None" fill-opacity="0.0" stroke="#606060" stroke-opacity="1.00" stroke-width="0.3"><path d="
M 334.00 505.00 
C 330.97 500.67 317.45 505.44 312.00 504.00 C 306.55 502.56 295.96 504.85 290.00 504.00 C 284.04 503.15 273.56 504.83 268.00 504.00 C 262.44 503.17 250.25 506.25 250.00 502.00
C 248.77 502.28 247.73 503.72 248.00 505.00
C 276.67 505.00 305.33 505.00 334.00 505.00 Z"/>
</g>
<g fill="None" fill-opacity="0.0" stroke="#6A6B6A" stroke-opacity="1.00" stroke-width="0.3"><path d="
M 258.00 514.00 
C 250.91 511.94 241.89 513.46 234.00 513.00
C 235.98 515.83 242.69 513.24 246.00 514.00 C 249.31 514.76 254.52 513.45 258.00 514.00 Z"/>
</g>
<g fill="None" fill-opacity="0.0" stroke="#8F8F8F" stroke-opacity="1.00" stroke-width="0.3"><path d="
M 288.00 515.00 
C 291.85 515.67 299.05 513.15 304.00 514.00 C 308.95 514.85 314.96 514.00 320.00 514.00
C 319.96 514.00 320.00 513.00 320.00 513.00
C 308.67 513.00 297.33 513.00 286.00 513.00
C 286.16 513.83 287.13 514.85 288.00 515.00 Z"/>
</g>
<g fill="None" fill-opacity="0.0" stroke="#6D6B6C" stroke-opacity="1.00" stroke-width="0.3"><path d="
M 320.00 514.00 
C 322.96 514.00 332.30 515.42 334.00 513.00
C 329.33 513.00 324.67 513.00 320.00 513.00
C 320.00 513.00 319.96 514.00 320.00 514.00 Z"/>
</g>
<g fill="None" fill-opacity="0.0" stroke="#737373" stroke-opacity="1.00" stroke-width="0.3"><path d="
M 568.00 538.00 
C 572.67 538.00 577.33 538.00 582.00 538.00
C 577.66 537.58 572.40 537.57 568.00 538.00 Z"/>
</g>
<g fill="None" fill-opacity="0.0" stroke="#FAFAFA" stroke-opacity="1.00" stroke-width="0.3"><path d="
M 582.00 538.00 
C 577.33 538.00 572.67 538.00 568.00 538.00
C 554.83 537.53 543.59 544.40 531.00 546.00
C 531.45 552.87 524.08 569.39 530.77 575.23 C 537.46 581.07 550.26 577.90 558.93 580.07 C 567.59 582.24 580.57 581.58 590.00 582.00
C 586.92 567.84 587.45 552.18 590.00 538.00
C 587.33 538.00 584.67 538.00 582.00 538.00 Z"/>
</g>
<g fill="None" fill-opacity="0.0" stroke="#ECEBEB" stroke-opacity="1.00" stroke-width="0.3"><path d="
M 601.00 541.00 
C 594.22 551.21 596.66 567.28 599.00 579.00
C 607.04 570.20 604.88 552.21 601.00 541.00 Z"/>
</g>
<g fill="None" fill-opacity="0.0" stroke="#EDEDEB" stroke-opacity="1.00" stroke-width="0.3"><path d="
M 521.00 550.00 
C 513.40 551.05 506.22 553.62 499.00 556.00
C 500.99 564.73 512.94 562.81 520.00 564.00
C 519.84 559.23 519.92 554.45 521.00 550.00 Z"/>
</g>
<g fill="#FEFFFF" fill-opacity="1.00" stroke="None">
<path d="
M 0.00 1024.00 
L 1024.00 1024.00
L 1024.00 0.00
L 0.00 0.00
L 0.00 1024.00
M 662.00 462.00 
C 668.92 461.33 677.15 461.34 684.00 462.00
C 700.63 462.00 719.81 466.04 733.70 473.31 C 747.58 480.57 757.51 491.83 770.25 498.75 C 782.98 505.68 798.70 523.11 783.75 534.75 C 768.81 546.40 754.26 546.12 735.78 548.78 C 717.29 551.44 694.60 549.25 675.00 550.00 C 655.40 550.75 632.86 549.43 613.00 550.00
C 612.65 561.80 616.05 584.09 601.92 588.92 C 587.80 593.76 568.84 590.43 555.00 589.00 C 541.16 587.57 522.95 588.80 520.00 573.00
C 511.94 570.37 496.85 574.87 491.75 565.25 C 486.65 555.63 476.76 561.66 466.98 563.98 C 457.20 566.29 448.72 569.22 438.93 571.93 C 429.14 574.64 420.34 576.06 410.33 579.33 C 400.31 582.60 388.36 582.22 377.00 582.00 C 365.64 581.78 352.52 582.16 341.00 582.00
C 339.57 568.06 358.01 568.35 367.22 562.22 C 376.44 556.10 389.73 554.52 398.00 547.00
C 349.71 542.28 303.23 529.82 258.00 514.00
C 254.52 513.45 249.31 514.76 246.00 514.00 C 242.69 513.24 235.98 515.83 234.00 513.00
C 228.62 505.32 244.95 499.50 242.78 490.78 C 240.60 482.06 260.02 480.71 265.00 481.00
C 257.92 453.31 246.30 426.92 240.00 399.00
C 261.45 395.24 283.95 399.22 296.75 416.25 C 309.55 433.27 320.01 437.67 333.25 453.75 C 346.49 469.83 366.30 474.88 388.00 473.00 C 409.70 471.12 436.50 470.46 459.00 470.00
C 454.96 462.22 445.29 459.12 439.25 452.75 C 433.22 446.37 420.60 442.28 422.00 432.00
C 442.85 431.86 466.05 429.78 484.22 438.78 C 502.40 447.77 516.97 448.43 535.22 457.78 C 553.48 467.12 572.69 465.37 594.02 464.02 C 615.36 462.68 640.27 462.92 662.00 462.00 Z"/>
</g>
<g fill="#020202" fill-opacity="1.00" stroke="None">
<path d="
M 234.00 513.00 
C 241.89 513.46 250.91 511.94 258.00 514.00
C 303.23 529.82 349.71 542.28 398.00 547.00
C 389.73 554.52 376.44 556.10 367.22 562.22 C 358.01 568.35 339.57 568.06 341.00 582.00
C 352.52 582.16 365.64 581.78 377.00 582.00 C 388.36 582.22 400.31 582.60 410.33 579.33 C 420.34 576.06 429.14 574.64 438.93 571.93 C 448.72 569.22 457.20 566.29 466.98 563.98 C 476.76 561.66 486.65 555.63 491.75 565.25 C 496.85 574.87 511.94 570.37 520.00 573.00
C 522.95 588.80 541.16 587.57 555.00 589.00 C 568.84 590.43 587.80 593.76 601.92 588.92 C 616.05 584.09 612.65 561.80 613.00 550.00
C 632.86 549.43 655.40 550.75 675.00 550.00 C 694.60 549.25 717.29 551.44 735.78 548.78 C 754.26 546.12 768.81 546.40 783.75 534.75 C 798.70 523.11 782.98 505.68 770.25 498.75 C 757.51 491.83 747.58 480.57 733.70 473.31 C 719.81 466.04 700.63 462.00 684.00 462.00
C 676.67 462.00 669.33 462.00 662.00 462.00
C 640.27 462.92 615.36 462.68 594.02 464.02 C 572.69 465.37 553.48 467.12 535.22 457.78 C 516.97 448.43 502.40 447.77 484.22 438.78 C 466.05 429.78 442.85 431.86 422.00 432.00
C 420.60 442.28 433.22 446.37 439.25 452.75 C 445.29 459.12 454.96 462.22 459.00 470.00
C 436.50 470.46 409.70 471.12 388.00 473.00 C 366.30 474.88 346.49 469.83 333.25 453.75 C 320.01 437.67 309.55 433.27 296.75 416.25 C 283.95 399.22 261.45 395.24 240.00 399.00
C 246.30 426.92 257.92 453.31 265.00 481.00
C 260.02 480.71 240.60 482.06 242.78 490.78 C 244.95 499.50 228.62 505.32 234.00 513.00
M 291.00 424.00 
C 296.29 429.29 302.15 434.33 307.00 440.00
C 311.41 445.16 316.64 449.90 321.00 455.00
C 324.86 458.86 329.06 463.36 333.00 467.00
C 336.29 469.60 339.67 472.83 344.00 473.00
C 335.04 477.08 321.28 475.55 310.00 477.00 C 298.72 478.44 286.13 477.63 275.00 480.00
C 267.01 456.15 259.15 432.17 252.00 408.00
C 268.12 405.04 282.31 409.91 291.00 424.00
M 531.00 465.00 
C 524.75 467.31 512.36 468.40 504.00 468.00 C 495.64 467.60 481.87 470.30 474.33 468.67 C 466.79 467.04 464.14 458.60 457.75 455.25 C 451.36 451.90 446.19 445.80 441.00 441.00
C 474.15 437.57 500.68 458.11 531.00 465.00
M 687.00 471.00 
C 702.37 471.00 716.55 474.47 730.00 481.00
C 721.64 483.54 709.58 483.67 712.00 495.00 C 714.42 506.33 720.53 507.38 729.67 509.33 C 738.82 511.28 751.73 509.82 760.01 508.01 C 768.28 506.20 773.27 509.28 778.75 517.25 C 784.23 525.22 772.80 532.37 764.93 533.93 C 757.05 535.48 747.17 538.29 737.99 538.99 C 728.82 539.70 718.15 541.12 708.00 541.00 C 697.85 540.88 685.52 541.06 675.00 541.00 C 664.48 540.94 653.70 541.03 643.00 541.00 C 632.30 540.97 620.77 541.02 610.00 541.00
C 608.92 533.98 600.44 530.22 594.00 530.00
C 601.07 524.09 617.05 528.18 619.00 517.00
C 602.68 513.82 586.71 522.78 570.32 526.32 C 553.93 529.86 537.47 535.98 520.99 539.99 C 504.52 544.01 488.91 548.83 472.32 553.32 C 455.74 557.82 439.52 561.66 422.78 566.78 C 406.04 571.90 384.87 575.63 367.00 572.00
C 407.90 553.49 449.20 535.93 490.00 517.00
C 466.18 511.84 448.98 527.72 427.31 535.31 C 405.63 542.89 377.77 535.57 355.33 531.67 C 332.89 527.78 310.14 520.50 288.00 515.00
C 287.13 514.85 286.16 513.83 286.00 513.00
C 297.33 513.00 308.67 513.00 320.00 513.00
C 324.67 513.00 329.33 513.00 334.00 513.00
C 334.42 512.40 334.42 505.60 334.00 505.00
C 305.33 505.00 276.67 505.00 248.00 505.00
C 247.73 503.72 248.77 502.28 250.00 502.00
C 252.19 496.14 251.63 490.10 260.67 490.67 C 269.71 491.24 274.55 487.48 283.00 488.00 C 291.45 488.52 297.90 485.99 306.01 486.01 C 314.12 486.03 322.07 485.19 330.00 485.00 C 337.93 484.81 344.07 483.04 352.02 483.02 C 359.98 483.01 367.93 481.79 376.00 482.00 C 384.07 482.21 391.92 480.87 400.00 481.00 C 408.08 481.13 415.92 479.83 424.00 480.00 C 432.08 480.17 439.88 478.56 448.00 479.00 C 456.12 479.44 462.92 477.68 471.00 478.00 C 479.08 478.32 486.86 476.63 495.00 477.00 C 503.14 477.37 511.04 476.41 519.00 476.00 C 526.96 475.59 535.13 475.77 543.00 475.00 C 550.87 474.23 559.36 476.70 567.00 475.00 C 574.64 473.30 583.26 475.35 591.00 474.00 C 598.74 472.65 607.12 473.93 615.00 473.00 C 622.88 472.07 630.99 472.64 639.00 472.00 C 647.01 471.36 654.70 471.00 663.00 471.00
C 670.55 470.27 679.52 470.28 687.00 471.00
M 754.00 498.00 
C 745.58 501.40 723.56 505.90 721.00 493.00
C 733.03 490.90 744.96 487.70 754.00 498.00
M 582.00 538.00 
C 584.67 538.00 587.33 538.00 590.00 538.00
C 587.45 552.18 586.92 567.84 590.00 582.00
C 580.57 581.58 567.59 582.24 558.93 580.07 C 550.26 577.90 537.46 581.07 530.77 575.23 C 524.08 569.39 531.45 552.87 531.00 546.00
C 543.59 544.40 554.83 537.53 568.00 538.00
C 572.40 537.57 577.66 537.58 582.00 538.00
M 601.00 541.00 
C 604.88 552.21 607.04 570.20 599.00 579.00
C 596.66 567.28 594.22 551.21 601.00 541.00
M 521.00 550.00 
C 519.92 554.45 519.84 559.23 520.00 564.00
C 512.94 562.81 500.99 564.73 499.00 556.00
C 506.22 553.62 513.40 551.05 521.00 550.00 Z"/>
</g>
<g fill="#FAFAFA" fill-opacity="1.00" stroke="None">
<path d="
M 333.00 467.00 
C 328.60 463.53 324.59 459.20 321.00 455.00
C 316.64 449.90 311.41 445.16 307.00 440.00
C 301.71 434.71 295.85 429.67 291.00 424.00
C 282.31 409.91 268.12 405.04 252.00 408.00
C 259.15 432.17 267.01 456.15 275.00 480.00
C 286.13 477.63 298.72 478.44 310.00 477.00 C 321.28 475.55 335.04 477.08 344.00 473.00
C 339.67 472.83 336.29 469.60 333.00 467.00 Z"/>
</g>
<g fill="#6E6E6E" fill-opacity="1.00" stroke="None">
<path d="
M 307.00 440.00 
C 302.15 434.33 296.29 429.29 291.00 424.00
C 295.85 429.67 301.71 434.71 307.00 440.00 Z"/>
</g>
<g fill="#F4F4F4" fill-opacity="1.00" stroke="None">
<path d="
M 531.00 465.00 
C 500.68 458.11 474.15 437.57 441.00 441.00
C 446.19 445.80 451.36 451.90 457.75 455.25 C 464.14 458.60 466.79 467.04 474.33 468.67 C 481.87 470.30 495.64 467.60 504.00 468.00 C 512.36 468.40 524.75 467.31 531.00 465.00 Z"/>
</g>
<g fill="#707070" fill-opacity="1.00" stroke="None">
<path d="
M 333.00 467.00 
C 329.06 463.36 324.86 458.86 321.00 455.00
C 324.59 459.20 328.60 463.53 333.00 467.00 Z"/>
</g>
<g fill="#8A8A8A" fill-opacity="1.00" stroke="None">
<path d="
M 662.00 462.00 
C 669.33 462.00 676.67 462.00 684.00 462.00
C 677.15 461.34 668.92 461.33 662.00 462.00 Z"/>
</g>
<g fill="#848484" fill-opacity="1.00" stroke="None">
<path d="
M 663.00 471.00 
C 671.00 471.00 679.00 471.00 687.00 471.00
C 679.52 470.28 670.55 470.27 663.00 471.00 Z"/>
</g>
<g fill="#FBFBFB" fill-opacity="1.00" stroke="None">
<path d="
M 250.00 502.00 
C 250.25 506.25 262.44 503.17 268.00 504.00 C 273.56 504.83 284.04 503.15 290.00 504.00 C 295.96 504.85 306.55 502.56 312.00 504.00 C 317.45 505.44 330.97 500.67 334.00 505.00
C 334.42 505.60 334.42 512.40 334.00 513.00
C 332.30 515.42 322.96 514.00 320.00 514.00
C 314.96 514.00 308.95 514.85 304.00 514.00 C 299.05 513.15 291.85 515.67 288.00 515.00
C 310.14 520.50 332.89 527.78 355.33 531.67 C 377.77 535.57 405.63 542.89 427.31 535.31 C 448.98 527.72 466.18 511.84 490.00 517.00
C 449.20 535.93 407.90 553.49 367.00 572.00
C 384.87 575.63 406.04 571.90 422.78 566.78 C 439.52 561.66 455.74 557.82 472.32 553.32 C 488.91 548.83 504.52 544.01 520.99 539.99 C 537.47 535.98 553.93 529.86 570.32 526.32 C 586.71 522.78 602.68 513.82 619.00 517.00
C 617.05 528.18 601.07 524.09 594.00 530.00
C 600.44 530.22 608.92 533.98 610.00 541.00
C 620.77 541.02 632.30 540.97 643.00 541.00 C 653.70 541.03 664.48 540.94 675.00 541.00 C 685.52 541.06 697.85 540.88 708.00 541.00 C 718.15 541.12 728.82 539.70 737.99 538.99 C 747.17 538.29 757.05 535.48 764.93 533.93 C 772.80 532.37 784.23 525.22 778.75 517.25 C 773.27 509.28 768.28 506.20 760.01 508.01 C 751.73 509.82 738.82 511.28 729.67 509.33 C 720.53 507.38 714.42 506.33 712.00 495.00 C 709.58 483.67 721.64 483.54 730.00 481.00
C 716.55 474.47 702.37 471.00 687.00 471.00
C 679.00 471.00 671.00 471.00 663.00 471.00
C 654.70 471.00 647.01 471.36 639.00 472.00 C 630.99 472.64 622.88 472.07 615.00 473.00 C 607.12 473.93 598.74 472.65 591.00 474.00 C 583.26 475.35 574.64 473.30 567.00 475.00 C 559.36 476.70 550.87 474.23 543.00 475.00 C 535.13 475.77 526.96 475.59 519.00 476.00 C 511.04 476.41 503.14 477.37 495.00 477.00 C 486.86 476.63 479.08 478.32 471.00 478.00 C 462.92 477.68 456.12 479.44 448.00 479.00 C 439.88 478.56 432.08 480.17 424.00 480.00 C 415.92 479.83 408.08 481.13 400.00 481.00 C 391.92 480.87 384.07 482.21 376.00 482.00 C 367.93 481.79 359.98 483.01 352.02 483.02 C 344.07 483.04 337.93 484.81 330.00 485.00 C 322.07 485.19 314.12 486.03 306.01 486.01 C 297.90 485.99 291.45 488.52 283.00 488.00 C 274.55 487.48 269.71 491.24 260.67 490.67 C 251.63 490.10 252.19 496.14 250.00 502.00
M 684.00 486.00 
C 686.09 488.99 684.00 501.18 684.00 505.00 C 684.00 508.82 686.09 521.01 684.00 524.00
C 682.20 526.57 676.70 524.14 674.00 525.00
C 673.48 516.91 674.69 508.00 674.00 500.00 C 673.31 492.00 673.20 480.34 684.00 486.00
M 389.00 493.00 
C 389.00 497.67 389.00 502.33 389.00 507.00
C 385.67 507.00 382.33 507.00 379.00 507.00
C 379.00 502.33 379.00 497.67 379.00 493.00
C 382.33 493.00 385.67 493.00 389.00 493.00
M 418.00 493.00 
C 418.00 497.67 418.00 502.33 418.00 507.00
C 414.67 507.00 411.33 507.00 408.00 507.00
C 406.94 499.10 407.31 489.64 418.00 493.00
M 438.00 507.00 
C 435.90 505.53 436.41 495.59 438.00 494.00
C 440.09 491.91 444.15 493.51 447.00 493.00
C 447.00 497.67 447.00 502.33 447.00 507.00
C 444.00 507.00 441.00 507.00 438.00 507.00
M 467.00 507.00 
C 464.90 505.53 465.41 495.59 467.00 494.00
C 469.09 491.91 473.15 493.51 476.00 493.00
C 476.00 497.67 476.00 502.33 476.00 507.00
C 473.00 507.00 470.00 507.00 467.00 507.00
M 496.00 507.00 
C 494.51 505.95 494.09 496.83 495.00 495.00
C 499.77 485.35 510.19 500.99 505.00 507.00
C 502.00 507.00 499.00 507.00 496.00 507.00
M 533.00 507.00 
C 530.99 508.41 526.26 505.94 524.00 507.00
C 524.00 502.67 524.00 498.33 524.00 494.00
C 529.98 485.45 539.45 502.48 533.00 507.00
M 563.00 493.00 
C 563.00 497.67 563.00 502.33 563.00 507.00
C 560.00 507.00 557.00 507.00 554.00 507.00
C 554.00 502.33 554.00 497.67 554.00 493.00
C 557.00 493.00 560.00 493.00 563.00 493.00
M 592.00 507.00 
C 589.99 508.41 585.26 505.94 583.00 507.00
C 583.00 502.67 583.00 498.33 583.00 494.00
C 588.98 485.45 598.45 502.48 592.00 507.00
M 621.00 507.00 
C 618.99 508.41 614.26 505.94 612.00 507.00
C 612.00 502.33 612.00 497.67 612.00 493.00
C 615.00 493.00 618.00 493.00 621.00 493.00
C 622.91 494.34 622.85 505.70 621.00 507.00
M 650.00 507.00 
C 647.99 508.41 643.26 505.94 641.00 507.00
C 641.00 502.67 641.00 498.33 641.00 494.00
C 646.98 485.45 656.45 502.48 650.00 507.00 Z"/>
</g>
<g fill="#8E8E8E" fill-opacity="1.00" stroke="None">
<path d="
M 684.00 524.00 
C 681.00 524.00 678.00 524.00 675.00 524.00
C 675.00 511.33 675.00 498.67 675.00 486.00
C 678.00 486.00 681.00 486.00 684.00 486.00
C 673.20 480.34 673.31 492.00 674.00 500.00 C 674.69 508.00 673.48 516.91 674.00 525.00
C 676.70 524.14 682.20 526.57 684.00 524.00 Z"/>
</g>
<g fill="#010101" fill-opacity="1.00" stroke="None">
<path d="
M 684.00 524.00 
C 686.09 521.01 684.00 508.82 684.00 505.00 C 684.00 501.18 686.09 488.99 684.00 486.00
C 681.00 486.00 678.00 486.00 675.00 486.00
C 675.00 498.67 675.00 511.33 675.00 524.00
C 678.00 524.00 681.00 524.00 684.00 524.00 Z"/>
</g>
<g fill="#ECEBEA" fill-opacity="1.00" stroke="None">
<path d="
M 754.00 498.00 
C 744.96 487.70 733.03 490.90 721.00 493.00
C 723.56 505.90 745.58 501.40 754.00 498.00 Z"/>
</g>
<g fill="#0E0E0E" fill-opacity="1.00" stroke="None">
<path d="
M 389.00 493.00 
C 385.67 493.00 382.33 493.00 379.00 493.00
C 379.00 497.67 379.00 502.33 379.00 507.00
C 382.33 507.00 385.67 507.00 389.00 507.00
C 389.00 502.33 389.00 497.67 389.00 493.00 Z"/>
</g>
<g fill="#0A0A0A" fill-opacity="1.00" stroke="None">
<path d="
M 418.00 493.00 
C 407.31 489.64 406.94 499.10 408.00 507.00
C 411.33 507.00 414.67 507.00 418.00 507.00
C 418.00 502.33 418.00 497.67 418.00 493.00 Z"/>
</g>
<g fill="#080808" fill-opacity="1.00" stroke="None">
<path d="
M 438.00 494.00 
C 435.96 496.91 439.53 503.74 438.00 507.00
C 441.00 507.00 444.00 507.00 447.00 507.00
C 447.00 502.33 447.00 497.67 447.00 493.00
C 444.15 493.51 440.09 491.91 438.00 494.00 Z"/>
</g>
<g fill="#040404" fill-opacity="1.00" stroke="None">
<path d="
M 467.00 494.00 
C 464.96 496.91 468.53 503.74 467.00 507.00
C 470.00 507.00 473.00 507.00 476.00 507.00
C 476.00 502.33 476.00 497.67 476.00 493.00
C 473.15 493.51 469.09 491.91 467.00 494.00 Z"/>
</g>
<g fill="#050505" fill-opacity="1.00" stroke="None">
<path d="
M 495.00 495.00 
C 494.23 496.85 497.66 504.09 496.00 507.00
C 499.00 507.00 502.00 507.00 505.00 507.00
C 510.19 500.99 499.77 485.35 495.00 495.00 Z"/>
</g>
<g fill="#676767" fill-opacity="1.00" stroke="None">
<path d="
M 524.00 494.00 
C 527.00 494.00 530.00 494.00 533.00 494.00
C 533.00 498.33 533.00 502.67 533.00 507.00
C 539.45 502.48 529.98 485.45 524.00 494.00 Z"/>
</g>
<g fill="#020202" fill-opacity="1.00" stroke="None">
<path d="
M 563.00 493.00 
C 560.00 493.00 557.00 493.00 554.00 493.00
C 554.00 497.67 554.00 502.33 554.00 507.00
C 557.00 507.00 560.00 507.00 563.00 507.00
C 563.00 502.33 563.00 497.67 563.00 493.00 Z"/>
</g>
<g fill="#6E6E6E" fill-opacity="1.00" stroke="None">
<path d="
M 583.00 494.00 
C 586.00 494.00 589.00 494.00 592.00 494.00
C 592.00 498.33 592.00 502.67 592.00 507.00
C 598.45 502.48 588.98 485.45 583.00 494.00 Z"/>
</g>
<g fill="#040404" fill-opacity="1.00" stroke="None">
<path d="
M 621.00 507.00 
C 621.00 502.33 621.00 497.67 621.00 493.00
C 618.00 493.00 615.00 493.00 612.00 493.00
C 612.00 497.67 612.00 502.33 612.00 507.00
C 614.26 505.94 618.99 508.41 621.00 507.00 Z"/>
</g>
<g fill="#868686" fill-opacity="1.00" stroke="None">
<path d="
M 621.00 507.00 
C 622.85 505.70 622.91 494.34 621.00 493.00
C 621.00 497.67 621.00 502.33 621.00 507.00 Z"/>
</g>
<g fill="#7B7B7B" fill-opacity="1.00" stroke="None">
<path d="
M 641.00 494.00 
C 644.00 494.00 647.00 494.00 650.00 494.00
C 650.00 498.33 650.00 502.67 650.00 507.00
C 656.45 502.48 646.98 485.45 641.00 494.00 Z"/>
</g>
<g fill="#656565" fill-opacity="1.00" stroke="None">
<path d="
M 438.00 507.00 
C 439.53 503.74 435.96 496.91 438.00 494.00
C 436.41 495.59 435.90 505.53 438.00 507.00 Z"/>
</g>
<g fill="#6F6F6F" fill-opacity="1.00" stroke="None">
<path d="
M 467.00 507.00 
C 468.53 503.74 464.96 496.91 467.00 494.00
C 465.41 495.59 464.90 505.53 467.00 507.00 Z"/>
</g>
<g fill="#020202" fill-opacity="1.00" stroke="None">
<path d="
M 533.00 507.00 
C 533.00 502.67 533.00 498.33 533.00 494.00
C 530.00 494.00 527.00 494.00 524.00 494.00
C 524.00 498.33 524.00 502.67 524.00 507.00
C 526.26 505.94 530.99 508.41 533.00 507.00 Z"/>
</g>
<g fill="#010101" fill-opacity="1.00" stroke="None">
<path d="
M 592.00 507.00 
C 592.00 502.67 592.00 498.33 592.00 494.00
C 589.00 494.00 586.00 494.00 583.00 494.00
C 583.00 498.33 583.00 502.67 583.00 507.00
C 585.26 505.94 589.99 508.41 592.00 507.00 Z"/>
</g>
<g fill="#010101" fill-opacity="1.00" stroke="None">
<path d="
M 650.00 507.00 
C 650.00 502.67 650.00 498.33 650.00 494.00
C 647.00 494.00 644.00 494.00 641.00 494.00
C 641.00 498.33 641.00 502.67 641.00 507.00
C 643.26 505.94 647.99 508.41 650.00 507.00 Z"/>
</g>
<g fill="#656565" fill-opacity="1.00" stroke="None">
<path d="
M 496.00 507.00 
C 497.66 504.09 494.23 496.85 495.00 495.00
C 494.09 496.83 494.51 505.95 496.00 507.00 Z"/>
</g>
<g fill="#606060" fill-opacity="1.00" stroke="None">
<path d="
M 334.00 505.00 
C 330.97 500.67 317.45 505.44 312.00 504.00 C 306.55 502.56 295.96 504.85 290.00 504.00 C 284.04 503.15 273.56 504.83 268.00 504.00 C 262.44 503.17 250.25 506.25 250.00 502.00
C 248.77 502.28 247.73 503.72 248.00 505.00
C 276.67 505.00 305.33 505.00 334.00 505.00 Z"/>
</g>
<g fill="#6A6B6A" fill-opacity="1.00" stroke="None">
<path d="
M 258.00 514.00 
C 250.91 511.94 241.89 513.46 234.00 513.00
C 235.98 515.83 242.69 513.24 246.00 514.00 C 249.31 514.76 254.52 513.45 258.00 514.00 Z"/>
</g>
<g fill="#8F8F8F" fill-opacity="1.00" stroke="None">
<path d="
M 288.00 515.00 
C 291.85 515.67 299.05 513.15 304.00 514.00 C 308.95 514.85 314.96 514.00 320.00 514.00
C 319.96 514.00 320.00 513.00 320.00 513.00
C 308.67 513.00 297.33 513.00 286.00 513.00
C 286.16 513.83 287.13 514.85 288.00 515.00 Z"/>
</g>
<g fill="#6D6B6C" fill-opacity="1.00" stroke="None">
<path d="
M 320.00 514.00 
C 322.96 514.00 332.30 515.42 334.00 513.00
C 329.33 513.00 324.67 513.00 320.00 513.00
C 320.00 513.00 319.96 514.00 320.00 514.00 Z"/>
</g>
<g fill="#737373" fill-opacity="1.00" stroke="None">
<path d="
M 568.00 538.00 
C 572.67 538.00 577.33 538.00 582.00 538.00
C 577.66 537.58 572.40 537.57 568.00 538.00 Z"/>
</g>
<g fill="#FAFAFA" fill-opacity="1.00" stroke="None">
<path d="
M 582.00 538.00 
C 577.33 538.00 572.67 538.00 568.00 538.00
C 554.83 537.53 543.59 544.40 531.00 546.00
C 531.45 552.87 524.08 569.39 530.77 575.23 C 537.46 581.07 550.26 577.90 558.93 580.07 C 567.59 582.24 580.57 581.58 590.00 582.00
C 586.92 567.84 587.45 552.18 590.00 538.00
C 587.33 538.00 584.67 538.00 582.00 538.00 Z"/>
</g>
<g fill="#ECEBEB" fill-opacity="1.00" stroke="None">
<path d="
M 601.00 541.00 
C 594.22 551.21 596.66 567.28 599.00 579.00
C 607.04 570.20 604.88 552.21 601.00 541.00 Z"/>
</g>
<g fill="#EDEDEB" fill-opacity="1.00" stroke="None">
<path d="
M 521.00 550.00 
C 513.40 551.05 506.22 553.62 499.00 556.00
C 500.99 564.73 512.94 562.81 520.00 564.00
C 519.84 559.23 519.92 554.45 521.00 550.00 Z"/>
</g>
</svg>