<?xml version="1.0" encoding="UTF-8"?>
<svg version="1.1" xmlns="http://www.w3.org/2000/svg" width="1024" height="1024">
<path d="M0 0 C337.92 0 675.84 0 1024 0 C1024 337.92 1024 675.84 1024 1024 C686.08 1024 348.16 1024 0 1024 C0 686.08 0 348.16 0 0 Z " fill="#FDFDFD" transform="translate(0,0)"/>
<path d="M0 0 C13.99659013 8.35359869 17.07933145 21.75828414 21.27294922 36.46142578 C22.62076185 41.16745525 24.00126141 45.86398739 25.375 50.5625 C27.22220079 56.89148377 29.06505176 63.22168701 30.8984375 69.5546875 C31.20861816 70.62388428 31.51879883 71.69308105 31.83837891 72.79467773 C32.42806279 74.82761846 33.01637204 76.86095863 33.60302734 78.89477539 C34.87541901 83.27682551 36.17006429 87.65220716 37.54296875 92.00390625 C37.76235107 92.70459229 37.9817334 93.40527832 38.20776367 94.12719727 C39.75561438 97.78623047 42.49903662 100.24951831 46 102 C48.04570967 102.10001836 50.09467854 102.13559935 52.14282227 102.1418457 C53.43499161 102.14888016 54.72716095 102.15591461 56.05848694 102.16316223 C56.75175646 102.16497812 57.44502598 102.16679401 58.15930367 102.16866493 C60.33375271 102.17583848 62.50797714 102.19151485 64.68235779 102.21000671 C70.86576103 102.26241011 77.04904588 102.31037186 83.23266602 102.32592773 C87.01536076 102.33606727 90.79749652 102.36554824 94.57996941 102.40724754 C96.01547941 102.41948586 97.45106868 102.42469201 98.8866291 102.42244911 C107.11552454 102.41276321 113.82951791 102.7246793 121 107 C121.80953125 107.48082031 122.6190625 107.96164062 123.453125 108.45703125 C131.22506383 114.31977641 135.01812115 120.43682334 137 130 C137.44931759 135.81024625 137.38907939 141.62667448 137.3515625 147.45117188 C137.36703125 148.60810547 137.3825 149.76503906 137.3984375 150.95703125 C137.39505371 151.99835205 137.39166992 153.03967285 137.38818359 154.11254883 C138.28061332 158.32434708 139.40404276 159.58892901 143 162 C147.09779664 162.74535149 151.14454788 162.72117814 155.30078125 162.70703125 C157.08804878 162.72971321 157.08804878 162.72971321 158.91142273 162.75285339 C162.71197338 162.79579421 166.51173073 162.80457523 170.3125 162.8125 C172.89129723 162.83563911 175.47007552 162.86100321 178.04882812 162.88867188 C184.36589289 162.9515877 190.68264684 162.98647104 197 163 C197.08863564 161.98652496 197.08863564 161.98652496 197.17906189 160.95257568 C197.26168777 160.06040344 197.34431366 159.1682312 197.42944336 158.24902344 C197.50915878 157.36712341 197.58887421 156.48522339 197.67100525 155.57659912 C198.13883966 151.91264484 199.2104358 148.67143311 200.5625 145.25 C200.82281006 144.57461182 201.08312012 143.89922363 201.35131836 143.20336914 C205.25598377 133.44341568 210.6331198 124.35653026 217 116 C216.21496094 115.66355469 216.21496094 115.66355469 215.4140625 115.3203125 C212.1244268 113.52112663 209.29226479 111.2100766 206.375 108.875 C205.75906982 108.38870117 205.14313965 107.90240234 204.50854492 107.40136719 C201.62886038 105.12275461 198.781677 102.81736171 195.96484375 100.4609375 C195.08957031 99.73132813 194.21429687 99.00171875 193.3125 98.25 C192.54550781 97.59515625 191.77851563 96.9403125 190.98828125 96.265625 C190.33214844 95.84796875 189.67601562 95.4303125 189 95 C185.44769221 96.1841026 184.75853234 97.29587186 182.5625 100.25 C181.95148438 101.05953125 181.34046875 101.8690625 180.7109375 102.703125 C180.14632813 103.46109375 179.58171875 104.2190625 179 105 C175.23728814 109.88135593 175.23728814 109.88135593 173 111 C169.52031998 111.25775408 166.86656941 111.36487133 163.625 110 C161.66791621 107.59128149 160.75757959 105.46359435 160.53125 102.3515625 C161.50042654 97.48952684 165.30243214 94.11274483 168.57177734 90.56542969 C171.11972541 87.77270439 173.54834267 84.87709659 176 82 C177.02719896 80.80586502 178.05454121 79.61185328 179.08203125 78.41796875 C181.65630035 75.4142354 184.18380577 72.3754837 186.6875 69.3125 C187.40035156 68.44496094 188.11320312 67.57742188 188.84765625 66.68359375 C190.36928412 64.78639167 191.85293025 62.85843007 193.30859375 60.91015625 C194.45521484 59.40775391 194.45521484 59.40775391 195.625 57.875 C196.29789063 56.96492188 196.97078125 56.05484375 197.6640625 55.1171875 C200.72947284 52.338839 202.92086133 52.13565943 207 52 C209.94755732 53.34562399 211.54277272 54.08554544 213 57 C213.55350035 61.41172338 213.2945705 64.07789007 210.6640625 67.60546875 C209.66799676 68.8136596 208.65438453 70.00756798 207.625 71.1875 C206.61422542 72.38683278 205.60631567 73.58858699 204.6015625 74.79296875 C203.90595215 75.62320557 203.90595215 75.62320557 203.19628906 76.47021484 C201.83942511 78.20533924 200.83901653 79.96311048 200 82 C208.97764324 89.36090664 217.98632528 96.68329705 227 104 C230.39257424 102.37661154 233.0118659 100.43823518 235.9375 98.0625 C254.93961454 83.42038725 278.36687656 75.02678323 302 72 C303.010625 71.86980469 304.02125 71.73960937 305.0625 71.60546875 C321.1590282 70.00009692 338.10251779 69.9817078 354 73 C355.67529947 73.27379767 357.35113016 73.54435548 359.02734375 73.8125 C386.44109815 78.31747258 412.54658197 87.83514098 437 101 C437.70108887 101.37060547 438.40217773 101.74121094 439.12451172 102.12304688 C462.57205824 114.54709401 484.03685476 129.99885656 503.6484375 147.8671875 C506.43058519 150.39053075 509.26425028 152.84955122 512.11328125 155.296875 C514 157 514 157 515.99414062 159.57324219 C520.27128016 163.02635841 523.64133807 162.64422354 528.98046875 162.53125 C529.9484993 162.53451294 530.91652985 162.53777588 531.91389465 162.5411377 C536.04109733 162.55425871 540.16721001 162.50978196 544.29418945 162.47021484 C547.31494814 162.44958878 550.33468061 162.4586179 553.35546875 162.46875 C554.27249069 162.44913208 555.18951263 162.42951416 556.13432312 162.40930176 C564.74182008 162.44342483 571.48105009 165.52309547 577.875 171.25 C583.76869295 177.72888232 585.70829869 184.29906984 585.38671875 193.00390625 C584.43444416 200.38162961 581.46116245 206.89500032 576 212 C569.73637723 215.69393138 564.08568905 218.01505566 556.8125 218.5625 C555.72582031 218.64628906 554.63914062 218.73007812 553.51953125 218.81640625 C552.68808594 218.87699219 551.85664062 218.93757812 551 219 C550.72349609 220.04220703 550.72349609 220.04220703 550.44140625 221.10546875 C542.33136278 249.54468786 526.94331474 279.64063852 503 298 C503.76699219 297.9278125 504.53398438 297.855625 505.32421875 297.78125 C528.34280367 295.85635091 547.89185923 297.19078942 569.375 306 C570.36294556 306.40333557 570.36294556 306.40333557 571.37084961 306.81481934 C573.26064023 307.59312804 575.14308156 308.38669981 577.0234375 309.1875 C578.12606934 309.65542969 579.22870117 310.12335938 580.36474609 310.60546875 C583 312 583 312 585 315 C585.66115702 321.94214876 585.66115702 321.94214876 583.4375 325.5 C580.02078651 327.60259292 578.00412607 327.34060815 574 327 C570.68318417 325.94210243 567.54556224 324.55670701 564.375 323.125 C562.71620065 322.39831236 561.05734805 321.67174626 559.3984375 320.9453125 C557.93215169 320.29719158 556.4659859 319.64879899 555 319 C533.48583267 309.57959537 508.97963341 313.26578823 487.84277344 321.40258789 C484.88106056 322.57319859 481.93085238 323.76817859 478.984375 324.9765625 C451.33643532 336.2649546 421.96813777 331.90882742 395 321 C393.24914678 320.25199398 391.49894639 319.50245368 389.75 318.75 C365.77675033 309.19365305 340.48424814 313.88352864 317.5 323.625 C316.64100098 324.00906006 315.78200195 324.39312012 314.89697266 324.78881836 C302.9034955 330.07452654 291.54304277 331.49042516 278.5 331.375 C276.53353516 331.39240234 276.53353516 331.39240234 274.52734375 331.41015625 C258.86619438 331.3634994 244.16969463 327.07008122 229.8125 321 C207.99286473 311.99826637 184.03814969 311.01656824 162 319.9375 C158.85612334 321.24902625 155.75415145 322.62740565 152.69921875 324.13671875 C132.87589252 333.87516833 102.94338066 334.87377252 82.07666016 327.75830078 C76.20974567 325.61597344 70.4102102 323.33128167 64.65625 320.90234375 C39.4594067 310.37881659 14.65898557 312.37403462 -10.25 322.5 C-11.39774902 322.98702393 -12.54549805 323.47404785 -13.72802734 323.97583008 C-26.33873965 329.26171958 -38.24305994 331.53307853 -51.90405273 331.44604492 C-53.93380887 331.43751551 -55.96075174 331.46647769 -57.99023438 331.49804688 C-70.57239797 331.56583124 -81.63598533 328.53744182 -93.3125 324 C-93.98144287 323.74436279 -94.65038574 323.48872559 -95.33959961 323.2253418 C-98.95254281 321.83702481 -102.51032715 320.34746211 -106.0625 318.8125 C-129.34398774 309.58484566 -153.73146704 313.61588743 -176.29296875 322.5390625 C-179.73620051 323.89603687 -183.18841262 325.17018603 -186.6875 326.375 C-187.59886719 326.69210937 -188.51023438 327.00921875 -189.44921875 327.3359375 C-192.14423223 328.03754897 -194.23117718 328.31379992 -197 328 C-200.25506286 324.96194133 -201.7158895 323.26558314 -202.6875 318.9375 C-201.73813198 314.88110938 -199.36956912 313.17730663 -196 311 C-192.90733155 309.5895627 -189.73434273 308.53718744 -186.5 307.5 C-184.70677042 306.90312681 -182.91380249 306.30546695 -181.12109375 305.70703125 C-180.24694824 305.41908691 -179.37280273 305.13114258 -178.47216797 304.83447266 C-176.30629438 304.10338872 -174.16940211 303.32959681 -172.03515625 302.51171875 C-156.04424412 296.41394686 -140.90826508 296.74306552 -124 297 C-124.44730469 296.07960938 -124.89460938 295.15921875 -125.35546875 294.2109375 C-131.37159112 281.68417117 -135.81438215 268.99250684 -139.5456543 255.62304688 C-142.00498684 246.8402785 -144.71101894 238.13834616 -147.46020508 229.44238281 C-147.79044678 228.38631836 -148.12068848 227.33025391 -148.4609375 226.2421875 C-148.90638916 224.83235596 -148.90638916 224.83235596 -149.36083984 223.39404297 C-150 221 -150 221 -150 218 C-150.76183594 218.04640625 -151.52367187 218.0928125 -152.30859375 218.140625 C-162.71976887 218.50456121 -169.59716948 216.09519594 -177.2734375 209 C-182.29354249 203.18485575 -184.50664925 195.22941193 -184.40625 187.63671875 C-183.24959071 180.12955506 -179.02948409 172.69736519 -172.89453125 168.1796875 C-172.26933594 167.79039062 -171.64414063 167.40109375 -171 167 C-170.34386719 166.59007812 -169.68773437 166.18015625 -169.01171875 165.7578125 C-162.53239173 162.32270311 -156.18395909 162.6002743 -149 163 C-148.979375 161.948125 -148.95875 160.89625 -148.9375 159.8125 C-147.48655067 148.42657817 -138.6893913 136.72227034 -130.05859375 129.55859375 C-119.98275239 121.98708104 -108.55747014 116.86012946 -95.83276367 116.88647461 C-94.61187546 116.88655014 -93.39098724 116.88662567 -92.13310242 116.88670349 C-90.82460831 116.89186478 -89.5161142 116.89702606 -88.16796875 116.90234375 C-86.80748039 116.90421039 -85.44699135 116.90563313 -84.08650208 116.90663147 C-80.51744713 116.91043725 -76.94843331 116.92025086 -73.37939453 116.93133545 C-69.73275305 116.94159137 -66.08610489 116.94613803 -62.43945312 116.95117188 C-55.29295199 116.96187497 -48.14647869 116.97892796 -41 117 C-41.00888245 115.73990112 -41.01776489 114.47980225 -41.0269165 113.18151855 C-41.10808134 101.29341562 -41.16800351 89.40536907 -41.20724869 77.5170517 C-41.22810348 71.40545585 -41.25638322 65.29408408 -41.30175781 59.18261719 C-41.34528984 53.28225 -41.36915296 47.38209806 -41.37950897 41.48158264 C-41.38688706 39.23296217 -41.40129475 36.98435317 -41.42292023 34.73582458 C-41.45205126 31.58078762 -41.45595185 28.42663468 -41.45410156 25.27148438 C-41.46848267 24.34647125 -41.48286377 23.42145813 -41.49768066 22.46841431 C-41.45187499 15.22734234 -39.6485372 9.98493459 -34.81640625 4.5390625 C-34.07261719 3.90742188 -33.32882812 3.27578125 -32.5625 2.625 C-31.82128906 1.97789062 -31.08007812 1.33078125 -30.31640625 0.6640625 C-21.70924754 -5.51915775 -9.29335539 -4.2488457 0 0 Z " fill="#040404" transform="translate(320,324)"/>
<path d="M0 0 C1.80730591 -0.00507568 1.80730591 -0.00507568 3.65112305 -0.01025391 C4.92640869 0.01246582 6.20169434 0.03518555 7.515625 0.05859375 C8.83022705 0.07615723 10.1448291 0.0937207 11.49926758 0.11181641 C27.91847155 0.45820884 41.0721269 3.57133087 56.24487305 9.82763672 C68.14075069 14.69475848 79.21172066 17.05244341 92.078125 16.93359375 C93.26092041 16.92457031 94.44371582 16.91554688 95.66235352 16.90625 C110.87483662 16.60614759 123.27392568 12.06199602 137.1796875 6.33203125 C157.86177894 -2.09400601 186.69908571 -3.32212259 207.765625 4.49609375 C209.14572754 5.00317871 209.14572754 5.00317871 210.55371094 5.52050781 C214.7132152 7.06003888 218.86804545 8.60560182 222.99365234 10.23413086 C234.4945169 14.73903782 244.82032305 16.99838697 257.203125 16.87109375 C258.32783203 16.88269531 259.45253906 16.89429688 260.61132812 16.90625 C275.01278176 16.85661834 287.32283719 12.39093184 300.57226562 7.16796875 C313.33456808 2.2667722 325.46235354 -0.03385135 339.09692383 0.05004883 C341.19907298 0.05857731 343.29850573 0.02962288 345.40039062 -0.00195312 C360.02089834 -0.08177255 372.69728774 4.27892994 386.203125 9.62109375 C396.18111876 13.42138524 405.0167933 16.2061875 415.765625 16.49609375 C416.86874023 16.53718262 416.86874023 16.53718262 417.99414062 16.57910156 C434.46362755 17.14725095 448.46714447 13.91435735 463.7890625 7.94140625 C464.46428955 7.68004883 465.1395166 7.41869141 465.83520508 7.14941406 C467.70331586 6.41983705 469.56481724 5.6733998 471.42578125 4.92578125 C482.63749397 0.96781538 493.8247801 -0.05046156 505.640625 0.05859375 C506.3428418 0.06163513 507.04505859 0.06467651 507.76855469 0.06781006 C518.28839992 0.13514521 527.81270567 0.82982064 537.765625 4.49609375 C538.42900879 4.73166992 539.09239258 4.96724609 539.77587891 5.20996094 C544.47710879 6.88000545 549.12350372 8.66871902 553.765625 10.49609375 C555.7203981 11.25532466 557.67835733 12.00644855 559.640625 12.74609375 C560.40117188 13.04 561.16171875 13.33390625 561.9453125 13.63671875 C584.10749783 20.38973921 606.78435049 17.05198638 627.765625 8.49609375 C641.86100229 2.76112557 654.18373293 0.129361 669.453125 -0.06640625 C670.12277283 -0.0813916 670.79242065 -0.09637695 671.48236084 -0.11181641 C673.41370742 -0.14736157 675.34568639 -0.14074437 677.27734375 -0.1328125 C678.97056763 -0.13390015 678.97056763 -0.13390015 680.69799805 -0.13500977 C684.71960966 0.69235721 686.2233094 2.34052705 688.765625 5.49609375 C689.390625 8.49609375 689.390625 8.49609375 688.765625 11.49609375 C686.67795562 14.52053785 685.04289173 16.26039381 681.34716797 16.94238281 C678.35444522 17.10879055 675.38788454 17.13682497 672.390625 17.12109375 C659.4483649 17.36558022 648.20661663 18.70994863 636.25390625 24.03125 C612.63133657 33.95114208 586.86568625 38.8208915 561.765625 31.49609375 C560.73050781 31.21765625 559.69539062 30.93921875 558.62890625 30.65234375 C553.08985433 29.07170409 547.80214412 27.13288555 542.51416016 24.8684082 C517.14583888 14.0201502 492.2199313 15.4105807 466.890625 25.43359375 C435.17303448 37.96344224 407.16838605 37.00435504 375.79931641 24.08300781 C350.94326088 13.93969784 325.82948927 15.5516026 301.265625 25.55859375 C299.67151999 26.23614452 298.07775895 26.91450526 296.484375 27.59375 C269.61259641 38.83211494 241.18249596 36.26795489 214.765625 25.49609375 C213.66476562 25.03589844 212.56390625 24.57570313 211.4296875 24.1015625 C185.74134653 13.6042281 159.0626811 15.90521404 133.78369141 26.31201172 C131.94432116 27.10250469 130.10497287 27.89304874 128.265625 28.68359375 C109.05728826 36.43611102 85.59103361 37.28778615 65.765625 31.49609375 C64.66089844 31.19445312 63.55617188 30.8928125 62.41796875 30.58203125 C57.30837672 29.11190302 52.56848363 27.46651477 47.828125 25.05859375 C33.29908234 18.3062473 17.42296382 16.88275625 1.6015625 16.94824219 C0.5084375 16.94211914 -0.5846875 16.93599609 -1.7109375 16.9296875 C-2.68111816 16.94056396 -3.65129883 16.95144043 -4.65087891 16.96264648 C-7.97743997 16.36190388 -9.14368373 15.09111182 -11.234375 12.49609375 C-11.80078125 10.49609375 -11.80078125 10.49609375 -11.796875 8.49609375 C-11.81878906 7.83609375 -11.84070313 7.17609375 -11.86328125 6.49609375 C-10.13350661 0.99519551 -5.13496525 -0.00880586 0 0 Z " fill="#050505" transform="translate(174.234375,667.50390625)"/>
<path d="M0 0 C1.17731689 0.28085449 1.17731689 0.28085449 2.37841797 0.56738281 C45.64089692 11.03717396 84.98111472 33.80570679 118.6875 62.4375 C119.28836426 62.94595459 119.88922852 63.45440918 120.50830078 63.97827148 C123.08994478 66.20021487 125.09873736 68.14810604 127 71 C115.62110856 71.30243619 104.24318666 71.53280388 92.86108112 71.67355824 C87.57447263 71.7411487 82.29063114 71.83266432 77.00561523 71.98071289 C71.89600563 72.12293688 66.78904018 72.19988789 61.67760277 72.23340416 C59.7369545 72.25725659 57.79643634 72.30383997 55.85692787 72.37449074 C39.87481957 72.93302609 39.87481957 72.93302609 34.04623413 68.18856812 C31.22731152 65.52432348 28.80414117 62.6176671 26.39282799 59.58710289 C12.41268075 43.65697205 -16.11422462 34.28047157 -36.35302734 32.83154297 C-67.23218844 31.35463292 -94.71159698 40.68907401 -118 61 C-121.44613509 64.14374244 -124.40991879 67.11487818 -127 71 C-129.79736328 71.34057617 -129.79736328 71.34057617 -133.3203125 71.29296875 C-134.57714844 71.28330078 -135.83398438 71.27363281 -137.12890625 71.26367188 C-139.10697266 71.2259668 -139.10697266 71.2259668 -141.125 71.1875 C-142.46482903 71.17245483 -143.80467404 71.15876613 -145.14453125 71.14648438 C-148.43008842 71.11102872 -151.71484582 71.06160849 -155 71 C-153.46391007 63.54458716 -151.88696452 56.56348024 -148.3125 49.8125 C-147.78922119 48.80098877 -147.78922119 48.80098877 -147.25537109 47.76904297 C-144.14358487 41.93531711 -140.48582197 36.86724122 -136 32 C-135.25105469 31.17113281 -134.50210938 30.34226562 -133.73046875 29.48828125 C-119.77365545 14.76485784 -101.3967539 5.37265337 -82 0 C-81.34837891 -0.19609863 -80.69675781 -0.39219727 -80.02539062 -0.59423828 C-55.36075584 -7.81070918 -24.68305461 -6.16196802 0 0 Z " fill="#FCFCFC" transform="translate(688,416)"/>
<path d="M0 0 C44.55 0 89.1 0 135 0 C129.10869565 17.67391304 129.10869565 17.67391304 125.25 25.625 C124.6010376 26.96800171 124.6010376 26.96800171 123.93896484 28.33813477 C115.5067343 45.39192852 103.31760802 60.66542527 88 72 C87.22527344 72.60070312 86.45054687 73.20140625 85.65234375 73.8203125 C67.41168322 87.40183937 43.39312096 96.35395615 20.50732422 94.40527344 C14.30130775 93.4021588 8.64752765 90.63711293 2.94140625 88.10546875 C-7.45589456 83.51884641 -18.84263794 80.97953198 -30 79 C-29.360625 78.360625 -28.72125 77.72125 -28.0625 77.0625 C-27.60746094 76.60230469 -27.15242187 76.14210938 -26.68359375 75.66796875 C-25.44581731 74.4416798 -24.18432553 73.23921204 -22.91015625 72.05078125 C-10.40226429 60.14155762 -5.04314634 46.39022561 0 30 C0 20.1 0 10.2 0 0 Z " fill="#FDFDFD" transform="translate(719,542)"/>
<path d="M0 0 C5.30936394 0.34253961 9.24301723 1.50034105 12.93359375 5.45703125 C18.28306313 13.15294797 20.09582141 23.9325087 22.6328125 32.89453125 C25.55652921 43.16321293 28.50941033 53.4224051 31.55224609 63.65649414 C32.10610847 65.52861472 32.65451266 67.40235779 33.19775391 69.27758789 C38.25538548 88.39031248 38.25538548 88.39031248 51.62890625 102.09375 C56.38576102 104.54249611 59.98024183 105.49783716 65.37426758 105.48950195 C67.31702324 105.4950988 67.31702324 105.4950988 69.29902649 105.50080872 C69.98642725 105.49850565 70.67382801 105.49620258 71.3820591 105.49382973 C73.5481648 105.48820692 75.71374085 105.49744369 77.87980652 105.5110321 C84.03586209 105.54803198 90.19173656 105.56672838 96.34790039 105.55541992 C100.12112062 105.54954108 103.89359425 105.56796161 107.66666222 105.60130882 C109.09743855 105.60921965 110.5282972 105.60804477 111.95905495 105.59728432 C126.74459687 105.49088496 126.74459687 105.49088496 132.875 111.25 C137.59237486 116.72137071 137.32954329 122.26770995 136.875 129.25 C133.9246677 128.13504884 131.08612074 126.88558044 128.265625 125.48046875 C118.37699704 120.57517145 108.60493867 116.85651927 97.875 114.25 C96.86308594 114.00378906 95.85117187 113.75757813 94.80859375 113.50390625 C69.12850659 108.32502915 39.64197729 114.57088965 17.70166016 128.64404297 C4.00700271 137.74827288 4.00700271 137.74827288 -6.125 150.25 C-42.425 150.25 -78.725 150.25 -116.125 150.25 C-114.6699049 141.51942942 -110.6258123 134.89200937 -103.6875 129.3125 C-95.428034 123.45094348 -87.25281167 120.00527671 -76.96801758 119.99462891 C-76.29067062 119.99100845 -75.61332367 119.987388 -74.91545105 119.98365784 C-73.45812632 119.97681182 -72.00077623 119.97424931 -70.54343605 119.97560501 C-68.23546331 119.97657685 -65.92794786 119.96355407 -63.62004089 119.94662476 C-57.06321632 119.90053039 -50.5064442 119.87572636 -43.94946289 119.86914062 C-39.92765153 119.86412883 -35.90632647 119.83990788 -31.88467979 119.80381393 C-30.35570887 119.7940189 -28.82667109 119.79168242 -27.29767799 119.79698563 C-25.16252045 119.80404982 -23.02881869 119.78679435 -20.89379883 119.76416016 C-19.07347893 119.7598851 -19.07347893 119.7598851 -17.21638489 119.75552368 C-14.12226179 119.43684528 -14.12226179 119.43684528 -11.73110962 117.86665344 C-9.18075719 113.71165159 -9.59665834 109.65016728 -9.65844727 104.86938477 C-9.65614105 103.81369293 -9.65383484 102.7580011 -9.65145874 101.6703186 C-9.6488282 99.378056 -9.65528116 97.08576919 -9.66971016 94.79355049 C-9.69155651 91.16645888 -9.68789246 87.54020313 -9.67723083 83.91307068 C-9.65553702 74.9047874 -9.67294935 65.89668864 -9.69873047 56.88842773 C-9.72010921 49.27759416 -9.72210971 41.66729528 -9.69581413 34.05647087 C-9.69145517 30.48152405 -9.71612833 26.90749927 -9.74134827 23.33265686 C-9.73607806 21.14177028 -9.72935598 18.95088655 -9.72094727 16.76000977 C-9.743312 15.26755486 -9.743312 15.26755486 -9.76612854 13.74494934 C-9.71708093 9.00759438 -9.69359034 6.96095441 -6.6502533 3.15562439 C-5.81691971 2.52676834 -4.98358612 1.89791229 -4.125 1.25 C-3.125 0.25 -3.125 0.25 0 0 Z " fill="#FBFBFA" transform="translate(304.125,336.75)"/>
<path d="M0 0 C16.14205947 -0.32758018 32.28303542 -0.57417194 48.42761898 -0.72537041 C55.92463963 -0.79745389 63.41959121 -0.89564597 70.9152832 -1.05615234 C77.45156446 -1.19604754 83.98634743 -1.28609284 90.52408415 -1.31723893 C93.98425714 -1.33543996 97.44014578 -1.37792801 100.89893913 -1.48022079 C121.9533729 -2.07945876 121.9533729 -2.07945876 127.02260208 1.38051605 C130.56816597 5.08963903 132.24819967 9.24358912 134 14 C143.33620075 28.15490067 160.59214192 35.65441659 176 41 C175.67 41.66 175.34 42.32 175 43 C167.96113215 43.2059883 160.92306351 43.34422419 153.88183594 43.43945312 C151.49612398 43.47922568 149.1106009 43.53346531 146.72558594 43.60351562 C131.14490326 44.04905239 119.05340071 42.76377438 104.96411133 35.93188477 C84.78010317 26.35545728 57.35592754 25.07907122 36.19677734 32.13378906 C33.70266479 33.1172422 31.35142291 34.28630181 28.95703125 35.4921875 C13.07856933 43.11200068 -0.90942367 43.9002894 -18.375 43.75 C-19.50928436 43.74117798 -20.64356873 43.73235596 -21.81222534 43.7232666 C-25.07099814 43.68590326 -28.32789375 43.62464116 -31.5859375 43.546875 C-33.07183632 43.51466858 -33.07183632 43.51466858 -34.5877533 43.48181152 C-35.50544998 43.45010864 -36.42314667 43.41840576 -37.36865234 43.38574219 C-38.1695932 43.36002136 -38.97053406 43.33430054 -39.79574585 43.30780029 C-42.21189799 42.97041073 -43.89221977 42.20252263 -46 41 C-46 40.34 -46 39.68 -46 39 C-44.44152344 38.36384766 -44.44152344 38.36384766 -42.8515625 37.71484375 C-34.55196383 34.25468446 -27.06700388 30.66380816 -20 25 C-19.30648438 24.46890625 -18.61296875 23.9378125 -17.8984375 23.390625 C-11.12127358 17.89562723 -6.16583884 10.87412325 -1.88378906 3.32226562 C-0.95131348 1.67774414 -0.95131348 1.67774414 0 0 Z " fill="#FAFAFA" transform="translate(449,593)"/>
<path d="M0 0 C14.05558316 -0.32773553 28.11057039 -0.57331502 42.16919613 -0.72537041 C48.69788777 -0.79836245 55.2240088 -0.89730608 61.7512207 -1.05615234 C68.05382463 -1.20856807 74.35396122 -1.29203526 80.65826607 -1.3282814 C83.05993062 -1.35409997 85.46146369 -1.40452503 87.8620739 -1.48022079 C106.22196472 -2.0359798 106.22196472 -2.0359798 110.85344315 1.35836029 C114.27747078 5.10739908 116.01838545 9.38277375 118 14 C122.06521594 19.39373971 126.30098088 23.43811305 132 27 C132 27.66 132 28.32 132 29 C130.9584375 29.21914063 129.916875 29.43828125 128.84375 29.6640625 C117.95815893 32.03984531 107.00543614 34.87763868 97.04074097 40.00891113 C91.00594222 43.03685948 85.91744468 43.58845101 79.2265625 43.53125 C78.22217133 43.5350769 77.21778015 43.53890381 76.18295288 43.54284668 C74.07020051 43.54555379 71.95741393 43.53827737 69.84472656 43.52148438 C66.6405016 43.50010344 63.43853012 43.5213047 60.234375 43.546875 C58.16926596 43.54423063 56.1041583 43.53910341 54.0390625 43.53125 C53.0960025 43.53934692 52.1529425 43.54744385 51.18130493 43.55578613 C36.8151206 43.35697259 24.60065366 36.10016102 14.3203125 26.48046875 C8.5685563 20.33170581 0 8.78023655 0 0 Z " fill="#FBFBFB" transform="translate(202,593)"/>
<path d="M0 0 C38.61 0 77.22 0 117 0 C117 9.9 117 19.8 117 30 C117.495 32.475 117.495 32.475 118 35 C82.36 35 46.72 35 10 35 C4.88043478 18.36141304 4.88043478 18.36141304 2.75 11.3125 C2.481875 10.43400391 2.21375 9.55550781 1.9375 8.65039062 C1.68484375 7.81314453 1.4321875 6.97589844 1.171875 6.11328125 C0.9459668 5.36860596 0.72005859 4.62393066 0.48730469 3.85668945 C0 2 0 2 0 0 Z " fill="#FCFCFC" transform="translate(187,542)"/>
<path d="M0 0 C36.63 0 73.26 0 111 0 C111 11.55 111 23.1 111 35 C74.37 35 37.74 35 0 35 C0.495 30.545 0.495 30.545 1 26 C1.08721688 23.35527632 1.13028703 20.70865612 1.125 18.0625 C1.12757813 16.77472656 1.13015625 15.48695313 1.1328125 14.16015625 C0.98172094 9.42743527 0.47116326 4.7116326 0 0 Z " fill="#FCFCFB" transform="translate(456,542)"/>
<path d="M0 0 C1.75824097 0.00966797 1.75824097 0.00966797 3.55200195 0.01953125 C20.37309754 0.36932351 34.3662991 5.24221332 48.875 13.5 C50.14730469 14.22316406 50.14730469 14.22316406 51.4453125 14.9609375 C67.10771758 24.6727514 81.43950584 40.97577043 86.5625 58.90625 C86.665625 59.4321875 86.76875 59.958125 86.875 60.5 C81.55703023 61.39072695 76.09161119 62.24983587 70.875 60.5 C66.72587173 57.07332577 64.37167636 51.98863701 61.87744141 47.31152344 C54.12647971 33.30467108 37.62011227 24.81331555 22.84375 20.1796875 C2.54337198 14.42318675 -18.13359756 16.53305087 -36.734375 26.44921875 C-46.64328415 32.44251057 -56.62938484 39.60674639 -62.015625 50.109375 C-67.19516463 59.85117169 -67.19516463 59.85117169 -70.99267578 61.12792969 C-75.43615239 61.71642743 -79.7106923 61.23280997 -84.125 60.5 C-82.59964815 50.09631812 -75.86419446 40.29929246 -69.125 32.5 C-68.58230469 31.82582031 -68.03960938 31.15164063 -67.48046875 30.45703125 C-51.26374431 10.82226184 -25.12939189 -0.14664464 0 0 Z " fill="#F9F9F8" transform="translate(642.125,464.5)"/>
<path d="M0 0 C1.13219971 -0.01409912 2.26439941 -0.02819824 3.4309082 -0.04272461 C11.14834182 0.00159944 17.99674561 1.13944912 25.375 3.375 C26.10509277 3.59397949 26.83518555 3.81295898 27.58740234 4.03857422 C42.3056103 8.71815337 54.42376053 16.46100964 65.375 27.375 C66.51195312 28.47714844 66.51195312 28.47714844 67.671875 29.6015625 C72.40342973 34.47995859 76.0071287 39.69621186 79.375 45.5625 C79.76115479 46.22773682 80.14730957 46.89297363 80.54516602 47.57836914 C82.91742334 51.89434351 83.96728126 55.46326326 84.375 60.375 C79.02684906 61.26283533 74.64227916 61.57306851 69.375 60.375 C65.84913242 56.73992413 63.7901523 52.68926546 61.44628906 48.23925781 C52.52753286 32.71883339 34.93403392 24.07904441 18.48046875 19.13671875 C-2.38752855 14.01815337 -23.26805119 17.42376882 -41.625 28.375 C-54.30598005 36.58055081 -62.81024446 46.92022625 -69.625 60.375 C-74.905 60.375 -80.185 60.375 -85.625 60.375 C-82.03801255 42.44006274 -68.12429742 26.54633537 -53.6015625 16.2265625 C-36.59179817 5.26471437 -20.19901666 0.18468454 0 0 Z " fill="#F9F9F8" transform="translate(380.625,464.625)"/>
<path d="M0 0 C18.67157236 -0.11682846 37.3430705 -0.20498574 56.01493263 -0.25906086 C64.68472134 -0.28483686 73.35428288 -0.31997568 82.02392578 -0.37719727 C89.5808599 -0.42705092 97.13762949 -0.45929541 104.69472349 -0.47044247 C108.69582511 -0.47695799 112.69645607 -0.49225808 116.69740677 -0.52865028 C120.46496147 -0.56264122 124.23185258 -0.57304701 127.99954605 -0.56553841 C129.38063669 -0.5669116 130.76174998 -0.57682656 132.14270782 -0.59602737 C143.87427605 -0.75111321 143.87427605 -0.75111321 147.8062439 2.41047668 C150.3571643 5.42159896 150.9233283 6.33551191 151.375 10.25 C150.88072704 15.19272958 149.46171699 16.53828301 146 20 C143.39744739 21.3012763 141.51180181 21.12293904 138.59640503 21.12025452 C137.44933075 21.12162918 136.30225647 21.12300385 135.12042236 21.12442017 C133.85591248 21.12082489 132.59140259 21.11722961 131.28857422 21.11352539 C129.9483948 21.11324343 128.60821522 21.11340143 127.26803589 21.1139679 C123.62362899 21.11425551 119.97925483 21.10836451 116.33485556 21.10139394 C112.52850605 21.09515451 108.72215584 21.09455613 104.915802 21.09336853 C97.70517041 21.09025696 90.49455392 21.0820459 83.28392899 21.07201904 C75.07606021 21.06085251 66.86819071 21.05534609 58.66031623 21.05032361 C41.7735354 21.03986316 24.8867693 21.02226707 8 21 C7.59007812 19.90300781 7.18015625 18.80601562 6.7578125 17.67578125 C6.21357114 16.22134314 5.66929867 14.76691667 5.125 13.3125 C4.72087891 12.2306543 4.72087891 12.2306543 4.30859375 11.12695312 C4.04433594 10.42119141 3.78007813 9.71542969 3.5078125 8.98828125 C3.26691895 8.34415283 3.02602539 7.70002441 2.77783203 7.03637695 C1.87786446 4.68024716 0.94159204 2.33976739 0 0 Z " fill="#FEFEFE" transform="translate(738,504)"/>
<path d="M0 0 C0.24828873 4.4470421 0.42909832 8.89036894 0.54931641 13.34228516 C0.59943968 14.85406764 0.66756841 16.36536913 0.75439453 17.87548828 C1.0272989 22.74602866 1.11061041 27.22809179 0 32 C-2.34491999 34.44346409 -4.33478606 35.58389983 -7.44995117 36.87255859 C-13.54162986 39.56584459 -17.5810386 46.00611335 -20 52 C-20.36263912 54.84764916 -20.33058392 57.6342344 -20.25 60.5 C-20.24226562 61.60021484 -20.24226562 61.60021484 -20.234375 62.72265625 C-20.18773097 65.98190757 -20.06456391 68.76148491 -19.20629883 71.93212891 C-19 75 -19 75 -20.81420898 77.60888672 C-21.69923096 78.45725098 -22.58425293 79.30561523 -23.49609375 80.1796875 C-23.96362564 80.63731476 -24.43115753 81.09494202 -24.91285706 81.56643677 C-26.40542049 83.01990929 -27.9204577 84.44713893 -29.4375 85.875 C-30.45535901 86.8577381 -31.47165568 87.84209713 -32.48632812 88.828125 C-34.97305296 91.23780091 -37.48053107 93.62452785 -40 96 C-43 95 -43 95 -44.46484375 92.734375 C-52.49543868 76.46017201 -56.42309642 60.32507632 -50.9375 42.5625 C-45.4025351 26.41984429 -35.1760815 13.52760848 -20.09765625 5.40234375 C-13.67236886 2.49354404 -7.09809553 0 0 0 Z " fill="#FAFAF9" transform="translate(635,498)"/>
<path d="M0 0 C1.06293274 -0.00137466 2.12586548 -0.00274933 3.2210083 -0.00416565 C4.3920108 -0.00057037 5.56301331 0.0030249 6.76950073 0.00672913 C7.99874268 0.0065831 9.22798462 0.00643707 10.49447632 0.00628662 C13.87030712 0.00686498 17.24607718 0.01188915 20.62189722 0.01886058 C24.14797443 0.02510093 27.6740524 0.02569846 31.20013428 0.02688599 C37.87952694 0.02999728 44.55890329 0.03820797 51.23828876 0.04823548 C58.84157395 0.05940285 66.44485991 0.06490864 74.04815125 0.06993091 C89.69079153 0.08039074 105.33341551 0.0979863 120.9760437 0.12025452 C119.47028812 4.68143913 117.79850525 9.1155045 115.9760437 13.55775452 C114.87389792 16.38200308 113.92629317 19.24179051 112.9760437 22.12025452 C98.08556905 22.19038636 83.19510723 22.24326313 68.30450249 22.27569103 C61.39027251 22.29114919 54.47614525 22.31221846 47.5619812 22.34657288 C40.8900524 22.37970785 34.2182524 22.39710565 27.54623795 22.40488625 C25.0001266 22.41043142 22.45402112 22.42125968 19.90795517 22.43744469 C16.34312035 22.45920563 12.77872717 22.46222192 9.21383667 22.46083069 C8.16007339 22.47161652 7.10631012 22.48240234 6.02061462 22.49351501 C-0.37012355 22.46650813 -4.8957189 21.83139359 -9.8989563 17.49525452 C-11.6701664 13.75603319 -11.69611323 10.17487856 -11.0239563 6.12025452 C-7.87097077 1.07547768 -5.76208511 -0.00572772 0 0 Z " fill="#F9F9F9" transform="translate(164.02395629882813,503.87974548339844)"/>
<path d="M0 0 C16.24899151 2.3212845 29.39589533 9.39639255 40 22 C44.79583787 28.53531185 48.47800903 35.29462057 51 43 C51.22558594 43.680625 51.45117188 44.36125 51.68359375 45.0625 C56.15679329 61.35111627 51.68683516 77.09337933 45 92 C41.5275455 92 41.15902679 91.58418071 38.671875 89.3671875 C38.03636719 88.80773437 37.40085937 88.24828125 36.74609375 87.671875 C35.75802734 86.78242187 35.75802734 86.78242187 34.75 85.875 C33.45327264 84.7263958 32.15639824 83.57795757 30.859375 82.4296875 C29.90683838 81.56041626 29.90683838 81.56041626 28.93505859 80.67358398 C27.03873729 78.97176442 27.03873729 78.97176442 24.95947266 77.59399414 C22.10886827 75.56334292 20.25170883 74.23590089 19.53320312 70.70800781 C19.49004486 68.00239578 19.63467284 65.38259739 19.875 62.6875 C20.53043754 54.6670143 19.80211072 49.61994172 15 43 C13.13051104 40.71137835 13.13051104 40.71137835 11.125 39.125 C10.50882813 38.59132813 9.89265625 38.05765625 9.2578125 37.5078125 C6.36035741 35.47332725 6.36035741 35.47332725 0 33 C0 22.11 0 11.22 0 0 Z " fill="#FAFAF9" transform="translate(651,498)"/>
<path d="M0 0 C2.73060817 1.16876319 4.44397388 2.82740175 6.59765625 4.87109375 C11.19946278 9.16428435 16.00215669 13.07827692 20.98046875 16.92578125 C21.65851563 17.56773437 22.3365625 18.2096875 23.03515625 18.87109375 C23.03515625 19.86109375 23.03515625 20.85109375 23.03515625 21.87109375 C12.26297489 31.92830732 -2.73910772 36.27238808 -17.15234375 36.24609375 C-18.07490967 36.24448242 -18.99747559 36.24287109 -19.94799805 36.24121094 C-27.57868635 36.10500826 -33.89825105 34.88189679 -40.96484375 31.87109375 C-41.75246094 31.54753906 -42.54007813 31.22398437 -43.3515625 30.890625 C-47.76518158 28.89185111 -50.57825546 26.39105795 -53.96484375 22.87109375 C-53.36422119 22.27570801 -52.76359863 21.68032227 -52.14477539 21.06689453 C-49.91946281 18.85861516 -47.69640337 16.64809932 -45.47485352 14.43603516 C-44.5125368 13.47874994 -43.54932483 12.52236381 -42.58520508 11.56689453 C-41.2002893 10.19409587 -39.81884384 8.81779903 -38.4375 7.44140625 C-37.60484619 6.61398926 -36.77219238 5.78657227 -35.91430664 4.93408203 C-33.92043835 3.02334182 -33.92043835 3.02334182 -32.96484375 0.87109375 C-30.67455223 1.39962256 -28.63623835 2.01075104 -26.46484375 2.93359375 C-18.45474625 5.07915558 -11.16221651 4.73211593 -3.90234375 0.6484375 C-1.96484375 -0.12890625 -1.96484375 -0.12890625 0 0 Z " fill="#FBFBFB" transform="translate(659.96484375,583.12890625)"/>
<path d="M0 0 C0.24828873 4.4470421 0.42909832 8.89036894 0.54931641 13.34228516 C0.59943968 14.85406764 0.66756841 16.36536913 0.75439453 17.87548828 C1.0272989 22.74602866 1.11061041 27.22809179 0 32 C-2.34491999 34.44346409 -4.33478606 35.58389983 -7.44995117 36.87255859 C-13.86010573 39.70665086 -17.00715182 46.01430363 -20 52 C-30.56 52 -41.12 52 -52 52 C-49.55039296 34.85275071 -42.1434972 22.34144697 -28.6875 11.25 C-20.34074066 5.0666739 -10.55798133 -0.17864605 0 0 Z " fill="#FAFAF9" transform="translate(372,498)"/>
<path d="M0 0 C10.56 0 21.12 0 32 0 C34.475 4.95 34.475 4.95 37 10 C41.99913305 15.09345632 45.19995558 16.59997779 52 20 C52 30.56 52 41.12 52 52 C34.13511775 48.42702355 19.781209 41.53713206 9.02734375 26.18359375 C4.05116638 18.08013718 0 9.62206946 0 0 Z " fill="#FBFBFA" transform="translate(320,567)"/>
<path d="M0 0 C12.51137293 2.50227459 21.35999014 5.72920459 31 14 C32.24136719 14.94359375 32.24136719 14.94359375 33.5078125 15.90625 C42.19950183 23.2083589 47.46866856 34.40600569 51 45 C51 47.31 51 49.62 51 52 C40.44 52 29.88 52 19 52 C17.35 48.7 15.7 45.4 14 42 C11.86462259 39.55264828 11.86462259 39.55264828 9.5 38 C8.7678125 37.46375 8.035625 36.9275 7.28125 36.375 C4.64348786 34.70155058 4.64348786 34.70155058 0 33 C0 22.11 0 11.22 0 0 Z " fill="#FCFCFA" transform="translate(389,498)"/>
<path d="M0 0 C10.56 0 21.12 0 32 0 C30.16543297 16.51110326 22.6017342 29.21851629 10 40 C2.59018592 45.3747243 -4.6398664 49.48272806 -13.71875 51.07421875 C-14.70810547 51.24912842 -15.69746094 51.42403809 -16.71679688 51.60424805 C-17.84698242 51.80014526 -17.84698242 51.80014526 -19 52 C-19.24828873 47.5529579 -19.42909832 43.10963106 -19.54931641 38.65771484 C-19.59943968 37.14593236 -19.66756841 35.63463087 -19.75439453 34.12451172 C-20.02731339 29.25371286 -20.11255537 24.77177506 -19 20 C-16.64013019 17.53935665 -14.63215706 16.38233006 -11.5012207 15.07250977 C-4.92217218 12.25144972 -2.68472497 6.26435826 0 0 Z " fill="#FCFCFC" transform="translate(408,567)"/>
<path d="M0 0 C24.09 0 48.18 0 73 0 C72.34 1.98 71.68 3.96 71 6 C70.58095186 7.27699005 70.16282977 8.55428479 69.74609375 9.83203125 C69.30992831 11.15886484 68.87373002 12.48568764 68.4375 13.8125 C68.21642578 14.49248047 67.99535156 15.17246094 67.76757812 15.87304688 C66.11288597 20.88711403 66.11288597 20.88711403 65 22 C63.2507128 22.09365006 61.49763746 22.11744438 59.74584961 22.11352539 C58.62476303 22.11344986 57.50367645 22.11337433 56.34861755 22.11329651 C54.51896202 22.10555458 54.51896202 22.10555458 52.65234375 22.09765625 C51.41078018 22.0962413 50.16921661 22.09482635 48.89002991 22.09336853 C45.58394509 22.08870591 42.27792854 22.07971497 38.97186279 22.06866455 C35.6003885 22.05844827 32.22890717 22.05387045 28.85742188 22.04882812 C22.23826225 22.03777395 15.61913507 22.02101736 9 22 C8.24902565 20.20874151 7.49928538 18.41696564 6.75 16.625 C6.33234375 15.62726562 5.9146875 14.62953125 5.484375 13.6015625 C3.62158312 9.08184115 1.81556013 4.53890031 0 0 Z " fill="#F9F9F8" transform="translate(475,504)"/>
<path d="M0 0 C3.16961356 1.28133314 4.57820229 2.5200233 6.8125 5.0625 C8.57137441 9.41339986 8.79133407 13.37772156 8 18 C6.30339954 21.41414661 3.9306966 23.46117565 0.625 25.375 C-2.88541457 26.21081299 -5.39261308 26.49757061 -9 26 C-12.80275993 23.56469718 -15.50310738 20.74533893 -18 17 C-18.47128944 12.20855735 -18.51298393 9.9710053 -16.25 5.6875 C-11.31522225 -0.20681786 -7.47736583 -0.8861164 0 0 Z " fill="#F7F7F7" transform="translate(385,546)"/>
<path d="M0 0 C3.43403788 2.00011167 6.21175747 4.42351494 8 8 C8.54280937 14.40515061 7.8679143 17.80885186 4 23 C-0.31733382 25.9741633 -3.81076076 26.6486549 -9 26 C-13.86987836 23.56506082 -16.21711438 21.15055847 -18 16 C-18.93129227 9.48095408 -18.93129227 9.48095408 -16.72265625 5.96875 C-11.81891465 0.11783093 -7.65281391 -1.24501002 0 0 Z " fill="#F6F7F7" transform="translate(648,546)"/>
</svg>
