<svg xmlns="http://www.w3.org/2000/svg" viewBox="0 0 750 500"><path d="M0 250h750v250H0z" style="opacity:1;fill:#da121a;fill-opacity:1;fill-rule:nonzero;stroke:none;stroke-width:10.528479580000001;stroke-linecap:butt;stroke-linejoin:miter;marker:none;marker-start:none;marker-mid:none;marker-end:none;stroke-miterlimit:4;stroke-dasharray:none;stroke-dashoffset:0;stroke-opacity:1;visibility:visible;display:inline;overflow:visible"/><path d="M0 0h750v250H0z" style="opacity:1;fill:#fff;fill-opacity:1;fill-rule:nonzero;stroke:none;stroke-width:10.528479580000001;stroke-linecap:butt;stroke-linejoin:miter;marker:none;marker-start:none;marker-mid:none;marker-end:none;stroke-miterlimit:4;stroke-dasharray:none;stroke-dashoffset:0;stroke-opacity:1;visibility:visible;display:inline;overflow:visible"/><path d="M370.46-263.26c29.594 0 55.929 4.446 73.083 11.345 9.817 4.497 22.998 8.246 37.425 10.203 10.988 1.493 21.429 1.798 30.51 1.092 12.145-.24 29.712 8.067 47.283 15.918 14.544 6.548 26.684 14.508 34.748 22.213l-6.979-1.381-2.018 17.908-19.145 22.246-9.566 8.237-22.661 18.41-11.576.96-3.52 10.162-146.616-17.43-147.064 17.43-3.525-10.163-11.593-.96-22.657-18.409-9.57-8.237-19.137-22.246-1.991-17.908-7.014 1.381c8.1-7.705 20.244-15.665 34.752-22.213 17.571-7.851 35.143-15.304 47.278-15.063 9.082.705 19.527.4 30.515-1.093 14.432-1.956 27.626-6.56 37.425-11.057 17.172-6.899 42.036-11.345 71.612-11.345zm1.62 193.855c-54.625-.082-103.558-6.645-138.476-17.317-2.557-.787-3.893-3.163-3.745-5.62-.045-2.39 1.274-4.556 3.745-5.311 34.918-10.659 83.851-17.221 138.475-17.303 54.616.082 103.513 6.644 138.436 17.303 2.471.755 3.767 2.921 3.722 5.31.135 2.458-1.184 4.834-3.722 5.621-34.923 10.672-83.82 17.235-138.436 17.317" style="font-size:12px;fill:#ed1c24;fill-opacity:1;stroke:#000;stroke-width:2.95661259;stroke-miterlimit:4;stroke-opacity:1;stroke-dasharray:none" transform="translate(265.889 236.33)scale(.29414)"/><path d="M372.576-76.678c-49.296-.063-93.852-5.839-127.77-14.731 33.918-8.907 78.474-14.35 127.77-14.445 49.288.095 94.081 5.538 128 14.445-33.919 8.892-78.712 14.668-128 14.731z" style="font-size:12px;fill:#ed1c24;fill-opacity:1;stroke:#000;stroke-width:2.95661259;stroke-linejoin:round;stroke-miterlimit:4;stroke-opacity:1;stroke-dasharray:none" transform="translate(265.889 236.33)scale(.29414)"/><path d="M372.576-76.678c-49.296-.063-93.852-5.839-127.77-14.731 33.918-8.907 78.474-14.35 127.77-14.445 49.288.095 94.081 5.538 128 14.445-33.919 8.892-78.712 14.668-128 14.731" style="font-size:12px;fill:#ed1c24;fill-opacity:1;stroke:#000;stroke-width:2.95661259;stroke-miterlimit:4;stroke-opacity:1;stroke-dasharray:none" transform="translate(265.889 236.33)scale(.29414)"/><g style="fill:#ed1c24;fill-opacity:1;stroke:#000;stroke-width:3.6820426;stroke-miterlimit:4;stroke-opacity:1;stroke-dasharray:none"><path d="M1103.773 489.516V447.38m-8.553 40.992v-40.99m-8.073 40.398v-39.241m-8.003 38.097v-36.967m-7.132 36.987V449.67m-13.6 34.988-.189-33.291m6.636 33.871v-35.285m-19.004 32.777v-29.913m6.362 31.045-.189-32.458m-23.019 28.476v-24.514m5.527 25.666v-26.798m5.695 27.372V453.95m-17.126 25.074v-22.807m-5.506 21.68v-21.114m-5.905 19.684v-18.27m-12.088 15.732-.188-12.304m6.383 14V459.9m-12.39 12.624v-10.08m-5.673 9.006v-7.8m-6.195 6.1v-4.682m-6.367 2.971v-.707m162.623 23.045V445.38m-14.49 44.126.19-43.55m-10.75 42.972V446.83m85.765 42.114V447.38m8.552 40.978v-40.977m8.074 40.991v-40.99m8.003 40.418v-39.289m7.131 38.132v-36.974m13.601 36.154.188-35.035m-6.636 35.03v-35.865m19.005 32.791v-29.927m-6.362 32.203.188-33.616m23.02 29.634v-25.672m-5.528 26.238v-27.37m-5.694 27.93v-28.793m17.126 26.824v-23.978m5.506 22.266v-21.7m5.904 20.849v-19.435m12.088 16.896.19-14.633m-6.384 15.752v-17.45m12.39 14.913v-11.81m5.672 10.156v-8.963m6.195 7.842v-5.84m6.367 4.143v-3.028m-162.622 24.781V445.96m14.489 44.697-.188-44.7m10.748 44.123v-43.278" style="font-size:12px;fill:#ed1c24;fill-opacity:1;stroke:#000;stroke-width:3.6820426;stroke-miterlimit:4;stroke-opacity:1;stroke-dasharray:none" transform="matrix(.23105 0 0 .24144 109.347 95.636)"/></g><path d="M372.33-115.002c-55.28.11-104.894 7.14-139.817 18.054 2.902-1.397 2.641-5.024-.969-14.459-4.359-11.414-11.153-10.913-11.153-10.913 38.609-11.573 92.354-18.814 152.172-18.891 59.84.077 114.016 7.318 152.63 18.891 0 0-6.8-.5-11.159 10.913-3.605 9.435-3.874 13.062-.968 14.46-34.919-10.914-85.462-17.946-140.736-18.055" style="font-size:12px;fill:#eac102;fill-opacity:1;stroke:#000;stroke-width:2.95661259;stroke-miterlimit:4;stroke-opacity:1;stroke-dasharray:none" transform="translate(265.889 236.33)scale(.29414)"/><path d="M372.563-141.198c-59.818.096-113.563 7.318-152.172 18.91-2.575.783-5.297-.241-6.131-2.713-.834-2.475.552-5.315 3.126-6.116 38.775-12.07 93.906-19.647 155.19-19.774 61.298.113 116.64 7.705 155.42 19.774 2.574.8 3.96 3.64 3.125 6.116-.838 2.472-3.56 3.496-6.13 2.713-38.614-11.592-92.588-18.814-152.428-18.91" style="font-size:12px;fill:#eac102;fill-opacity:1;stroke:#000;stroke-width:2.95661259;stroke-miterlimit:4;stroke-opacity:1;stroke-dasharray:none" transform="translate(265.889 236.33)scale(.29414)"/><path d="M372.077-114.668c-54.624.082-103.56 6.652-138.478 17.31-2.47.756-3.79 2.925-3.745 5.315-.148 2.457 1.19 4.824 3.745 5.611 34.919 10.672 83.854 17.228 138.478 17.31 54.616-.082 103.526-6.638 138.449-17.31 2.538-.787 3.85-3.154 3.716-5.611.045-2.39-1.245-4.56-3.716-5.315-34.923-10.658-83.833-17.228-138.449-17.31zm-.146 9.115c49.288.096 94.085 5.524 128.004 14.43-33.919 8.893-78.716 14.663-128.004 14.727-49.296-.064-93.851-5.834-127.77-14.727 33.919-8.906 78.474-14.334 127.77-14.43z" style="font-size:12px;fill:#eac102;fill-opacity:1;stroke:#000;stroke-width:2.95661235;stroke-miterlimit:4;stroke-opacity:1;stroke-dasharray:none" transform="translate(265.889 236.33)scale(.29414)"/><path d="M238.913-89.821c34.537-9.84 81.497-15.938 133.663-16.033 52.162.095 99.356 6.194 133.893 16.033" style="font-size:12px;fill:none;stroke:#000;stroke-width:2.95661259;stroke-miterlimit:4;stroke-opacity:1;stroke-dasharray:none" transform="translate(265.889 236.33)scale(.29414)"/><path d="m372.9-198.76 5.511 1.21c-.888 2.658-1.072 5.562-1.072 8.621 0 13.634 9.822 24.728 21.913 24.728 9.705 0 17.97-7.168 20.809-17.068.318.262 2.09-8.943 3.005-8.83.767.095.686 9.563.968 9.391 1.404 12.468 10.957 20.903 21.711 20.903 12.073 0 19.198-11.034 19.198-24.695 0-1.016-.05-2.032-.166-3.017l6.862-8.108 3.686 10.334c-1.466 3.246-2.05 6.889-2.05 10.793 0 13.035 12.017 23.578 23.56 23.578 7.261 0 13.639-4.167 17.384-10.49l4.39-6.658-.033 8.167c0 8.205 2.906 15.565 9.62 16.865 0 0 7.71.567 17.921-8.997 10.221-9.563 15.85-17.485 15.85-17.485l.878 9.58s-8.48 15.64-17.714 22.015c-5.046 3.509-12.404 7.548-18.5 6.36l-13.714-5.399-15.836-4.379-30.515-4.774-45.91-5.656-21.406 1.105-27.55.229-25.36.736-21.182.338s-15.846 2.166-25.858 2.634l-21.027.983-29.778 4.405-15.201 4.38-14.026 5.034c-6.095 1.187-13.759-2.487-18.818-5.996-9.238-6.376-17.71-22.015-17.71-22.015l.888-9.58s5.633 7.922 15.836 17.485c10.22 9.58 17.92 8.997 17.92 8.997 6.714-1.3 9.616-8.66 9.616-16.865l-.031-8.167 4.39 6.659c3.74 6.322 10.14 10.489 17.388 10.489 11.539 0 21.651-10.997 21.651-24.032 0-3.904-.587-7.547-2.054-10.794l3.686-10.333 6.871 8.108c-.103.985-.166 2-.166 3.017 0 13.66 9.015 25.15 21.097 25.15 10.773 0 20.307-8.436 21.711-20.904.3.172.22-9.296.982-9.392.906-.112 2.691 9.093 2.992 8.83 2.856 9.901 11.108 17.069 20.845 17.069 12.086 0 21.876-11.094 21.876-24.728 0-3.059-.152-5.963-1.054-8.622l5.714-1.209" style="font-size:12px;fill:#eac102;fill-opacity:1;stroke:#000;stroke-width:3.2052722;stroke-miterlimit:4;stroke-opacity:1;stroke-dasharray:none" transform="translate(265.889 236.33)scale(.29414)"/><path d="m372.9-197.635 5.511 1.19c-.888 2.615-1.072 5.473-1.072 8.484 0 13.415 9.822 24.33 21.913 24.33 9.705 0 17.97-7.052 20.809-16.794.318.258 2.09-8.8 3.005-8.689.767.095.686 9.41.968 9.242 1.404 12.268 10.957 20.568 21.711 20.568 12.073 0 19.198-10.858 19.198-24.3 0-1-.05-2-.166-2.968l6.862-7.979 3.686 10.169c-1.466 3.194-2.05 6.778-2.05 10.62 0 12.827 12.017 23.2 23.56 23.2 7.261 0 13.639-4.1 17.384-10.32l4.39-6.553-.033 8.036c0 8.074 2.906 15.316 9.62 16.595 0 0 7.71.558 17.921-8.853 10.221-9.41 15.85-17.205 15.85-17.205l.878 9.427s-8.48 15.389-17.714 21.662c-5.046 3.453-12.71 7.069-18.805 5.9-6.45-1.226-11.041-7.294-13.41-14.289-4.596 3.174-10.023 5.026-15.835 5.026-12.49 0-26.38-8.036-30.82-20.136-5.746 7.273-11.081 11.747-20.463 11.747-9.974 0-19.11-5.268-24.837-13.363-5.628 6.016-13.28 9.726-21.71 9.726-11.042 0-20.89-6.347-26.474-15.926-5.575 9.579-15.414 15.926-26.438 15.926-8.427 0-16.095-3.71-21.728-9.726-5.705 8.095-14.858 13.363-24.828 13.363-9.387 0-16.626-4.92-22.375-12.194-4.436 12.1-16.418 20.583-28.913 20.583-5.816 0-11.22-1.852-15.813-5.026-2.39 6.995-6.983 13.063-13.414 14.29-6.095 1.168-13.759-2.448-18.818-5.9-9.238-6.274-17.71-21.663-17.71-21.663l.888-9.427s5.633 7.795 15.836 17.205c10.22 9.427 17.92 8.853 17.92 8.853 6.714-1.279 9.616-8.521 9.616-16.595l-.031-8.036 4.39 6.552c3.74 6.221 10.14 10.321 17.388 10.321 11.539 0 21.651-10.82 21.651-23.646 0-3.842-.587-7.427-2.054-10.621l3.686-10.169 6.871 7.98a28 28 0 0 0-.166 2.968c0 13.442 9.015 24.746 21.097 24.746 10.773 0 20.307-8.3 21.711-20.568.3.168.22-9.147.982-9.242.906-.11 2.691 8.947 2.992 8.69 2.856 9.741 11.108 16.794 20.845 16.794 12.086 0 21.876-10.916 21.876-24.331 0-3.01-.152-5.869-1.054-8.484l5.714-1.19" style="font-size:12px;fill:#eac102;fill-opacity:1;stroke:#000;stroke-width:3.17950416;stroke-miterlimit:4;stroke-opacity:1;stroke-dasharray:none" transform="translate(265.889 236.33)scale(.29414)"/><path d="M355.765-304.17c-27.883-7.01-49.68-6.964-65.673-2.618-41.346 11.235-45.462 51.732-31.366 84.367.82 1.9 6.382-2.064 7.851-.477l4.113 15.602 4.44-4.445c-1.778-4.644-7.602-5.788-8.483-10.79-9-51.118-12.791-96.74 87.274-74.35z" style="fill:#eac102;fill-opacity:1;stroke:#000;stroke-width:.98553747;stroke-linecap:butt;stroke-linejoin:miter;stroke-miterlimit:4;stroke-opacity:1;stroke-dasharray:none" transform="translate(265.889 236.33)scale(.29414)"/><path d="M355.016-297.001c-97.1-20.813-99.67 19.455-88.223 74.712 1.145 5.53 7.268 3.57 8.636 9.439-3.647-5.24-1.551 61.755 6.028-.493-11.616-56.298-17.893-93.275 71.735-73.238z" style="fill:#eac102;fill-opacity:1;stroke:#000;stroke-width:.98553747;stroke-linecap:butt;stroke-linejoin:miter;stroke-miterlimit:4;stroke-opacity:1;stroke-dasharray:none" transform="translate(265.889 236.33)scale(.29414)"/><g style="stroke:#000;stroke-width:3.350703;stroke-miterlimit:4;stroke-opacity:1;stroke-dasharray:none"><path d="M-634.858-438.487c0-5.281 4.63-9.482 10.315-9.482 5.73 0 10.322 4.2 10.322 9.482 0 5.272-4.592 9.5-10.322 9.5-5.685 0-10.315-4.228-10.315-9.5zm115.228 0c0-5.281 4.631-9.482 10.316-9.482 5.73 0 10.322 4.2 10.322 9.482 0 5.272-4.592 9.5-10.322 9.5-5.685 0-10.315-4.228-10.315-9.5z" style="font-size:12px;fill:#e3e4e5;stroke:#000;stroke-width:3.350703;stroke-miterlimit:4;stroke-opacity:1;stroke-dasharray:none" transform="matrix(.25765 0 0 .26919 521.39 299.465)"/></g><g style="stroke:#000;stroke-width:3.350703;stroke-miterlimit:4;stroke-opacity:1;stroke-dasharray:none"><path d="M-744.028-420.957c0-5.28 4.631-9.482 10.315-9.482 5.73 0 10.323 4.201 10.323 9.482 0 5.272-4.592 9.5-10.323 9.5-5.684 0-10.315-4.228-10.315-9.5zm331.647 0c0-5.28 4.63-9.482 10.315-9.482 5.73 0 10.323 4.201 10.323 9.482 0 5.272-4.593 9.5-10.323 9.5-5.685 0-10.315-4.228-10.315-9.5z" style="font-size:12px;fill:#e3e4e5;stroke:#000;stroke-width:3.350703;stroke-miterlimit:4;stroke-opacity:1;stroke-dasharray:none" transform="matrix(.25765 0 0 .26919 521.71 299.906)"/></g><path d="M386.133-304.17c27.883-7.01 49.68-6.964 65.673-2.618 41.346 11.235 45.462 51.732 31.366 84.367-.82 1.9-6.382-2.064-7.851-.477l-4.113 15.602-4.44-4.445c1.778-4.644 7.602-5.788 8.483-10.79 9-51.118 12.791-96.74-87.274-74.35z" style="fill:#eac102;fill-opacity:1;stroke:#000;stroke-width:.98553747;stroke-linecap:butt;stroke-linejoin:miter;stroke-miterlimit:4;stroke-opacity:1;stroke-dasharray:none" transform="translate(265.889 236.33)scale(.29414)"/><path d="M587.091-210.114c34.77-44.505-41.644-79.963-72.445-80.458-9.638 0-18.859 1.06-27.375 3.031 1.888 2.089 3.372 4.383 4.816 6.695 7.077-1.398 9.878 1.825 17.78 1.825 37.493-2.35 73.368 26.811 62.928 66.854l-7.696 27.157 2.05 6.82 15.09-6.58 4.37-25.325" style="font-size:12px;fill:#eac102;fill-opacity:1;stroke:#000;stroke-width:.98553735;stroke-miterlimit:4;stroke-opacity:1;stroke-dasharray:none" transform="translate(265.889 236.33)scale(.29414)"/><path d="M570.741-275.95c8.517 5.439 14.966 12.134 18.522 19.597a41 41 0 0 1 4.072 17.863c0 10.545-3.577 44.755-10.143 52.218l.801-3.662c6.813-8.88 16.643-28.431 16.643-39.458 0-18.987-11.907-35.58-29.895-46.557z" style="font-size:12px;fill:none;stroke:#000;stroke-width:.98553735;stroke-miterlimit:4;stroke-opacity:1;stroke-dasharray:none" transform="translate(265.889 236.33)scale(.29414)"/><path d="M386.882-297.001c97.099-20.813 99.67 19.455 88.223 74.712-1.145 5.53-7.268 3.57-8.636 9.439 3.647-5.24 1.55 61.755-6.028-.493 11.616-56.298 17.893-93.275-71.735-73.238z" style="fill:#eac102;fill-opacity:1;stroke:#000;stroke-width:.98553747;stroke-linecap:butt;stroke-linejoin:miter;stroke-miterlimit:4;stroke-opacity:1;stroke-dasharray:none" transform="translate(265.889 236.33)scale(.29414)"/><path d="M514.663-294.813c0-4.694-4.057-8.429-9.036-8.429-5.02 0-9.042 3.735-9.042 8.429 0 4.686 4.023 8.445 9.042 8.445 4.98 0 9.036-3.76 9.036-8.445z" style="font-size:12px;fill:#e3e4e5;fill-opacity:1;stroke:#000;stroke-width:2.95661235;stroke-miterlimit:4;stroke-opacity:1;stroke-dasharray:none" transform="translate(265.889 236.33)scale(.29414)"/><path d="M532.284-295.934c0-4.694-4.056-8.428-9.035-8.428-5.02 0-9.042 3.734-9.042 8.428 0 4.686 4.022 8.445 9.042 8.445 4.979 0 9.035-3.759 9.035-8.445z" style="font-size:12px;fill:#e3e4e5;fill-opacity:1;stroke:#000;stroke-width:2.95661235;stroke-miterlimit:4;stroke-opacity:1;stroke-dasharray:none" transform="translate(265.889 236.33)scale(.29414)"/><path d="M548.397-292.964c0-4.694-4.056-8.428-9.035-8.428-5.02 0-9.042 3.734-9.042 8.428 0 4.686 4.022 8.445 9.042 8.445 4.979 0 9.035-3.759 9.035-8.445z" style="font-size:12px;fill:#e3e4e5;fill-opacity:1;stroke:#000;stroke-width:2.95661235;stroke-miterlimit:4;stroke-opacity:1;stroke-dasharray:none" transform="translate(265.889 236.33)scale(.29414)"/><path d="M563.66-285.999c0-4.694-4.056-8.428-9.035-8.428-5.02 0-9.042 3.734-9.042 8.428 0 4.686 4.023 8.445 9.042 8.445 4.98 0 9.035-3.759 9.035-8.445z" style="font-size:12px;fill:#e3e4e5;fill-opacity:1;stroke:#000;stroke-width:2.95661235;stroke-miterlimit:4;stroke-opacity:1;stroke-dasharray:none" transform="translate(265.889 236.33)scale(.29414)"/><path d="M577.273-277.979c0-4.694-4.056-8.428-9.035-8.428-5.02 0-9.042 3.734-9.042 8.428 0 4.687 4.023 8.445 9.042 8.445 4.98 0 9.035-3.758 9.035-8.445z" style="font-size:12px;fill:#e3e4e5;fill-opacity:1;stroke:#000;stroke-width:2.95661235;stroke-miterlimit:4;stroke-opacity:1;stroke-dasharray:none" transform="translate(265.889 236.33)scale(.29414)"/><path d="M591.18-269.183c0-4.695-4.057-8.429-9.036-8.429-5.02 0-9.042 3.734-9.042 8.429 0 4.686 4.023 8.445 9.042 8.445 4.98 0 9.035-3.76 9.035-8.445z" style="font-size:12px;fill:#e3e4e5;fill-opacity:1;stroke:#000;stroke-width:2.95661235;stroke-miterlimit:4;stroke-opacity:1;stroke-dasharray:none" transform="translate(265.889 236.33)scale(.29414)"/><path d="M600.292-256.348c0-4.694-4.056-8.428-9.035-8.428-5.02 0-9.042 3.734-9.042 8.428 0 4.686 4.022 8.445 9.042 8.445 4.979 0 9.035-3.759 9.035-8.445z" style="font-size:12px;fill:#e3e4e5;fill-opacity:1;stroke:#000;stroke-width:2.95661235;stroke-miterlimit:4;stroke-opacity:1;stroke-dasharray:none" transform="translate(265.889 236.33)scale(.29414)"/><path d="M606.168-242.004c0-4.694-4.057-8.428-9.036-8.428-5.02 0-9.042 3.734-9.042 8.428 0 4.686 4.023 8.445 9.042 8.445 4.98 0 9.036-3.759 9.036-8.445z" style="font-size:12px;fill:#e3e4e5;fill-opacity:1;stroke:#000;stroke-width:2.95661235;stroke-miterlimit:4;stroke-opacity:1;stroke-dasharray:none" transform="translate(265.889 236.33)scale(.29414)"/><path d="M607.78-226.406c0-4.694-4.056-8.428-9.035-8.428-5.02 0-9.042 3.734-9.042 8.428 0 4.686 4.023 8.445 9.042 8.445 4.98 0 9.035-3.759 9.035-8.445z" style="font-size:12px;fill:#e3e4e5;fill-opacity:1;stroke:#000;stroke-width:2.95661235;stroke-miterlimit:4;stroke-opacity:1;stroke-dasharray:none" transform="translate(265.889 236.33)scale(.29414)"/><path d="M604.312-211.024c0-4.694-4.056-8.429-9.036-8.429-5.019 0-9.042 3.735-9.042 8.429 0 4.686 4.023 8.445 9.042 8.445 4.98 0 9.036-3.76 9.036-8.445z" style="font-size:12px;fill:#e3e4e5;fill-opacity:1;stroke:#000;stroke-width:2.95661235;stroke-miterlimit:4;stroke-opacity:1;stroke-dasharray:none" transform="translate(265.889 236.33)scale(.29414)"/><path d="m393.945-306.128 2.136 65.39-10.338 18.726-13.561 4.484-14.65-4.484-10.654-18.726 3.417-65.39s2.277-13.506 21.825-13.669c18.688-.156 21.825 13.67 21.825 13.67z" style="font-size:12px;fill:#eac102;fill-opacity:1;stroke:#000;stroke-width:2.95661259;stroke-miterlimit:4;stroke-opacity:1;stroke-dasharray:none" transform="translate(265.889 236.33)scale(.29414)"/><g style="fill:#e3e4e5;fill-opacity:1;stroke:#000;stroke-width:3.13481617;stroke-miterlimit:4;stroke-opacity:1;stroke-dasharray:none"><path d="M650.208 1585.76c0-4.94 4.332-8.87 9.65-8.87 5.361 0 9.658 3.93 9.658 8.87 0 4.933-4.297 8.89-9.658 8.89-5.318 0-9.65-3.957-9.65-8.89z" style="font-size:12px;fill:#e3e4e5;fill-opacity:1;stroke:#000;stroke-width:3.13481617;stroke-miterlimit:4;stroke-opacity:1;stroke-dasharray:none" transform="matrix(-.27286 -.03783 -.03728 .2769 650.213 -258.961)"/><path d="M644.037 1601.678c0-4.94 4.332-8.87 9.65-8.87 5.362 0 9.658 3.93 9.658 8.87 0 4.932-4.296 8.889-9.658 8.889-5.318 0-9.65-3.956-9.65-8.889z" style="font-size:12px;fill:#e3e4e5;fill-opacity:1;stroke:#000;stroke-width:3.13481617;stroke-miterlimit:4;stroke-opacity:1;stroke-dasharray:none" transform="matrix(-.27286 -.03783 -.03728 .2769 650.213 -258.961)"/><path d="M643.381 1618.895c0-4.94 4.332-8.87 9.65-8.87 5.362 0 9.658 3.93 9.658 8.87 0 4.932-4.296 8.889-9.657 8.889-5.319 0-9.65-3.957-9.65-8.889z" style="font-size:12px;fill:#e3e4e5;fill-opacity:1;stroke:#000;stroke-width:3.13481617;stroke-miterlimit:4;stroke-opacity:1;stroke-dasharray:none" transform="matrix(-.27286 -.03783 -.03728 .2769 650.213 -258.961)"/><path d="M643.348 1636.042c0-4.941 4.332-8.871 9.65-8.871 5.361 0 9.658 3.93 9.658 8.87 0 4.933-4.297 8.89-9.658 8.89-5.318 0-9.65-3.957-9.65-8.89zm120.015-72.015c0-4.941 4.332-8.872 9.65-8.872 5.362 0 9.658 3.93 9.658 8.871 0 4.933-4.296 8.889-9.658 8.889-5.318 0-9.65-3.956-9.65-8.888z" style="font-size:12px;fill:#e3e4e5;fill-opacity:1;stroke:#000;stroke-width:3.13481617;stroke-miterlimit:4;stroke-opacity:1;stroke-dasharray:none" transform="matrix(-.27286 -.03783 -.03728 .2769 650.213 -258.961)"/><path d="M744.777 1557.781c0-4.94 4.332-8.87 9.65-8.87 5.362 0 9.658 3.93 9.658 8.87 0 4.933-4.296 8.889-9.658 8.889-5.318 0-9.65-3.956-9.65-8.889z" style="font-size:12px;fill:#e3e4e5;fill-opacity:1;stroke:#000;stroke-width:3.13481617;stroke-miterlimit:4;stroke-opacity:1;stroke-dasharray:none" transform="matrix(-.27286 -.03783 -.03728 .2769 650.213 -258.961)"/><path d="M727.083 1553.14c0-4.94 4.333-8.87 9.65-8.87 5.362 0 9.658 3.93 9.658 8.87 0 4.933-4.296 8.89-9.657 8.89-5.318 0-9.65-3.957-9.65-8.89z" style="font-size:12px;fill:#e3e4e5;fill-opacity:1;stroke:#000;stroke-width:3.13481617;stroke-miterlimit:4;stroke-opacity:1;stroke-dasharray:none" transform="matrix(-.27286 -.03783 -.03728 .2769 650.213 -258.961)"/><path d="M708.294 1551.298c0-4.941 4.332-8.871 9.65-8.871 5.361 0 9.658 3.93 9.658 8.87 0 4.933-4.297 8.89-9.658 8.89-5.318 0-9.65-3.957-9.65-8.89zm-19.722 1.623c0-4.94 4.332-8.87 9.65-8.87 5.361 0 9.658 3.93 9.658 8.87 0 4.932-4.297 8.889-9.658 8.889-5.318 0-9.65-3.957-9.65-8.889z" style="font-size:12px;fill:#e3e4e5;fill-opacity:1;stroke:#000;stroke-width:3.13481617;stroke-miterlimit:4;stroke-opacity:1;stroke-dasharray:none" transform="matrix(-.27286 -.03783 -.03728 .2769 650.213 -258.961)"/><path d="M673.216 1560.622c0-4.94 4.333-8.871 9.65-8.871 5.362 0 9.658 3.93 9.658 8.871 0 4.932-4.296 8.889-9.657 8.889-5.318 0-9.65-3.957-9.65-8.889z" style="font-size:12px;fill:#e3e4e5;fill-opacity:1;stroke:#000;stroke-width:3.13481617;stroke-miterlimit:4;stroke-opacity:1;stroke-dasharray:none" transform="matrix(-.27286 -.03783 -.03728 .2769 650.213 -258.961)"/></g><path d="M496.37-290.681c0-4.695-4.055-8.429-9.034-8.429-5.02 0-9.042 3.734-9.042 8.428 0 4.687 4.022 8.445 9.042 8.445 4.979 0 9.035-3.758 9.035-8.445zm102.139 95.359c0-4.695-4.056-8.429-9.035-8.429-5.02 0-9.042 3.734-9.042 8.429 0 4.686 4.022 8.445 9.042 8.445 4.979 0 9.035-3.76 9.035-8.445z" style="font-size:12px;fill:#e3e4e5;fill-opacity:1;stroke:#000;stroke-width:2.95661235;stroke-miterlimit:4;stroke-opacity:1;stroke-dasharray:none" transform="translate(265.889 236.33)scale(.29414)"/><g style="fill:#eac102;fill-opacity:1;stroke:#000;stroke-width:1.62846124;stroke-miterlimit:4;stroke-opacity:1;stroke-dasharray:none"><path d="M-309.57 89.375c.625-.976-6.641-2.227-5.51-3.074l5.537-4.142s1.734-1.819 3.684-3.056c1.484-.949 4.782-3.463 5.605-3.677.815-.222 2.459-.658 2.459-.658s-.057.551-.385 1.818c-.387 1.54-1.597 4.65-1.597 4.65 2.854.242 5.815 1.968 7.671 4.552-1.856 2.561-4.811 4.24-7.67 4.504 0 0 1.764 2.304 2.15 3.85.321 1.249.386 1.808.386 1.808s-1.636-.425-2.459-.636c-.823-.233-4.676-1.943-6.16-2.9-1.95-1.24-3.711-3.028-3.711-3.028" style="font-size:12px;fill:#eac102;fill-opacity:1;stroke:#000;stroke-width:1.7282306;stroke-miterlimit:4;stroke-opacity:1;stroke-dasharray:none" transform="matrix(.53013 0 0 .55388 541.678 132.277)"/><path d="M-317.35 89.375c-.626-.976 3.692-2.227 2.858-3.346l-2.886-3.87s-1.734-1.819-3.684-3.056c-1.484-.949-4.783-3.463-5.605-3.677-.815-.222-2.459-.658-2.459-.658s.057.551.385 1.818c.387 1.54 1.596 4.65 1.596 4.65-2.853.242-5.814 1.968-7.67 4.552 1.856 2.561 4.811 4.24 7.67 4.504 0 0-1.764 2.304-2.15 3.85-.321 1.249-.386 1.808-.386 1.808s1.636-.425 2.459-.636c.823-.233 4.676-1.943 6.16-2.9 1.95-1.24 3.711-3.028 3.711-3.028" style="font-size:12px;fill:#eac102;fill-opacity:1;stroke:#000;stroke-width:1.7282306;stroke-miterlimit:4;stroke-opacity:1;stroke-dasharray:none" transform="matrix(.53013 0 0 .55388 541.678 132.277)"/><path d="M-313.842 63.295c2.03 1.991 3.595 4.969 3.793 8.032 0 0 .365-.554 1.776-1.108 1.41-.554 2.49-.338 2.49-.338s-.751 2.225-1.08 3.001c-.329.78-.752 3.22-1.632 5.324-.853 2.118-2.446 6.532-2.446 6.532-.775-.957-1.675-.81-2.992-.81-1.31 0-1.673-.276-2.448.682 0 0-1.861-4.286-2.723-6.404-.871-2.104-1.3-4.545-1.623-5.324-.327-.776-1.089-3-1.089-3s1.09-.217 2.492.337c1.41.554 1.784 1.108 1.784 1.108.197-3.063 1.674-6.04 3.698-8.032" style="font-size:12px;fill:#eac102;fill-opacity:1;stroke:#000;stroke-width:1.36475885;stroke-miterlimit:4;stroke-opacity:1;stroke-dasharray:none" transform="matrix(.53013 0 0 .55388 541.678 132.277)"/><path d="M-319.128 88.231c0-2.747 2.348-4.963 5.241-4.963s5.25 2.216 5.25 4.963c0 2.75-2.347 4.973-5.25 4.973-2.893 0-5.24-2.223-5.24-4.973" style="font-size:12px;fill:#ed1c24;fill-opacity:1;stroke:#000;stroke-width:1.62846124;stroke-miterlimit:4;stroke-opacity:1;stroke-dasharray:none" transform="matrix(.53013 0 0 .55388 541.678 132.277)"/></g><g style="fill:#eac102;fill-opacity:1;stroke:#000;stroke-width:3.22339463;stroke-miterlimit:4;stroke-opacity:1;stroke-dasharray:none"><path d="M-1754.551 502.665c0 14.49-11.746 26.236-26.236 26.236s-26.237-11.747-26.237-26.236 11.747-26.237 26.237-26.237 26.236 11.747 26.236 26.237z" style="fill:#0071bc;fill-opacity:1;stroke:#000;stroke-width:3.79572678;stroke-linecap:butt;stroke-linejoin:miter;stroke-miterlimit:4;stroke-opacity:1;stroke-dasharray:none;stroke-dashoffset:0" transform="matrix(.23642 0 0 .22203 796.273 25.65)"/><path d="M-379.401 112.916v14.22h-12.595v12.622h12.595v25.957h-15.895v15.901h44.99v-15.901h-16.472v-25.957h12.594v-12.623h-12.594v-14.22z" style="fill:#eac102;fill-opacity:1;stroke:#000;stroke-width:3.22339463;stroke-miterlimit:4;stroke-opacity:1;stroke-dasharray:none" transform="matrix(.2784 0 0 .26146 479.111 91.776)"/></g><g style="fill:none;stroke-width:3.350703;stroke-miterlimit:4;stroke-dasharray:none"><path d="M-347.597-405.575c0-3.59 3.078-6.51 6.87-6.51 3.818 0 6.902 2.92 6.902 6.51 0 3.583-3.084 6.528-6.902 6.528-3.792 0-6.87-2.945-6.87-6.528" style="font-size:12px;fill:#0071bc;fill-opacity:1;stroke:#000;stroke-width:2.90460753;stroke-miterlimit:4;stroke-opacity:1;stroke-dasharray:none" transform="matrix(.25765 0 0 .26146 452.584 304.972)"/><path d="m84.343 67.052-2.25.26c-.573.067-1.287-.605-1.359-1.143-.07-.543.337-1.036.911-1.1l2.262-.264 2.301-.264c.57-.067 1.091.311 1.163.855.067.54-.167 1.324-.738 1.388l-2.29.268" style="font-size:12px;fill:#0071bc;fill-opacity:1;stroke:#000;stroke-width:.62696296;stroke-miterlimit:4;stroke-opacity:1;stroke-dasharray:none" transform="matrix(1.37695 0 0 1.39732 237.996 107.853)"/><path d="M-431.606-395.996c0-3.483 2.992-6.316 6.665-6.316 3.704 0 6.69 2.833 6.69 6.316 0 3.502-2.986 6.335-6.69 6.335-3.673 0-6.665-2.833-6.665-6.335" style="font-size:12px;fill:#0071bc;fill-opacity:1;stroke:#000;stroke-width:2.90460753;stroke-miterlimit:4;stroke-opacity:1;stroke-dasharray:none" transform="matrix(.25765 0 0 .26146 452.584 304.972)"/><path d="m66.827 69.98 2.29-2.38 3.314.046-2.307 2.839z" style="font-size:12px;fill:#0071bc;fill-opacity:1;stroke:#000;stroke-width:.62696296;stroke-miterlimit:4;stroke-opacity:1;stroke-dasharray:none" transform="matrix(1.37695 0 0 1.39732 237.996 107.853)"/><path d="M-261.039-406.056c0-3.59 3.085-6.51 6.877-6.51 3.811 0 6.895 2.92 6.895 6.51 0 3.584-3.084 6.529-6.895 6.529-3.792 0-6.877-2.945-6.877-6.529m83.948 9.805c0-3.59 3.084-6.51 6.876-6.51 3.811 0 6.896 2.92 6.896 6.51 0 3.609-3.085 6.528-6.896 6.528-3.792 0-6.876-2.92-6.876-6.528" style="font-size:12px;fill:#0071bc;fill-opacity:1;stroke:#000;stroke-width:2.90460753;stroke-miterlimit:4;stroke-opacity:1;stroke-dasharray:none" transform="matrix(.25765 0 0 .26146 452.584 304.972)"/><path d="M-299.982-400.19h-13.251c-3.076 0-5.625-3.984-5.625-6.901 0-2.902 2.493-6.917 5.558-6.917h26.855c3.066 0 5.564 4.015 5.564 6.917 0 2.917-2.55 6.901-5.64 6.901h-13.461" style="font-size:12px;fill:#0071bc;fill-opacity:1;stroke:#000;stroke-width:3.350703;stroke-linejoin:round;stroke-miterlimit:4;stroke-opacity:1;stroke-dasharray:none" transform="matrix(.25765 0 0 .26146 452.584 304.972)"/><path d="m-213.387-395.577 12.022 1.393c3.067.358 6.883-3.236 7.267-6.108.373-2.903-1.803-5.54-4.87-5.883l-12.088-1.408-12.298-1.413c-3.046-.359-5.832 1.664-6.216 4.572-.358 2.888.895 7.076 3.946 7.419l12.237 1.428m88.98 15.647-12.241-12.718-17.706.246 12.327 15.173z" style="font-size:12px;fill:#0071bc;fill-opacity:1;stroke:#000;stroke-width:3.35070276;stroke-miterlimit:4;stroke-opacity:1;stroke-dasharray:none" transform="matrix(.25765 0 0 .26146 452.584 304.972)"/></g><path d="M363.533-345.825h18.432" style="fill:#eac102;fill-opacity:1;stroke:#000;stroke-width:2.95661235;stroke-linecap:butt;stroke-linejoin:miter;stroke-miterlimit:4;stroke-opacity:1;stroke-dasharray:none" transform="translate(265.889 236.33)scale(.29414)"/><path d="M154.807-210.114c-34.77-44.505 41.644-79.963 72.445-80.458 9.638 0 18.859 1.06 27.375 3.031-1.888 2.089-3.372 4.383-4.816 6.695-7.077-1.398-9.878 1.825-17.78 1.825-37.493-2.35-73.368 26.811-62.928 66.854l7.696 27.157-2.05 6.82-15.09-6.58-4.37-25.325" style="font-size:12px;fill:#eac102;fill-opacity:1;stroke:#000;stroke-width:.98553735;stroke-miterlimit:4;stroke-opacity:1;stroke-dasharray:none" transform="translate(265.889 236.33)scale(.29414)"/><path d="M171.157-275.95c-8.517 5.439-14.966 12.134-18.522 19.597a41 41 0 0 0-4.072 17.863c0 10.545 3.577 44.755 10.143 52.218l-.802-3.662c-6.812-8.88-16.642-28.431-16.642-39.458 0-18.987 11.907-35.58 29.895-46.557z" style="font-size:12px;fill:none;stroke:#000;stroke-width:.98553735;stroke-miterlimit:4;stroke-opacity:1;stroke-dasharray:none" transform="translate(265.889 236.33)scale(.29414)"/><path d="M227.235-294.813c0-4.694 4.056-8.429 9.035-8.429 5.02 0 9.043 3.735 9.043 8.429 0 4.686-4.023 8.445-9.043 8.445-4.979 0-9.035-3.76-9.035-8.445z" style="font-size:12px;fill:#e3e4e5;fill-opacity:1;stroke:#000;stroke-width:2.95661235;stroke-miterlimit:4;stroke-opacity:1;stroke-dasharray:none" transform="translate(265.889 236.33)scale(.29414)"/><path d="M209.614-295.934c0-4.694 4.056-8.428 9.035-8.428 5.02 0 9.042 3.734 9.042 8.428 0 4.686-4.022 8.445-9.042 8.445-4.979 0-9.035-3.759-9.035-8.445z" style="font-size:12px;fill:#e3e4e5;fill-opacity:1;stroke:#000;stroke-width:2.95661235;stroke-miterlimit:4;stroke-opacity:1;stroke-dasharray:none" transform="translate(265.889 236.33)scale(.29414)"/><path d="M193.5-292.964c0-4.694 4.057-8.428 9.036-8.428 5.02 0 9.042 3.734 9.042 8.428 0 4.686-4.023 8.445-9.042 8.445-4.979 0-9.035-3.759-9.035-8.445z" style="font-size:12px;fill:#e3e4e5;fill-opacity:1;stroke:#000;stroke-width:2.95661235;stroke-miterlimit:4;stroke-opacity:1;stroke-dasharray:none" transform="translate(265.889 236.33)scale(.29414)"/><path d="M178.238-285.999c0-4.694 4.056-8.428 9.035-8.428 5.02 0 9.042 3.734 9.042 8.428 0 4.686-4.023 8.445-9.042 8.445-4.98 0-9.035-3.759-9.035-8.445z" style="font-size:12px;fill:#e3e4e5;fill-opacity:1;stroke:#000;stroke-width:2.95661235;stroke-miterlimit:4;stroke-opacity:1;stroke-dasharray:none" transform="translate(265.889 236.33)scale(.29414)"/><path d="M164.625-277.979c0-4.694 4.056-8.428 9.035-8.428 5.02 0 9.042 3.734 9.042 8.428 0 4.687-4.023 8.445-9.042 8.445-4.98 0-9.035-3.758-9.035-8.445z" style="font-size:12px;fill:#e3e4e5;fill-opacity:1;stroke:#000;stroke-width:2.95661235;stroke-miterlimit:4;stroke-opacity:1;stroke-dasharray:none" transform="translate(265.889 236.33)scale(.29414)"/><path d="M150.718-269.183c0-4.695 4.057-8.429 9.036-8.429 5.02 0 9.042 3.734 9.042 8.429 0 4.686-4.023 8.445-9.042 8.445-4.98 0-9.036-3.76-9.036-8.445z" style="font-size:12px;fill:#e3e4e5;fill-opacity:1;stroke:#000;stroke-width:2.95661235;stroke-miterlimit:4;stroke-opacity:1;stroke-dasharray:none" transform="translate(265.889 236.33)scale(.29414)"/><path d="M141.606-256.348c0-4.694 4.056-8.428 9.035-8.428 5.02 0 9.042 3.734 9.042 8.428 0 4.686-4.023 8.445-9.042 8.445-4.98 0-9.035-3.759-9.035-8.445z" style="font-size:12px;fill:#e3e4e5;fill-opacity:1;stroke:#000;stroke-width:2.95661235;stroke-miterlimit:4;stroke-opacity:1;stroke-dasharray:none" transform="translate(265.889 236.33)scale(.29414)"/><path d="M135.73-242.004c0-4.694 4.056-8.428 9.036-8.428 5.019 0 9.042 3.734 9.042 8.428 0 4.686-4.023 8.445-9.042 8.445-4.98 0-9.036-3.759-9.036-8.445z" style="font-size:12px;fill:#e3e4e5;fill-opacity:1;stroke:#000;stroke-width:2.95661235;stroke-miterlimit:4;stroke-opacity:1;stroke-dasharray:none" transform="translate(265.889 236.33)scale(.29414)"/><path d="M134.118-226.406c0-4.694 4.056-8.428 9.035-8.428 5.02 0 9.042 3.734 9.042 8.428 0 4.686-4.023 8.445-9.042 8.445-4.98 0-9.035-3.759-9.035-8.445z" style="font-size:12px;fill:#e3e4e5;fill-opacity:1;stroke:#000;stroke-width:2.95661235;stroke-miterlimit:4;stroke-opacity:1;stroke-dasharray:none" transform="translate(265.889 236.33)scale(.29414)"/><path d="M137.586-211.024c0-4.694 4.056-8.429 9.035-8.429 5.02 0 9.042 3.735 9.042 8.429 0 4.686-4.022 8.445-9.042 8.445-4.979 0-9.035-3.76-9.035-8.445z" style="font-size:12px;fill:#e3e4e5;fill-opacity:1;stroke:#000;stroke-width:2.95661235;stroke-miterlimit:4;stroke-opacity:1;stroke-dasharray:none" transform="translate(265.889 236.33)scale(.29414)"/><g style="fill:#e3e4e5;fill-opacity:1;stroke:#000;stroke-width:3.13481617;stroke-miterlimit:4;stroke-opacity:1;stroke-dasharray:none"><path d="M650.208 1585.76c0-4.94 4.332-8.87 9.65-8.87 5.361 0 9.658 3.93 9.658 8.87 0 4.933-4.297 8.89-9.658 8.89-5.318 0-9.65-3.957-9.65-8.89z" style="font-size:12px;fill:#e3e4e5;fill-opacity:1;stroke:#000;stroke-width:3.13481617;stroke-miterlimit:4;stroke-opacity:1;stroke-dasharray:none" transform="matrix(.27286 -.03783 .03728 .2769 99.787 -258.961)"/><path d="M644.037 1601.678c0-4.94 4.332-8.87 9.65-8.87 5.362 0 9.658 3.93 9.658 8.87 0 4.932-4.296 8.889-9.658 8.889-5.318 0-9.65-3.956-9.65-8.889z" style="font-size:12px;fill:#e3e4e5;fill-opacity:1;stroke:#000;stroke-width:3.13481617;stroke-miterlimit:4;stroke-opacity:1;stroke-dasharray:none" transform="matrix(.27286 -.03783 .03728 .2769 99.787 -258.961)"/><path d="M643.381 1618.895c0-4.94 4.332-8.87 9.65-8.87 5.362 0 9.658 3.93 9.658 8.87 0 4.932-4.296 8.889-9.657 8.889-5.319 0-9.65-3.957-9.65-8.889z" style="font-size:12px;fill:#e3e4e5;fill-opacity:1;stroke:#000;stroke-width:3.13481617;stroke-miterlimit:4;stroke-opacity:1;stroke-dasharray:none" transform="matrix(.27286 -.03783 .03728 .2769 99.787 -258.961)"/><path d="M643.348 1636.042c0-4.941 4.332-8.871 9.65-8.871 5.361 0 9.658 3.93 9.658 8.87 0 4.933-4.297 8.89-9.658 8.89-5.318 0-9.65-3.957-9.65-8.89zm121.958-72.372c0-4.941 4.332-8.871 9.65-8.871 5.362 0 9.658 3.93 9.658 8.87 0 4.933-4.296 8.89-9.658 8.89-5.318 0-9.65-3.957-9.65-8.89z" style="font-size:12px;fill:#e3e4e5;fill-opacity:1;stroke:#000;stroke-width:3.13481617;stroke-miterlimit:4;stroke-opacity:1;stroke-dasharray:none" transform="matrix(.27286 -.03783 .03728 .2769 99.787 -258.961)"/><path d="M746.637 1558.035c0-4.94 4.332-8.87 9.65-8.87 5.361 0 9.658 3.93 9.658 8.87 0 4.933-4.297 8.889-9.658 8.889-5.318 0-9.65-3.956-9.65-8.889z" style="font-size:12px;fill:#e3e4e5;fill-opacity:1;stroke:#000;stroke-width:3.13481617;stroke-miterlimit:4;stroke-opacity:1;stroke-dasharray:none" transform="matrix(.27286 -.03783 .03728 .2769 99.787 -258.961)"/><path d="M727.703 1553.226c0-4.941 4.332-8.872 9.65-8.872 5.362 0 9.658 3.93 9.658 8.871 0 4.933-4.296 8.889-9.657 8.889-5.319 0-9.65-3.956-9.65-8.888zm-19.409-1.928c0-4.941 4.332-8.871 9.65-8.871 5.361 0 9.658 3.93 9.658 8.87 0 4.933-4.297 8.89-9.658 8.89-5.318 0-9.65-3.957-9.65-8.89z" style="font-size:12px;fill:#e3e4e5;fill-opacity:1;stroke:#000;stroke-width:3.13481617;stroke-miterlimit:4;stroke-opacity:1;stroke-dasharray:none" transform="matrix(.27286 -.03783 .03728 .2769 99.787 -258.961)"/><path d="M690.121 1553.133c0-4.94 4.333-8.871 9.65-8.871 5.362 0 9.658 3.93 9.658 8.871 0 4.932-4.296 8.889-9.657 8.889-5.318 0-9.65-3.957-9.65-8.889z" style="font-size:12px;fill:#e3e4e5;fill-opacity:1;stroke:#000;stroke-width:3.13481617;stroke-miterlimit:4;stroke-opacity:1;stroke-dasharray:none" transform="matrix(.27286 -.03783 .03728 .2769 99.787 -258.961)"/><path d="M673.216 1560.622c0-4.94 4.333-8.871 9.65-8.871 5.362 0 9.658 3.93 9.658 8.871 0 4.932-4.296 8.889-9.657 8.889-5.318 0-9.65-3.957-9.65-8.889z" style="font-size:12px;fill:#e3e4e5;fill-opacity:1;stroke:#000;stroke-width:3.13481617;stroke-miterlimit:4;stroke-opacity:1;stroke-dasharray:none" transform="matrix(.27286 -.03783 .03728 .2769 99.787 -258.961)"/></g><path d="M245.527-290.681c0-4.695 4.056-8.429 9.035-8.429 5.02 0 9.042 3.734 9.042 8.428 0 4.687-4.022 8.445-9.042 8.445-4.979 0-9.035-3.758-9.035-8.445zM143.39-195.322c0-4.695 4.055-8.429 9.034-8.429 5.02 0 9.042 3.734 9.042 8.429 0 4.686-4.022 8.445-9.042 8.445-4.979 0-9.035-3.76-9.035-8.445z" style="font-size:12px;fill:#e3e4e5;fill-opacity:1;stroke:#000;stroke-width:2.95661235;stroke-miterlimit:4;stroke-opacity:1;stroke-dasharray:none" transform="translate(265.889 236.33)scale(.29414)"/><g style="fill:#eac102;fill-opacity:1;stroke:#000;stroke-width:1.62846124;stroke-miterlimit:4;stroke-opacity:1;stroke-dasharray:none"><path d="M-366.102 92.67c.416-.89.605-1.998.43-3.174-.17-1.169-.66-2.218-1.324-2.992 0 0 4.896-1.814 6.436-3.03 1.169-.922 3.464-1.714 4.154-1.966.687-.262 2.062-.773 2.062-.773s.013.484-.102 1.588c-.139 1.332-.35 2.208-.35 2.208 2.518-.028 5.092 1.445 7.044 3.5-1.296 2.357-3.38 4.225-5.825 4.678 0 0 .459.815.991 2.099.44 1.059.562 1.514.562 1.514s-1.486-.237-2.23-.354c-.744-.119-3.206-.446-4.619-1.126-1.853-.91-7.227-2.165-7.227-2.165" style="font-size:12px;fill:#eac102;fill-opacity:1;stroke:#000;stroke-width:1.51996982;stroke-miterlimit:4;stroke-opacity:1;stroke-dasharray:none" transform="matrix(.53013 0 0 .55388 541.35 132.277)"/><path d="M-376.532 70.119c1.324-.662 6.7.512 8.933 3.746 0 0 .302-.619 1.714-1.434 1.425-.8 2.63-.775 2.63-.775s.263 2.473.063 3.316c-.352.684-.775 8.328-1.305 10.607-.545 2.268-1.534 4.08-1.534 4.08a4.8 4.8 0 0 0-3.809-1.006 4.61 4.61 0 0 0-3.21 2.172s-1.587-1.38-2.912-3.331a938 938 0 0 0-5.56-7.965c-.499-.721-1.724-2.798-1.724-2.798s1.128-.422 2.75-.122c1.622.302 2.13.791 2.13.791-.31-4.228.12-5.556 1.834-7.281z" style="font-size:12px;fill:#eac102;fill-opacity:1;stroke:#000;stroke-width:1.62846124;stroke-miterlimit:4;stroke-opacity:1;stroke-dasharray:none" transform="matrix(.53013 0 0 .55388 541.35 132.277)"/><path d="M-373.24 94.222a4.78 4.78 0 0 1-1.307-2.673 5.2 5.2 0 0 1 .45-3.033s-1.716-1.107-3.553-1.723c-1.395-.466-3.85-.483-4.59-.5-.742-.028-2.222-.07-2.222-.07s.123.43.544 1.37c.507 1.135.958 1.845.958 1.845-2.456.723-4.547 2.787-5.87 5.18 1.92 1.695 4.47 2.724 6.974 2.398 0 0-.219.855-.377 2.146-.13 1.064-.123 1.503-.123 1.503l2.07-.974c.69-.327 2.993-1.347 4.177-2.366 1.547-1.354 2.87-3.096 2.87-3.096" style="font-size:12px;fill:#eac102;fill-opacity:1;stroke:#000;stroke-width:1.47455871;stroke-miterlimit:4;stroke-opacity:1;stroke-dasharray:none" transform="matrix(.53013 0 0 .55388 541.35 132.277)"/><path d="M-374.675 91.398c0-2.75 2.35-4.973 5.243-4.973 2.881 0 5.241 2.224 5.241 4.973 0 2.74-2.35 4.963-5.24 4.963-2.894 0-5.244-2.223-5.244-4.963" style="font-size:12px;fill:#ed1c24;fill-opacity:1;stroke:#000;stroke-width:1.62846124;stroke-miterlimit:4;stroke-opacity:1;stroke-dasharray:none" transform="matrix(.53013 0 0 .55388 541.35 132.277)"/><path d="M-254.551 71.657c-2.557 1.622-4.795 4.32-5.577 7.335 0 0-.312-.618-1.722-1.434-1.415-.799-2.632-.775-2.632-.775s.409 2.345.618 3.188c.21.823.217 3.341.76 5.608a18.7 18.7 0 0 0 1.532 4.08 4.82 4.82 0 0 1 3.811-1.006 4.66 4.66 0 0 1 3.22 2.172s1.578-1.38 2.912-3.331c1.322-1.951 2.238-4.304 2.728-5.017.499-.72 1.733-2.798 1.733-2.798s-1.134-.421-2.756-.122c-1.625.302-2.134.792-2.134.792.363-3.1-.672-6.34-2.493-8.692" style="font-size:12px;fill:#eac102;fill-opacity:1;stroke:#000;stroke-width:1.62846124;stroke-miterlimit:4;stroke-opacity:1;stroke-dasharray:none" transform="matrix(.53013 0 0 .55388 541.35 132.277)"/><path d="M-366.102 92.67c.416-.89.605-1.998.43-3.174-.17-1.169-.66-2.218-1.324-2.992 0 0 4.896-1.814 6.436-3.03 1.169-.922 3.464-1.714 4.154-1.966.687-.262 2.062-.773 2.062-.773s.013.484-.102 1.588c-.139 1.332-.35 2.208-.35 2.208 2.518-.028 5.092 1.445 7.044 3.5-1.296 2.357-3.38 4.225-5.825 4.678 0 0 .459.815.991 2.099.44 1.059.562 1.514.562 1.514s-1.486-.237-2.23-.354c-.744-.119-3.206-.446-4.619-1.126-1.853-.91-7.227-2.165-7.227-2.165" style="font-size:12px;fill:#eac102;fill-opacity:1;stroke:#000;stroke-width:1.51996982;stroke-miterlimit:4;stroke-opacity:1;stroke-dasharray:none" transform="matrix(-.53013 0 0 .55388 208.65 132.277)"/><path d="M-376.532 70.119c1.324-.662 6.7.512 8.933 3.746 0 0 .302-.619 1.714-1.434 1.425-.8 2.63-.775 2.63-.775s.263 2.473.063 3.316c-.352.684-.775 8.328-1.305 10.607-.545 2.268-1.534 4.08-1.534 4.08a4.8 4.8 0 0 0-3.809-1.006 4.61 4.61 0 0 0-3.21 2.172s-1.587-1.38-2.912-3.331a938 938 0 0 0-5.56-7.965c-.499-.721-1.724-2.798-1.724-2.798s1.128-.422 2.75-.122c1.622.302 2.13.791 2.13.791-.31-4.228.12-5.556 1.834-7.281z" style="font-size:12px;fill:#eac102;fill-opacity:1;stroke:#000;stroke-width:1.62846124;stroke-miterlimit:4;stroke-opacity:1;stroke-dasharray:none" transform="matrix(-.53013 0 0 .55388 208.65 132.277)"/><path d="M-373.24 94.222a4.78 4.78 0 0 1-1.307-2.673 5.2 5.2 0 0 1 .45-3.033s-1.716-1.107-3.553-1.723c-1.395-.466-3.85-.483-4.59-.5-.742-.028-2.222-.07-2.222-.07s.123.43.544 1.37c.507 1.135.958 1.845.958 1.845-2.456.723-4.547 2.787-5.87 5.18 1.92 1.695 4.47 2.724 6.974 2.398 0 0-.219.855-.377 2.146-.13 1.064-.123 1.503-.123 1.503l2.07-.974c.69-.327 2.993-1.347 4.177-2.366 1.547-1.354 2.87-3.096 2.87-3.096" style="font-size:12px;fill:#eac102;fill-opacity:1;stroke:#000;stroke-width:1.47455871;stroke-miterlimit:4;stroke-opacity:1;stroke-dasharray:none" transform="matrix(-.53013 0 0 .55388 208.65 132.277)"/><path d="M-374.675 91.398c0-2.75 2.35-4.973 5.243-4.973 2.881 0 5.241 2.224 5.241 4.973 0 2.74-2.35 4.963-5.24 4.963-2.894 0-5.244-2.223-5.244-4.963" style="font-size:12px;fill:#ed1c24;fill-opacity:1;stroke:#000;stroke-width:1.62846124;stroke-miterlimit:4;stroke-opacity:1;stroke-dasharray:none" transform="matrix(-.53013 0 0 .55388 208.65 132.277)"/></g><g style="fill:#e3e4e5;fill-opacity:1;stroke:#000;stroke-width:3.13481617;stroke-miterlimit:4;stroke-opacity:1;stroke-dasharray:none"><path d="M54.495 702.092c0-6.219 5.452-11.165 12.145-11.165 6.748 0 12.155 4.946 12.155 11.165 0 6.207-5.407 11.187-12.155 11.187-6.693 0-12.145-4.98-12.145-11.187z" style="font-size:12px;fill:#e3e4e5;fill-opacity:1;stroke:#000;stroke-width:3.945436;stroke-miterlimit:4;stroke-opacity:1;stroke-dasharray:none" transform="matrix(-.2168 -.03005 -.02962 .22 410.565 13.117)"/><path d="M54.495 702.092c0-6.219 5.452-11.165 12.145-11.165 6.748 0 12.155 4.946 12.155 11.165 0 6.207-5.407 11.187-12.155 11.187-6.693 0-12.145-4.98-12.145-11.187z" style="font-size:12px;fill:#e3e4e5;fill-opacity:1;stroke:#000;stroke-width:3.945436;stroke-miterlimit:4;stroke-opacity:1;stroke-dasharray:none" transform="matrix(-.2168 -.03005 -.02962 .22 410.565 8.227)"/><path d="M54.495 702.092c0-6.219 5.452-11.165 12.145-11.165 6.748 0 12.155 4.946 12.155 11.165 0 6.207-5.407 11.187-12.155 11.187-6.693 0-12.145-4.98-12.145-11.187z" style="font-size:12px;fill:#e3e4e5;fill-opacity:1;stroke:#000;stroke-width:3.945436;stroke-miterlimit:4;stroke-opacity:1;stroke-dasharray:none" transform="matrix(-.2168 -.03005 -.02962 .22 410.565 3.336)"/><path d="M54.495 702.092c0-6.219 5.452-11.165 12.145-11.165 6.748 0 12.155 4.946 12.155 11.165 0 6.207-5.407 11.187-12.155 11.187-6.693 0-12.145-4.98-12.145-11.187z" style="font-size:12px;fill:#e3e4e5;fill-opacity:1;stroke:#000;stroke-width:3.945436;stroke-miterlimit:4;stroke-opacity:1;stroke-dasharray:none" transform="matrix(-.2168 -.03005 -.02962 .22 410.565 -1.554)"/><path d="M54.495 702.092c0-6.219 5.452-11.165 12.145-11.165 6.748 0 12.155 4.946 12.155 11.165 0 6.207-5.407 11.187-12.155 11.187-6.693 0-12.145-4.98-12.145-11.187z" style="font-size:12px;fill:#e3e4e5;fill-opacity:1;stroke:#000;stroke-width:3.945436;stroke-miterlimit:4;stroke-opacity:1;stroke-dasharray:none" transform="matrix(-.2168 -.03005 -.02962 .22 410.565 -6.445)"/></g><path d="M526.254 702.716v95.351c-19.629 127.198-129.046 221.027-257.75 221.027S30.382 925.265 10.754 798.067V380.224h515.5z" style="fill:none;stroke:#000;stroke-width:1;stroke-miterlimit:4;stroke-dasharray:none" transform="translate(307.621 120.361)scale(.2513)"/><path d="M383.016 371.313H.836v417.842c14.536 136.541 129.727 240.12 267.04 240.12s252.505-103.579 267.04-240.12l.507-417.842z" style="fill:#000;fill-opacity:1;stroke:#000;stroke-width:1;stroke-miterlimit:4;stroke-dasharray:none" transform="translate(307.621 120.361)scale(.2513)"/><path d="M8.889 701.087V380.226h515.5v320.861z" style="fill:#0071bc;fill-opacity:1;stroke:#000;stroke-width:1;stroke-miterlimit:4;stroke-dasharray:none" transform="translate(307.621 120.361)scale(.2513)"/><path d="m247.454 615.669-2.666-2.748-1.732-4.82-10.91 3.872-19.264 3.43 7.027.877 9.662 2.925 1.677.538 7.25-1.806zm28.379-11.151 2.442-9.536-14.65 5.988-12.568 4.526 5.096 7.764 8.177-3.125 5.717-2.077z" style="fill:#da6b21;fill-opacity:1;stroke:#000;stroke-width:1;stroke-miterlimit:4;stroke-dasharray:none" transform="translate(307.621 120.361)scale(.2513)"/><path d="m278.275 594.982 1.67-14.418-11.9 4.976-10.792 6.912-12.017 4.476 4.132 5.994 1.69 2.573 12.567-4.526zM83.957 606.069l-6.051-13.045 12.205 5.51 14.666 4.977 19.094 6.912 21.308 6.358 10.167 1.4-10.934 3.045-8.449 1.08h-6.68l-16.934-4.98-12.068-4.42z" style="fill:#da6b21;fill-opacity:1;stroke:#000;stroke-width:1;stroke-miterlimit:4;stroke-dasharray:none" transform="translate(307.621 120.361)scale(.2513)"/><path d="m77.906 593.024-3.368-12.896 27.472 12.6 24.075 7.465 25.736 5.253 22.968 4.147 24.352-.277 18.54-3.04 21.085-6.49 3.647 6.525.643 1.79-10.91 3.872-19.264 3.429-7.027-.878-12.005-1.609-7.905-.146-14.56 1.914-5.176.977-7.591 1.609-3.272.911-10.167-1.399-21.308-6.359-19.094-6.912-14.666-4.976z" style="fill:#da6b21;fill-opacity:1;stroke:#000;stroke-width:1;stroke-miterlimit:4;stroke-dasharray:none" transform="translate(307.621 120.361)scale(.2513)"/><path d="m524.39 652.571-8.46 2.205-18.562 1.228-14.618-.218-27.377-4.057-10.58-3.075-19.811.192-12.503 1.73-11.542 2.883-20.766 1.829-16.002.773-9.034-2.578-2.136-.251-16.82-1.975-19.868-2.334h-14.992l-9.392.903-18.786 2.165-7.225 3.429-18.062-.902-16.799-2.888-18.004-2.651-10.001-2.776h-14.724l-13.89 3.053-12.78 1.388-23.891 4.164-10.835-.556-19.699-3.488-20.994-2.15H67.935l-7.887.328-5.032.209-11.975 2.49-11.151 2.32-23-2.662V637.92l16.5.308 12.654.925.614-.136 10.497-2.33 2.008-.539 10.646-2.853 12.345-1.234 21.604 1.234 18.518 3.7 14.814 3.7 19.443-1.542 15.123-4.625 16.357-3.392 16.049.308 15.122 3.392 17.592 3.392 16.22 2.546 23.834.567 13.904-5.103 15.039-3.118 21.848 1.134 16.458.567 10.215 3.118 1.533.638 8.682 3.614 5.697.527 9.626.89 12.995.197 13.248-1.16 12.087-5.806 15.804-2.09 13.658-.939 18.139 1.726 16.627 4.531 16.196 1.726h10.365l14.691-1.133 8.75-1.374z" style="fill:#0067f1;fill-opacity:1;stroke:#000;stroke-width:1;stroke-miterlimit:4;stroke-dasharray:none" transform="translate(307.621 120.361)scale(.2513)"/><path d="m281.43 564.281-1.485 16.283-1.67 14.418-2.441 9.536-1.112 15.027 8.122-1.909 4.141-6.046 2.23-9.229 1.911-6.842 2.39-8.751-.16-9.866.278-25.457-1.98-7.66-4.792-.382-5.047 3.638-.383 10.596z" style="fill:#da6b21;fill-opacity:1;stroke:#000;stroke-width:1;stroke-miterlimit:4;stroke-dasharray:none" transform="translate(307.621 120.361)scale(.2513)"/><path d="m253.344 585.206-12.24 5.728 4.132 5.994 12.017-4.476 10.793-6.912 11.899-4.976 1.484-16.283-4.071 4.067-5.428 5.254-6.388 4.642-2.942 2.138zm-77.31-98.876v114.132l-9.905-.312.516-29.384 1.482-84.435zm0 0v-4.695h38.853v4.696z" style="fill:#da6b21;fill-opacity:1;stroke:#000;stroke-width:1;stroke-miterlimit:4;stroke-dasharray:none" transform="translate(307.621 120.361)scale(.2513)"/><path d="M8.89 669.5v15.443l12.34.363 17.562.969 7.752-1.21 11.992-2.542 7.51-2.3 9.846-.228 5.779-.134 7.025 1.815 6.425.702 9.079.992 10.175 1.816 19.84.993 13.7-.787 14.488-1.259 14.172-4.09 15.748-2.202 20.314 2.36 13.542 3.933 11.968 2.517 21.302 1.588 12.869-.459 17.464-2.985 9.192-3.214 22.979-.689 14.017 2.756 15.166 2.525 11.949 4.132 21.6-.918 9.421-2.066 14.73-2.834 13.61-2.813 15.487-.703 12.906-.469 12.437 1.641 13.14 2.58 19.712 1.406h11.734l13.14-1.172 3.386-.703V668.54l-10.616 2.916-7.48 2.005H488.05l-14.594-2.005-12.933-2.917-8.299-1.148-6.51-.637h-21.321l-19.633 3.366-12.648 2.774-15.423 1.695-15.115-1.541-16.811-2.003-17.12-2.465-10.334-1.541-10.442.121-16.532.881-10.802 4.185-14.99.88-15.65-1.321-18.076-3.083-16.973-3.304-15.651-1.762-17.855 1.102-9.258 2.863-19.456 3.818-12.228 1.198-17.024-1.916-9.83-1.917-13.426-3.113-14.865.718-5.603.086-9.982.154-9.375 1.532-3.812.623-11.508 3.832H27.427z" style="fill:#0067f1;fill-opacity:1;stroke:#000;stroke-width:1;stroke-miterlimit:4;stroke-dasharray:none" transform="translate(307.621 120.361)scale(.2513)"/><path d="m173.372 427.036 9.965.603 6.785.925 5.243 1.849 12.543.72 6.22 1.543 6.1 2.67c-5.76.368-11.778.479-15.783 2.603 4.845 1.496 10.281 1.216 14.313 5.151l-3.902 1.009c-4.552-1.252-8.381 1.107-12.528 1.882l11.543 4.59-7.094-.446H173.16z" style="fill:#e3e4e5;fill-opacity:1;stroke:#000;stroke-width:1;stroke-miterlimit:4;stroke-dasharray:none" transform="translate(307.621 120.361)scale(.2513)"/><path d="m173.372 427.036-.214 23.098.309 6.78 6.785.616 4.935.925 4.935 3.39 1.542 4.93-2.159 3.697-4.318 1.541-9.153.43h-7.663l-7.243-.014-5.242-4.421-.036-5.238 1.366-4.314 4.53-.947 7.094-.825-.309-35.207z" style="fill:#da6b21;fill-opacity:1;stroke:#000;stroke-width:1;stroke-miterlimit:4;stroke-dasharray:none" transform="translate(307.621 120.361)scale(.2513)"/><path d="m214.659 486.9-2.48 5.88-3.186 7.737-3.734 6.431-3.78 9.162-1.573 10.782 1.546 11.792 4.317 11.264 6.185 14.094 6.773 9.307-5.39 6.84-7.408-3.278-8.489-3.578-6.544-1.67-4.54-1.686-4.776-.179-2.581-.255-3.06-.458-.894-82.747zm-90.854-.57-2.192 7.034-3.06 7.217-2.94 8.807-2.08 9.542-.096 7.249 1.305 11.73 1.863 9.68 2.609 12.102 3.354 9.495 5.032 10.426 8.64 15.038 3.977 1.158 4.716-7.054 5.02-5.708 7.445-7.783 4.675-2.422 4.57-2.075 1.483-84.435z" style="fill:#e3e4e5;fill-opacity:1;stroke:#000;stroke-width:1;stroke-miterlimit:4;stroke-dasharray:none" transform="translate(307.621 120.361)scale(.2513)"/><path d="M123.805 486.33h44.322l.083-4.695h-44.405z" style="fill:#da6b21;fill-opacity:1;stroke:#000;stroke-width:1;stroke-miterlimit:4;stroke-dasharray:none" transform="translate(307.621 120.361)scale(.2513)"/><path d="m351.916 621.385-15.742-4.46-18.092-4.696-15.507.235-10.103 1.643-9.628 3.528-8.122 1.91-12.789 1.89-3.233 1.345-4.111.24-13.159-.013-10.18-3.265-1.678-.538-9.662-2.925-7.027-.877-7.027-.878-12.005-1.609-7.906-.146-14.559 1.914-5.176.977-7.591 1.609-3.272.911-10.934 3.045-8.449 1.08h-13.36l-8.941-1.963-9.825-2.945-9.43-3.436-6.969.087-5.648.166h-6.644l-12.892 1.368-13.2 2.806-10.818 3.152-2.662.776-8.425 1.682-7.99.051-10.27-.617v14.486l16.501.308 12.654.925.614-.136 10.497-2.33 2.008-.54 10.645-2.853 12.345-1.233 21.604 1.233 18.518 3.7 14.814 3.7 19.443-1.541 15.123-4.626 16.357-3.391 16.049.308 15.123 3.392 17.592 3.392 16.22 2.546 23.834.567 13.903-5.103 15.04-3.118 21.848 1.134 16.457.566 10.215 3.119 1.533.638 8.683 3.614 5.696.527 9.626.89 12.996.197 13.248-1.161 12.086-5.805 15.805-2.09 13.657-.94 18.14 1.727 16.627 4.53 16.195 1.727h10.365l14.691-1.134 8.75-1.374V619l-5.04.296h-13.32l-20.424 1.479-19.135-2.41-22.01-2.914-3.926.305-12.023.933-11.278 2.347-13.458 2.769-11.254 3.053-5.362 1.455-11.011 3.944-7.944-2.749-3.963-1.372-7.385-1.98-.712-.19z" style="fill:#e3e4e5;fill-opacity:1;stroke:#000;stroke-width:1;stroke-miterlimit:4;stroke-dasharray:none" transform="translate(307.621 120.361)scale(.2513)"/><path d="m223.754 572.585 2.374 8.305 4.41 6.27 4.581 6.102 3.647 6.525 3.647 6.524.643 1.79 1.732 4.82 2.666 2.748 7.134 7.353 4.11-.24 3.234-1.346-5.779-8.175-5.096-7.765-1.689-2.573-4.132-5.994-4.132-5.994-3.78-7.163-5.768-12.033z" style="fill:#da6b21;fill-opacity:1;stroke:#000;stroke-width:1;stroke-miterlimit:4;stroke-dasharray:none" transform="translate(307.621 120.361)scale(.2513)"/><path d="m214.186 597.748-.52-17.123.07-37.536 8.587.173v10.898l6.233-5.19 3.809-2.075 3.808-1.384 1.04-7.957 8.31-.519v9.341l3.289 3.114 3.636 1.038 3.29 1.73v-10.206l9.522-.173.28 36.366-2.941 2.138-9.256 4.824.317-9.77.346-6.228-3.809-7.092-4.328-3.805-4.675-1.21h-9.868l-4.329 2.594-3.231 5.71-.014 7.18 2.375 8.305 4.41 6.271 4.58 6.101-5.937 1.187z" style="fill:#da6b21;fill-opacity:1;stroke:#000;stroke-width:1;stroke-miterlimit:4;stroke-dasharray:none" transform="translate(307.621 120.361)scale(.2513)"/><path d="m136.24 594.65 3.978 1.158 19.313 4.135 6.598.207 9.904.312 4.594.144 19.717-1.074 13.842-1.784 14.995-3.3 5.938-1.186 3.647 6.525-21.085 6.489-18.541 3.04-24.352.277-22.968-4.147-25.736-5.252-24.075-7.465-27.472-12.6-1.448-5.547-2.407-12.027 14.43 8.843 8.638 3.983 13.289 7.136 16.112 7.634z" style="fill:#da6b21;fill-opacity:1;stroke:#000;stroke-width:1;stroke-miterlimit:4;stroke-dasharray:none" transform="translate(307.621 120.361)scale(.2513)"/><path d="M75.146 614.215h6.644l5.648-.165-1.908-4.588-1.573-3.393-6.051-13.045-3.368-12.895-1.448-5.547-2.407-12.027v-9.622l-3.677-5.268-6.81-2.82-.83 3.484.498 16.099 2.16 10.621 2.325 10.622 2.657 11.451 3.821 8.796z" style="fill:#da6b21;fill-opacity:1;stroke:#000;stroke-width:1;stroke-miterlimit:4;stroke-dasharray:none" transform="translate(307.621 120.361)scale(.2513)"/><path d="m8.89 669.5 18.538 3.114H43.97l11.508-3.832 3.812-.623 9.375-1.532 9.982-.154 5.603-.086 14.865-.718 13.426 3.114 9.83 1.916 17.024 1.916 12.227-1.198 19.456-3.818 9.259-2.863 17.855-1.101 15.65 1.762 16.974 3.303 18.076 3.083 15.65 1.322 14.99-.881 10.802-4.185 16.532-.88 10.442-.122 10.334 1.54 17.12 2.466 16.81 2.003 15.116 1.54 15.423-1.694 12.648-2.774 19.633-3.366h21.32l6.511.637 8.298 1.148 12.934 2.918 14.594 2.004h18.243l7.48-2.004 10.616-2.917v-15.967l-8.458 2.204-18.563 1.228-14.618-.218-27.377-4.057-10.58-3.075-19.811.193-12.503 1.73-11.542 2.882-20.766 1.83-16.002.773-9.034-2.579-2.136-.25-16.82-1.976-19.868-2.333h-14.992l-9.392.902-18.786 2.166-7.225 3.428-18.062-.902-16.799-2.887-18.004-2.652-10.001-2.775h-14.724l-13.89 3.053-12.78 1.388-23.891 4.163-10.835-.555-19.699-3.488-20.994-2.151H67.935l-7.887.328-5.032.21-11.975 2.49-11.151 2.32-23-2.663z" style="fill:#e3e4e5;fill-opacity:1;stroke:#000;stroke-width:1;stroke-miterlimit:4;stroke-dasharray:none" transform="translate(307.621 120.361)scale(.2513)"/><g style="fill:#000;stroke:#666;stroke-opacity:1"><path d="M596.022 561.276c-1.255-3.956-1.321-8.293.584-10.672l.568-.182 19.277-6.162.568-.181c5.858 1.668 9.94 14.347 6.153 19.003l-.66.211-19.276 6.162-.66.21c-2.86-.857-5.3-4.434-6.554-8.39zm5.706-1.825c.598 1.888 1.884 3.55 3.48 3.886l.386-.124 11.41-3.647.375-.12c2.278-2.372.336-8.413-2.934-9.057l-.33.105-11.41 3.648-.33.105c-1.146 1.211-1.245 3.317-.647 5.204zm-41.034 11.767c-.997-4.028-.785-8.36 1.27-10.612l.579-.144 19.633-4.904.579-.145c5.738 2.044 8.995 14.96 4.916 19.362l-.671.167-19.633 4.904-.672.168c-2.798-1.04-5.003-4.767-6-8.796zm5.812-1.451c.476 1.922 1.652 3.664 3.222 4.102l.394-.099 11.621-2.902.382-.096c2.425-2.22.876-8.374-2.346-9.228l-.335.084-11.621 2.903-.336.084c-1.222 1.134-1.456 3.23-.98 5.152z" style="fill:#000;fill-opacity:1;fill-rule:evenodd;stroke:#666;stroke-width:.91904205px;stroke-linecap:butt;stroke-linejoin:miter;stroke-opacity:1" transform="rotate(-27.817 528.07 -220.357)scale(.2886)"/><path d="M584.032 568.789v-.002c-1.675.553-3.435-.186-3.946-1.669s.417-3.154 2.074-3.754v-.002l.05-.017 18.891-6.542v.001l.03-.011c1.689-.585 3.479.157 3.995 1.654.517 1.498-.434 3.188-2.123 3.773l-.03.009h0l-18.891 6.542zm34.036-11.432v-.002c-1.222.504-2.707-.24-3.331-1.678-.624-1.44-.152-3.035 1.05-3.585l-.001-.002.036-.016 13.744-5.978h.001l.021-.01c1.229-.534 2.737.212 3.367 1.666s.144 3.067-1.084 3.601l-.023.008.001.001-13.745 5.979z" style="fill:#000;fill-opacity:1;stroke:#666;stroke-width:.91904229;stroke-linecap:round;stroke-linejoin:round;stroke-miterlimit:4;stroke-opacity:1;stroke-dasharray:none;display:inline" transform="rotate(-27.817 528.07 -220.357)scale(.2886)"/></g><path d="m83.957 606.069 1.573 3.392 1.908 4.588 6.968-.087 9.432 3.436 9.824 2.945 8.94 1.963h6.68l-16.933-4.979-12.068-4.42zm190.765 13.476 1.111-15.027-5.785 3.54-5.717 2.077-8.177 3.125 5.779 8.175zm-20.134 3.477-7.134-7.354-8.956 2.27-7.25 1.805 10.181 3.265zM176.034 486.33v-4.695h-7.824l-.083 4.696zm-7.824-4.695.16-9.194h7.664v9.194z" style="fill:#da6b21;fill-opacity:1;stroke:#000;stroke-width:1;stroke-miterlimit:4;stroke-dasharray:none" transform="translate(307.621 120.361)scale(.2513)"/><path d="m351.93 613.37-.014 8.015 4.229 2.582.712.191 7.385 1.98-.115-3.104-.353-9.508zm99.917-4.212-11.316-.071-11.89-.075.211-12.456 8.737.01 13.95.016zm-29.81-28.825 15.035-.172 11.83-.136.003-14.95-13.44.116-14.042.12zm-39.572 16.734-14.932-.13-15.572-.138.03-15.662 16.019-.184 14.115-.162z" style="fill:#eac102;fill-opacity:1;stroke:#000;stroke-width:3;stroke-miterlimit:4;stroke-dasharray:none" transform="translate(307.621 120.361)scale(.2513)"/><path d="m368.01 580.953 14.115-.162 39.912-.458-.615-15.021-12.066.104-25.3.218-16.05.138z" style="fill:#eac102;fill-opacity:1;stroke:#000;stroke-width:3;stroke-miterlimit:4;stroke-dasharray:none" transform="translate(307.621 120.361)scale(.2513)"/><path d="m368.01 580.953-.003-15.181-7.65.066-8.36 11.828-.007 3.47zm41.346-15.538 12.066-.104 14.043-.12-.453-15.134-12.704-.15-12.962-.152z" style="fill:#eac102;fill-opacity:1;stroke:#000;stroke-width:3;stroke-miterlimit:4;stroke-dasharray:none" transform="translate(307.621 120.361)scale(.2513)"/><path d="m409.356 565.415-25.3.218.02-16.176 12.16.143 13.11.154z" style="fill:#eac102;fill-opacity:1;stroke:#000;stroke-width:3;stroke-miterlimit:4;stroke-dasharray:none" transform="translate(307.621 120.361)scale(.2513)"/><path d="m384.056 565.633-16.05.139-7.649.066 11.678-16.522 12.04.141zm12.181-16.033-12.161-.143-12.041-.142.13-16.623 11.403-.213 12.664-.238zm38.533-17.373-12.47-.089-10.26-.073.959-16.562h21.392z" style="fill:#eac102;fill-opacity:1;stroke:#000;stroke-width:3;stroke-miterlimit:4;stroke-dasharray:none" transform="translate(307.621 120.361)scale(.2513)"/><path d="m383.567 532.479.206-16.796-11.474-.002-.134 17.012zm25.969-31.509 24.829-.126.005-9.387-24.794-.135zm42.311 108.188-.308-12.576 14.896.017.02 12.651zm-59.217 4.746 11.141.147.003 7.754-11.253 3.054zm-10.165-16.837 21.3.187 25.086-.698 8.737.01-.517-16.406-54.947.63z" style="fill:#eac102;fill-opacity:1;stroke:#000;stroke-width:3;stroke-miterlimit:4;stroke-dasharray:none" transform="translate(307.621 120.361)scale(.2513)"/><path d="m392.63 613.904-24.794-.325-.303-16.643 14.932.13 21.299.188.007 16.796zm56.272-33.88.003-14.95 7.628-.065 9.875 14.815z" style="fill:#eac102;fill-opacity:1;stroke:#000;stroke-width:3;stroke-miterlimit:4;stroke-dasharray:none" transform="translate(307.621 120.361)scale(.2513)"/><path d="m435.012 550.057.453 15.133 13.439-.116 7.629-.065-9.875-14.815zm0 0-12.704-.15-.008-17.769 12.47.089 11.888.084v17.882z" style="fill:#eac102;fill-opacity:1;stroke:#000;stroke-width:3;stroke-miterlimit:4;stroke-dasharray:none" transform="translate(307.621 120.361)scale(.2513)"/><path d="m396.231 532.241.006 17.359 13.11.154 12.962.153-.008-17.77-10.26-.073h-6.409l-9.4.177zm38.539-.014-.379-16.724h12.267v16.809z" style="fill:#eac102;fill-opacity:1;stroke:#000;stroke-width:3;stroke-miterlimit:4;stroke-dasharray:none" transform="translate(307.621 120.361)scale(.2513)"/><path d="M434.391 515.503H413v-11.96h-7.367v12.144l-21.858-.004-11.474-.002.115-14.525 11.373-.057 25.748-.13 24.83-.126 12.292-.062v14.721z" style="fill:#eac102;fill-opacity:1;stroke:#000;stroke-width:3;stroke-miterlimit:4;stroke-dasharray:none" transform="translate(307.621 120.361)scale(.2513)"/><path d="m383.787 501.1.237-9.917-11.53-.063-.08 10.037zm50.583-9.643-.006 9.387 12.293-.062v-9.258zm26.555-10.055v-35.12h-18.403v16.527h-10.339v-16.733l-17.575.206v15.494l-8.891.413-.414-15.494-18.61-.62v14.875l-9.511.206-.414-13.634-19.436-.413.616 33.112zM440.53 609.087l-11.889-.075-.13 7.677 12.023-.933z" style="fill:#eac102;fill-opacity:1;stroke:#000;stroke-width:3;stroke-miterlimit:4;stroke-dasharray:none" transform="translate(307.621 120.361)scale(.2513)"/><path d="m403.771 614.05-.007-16.796c4.65-20.916 22.642-17.787 25.087-.698l-.21 12.456-.13 7.677-11.278 2.348-13.458 2.768z" style="fill:#0071bc;fill-opacity:1;stroke:#000;stroke-width:3;stroke-miterlimit:4;stroke-dasharray:none" transform="translate(307.621 120.361)scale(.2513)"/><path d="m383.787 501.1 25.749-.13.04-9.648-25.552-.139zm21.845 14.587v16.378l-9.4.176-12.665.238.206-16.796z" style="fill:#eac102;fill-opacity:1;stroke:#000;stroke-width:3;stroke-miterlimit:4;stroke-dasharray:none" transform="translate(307.621 120.361)scale(.2513)"/><path d="M405.632 515.687v-12.145h7.367v11.961l-.958 16.562h-6.41z" style="fill:#0071bc;fill-opacity:1;stroke:#000;stroke-width:3;stroke-miterlimit:4;stroke-dasharray:none" transform="translate(307.621 120.361)scale(.2513)"/><path d="m367.837 613.579-4.063-.054-11.843-.155.03-16.571 15.572.137zm83.702-16.997-13.95-.016-.517-16.405 11.83-.136 17.506-.2.027 16.774zm14.916 12.668.015 9.116-22.01-2.914-3.926.304-.003-6.67 11.316.072z" style="fill:#eac102;fill-opacity:1;stroke:#000;stroke-width:3;stroke-miterlimit:4;stroke-dasharray:none" transform="translate(307.621 120.361)scale(.2513)"/><path d="m392.63 613.904-24.794-.325-4.062-.054.352 9.508.116 3.104 3.963 1.371 7.943 2.75 11.01-3.944 5.363-1.455zm-8.606-122.721 25.551.139 24.794.135 12.289.067 14.267-10.122-102.977-1.18 14.546 10.898z" style="fill:#eac102;fill-opacity:1;stroke:#000;stroke-width:3;stroke-miterlimit:4;stroke-dasharray:none" transform="translate(307.621 120.361)scale(.2513)"/><path d="M177.098 562.9h-.412" style="fill:#da6b21;fill-opacity:1;stroke:#000;stroke-width:1;stroke-linecap:butt;stroke-linejoin:miter;stroke-miterlimit:4;stroke-opacity:1;stroke-dasharray:none" transform="translate(307.621 120.361)scale(.2513)"/><path d="M524.39 704.58v95.352c-19.63 127.198-129.047 221.026-257.75 221.026-128.704 0-238.123-93.828-257.75-221.026V705.42z" style="fill:#ed1c24;fill-opacity:1;stroke:#000;stroke-width:1;stroke-miterlimit:4;stroke-dasharray:none" transform="translate(307.621 120.361)scale(.2513)"/><g style="fill:#000;stroke:#666;stroke-opacity:1"><path d="m95.55 703.297.002-.002c1.467 1.064 3.423.892 4.389-.398.965-1.29.577-3.215-.86-4.32l.002-.002-.043-.032-16.47-12.3h-.001l-.025-.02c-1.473-1.1-3.459-.934-4.434.37-.974 1.302-.57 3.252.902 4.352l.027.018-.001.001 16.47 12.3z" style="fill:#000;fill-opacity:1;stroke:#666;stroke-width:1.05545521;stroke-linecap:round;stroke-linejoin:round;stroke-miterlimit:4;stroke-opacity:1;stroke-dasharray:none;display:inline" transform="rotate(-7.328 1099.803 -2183.322)scale(.2513)"/><path d="M85.62 692.764c2.353-3.555 3.637-7.819 2.42-10.703l-.51-.34-17.344-11.496-.511-.339c-6.265.003-13.867 11.377-11.429 17.04l.594.392 17.343 11.497.593.394c3.07-.044 6.49-2.891 8.844-6.445zm-5.135-3.404c-1.122 1.696-2.862 2.977-4.534 2.86l-.348-.23-10.266-6.805-.337-.224c-1.587-2.982 2.032-8.403 5.449-8.12l.297.196 10.265 6.805.297.197c.794 1.518.3 3.625-.823 5.321zm-46.703-49.475c3.433-2.528 6.107-6.09 5.959-9.218l-.364-.495-12.318-16.765-.364-.494c-5.881-2.154-16.934 5.912-16.595 12.068l.42.573 12.32 16.766.421.573c2.897 1.016 7.088-.48 10.52-3.008zm-3.647-4.964c-1.638 1.207-3.712 1.81-5.242 1.126l-.247-.337-7.291-9.923-.24-.327c-.462-3.346 4.802-7.191 7.912-5.75l.21.287 7.292 9.923.21.287c.223 1.7-.966 3.508-2.604 4.714zm27.038 34.568c3.263-2.744 5.702-6.47 5.352-9.582l-.394-.47-13.375-15.936-.394-.47c-6.009-1.77-16.52 6.99-15.784 13.112l.457.545 13.375 15.936.458.545c2.957.827 7.042-.936 10.305-3.68zm-3.96-4.718c-1.556 1.31-3.587 2.046-5.158 1.461l-.268-.32-7.917-9.432-.26-.31c-.677-3.31 4.328-7.486 7.525-6.249l.228.273 7.917 9.433.229.272c.332 1.681-.739 3.563-2.296 4.872z" style="fill:#000;fill-opacity:1;fill-rule:evenodd;stroke:#666;stroke-width:1.05545509px;stroke-linecap:butt;stroke-linejoin:miter;stroke-opacity:1" transform="rotate(-7.328 1099.803 -2183.322)scale(.2513)"/><path d="m39.221 653.37.002-.001c1.059 1.47 2.97 1.92 4.29.998 1.322-.923 1.558-2.872.542-4.372l.002-.001-.032-.044-11.77-16.849h0l-.017-.027c-1.053-1.506-2.99-1.971-4.324-1.04-1.335.933-1.564 2.911-.512 4.417l.02.026-.002.001 11.77 16.849zm-20.775-28.636.002-.001c.879 1.036 2.586 1.058 3.835.039 1.248-1.02 1.57-2.697.73-3.765l.002-.001-.025-.032-9.741-11.936h-.001q-.008-.009-.014-.019c-.871-1.067-2.602-1.097-3.863-.068-1.26 1.03-1.578 2.73-.707 3.797l.016.018v.001l9.741 11.936zm45.239 57.428.002-.001c1.167 1.386 3.107 1.69 4.354.669 1.248-1.02 1.335-2.982.207-4.4l.002-.002-.034-.042-13.017-15.904h-.001l-.02-.025c-1.163-1.422-3.13-1.74-4.39-.708-1.26 1.03-1.338 3.02-.174 4.442q.01.013.022.024h-.001l13.017 15.905z" style="fill:#000;fill-opacity:1;stroke:#666;stroke-width:1.05545521;stroke-linecap:round;stroke-linejoin:round;stroke-miterlimit:4;stroke-opacity:1;stroke-dasharray:none;display:inline" transform="rotate(-7.328 1099.803 -2183.322)scale(.2513)"/></g><path d="M524.39 702.716v-18.464l-3.386.704-13.142 1.172H496.13l-19.711-1.407-13.14-2.579-12.438-1.641-12.906.469-15.487.703-13.61 2.813-14.73 2.833-9.42 2.067-21.601.918-11.95-4.133-15.165-2.525-14.017-2.755-22.98.689-9.191 3.214-17.464 2.985-12.869.459-21.302-1.589-11.968-2.517-13.543-3.933-20.314-2.36-15.747 2.202-14.172 4.091-14.487 1.259-13.7.786-19.842-.993-10.174-1.815-9.079-.992-6.425-.702-7.026-1.816-5.778.135-9.846.228-7.51 2.3-11.992 2.541-7.752 1.21-17.563-.968-12.34-.363v18.612z" style="fill:#e3e4e5;fill-opacity:1;stroke:#000;stroke-width:1;stroke-miterlimit:4;stroke-dasharray:none" transform="translate(307.621 120.361)scale(.2513)"/><path d="M293.376 668.437c1.153 1.215 18.599 2.96 37.5 2.4 1.008-.03 4.22-1.589 4.22-.58v9.045c0 1.008-.811 1.82-1.82 1.82h-39.9a1.815 1.815 0 0 1-1.819-1.82v-9.046c0-1.008 1.125-2.55 1.82-1.819" style="fill:#0067f1;fill-opacity:1;stroke:none" transform="translate(307.621 120.361)scale(.2513)"/><path d="M278.944 336.47v32.969" style="fill:none;stroke:#000;stroke-width:3;stroke-linecap:butt;stroke-linejoin:miter;stroke-miterlimit:4;stroke-opacity:1;stroke-dasharray:none" transform="translate(304.903 120.361)scale(.2513)"/><g style="fill:#eac102;fill-opacity:1;stroke:#000;stroke-width:1.62863171;stroke-miterlimit:4;stroke-opacity:1;stroke-dasharray:none"><path d="M-421.606 103.056c.215-.716.5-1.546.835-2.225 1.621-3.976 1.167-2.82 3.257-5.872 1.13 1.648 1.462 3.128 1.663 4.72 2.1-.705 4.588-.619 5.35-.303.582.507-.276 3.626-1.308 5.268 0 0 .737.517 1.329 1.46.494.802.654 1.176.654 1.176s-1.274.29-1.904.435c-.64.135-5.618 1.44-6.876 1.304.69-2.856-1.229-5.521-3-5.963zm-3.87 4.043c-.041.03-4.35-4.945-6.1-6.97l-5.374-5.98c2.608-1.499 5.773-.868 8.833-.635-.075-1.851 1.131-3.22 1.973-4.727 1.654 1.127 4.705 12.522 4.505 14.148-2.927.93-4.277 2.179-3.837 4.163z" style="font-size:12px;fill:#eac102;fill-opacity:1;stroke:#000;stroke-width:1.17081618;stroke-miterlimit:4;stroke-opacity:1;stroke-dasharray:none" transform="matrix(.62994 0 0 .65815 587.523 119.172)"/></g><path d="M54.878 275.635c0-6.06 4.958-10.96 11.061-10.96 6.078 0 11.056 4.9 11.056 10.96 0 6.039-4.958 10.94-11.056 10.94-6.103 0-11.06-4.901-11.06-10.94" style="font-size:12px;fill:#ed1c24;fill-opacity:1;stroke:#000;stroke-width:3.51153183;stroke-miterlimit:4;stroke-opacity:1;stroke-dasharray:none" transform="translate(304.903 120.361)scale(.2513)"/><g style="fill:#eac102;fill-opacity:1;stroke:#000;stroke-width:1.62863171;stroke-miterlimit:4;stroke-opacity:1;stroke-dasharray:none"><path d="M-421.606 103.056c.215-.716.5-1.546.835-2.225 1.621-3.976 1.167-2.82 3.257-5.872 1.13 1.648 1.462 3.128 1.663 4.72 2.1-.705 4.588-.619 5.35-.303.582.507-.276 3.626-1.308 5.268 0 0 .737.517 1.329 1.46.494.802.654 1.176.654 1.176s-1.274.29-1.904.435c-.64.135-5.618 1.44-6.876 1.304.69-2.856-1.229-5.521-3-5.963zm-3.87 4.043c-.041.03-4.35-4.945-6.1-6.97l-5.374-5.98c2.608-1.499 5.773-.868 8.833-.635-.075-1.851 1.131-3.22 1.973-4.727 1.654 1.127 4.705 12.522 4.505 14.148-2.927.93-4.277 2.179-3.837 4.163z" style="font-size:12px;fill:#eac102;fill-opacity:1;stroke:#000;stroke-width:1.17081618;stroke-miterlimit:4;stroke-opacity:1;stroke-dasharray:none" transform="matrix(-.62994 0 0 .65815 163.043 119.172)"/></g><path d="M54.878 275.635c0-6.06 4.958-10.96 11.061-10.96 6.078 0 11.056 4.9 11.056 10.96 0 6.039-4.958 10.94-11.056 10.94-6.103 0-11.06-4.901-11.06-10.94" style="font-size:12px;fill:#ed1c24;fill-opacity:1;stroke:#000;stroke-width:3.51153183;stroke-miterlimit:4;stroke-opacity:1;stroke-dasharray:none" transform="matrix(-.2513 0 0 .2513 445.663 120.361)"/><path d="M637.998 326.983c0 12.686-10.284 22.97-22.97 22.97s-22.969-10.284-22.969-22.97 10.284-22.97 22.97-22.97 22.969 10.284 22.969 22.97z" style="fill:#e3e4e5;fill-opacity:1;stroke:#000;stroke-width:2;stroke-linecap:butt;stroke-linejoin:miter;stroke-miterlimit:4;stroke-opacity:1;stroke-dasharray:none;stroke-dashoffset:0" transform="translate(115.88 116.972)scale(.34183)"/><path d="M760.694 325.843c1.472 10.035 7.58 18.4 16.932 18.4s14.628-8.551 16.932-18.4c.65-2.776.768-5.661-1.702-7.89.525-2.771-1.538-4.524-3.257-6.122-1.647-1.53-3.471-2.252-5.468-2.592s-4.167 1.203-6.505 1.203-4.517-1.554-6.519-1.22c-2.001.333-3.826 1.056-5.454 2.61-1.936.959-3.04 1.043-4.067 6.348-2.306 2.101-1.491 5.021-.892 7.663z" style="fill:#e3e4e5;fill-opacity:1;stroke:#000;stroke-width:1.91851771;stroke-linecap:butt;stroke-linejoin:miter;stroke-miterlimit:4;stroke-opacity:1;stroke-dasharray:none;stroke-dashoffset:0" transform="translate(60.317 119.84)scale(.34183)"/><path d="M788.179 318.25c1.886 3.239 2.83 6.541 0 10.1 1.684 3.394 1.771 8.926 1.35 12.32l-11.535 9-11.535-9c-.486-3.727-.73-9.337 1.26-13.287-3.042-4.399-.936-6.571.27-9.133 5.165-.956 7.317 1.363 10.095 3 2.321-2.233 5.31-4.218 10.095-3z" style="fill:#da6b21;fill-opacity:1;stroke:#000;stroke-width:1.91851771;stroke-linecap:butt;stroke-linejoin:miter;stroke-miterlimit:4;stroke-opacity:1;stroke-dasharray:none;stroke-dashoffset:0" transform="translate(60.317 119.84)scale(.34183)"/><g style="fill:none;stroke-width:2;stroke-miterlimit:4;stroke-dasharray:none"><path d="m760.558 334.02 4.448 6.433-.506 5.985c-3.81 2.879-7.227 2.083-11.669 3.068.18-3.045 1.179-4.04 3.184-6.91 1.064-2.869 1.873-6.165 4.543-8.576z" style="fill:#f5f6f6;fill-opacity:1;stroke:#000;stroke-width:2;stroke-linecap:butt;stroke-linejoin:miter;stroke-miterlimit:4;stroke-opacity:1;stroke-dasharray:none;stroke-dashoffset:0" transform="matrix(.31454 0 0 .34183 81.998 119.84)"/></g><path d="M777.715 310.414v11.255" style="fill:none;stroke:#000;stroke-width:1.91851771;stroke-linecap:butt;stroke-linejoin:miter;stroke-miterlimit:4;stroke-opacity:1;stroke-dasharray:none" transform="translate(60.317 119.84)scale(.34183)"/><path d="m785.184 343.288.998 5.613c.034.191-2.863 6.694-4.72 6.618-1.605-.346-3.425-3.885-4.055-6.076-1.962-2.729.157-2.968-1.891-.18.145 0-3.404 6.661-5.719 6.979-2.548-.685-1.703-4.614-2.723-6.98l.09-6.577c1.752 0 3.503 2.5 5.254 2.5 1.517.445 3.542 4.049 5.259 4.113 1.716.065 3.125-3.408 5.248-4.116 1.751 0 3.847-3 5.599-3z" style="fill:#f5f6f6;fill-opacity:1;stroke:#000;stroke-width:1.91851771;stroke-linecap:butt;stroke-linejoin:miter;stroke-miterlimit:4;stroke-opacity:1;stroke-dasharray:none;stroke-dashoffset:0" transform="translate(60.317 119.84)scale(.34183)"/><path d="M769.823 328.434c.07.513.735.874 1.408.87l2.271-.016c.685-.005 1.175.02 1.34-.197.303-.393-1.078-1.46-2.153-1.418l-1.773.07c-.54.022-1.155.24-1.093.69z" style="fill:#ebebeb;fill-opacity:1;fill-rule:evenodd;stroke:#000;stroke-width:.95925885;stroke-linecap:butt;stroke-linejoin:miter;stroke-miterlimit:4;stroke-opacity:1;stroke-dasharray:none;display:inline" transform="translate(60.317 119.84)scale(.34183)"/><path d="M275.424 306.882c0 1.135-2.945 2.055-6.577 2.055s-6.578-.92-6.578-2.055 2.945-2.056 6.578-2.056c3.632 0 6.577.92 6.577 2.056z" style="fill:#000;fill-opacity:1;stroke:#000;stroke-width:5.59759998;stroke-miterlimit:4;stroke-opacity:1;stroke-dasharray:none;display:inline" transform="matrix(.03337 0 0 .10283 315.393 200.554)"/><path d="M785.112 328.404c-.07.514-.735.875-1.408.87l-2.271-.016c-.685-.005-1.175.02-1.341-.196-.302-.394 1.079-1.46 2.154-1.418l1.773.07c.54.021 1.155.24 1.093.69z" style="fill:#ebebeb;fill-opacity:1;fill-rule:evenodd;stroke:#000;stroke-width:.95925885;stroke-linecap:butt;stroke-linejoin:miter;stroke-miterlimit:4;stroke-opacity:1;stroke-dasharray:none;display:inline" transform="translate(60.317 119.84)scale(.34183)"/><path d="M275.424 306.882c0 1.135-2.945 2.055-6.577 2.055s-6.578-.92-6.578-2.055 2.945-2.056 6.578-2.056c3.632 0 6.577.92 6.577 2.056z" style="fill:#000;fill-opacity:1;stroke:#000;stroke-width:5.59759998;stroke-miterlimit:4;stroke-opacity:1;stroke-dasharray:none;display:inline" transform="matrix(-.03337 0 0 .10283 336.764 200.544)"/><path d="M769.198 326.54c2.933.09 6.709-.09 7.282 1.749-.518-.913.302-1.767-2.032-2.9h-5.292c-.24.384-.782.767.042 1.15z" style="fill:#000;fill-opacity:1;fill-rule:evenodd;stroke:#000;stroke-width:.95925885;stroke-linecap:butt;stroke-linejoin:miter;stroke-miterlimit:4;stroke-opacity:1;stroke-dasharray:none" transform="translate(60.317 119.84)scale(.34183)"/><path d="M786.232 326.534c-2.932.089-6.708-.09-7.281 1.749.517-.913-.302-1.767 2.032-2.9h5.292c.24.384.782.767-.043 1.15z" style="fill:#000;fill-opacity:1;fill-rule:evenodd;stroke:#000;stroke-width:.95925885;stroke-linecap:butt;stroke-linejoin:miter;stroke-miterlimit:4;stroke-opacity:1;stroke-dasharray:none;display:inline" transform="translate(60.317 119.84)scale(.34183)"/><path d="M774.626 334.668c.92.503 5.914.52 6.824 0" style="fill:none;stroke:#000;stroke-width:.95925885;stroke-linecap:butt;stroke-linejoin:miter;stroke-miterlimit:4;stroke-opacity:1;stroke-dasharray:none" transform="translate(60.317 119.84)scale(.34183)"/><g style="fill:none;stroke-width:2;stroke-miterlimit:4;stroke-dasharray:none"><path d="m762.26 337.256 2.746 3.197 4.195 3.635c-2.847 2.637-4.14 5.652-10.826 6.877-.273-3.346-1.01-4.676 1.437-8.188 1.064-2.87-.222-3.11 2.448-5.52z" style="fill:#f5f6f6;fill-opacity:1;stroke:#000;stroke-width:2;stroke-linecap:butt;stroke-linejoin:miter;stroke-miterlimit:4;stroke-opacity:1;stroke-dasharray:none;stroke-dashoffset:0" transform="matrix(-.31454 0 0 .34183 570.268 119.84)"/></g><path d="M776.88 336.088c-3.064.108-9.675 3.783-10.552 5.22 1.466 2.938 6.138 8.252 11.473 10 5.424-1.53 9.527-6.72 11.617-10-.683-1.274-9.401-6.211-11.473-5.032-.266-.147-.626-.203-1.064-.188m.964 5.938c2.173-.873 4.33-.282 6.082.844a13.5 13.5 0 0 1-6.082 1.437 13.8 13.8 0 0 1-5.823-1.281c1.937-1.45 3.88-1.964 5.823-1" style="font-size:medium;font-style:normal;font-variant:normal;font-weight:400;font-stretch:normal;text-indent:0;text-align:start;text-decoration:none;line-height:normal;letter-spacing:normal;word-spacing:normal;text-transform:none;direction:ltr;block-progression:tb;writing-mode:lr-tb;text-anchor:start;baseline-shift:baseline;color:#000;fill:#000;fill-opacity:1;stroke:none;stroke-width:2;marker:none;visibility:visible;display:inline;overflow:visible;font-family:Sans;-inkscape-font-specification:Sans" transform="translate(60.317 119.84)scale(.34183)"/><g style="fill:#e3e4e5;fill-opacity:1;stroke:#000;stroke-width:2.99714589;stroke-miterlimit:4;stroke-opacity:1;stroke-dasharray:none;display:inline"><path d="M634.63 925.86a129.8 129.8 0 0 1 28.802 8.391 130.5 130.5 0 0 1 25.011 13.922 131.3 131.3 0 0 1 21.886 19.52 133 133 0 0 1 13.805 18.347 132.7 132.7 0 0 1 11.216 22.35 133.5 133.5 0 0 1 7.675 28.767 134 134 0 0 1 1.361 26.433 134 134 0 0 1-4.944 30.381 134 134 0 0 1-12.596 30.006 132.7 132.7 0 0 1-15.984 22.284 131.6 131.6 0 0 1-23.087 20.589 131 131 0 0 1-28.142 14.98 129.4 129.4 0 0 1-24.501 6.776 129.3 129.3 0 0 1-22.318 1.927c-2.567 0-4.317-.045-6.88-.182a129.6 129.6 0 0 1-30.2-5.207 130.2 130.2 0 0 1-27.71-11.845 131.4 131.4 0 0 1-22.374-16.114 132.2 132.2 0 0 1-20.446-23.058 133.3 133.3 0 0 1-13.648-24.802 134.3 134.3 0 0 1-8.85-31.261 134 134 0 0 1-1.278-30.297 134.2 134.2 0 0 1 6.472-32.776 133.3 133.3 0 0 1 14.627-30.577 132.7 132.7 0 0 1 20.4-24.546 131 131 0 0 1 24.023-17.993 130 130 0 0 1 23.204-10.673 130.3 130.3 0 0 1 31.296-6.685 124 124 0 0 1 11.364-.497c7.387 0 14.531.602 21.816 1.84z" style="fill:#e3e4e5;fill-opacity:1;stroke:#000;stroke-width:2.99714589;stroke-miterlimit:4;stroke-opacity:1;stroke-dasharray:none" transform="translate(221.044 70.59)scale(.25153)"/><path d="M373.056 765.97a107.5 107.5 0 0 1 23.71 6.852 107.7 107.7 0 0 1 20.588 11.37 107.8 107.8 0 0 1 18.016 15.94 108.6 108.6 0 0 1 11.364 14.982 108 108 0 0 1 9.233 18.25 108.3 108.3 0 0 1 6.317 23.493 108.5 108.5 0 0 1 1.121 21.586 108.7 108.7 0 0 1-4.07 24.81 109 109 0 0 1-10.369 24.503 108.3 108.3 0 0 1-13.157 18.197 108 108 0 0 1-19.005 16.814A108 108 0 0 1 393.638 975a107 107 0 0 1-20.168 5.533 107.3 107.3 0 0 1-18.372 1.574 96 96 0 0 1-5.663-.149 107.5 107.5 0 0 1-24.86-4.252 107.6 107.6 0 0 1-22.81-9.673 108 108 0 0 1-18.418-13.159 108.2 108.2 0 0 1-16.83-18.83 108.6 108.6 0 0 1-11.236-20.253 109 109 0 0 1-7.286-25.529 108.6 108.6 0 0 1-1.05-24.74 108.8 108.8 0 0 1 5.327-26.766 108.5 108.5 0 0 1 12.04-24.97 108.5 108.5 0 0 1 16.793-20.044 107.7 107.7 0 0 1 19.775-14.694 107.3 107.3 0 0 1 19.101-8.716 108 108 0 0 1 25.762-5.459c3.259-.283 6.084-.406 9.355-.406 6.08 0 11.962.492 17.958 1.503z" style="fill:#e3e4e5;fill-opacity:1;stroke:#000;stroke-width:2.99714589;stroke-miterlimit:4;stroke-opacity:1;stroke-dasharray:none" transform="translate(285.706 117.007)scale(.25153)"/><path d="M372.802 768.6a107.2 107.2 0 0 1 23.376 6.66 106.7 106.7 0 0 1 20.298 11.05 105.8 105.8 0 0 1 17.762 15.493 106 106 0 0 1 11.204 14.562 104.4 104.4 0 0 1 9.103 17.739 104 104 0 0 1 6.229 22.833 104 104 0 0 1 1.105 20.979 104.2 104.2 0 0 1-4.013 24.114 105.2 105.2 0 0 1-10.223 23.815 105.4 105.4 0 0 1-12.972 17.687 106 106 0 0 1-18.737 16.341 107 107 0 0 1-22.839 11.89 107 107 0 0 1-19.885 5.378 107 107 0 0 1-18.113 1.53 96 96 0 0 1-5.583-.145 107.4 107.4 0 0 1-24.51-4.133 107 107 0 0 1-22.488-9.401 106.6 106.6 0 0 1-18.159-12.79 105.7 105.7 0 0 1-16.593-18.3 105 105 0 0 1-11.077-19.686 104.8 104.8 0 0 1-7.183-24.812 104 104 0 0 1-1.036-24.046 104.5 104.5 0 0 1 5.252-26.015 104.8 104.8 0 0 1 11.87-24.268 106 106 0 0 1 16.558-19.482 106 106 0 0 1 19.496-14.282 106.6 106.6 0 0 1 18.831-8.47 108 108 0 0 1 25.4-5.307c3.212-.275 5.998-.394 9.223-.394 5.994 0 11.793.478 17.705 1.46z" style="fill:#e3e4e5;fill-opacity:1;stroke:#000;stroke-width:2.99714589;stroke-miterlimit:4;stroke-opacity:1;stroke-dasharray:none" transform="translate(285.706 117.007)scale(.25153)"/><path d="M371.85 771.618a103.2 103.2 0 0 1 22.625 6.492 103 103 0 0 1 19.646 10.77 102.6 102.6 0 0 1 17.191 15.102 103 103 0 0 1 10.844 14.194 102 102 0 0 1 8.81 17.29 102 102 0 0 1 6.028 22.256 102 102 0 0 1 1.07 20.45 102.3 102.3 0 0 1-3.884 23.504 103 103 0 0 1-9.894 23.213 102.7 102.7 0 0 1-12.555 17.24 102.8 102.8 0 0 1-18.135 15.928 103.4 103.4 0 0 1-22.105 11.59 103 103 0 0 1-19.245 5.242 103 103 0 0 1-17.531 1.49c-2.016 0-3.39-.035-5.404-.14a103.2 103.2 0 0 1-23.722-4.029 103 103 0 0 1-21.765-9.163 103.2 103.2 0 0 1-17.575-12.467 102.8 102.8 0 0 1-16.06-17.838 102.6 102.6 0 0 1-10.72-19.188 102.7 102.7 0 0 1-6.953-24.185 102 102 0 0 1-1.003-23.439 102.5 102.5 0 0 1 5.084-25.357 102.4 102.4 0 0 1 11.489-23.655 103 103 0 0 1 16.024-18.99 102.8 102.8 0 0 1 18.87-13.92 103 103 0 0 1 18.226-8.257 103.7 103.7 0 0 1 24.583-5.172 99 99 0 0 1 8.926-.384c5.802 0 11.414.466 17.136 1.423z" style="fill:#e3e4e5;fill-opacity:1;stroke:#000;stroke-width:2.99714589;stroke-miterlimit:4;stroke-opacity:1;stroke-dasharray:none" transform="translate(285.706 117.007)scale(.25153)"/><path d="M369.567 780.279a97.8 97.8 0 0 1 21.122 5.939 96.8 96.8 0 0 1 18.34 9.853 95.2 95.2 0 0 1 16.05 13.815 94.5 94.5 0 0 1 10.123 12.985 92.7 92.7 0 0 1 8.225 15.817 91.8 91.8 0 0 1 5.628 20.36 91.6 91.6 0 0 1 .999 18.707 91.8 91.8 0 0 1-3.626 21.502 93.2 93.2 0 0 1-9.237 21.237 94 94 0 0 1-11.721 15.77 95.4 95.4 0 0 1-16.93 14.572 97.3 97.3 0 0 1-20.637 10.603 97.6 97.6 0 0 1-17.967 4.795 98 98 0 0 1-16.367 1.363c-1.881 0-3.165-.032-5.044-.128a98.2 98.2 0 0 1-22.147-3.686 97.3 97.3 0 0 1-20.32-8.383 96.4 96.4 0 0 1-16.407-11.404 94.7 94.7 0 0 1-14.993-16.32 93.4 93.4 0 0 1-10.009-17.552 92.5 92.5 0 0 1-6.49-22.125 91.6 91.6 0 0 1-.936-21.442 92 92 0 0 1 4.745-23.197 93 93 0 0 1 10.726-21.64 94.7 94.7 0 0 1 14.96-17.372 95.8 95.8 0 0 1 17.617-12.735 97 97 0 0 1 17.015-7.553 98.6 98.6 0 0 1 22.95-4.732 94 94 0 0 1 8.334-.351c5.416 0 10.655.426 15.997 1.302z" style="fill:#e3e4e5;fill-opacity:1;stroke:#000;stroke-width:2.99714589;stroke-miterlimit:4;stroke-opacity:1;stroke-dasharray:none" transform="translate(285.706 117.007)scale(.25153)"/><path d="M368.433 785.932a89.8 89.8 0 0 1 19.617 5.603 89.4 89.4 0 0 1 17.035 9.294 88.8 88.8 0 0 1 14.907 13.032 89 89 0 0 1 9.403 12.25 88 88 0 0 1 7.64 14.92 87.7 87.7 0 0 1 5.226 19.206 87.7 87.7 0 0 1 .928 17.647 88 88 0 0 1-3.368 20.283 88.6 88.6 0 0 1-8.58 20.033 88.6 88.6 0 0 1-10.886 14.877 89 89 0 0 1-15.725 13.745 89.8 89.8 0 0 1-19.167 10.002 89.5 89.5 0 0 1-16.688 4.523 90 90 0 0 1-15.2 1.287c-1.749 0-2.94-.03-4.686-.122a90 90 0 0 1-20.57-3.476 89.6 89.6 0 0 1-18.873-7.908 89.5 89.5 0 0 1-15.239-10.758 88.8 88.8 0 0 1-13.925-15.394 88.5 88.5 0 0 1-9.296-16.558 88.3 88.3 0 0 1-6.029-20.871 87.7 87.7 0 0 1-.87-20.227 88 88 0 0 1 4.409-21.882 88.2 88.2 0 0 1 9.962-20.413 89 89 0 0 1 13.895-16.388 89 89 0 0 1 16.362-12.013 89.3 89.3 0 0 1 15.804-7.125 90.3 90.3 0 0 1 21.315-4.463 86 86 0 0 1 7.74-.332c5.032 0 9.898.402 14.86 1.228z" style="fill:#e3e4e5;fill-opacity:1;stroke:#000;stroke-width:2.99714589;stroke-miterlimit:4;stroke-opacity:1;stroke-dasharray:none" transform="translate(285.706 117.007)scale(.25153)"/><path d="M365.575 794.206a78.7 78.7 0 0 1 17.363 5.025 79 79 0 0 1 15.078 8.337 79 79 0 0 1 13.194 11.69 79.7 79.7 0 0 1 8.322 10.987 79.3 79.3 0 0 1 6.761 13.384 79.5 79.5 0 0 1 4.627 17.228 79.7 79.7 0 0 1 .82 15.829 79.8 79.8 0 0 1-2.98 18.194 80 80 0 0 1-7.594 17.97 79.5 79.5 0 0 1-9.635 13.344 79 79 0 0 1-13.918 12.33 79 79 0 0 1-16.965 8.97 78.4 78.4 0 0 1-14.77 4.058 78.5 78.5 0 0 1-13.454 1.154c-1.547 0-2.602-.027-4.147-.109a78.6 78.6 0 0 1-18.206-3.118 78.8 78.8 0 0 1-16.704-7.093 79.2 79.2 0 0 1-13.489-9.65 79.3 79.3 0 0 1-12.325-13.809 80 80 0 0 1-13.563-33.574 79.7 79.7 0 0 1-.77-18.143 80 80 0 0 1 3.901-19.628 79.6 79.6 0 0 1 8.818-18.31 79.6 79.6 0 0 1 12.298-14.7 79 79 0 0 1 14.482-10.776 78.6 78.6 0 0 1 13.988-6.391 79 79 0 0 1 18.866-4.003 75 75 0 0 1 6.851-.298c4.453 0 8.76.36 13.151 1.102z" style="fill:#e3e4e5;fill-opacity:1;stroke:#000;stroke-width:2.99714589;stroke-miterlimit:4;stroke-opacity:1;stroke-dasharray:none" transform="translate(285.706 117.007)scale(.25153)"/><path d="M365.132 797.223a76 76 0 0 1 16.78 4.857 76.2 76.2 0 0 1 14.57 8.058 76.3 76.3 0 0 1 12.749 11.299 77 77 0 0 1 8.042 10.619 76.6 76.6 0 0 1 6.534 12.935 76.8 76.8 0 0 1 4.47 16.651 77 77 0 0 1 .794 15.3 77 77 0 0 1-2.88 17.584 77.4 77.4 0 0 1-7.338 17.367 76.8 76.8 0 0 1-9.311 12.898 76.5 76.5 0 0 1-13.45 11.917 76.5 76.5 0 0 1-16.394 8.67 76 76 0 0 1-14.273 3.922 76 76 0 0 1-13.001 1.115 68 68 0 0 1-4.008-.105 76 76 0 0 1-17.593-3.014 76 76 0 0 1-16.142-6.855 76.6 76.6 0 0 1-13.034-9.327 76.7 76.7 0 0 1-11.91-13.346 77.4 77.4 0 0 1-13.107-32.45 77 77 0 0 1-.744-17.535 77.2 77.2 0 0 1 3.77-18.97 77 77 0 0 1 8.52-17.698 77 77 0 0 1 11.885-14.207 76.3 76.3 0 0 1 13.994-10.415 76 76 0 0 1 13.517-6.177 76.4 76.4 0 0 1 18.232-3.87c2.306-.2 4.305-.287 6.62-.287 4.303 0 8.465.348 12.709 1.065z" style="fill:#e3e4e5;fill-opacity:1;stroke:#000;stroke-width:2.99714589;stroke-miterlimit:4;stroke-opacity:1;stroke-dasharray:none" transform="translate(285.706 117.007)scale(.25153)"/><path d="M365.14 803.604a70 70 0 0 1 15.276 4.352 69.7 69.7 0 0 1 13.265 7.22 69 69 0 0 1 11.607 10.124 69 69 0 0 1 7.322 9.515 68 68 0 0 1 5.949 11.59 68 68 0 0 1 4.07 14.92c.705 4.564.943 9.098.722 13.709a68 68 0 0 1-2.622 15.757 68.7 68.7 0 0 1-6.68 15.561 69 69 0 0 1-8.478 11.557 69.3 69.3 0 0 1-12.245 10.678 70 70 0 0 1-14.925 7.77 70 70 0 0 1-12.995 3.513c-3.937.67-7.841 1-11.837 1a63 63 0 0 1-3.648-.095 70.2 70.2 0 0 1-16.018-2.7 70 70 0 0 1-14.696-6.143 69.7 69.7 0 0 1-11.867-8.357 69 69 0 0 1-10.844-11.959 68.7 68.7 0 0 1-7.238-12.862 68.5 68.5 0 0 1-5.372-31.926 68.2 68.2 0 0 1 3.433-16.999 68.5 68.5 0 0 1 7.757-15.857 69.2 69.2 0 0 1 10.82-12.73 69.4 69.4 0 0 1 12.741-9.333 69.6 69.6 0 0 1 12.307-5.535 70.5 70.5 0 0 1 16.598-3.467c2.1-.18 3.92-.257 6.027-.257 3.918 0 7.707.312 11.57.954z" style="fill:#e3e4e5;fill-opacity:1;stroke:#000;stroke-width:2.99714589;stroke-miterlimit:4;stroke-opacity:1;stroke-dasharray:none" transform="translate(285.706 117.007)scale(.25153)"/><path d="M364.442 806.24a68.8 68.8 0 0 1 14.858 4.183 68 68 0 0 1 12.903 6.941 67 67 0 0 1 11.29 9.732 66.5 66.5 0 0 1 7.122 9.148 65.3 65.3 0 0 1 5.786 11.142 64.8 64.8 0 0 1 3.96 14.343 64.6 64.6 0 0 1 .702 13.178 64.8 64.8 0 0 1-2.551 15.148 65.7 65.7 0 0 1-6.498 14.96 66.2 66.2 0 0 1-8.246 11.11 67.2 67.2 0 0 1-11.91 10.264 68.4 68.4 0 0 1-14.517 7.47 68.6 68.6 0 0 1-12.64 3.377 69 69 0 0 1-11.514.96 62 62 0 0 1-3.549-.09 69 69 0 0 1-15.58-2.596 68.4 68.4 0 0 1-14.294-5.905 67.8 67.8 0 0 1-11.542-8.034 66.7 66.7 0 0 1-10.548-11.496 65.8 65.8 0 0 1-7.04-12.365 65.3 65.3 0 0 1-4.567-15.586 64.6 64.6 0 0 1-.658-15.105 65 65 0 0 1 3.338-16.342 65.5 65.5 0 0 1 7.546-15.244 66.7 66.7 0 0 1 10.524-12.238 67.4 67.4 0 0 1 12.393-8.971 68 68 0 0 1 11.97-5.32 69.3 69.3 0 0 1 16.145-3.334 66 66 0 0 1 5.863-.248c3.81 0 7.496.3 11.254.918z" style="fill:#e3e4e5;fill-opacity:1;stroke:#000;stroke-width:2.99714589;stroke-miterlimit:4;stroke-opacity:1;stroke-dasharray:none" transform="translate(285.706 117.007)scale(.25153)"/><g style="fill:#e3e4e5;fill-opacity:1;stroke:#000;stroke-width:2.99714589;stroke-miterlimit:4;stroke-opacity:1;stroke-dasharray:none"><path d="M494.576 871.874c0 76.838-62.24 139.128-139.015 139.128s-139.014-62.29-139.014-139.128c0-76.839 62.239-139.129 139.014-139.129s139.015 62.29 139.015 139.129z" style="color:#000;fill:#e3e4e5;fill-opacity:1;stroke:#000;stroke-width:2.99714589;stroke-linecap:butt;stroke-linejoin:miter;stroke-miterlimit:4;stroke-opacity:1;stroke-dasharray:none;stroke-dashoffset:0;marker:none;visibility:visible;display:inline;overflow:visible" transform="translate(285.514 117.39)scale(.25153)"/><path d="M355.765 761.259c-39.469 0-75.942 21.058-95.676 55.239s-19.734 76.295 0 110.476 56.207 55.239 95.676 55.239 75.942-21.058 95.676-55.239 19.734-76.295 0-110.476c-19.734-34.182-56.207-55.24-95.676-55.24z" style="fill:#e3e4e5;fill-opacity:1;stroke:#000;stroke-width:2.99714589;stroke-miterlimit:4;stroke-opacity:1;stroke-dasharray:none" transform="translate(285.514 117.39)scale(.25153)"/><path d="M353.982 771.749a100.138 100.138 0 0 0 0 200.274 100.14 100.14 0 0 0 86.722-150.206 100.14 100.14 0 0 0-86.722-50.068z" style="fill:#e3e4e5;fill-opacity:1;stroke:#000;stroke-width:2.99714589;stroke-miterlimit:4;stroke-opacity:1;stroke-dasharray:none" transform="translate(285.514 117.39)scale(.25153)"/><path d="M353.982 787.63a84.257 84.257 0 0 0-72.967 126.384 84.257 84.257 0 0 0 145.935 0 84.256 84.256 0 0 0-72.968-126.383z" style="fill:#e3e4e5;fill-opacity:1;stroke:#000;stroke-width:2.99714589;stroke-miterlimit:4;stroke-opacity:1;stroke-dasharray:none" transform="translate(285.514 117.39)scale(.25153)"/><path d="M353.982 858.208a13.677 13.677 0 1 0 0 27.355 13.677 13.677 0 0 0 0-27.355z" style="fill:#e3e4e5;fill-opacity:1;stroke:#000;stroke-width:2.99714589;stroke-miterlimit:4;stroke-opacity:1;stroke-dasharray:none" transform="translate(285.514 117.39)scale(.25153)"/><path d="M378.847 734.295a138.6 138.6 0 0 1 30.474 8.776 138.6 138.6 0 0 1 26.463 14.56 138.4 138.4 0 0 1 23.156 20.416 139 139 0 0 1 14.606 19.188 138 138 0 0 1 11.867 23.373 138.3 138.3 0 0 1 8.12 30.087 138.5 138.5 0 0 1 1.44 27.644 138.7 138.7 0 0 1-5.23 31.775 139.4 139.4 0 0 1-30.239 54.686 138.7 138.7 0 0 1-24.427 21.533 139 139 0 0 1-29.775 15.668 138 138 0 0 1-25.923 7.086 138.4 138.4 0 0 1-23.614 2.015c-2.715 0-4.567-.048-7.279-.19a138.6 138.6 0 0 1-31.952-5.445 138.6 138.6 0 0 1-29.318-12.389 139 139 0 0 1-23.673-16.853 138.8 138.8 0 0 1-21.632-24.115 139 139 0 0 1-14.44-25.938 139.2 139.2 0 0 1-9.365-32.695 138.6 138.6 0 0 1-1.351-31.686 139 139 0 0 1 6.847-34.278 138.7 138.7 0 0 1 15.476-31.979c6.146-9.412 13.367-18 21.584-25.671a138.4 138.4 0 0 1 25.417-18.819 138 138 0 0 1 24.55-11.162 139.3 139.3 0 0 1 33.113-6.991c4.188-.363 7.82-.52 12.024-.52 7.815 0 15.374.63 23.081 1.925z" style="fill:none;stroke:#000;stroke-width:2.99714589;stroke-miterlimit:4;stroke-opacity:1;stroke-dasharray:none" transform="translate(285.514 117.39)scale(.25153)"/><path d="M305.096 831.349a49.45 49.45 0 0 1 22.392 40.836 49.45 49.45 0 0 1-21.464 41.331 62.5 62.5 0 0 1-5.96-8.076 39.41 39.41 0 0 0 17.395-33.142 39.41 39.41 0 0 0-18.14-32.74 62.6 62.6 0 0 1 5.777-8.21zm74.274 98.749a25.37 25.37 0 0 0-21.417-8.915 25.37 25.37 0 0 0-19.715 12.227 63.5 63.5 0 0 0 41.132-3.312zm-161.264-36.621a138.6 138.6 0 0 1-1.351-31.686l28.705 16.104zm9.364 32.694a139.2 139.2 0 0 1-9.364-32.694l31.64 9.329zm14.44 25.939a139 139 0 0 1-14.44-25.939l30.55-2.946zm21.633 24.114a138.8 138.8 0 0 1-21.632-24.115l29.467-9.072z" style="fill:#e3e4e5;fill-opacity:1;stroke:#000;stroke-width:2.99714589;stroke-miterlimit:4;stroke-opacity:1;stroke-dasharray:none" transform="translate(285.514 117.39)scale(.25153)"/><path d="M287.216 993.078a139 139 0 0 1-23.673-16.854l25.511-16.427-1.838 33.28zm29.318 12.388a138.6 138.6 0 0 1-29.318-12.388l26.434-19.208zm31.952 5.446a138.6 138.6 0 0 1-31.952-5.446l19.79-24.977zm30.893-1.825a138.4 138.4 0 0 1-23.614 2.015c-2.715 0-4.567-.048-7.279-.19l11.379-28.775zm25.923-7.087a138 138 0 0 1-25.923 7.087l4.09-30.404zm29.775-15.667A139 139 0 0 1 405.302 1002l1.073-32.062zm24.427-21.533a138.7 138.7 0 0 1-24.427 21.533l-6.746-31.294zm16.911-23.305a138.8 138.8 0 0 1-16.91 23.305l-15.163-27.039zm13.328-31.382a139.4 139.4 0 0 1-13.328 31.382l-18.299-28.173zm5.231-31.775a138.7 138.7 0 0 1-5.231 31.775l-24.817-21.375z" style="fill:#e3e4e5;fill-opacity:1;stroke:#000;stroke-width:2.99714589;stroke-miterlimit:4;stroke-opacity:1;stroke-dasharray:none" transform="translate(285.514 117.39)scale(.25153)"/><path d="M493.533 850.695a138.5 138.5 0 0 1 1.441 27.644l-28.996-14.237zm-8.12-30.087a138.3 138.3 0 0 1 8.12 30.087l-31.812-10.238zm-11.867-23.373a138 138 0 0 1 11.867 23.373l-31.855-.27zm-14.606-19.189a139 139 0 0 1 14.606 19.188l-30.554 6.703z" style="fill:#e3e4e5;fill-opacity:1;stroke:#000;stroke-width:2.99714589;stroke-miterlimit:4;stroke-opacity:1;stroke-dasharray:none" transform="translate(285.514 117.39)scale(.25153)"/><path d="M435.784 757.632a138.4 138.4 0 0 1 23.156 20.415l-29.518 11.35zm-26.463-14.561a138.6 138.6 0 0 1 26.463 14.56l-26.703 17.345zm-30.474-8.776a138.6 138.6 0 0 1 30.474 8.776l-23.498 22.356zm0 0a138 138 0 0 0-23.082-1.925c-4.203 0-7.836.158-12.024.52l17.575 28.509z" style="fill:#e3e4e5;fill-opacity:1;stroke:#000;stroke-width:2.99714589;stroke-miterlimit:4;stroke-opacity:1;stroke-dasharray:none" transform="translate(285.514 117.39)scale(.25153)"/><path d="M310.629 739.882a139.3 139.3 0 0 1 33.112-6.992l-12 31.013-21.112-24.02z" style="fill:#e3e4e5;fill-opacity:1;stroke:#000;stroke-width:2.99714589;stroke-miterlimit:4;stroke-opacity:1;stroke-dasharray:none" transform="translate(285.514 117.39)scale(.25153)"/><path d="M286.079 751.044a138 138 0 0 1 24.55-11.162l.888 30.625zm-25.417 18.818a138.4 138.4 0 0 1 25.417-18.818l2.833 32.739-28.25-13.92z" style="fill:#e3e4e5;fill-opacity:1;stroke:#000;stroke-width:2.99714589;stroke-miterlimit:4;stroke-opacity:1;stroke-dasharray:none" transform="translate(285.514 117.39)scale(.25153)"/><path d="M239.078 795.534a139 139 0 0 1 21.584-25.672l8.505 33.275-30.09-7.603z" style="fill:#e3e4e5;fill-opacity:1;stroke:#000;stroke-width:2.99714589;stroke-miterlimit:4;stroke-opacity:1;stroke-dasharray:none" transform="translate(285.514 117.39)scale(.25153)"/><path d="M223.602 827.512a138.7 138.7 0 0 1 15.476-31.978l16.031 30.667-31.506 1.312zm69.871 25.093a63.45 63.45 0 0 0 .45 39.924 25.37 25.37 0 0 0-.45-39.924zm30.573-36.728a62.5 62.5 0 0 0-8.447 5.414 49.45 49.45 0 0 0 39.745 23.681 49.45 49.45 0 0 0 41.934-19.547 62.6 62.6 0 0 0-7.857-6.24 39.42 39.42 0 0 1-33.57 15.77 39.42 39.42 0 0 1-31.805-19.078z" style="fill:#e3e4e5;fill-opacity:1;stroke:#000;stroke-width:2.99714589;stroke-miterlimit:4;stroke-opacity:1;stroke-dasharray:none" transform="translate(285.514 117.39)scale(.25153)"/><path d="M337.382 810.587a63.5 63.5 0 0 1 39.304 1.989 25.36 25.36 0 0 1-20.125 8.347 25.36 25.36 0 0 1-19.179-10.336zm67.982 23.974a62.6 62.6 0 0 1 5.293 8.668 39.42 39.42 0 0 0-13.286 29.106 39.42 39.42 0 0 0 12.68 29.376 62.6 62.6 0 0 1-5.471 8.556 49.45 49.45 0 0 1 .784-75.706z" style="fill:#e3e4e5;fill-opacity:1;stroke:#000;stroke-width:2.99714589;stroke-miterlimit:4;stroke-opacity:1;stroke-dasharray:none" transform="translate(285.514 117.39)scale(.25153)"/><path d="M414.924 854.016a63.43 63.43 0 0 1-.199 36.405 25.37 25.37 0 0 1-7.597-18.245 25.37 25.37 0 0 1 7.795-18.16z" style="fill:#e3e4e5;fill-opacity:1;stroke:#000;stroke-width:2.99714589;stroke-miterlimit:4;stroke-opacity:1;stroke-dasharray:none" transform="translate(285.514 117.39)scale(.25153)"/><path d="M353.982 798.315a73.573 73.573 0 0 0-63.714 110.357 73.573 73.573 0 0 0 127.43 0 73.571 73.571 0 0 0-63.716-110.357z" style="fill:none;stroke:#000;stroke-width:2.99714589;stroke-miterlimit:4;stroke-opacity:1;stroke-dasharray:none" transform="translate(285.514 117.39)scale(.25153)"/><path d="M399.26 916.418a62.5 62.5 0 0 1-7.595 6.587 39.42 39.42 0 0 0-34.84-15.826 39.42 39.42 0 0 0-31.86 21.198 62.5 62.5 0 0 1-8.55-5.287 49.44 49.44 0 0 1 39.604-25.908 49.44 49.44 0 0 1 43.24 19.236zm-182.505-54.627a139 139 0 0 1 6.847-34.279l23.374 24.984z" style="fill:#e3e4e5;fill-opacity:1;stroke:#000;stroke-width:2.99714589;stroke-miterlimit:4;stroke-opacity:1;stroke-dasharray:none" transform="translate(285.514 117.39)scale(.25153)"/></g></g><path d="M637.998 326.983c0 12.686-10.284 22.97-22.97 22.97s-22.969-10.284-22.969-22.97 10.284-22.97 22.97-22.97 22.969 10.284 22.969 22.97z" style="fill:#e3e4e5;fill-opacity:1;stroke:#000;stroke-width:2;stroke-linecap:butt;stroke-linejoin:miter;stroke-miterlimit:4;stroke-opacity:1;stroke-dasharray:none;stroke-dashoffset:0" transform="translate(169.532 116.972)scale(.34183)"/><path d="M760.694 325.843c1.472 10.035 7.58 18.4 16.932 18.4s14.628-8.551 16.932-18.4c.65-2.776.768-5.661-1.702-7.89.525-2.771-1.538-4.524-3.257-6.122-1.647-1.53-3.471-2.252-5.468-2.592s-4.167 1.203-6.505 1.203-4.517-1.554-6.519-1.22c-2.001.333-3.826 1.056-5.454 2.61-1.936.959-3.04 1.043-4.067 6.348-2.306 2.101-1.491 5.021-.892 7.663z" style="fill:#e3e4e5;fill-opacity:1;stroke:#000;stroke-width:1.91851771;stroke-linecap:butt;stroke-linejoin:miter;stroke-miterlimit:4;stroke-opacity:1;stroke-dasharray:none;stroke-dashoffset:0" transform="translate(113.968 119.84)scale(.34183)"/><path d="M788.179 318.25c1.886 3.239 2.83 6.541 0 10.1 1.684 3.394 1.771 8.926 1.35 12.32l-11.535 9-11.535-9c-.486-3.727-.73-9.337 1.26-13.287-3.042-4.399-.936-6.571.27-9.133 5.165-.956 7.317 1.363 10.095 3 2.321-2.233 5.31-4.218 10.095-3z" style="fill:#da6b21;fill-opacity:1;stroke:#000;stroke-width:1.91851771;stroke-linecap:butt;stroke-linejoin:miter;stroke-miterlimit:4;stroke-opacity:1;stroke-dasharray:none;stroke-dashoffset:0" transform="translate(113.968 119.84)scale(.34183)"/><g style="fill:none;stroke-width:2;stroke-miterlimit:4;stroke-dasharray:none"><path d="m760.558 334.02 4.448 6.433-.506 5.985c-3.81 2.879-7.227 2.083-11.669 3.068.18-3.045 1.179-4.04 3.184-6.91 1.064-2.869 1.873-6.165 4.543-8.576z" style="fill:#f5f6f6;fill-opacity:1;stroke:#000;stroke-width:2;stroke-linecap:butt;stroke-linejoin:miter;stroke-miterlimit:4;stroke-opacity:1;stroke-dasharray:none;stroke-dashoffset:0" transform="matrix(.31454 0 0 .34183 135.648 119.84)"/></g><path d="M777.715 310.414v11.255" style="fill:none;stroke:#000;stroke-width:1.91851771;stroke-linecap:butt;stroke-linejoin:miter;stroke-miterlimit:4;stroke-opacity:1;stroke-dasharray:none" transform="translate(113.968 119.84)scale(.34183)"/><path d="m785.184 343.288.998 5.613c.034.191-2.863 6.694-4.72 6.618-1.605-.346-3.425-3.885-4.055-6.076-1.962-2.729.157-2.968-1.891-.18.145 0-3.404 6.661-5.719 6.979-2.548-.685-1.703-4.614-2.723-6.98l.09-6.577c1.752 0 3.503 2.5 5.254 2.5 1.517.445 3.542 4.049 5.259 4.113 1.716.065 3.125-3.408 5.248-4.116 1.751 0 3.847-3 5.599-3z" style="fill:#f5f6f6;fill-opacity:1;stroke:#000;stroke-width:1.91851771;stroke-linecap:butt;stroke-linejoin:miter;stroke-miterlimit:4;stroke-opacity:1;stroke-dasharray:none;stroke-dashoffset:0" transform="translate(113.968 119.84)scale(.34183)"/><path d="M769.823 328.434c.07.513.735.874 1.408.87l2.271-.016c.685-.005 1.175.02 1.34-.197.303-.393-1.078-1.46-2.153-1.418l-1.773.07c-.54.022-1.155.24-1.093.69z" style="fill:#ebebeb;fill-opacity:1;fill-rule:evenodd;stroke:#000;stroke-width:.95925885;stroke-linecap:butt;stroke-linejoin:miter;stroke-miterlimit:4;stroke-opacity:1;stroke-dasharray:none;display:inline" transform="translate(113.968 119.84)scale(.34183)"/><path d="M275.424 306.882c0 1.135-2.945 2.055-6.577 2.055s-6.578-.92-6.578-2.055 2.945-2.056 6.578-2.056c3.632 0 6.577.92 6.577 2.056z" style="fill:#000;fill-opacity:1;stroke:#000;stroke-width:5.59759998;stroke-miterlimit:4;stroke-opacity:1;stroke-dasharray:none;display:inline" transform="matrix(.03337 0 0 .10283 369.044 200.554)"/><path d="M785.112 328.404c-.07.514-.735.875-1.408.87l-2.271-.016c-.685-.005-1.175.02-1.341-.196-.302-.394 1.079-1.46 2.154-1.418l1.773.07c.54.021 1.155.24 1.093.69z" style="fill:#ebebeb;fill-opacity:1;fill-rule:evenodd;stroke:#000;stroke-width:.95925885;stroke-linecap:butt;stroke-linejoin:miter;stroke-miterlimit:4;stroke-opacity:1;stroke-dasharray:none;display:inline" transform="translate(113.968 119.84)scale(.34183)"/><path d="M275.424 306.882c0 1.135-2.945 2.055-6.577 2.055s-6.578-.92-6.578-2.055 2.945-2.056 6.578-2.056c3.632 0 6.577.92 6.577 2.056z" style="fill:#000;fill-opacity:1;stroke:#000;stroke-width:5.59759998;stroke-miterlimit:4;stroke-opacity:1;stroke-dasharray:none;display:inline" transform="matrix(-.03337 0 0 .10283 390.414 200.544)"/><path d="M769.198 326.54c2.933.09 6.709-.09 7.282 1.749-.518-.913.302-1.767-2.032-2.9h-5.292c-.24.384-.782.767.042 1.15z" style="fill:#000;fill-opacity:1;fill-rule:evenodd;stroke:#000;stroke-width:.95925885;stroke-linecap:butt;stroke-linejoin:miter;stroke-miterlimit:4;stroke-opacity:1;stroke-dasharray:none" transform="translate(113.968 119.84)scale(.34183)"/><path d="M786.232 326.534c-2.932.089-6.708-.09-7.281 1.749.517-.913-.302-1.767 2.032-2.9h5.292c.24.384.782.767-.043 1.15z" style="fill:#000;fill-opacity:1;fill-rule:evenodd;stroke:#000;stroke-width:.95925885;stroke-linecap:butt;stroke-linejoin:miter;stroke-miterlimit:4;stroke-opacity:1;stroke-dasharray:none;display:inline" transform="translate(113.968 119.84)scale(.34183)"/><path d="M774.626 334.668c.92.503 5.914.52 6.824 0" style="fill:none;stroke:#000;stroke-width:.95925885;stroke-linecap:butt;stroke-linejoin:miter;stroke-miterlimit:4;stroke-opacity:1;stroke-dasharray:none" transform="translate(113.968 119.84)scale(.34183)"/><g style="fill:none;stroke-width:2;stroke-miterlimit:4;stroke-dasharray:none"><path d="m762.26 337.256 2.746 3.197 4.195 3.635c-2.847 2.637-4.14 5.652-10.826 6.877-.273-3.346-1.01-4.676 1.437-8.188 1.064-2.87-.222-3.11 2.448-5.52z" style="fill:#f5f6f6;fill-opacity:1;stroke:#000;stroke-width:2;stroke-linecap:butt;stroke-linejoin:miter;stroke-miterlimit:4;stroke-opacity:1;stroke-dasharray:none;stroke-dashoffset:0" transform="matrix(-.31454 0 0 .34183 623.919 119.84)"/></g><path d="M776.88 336.088c-3.064.108-9.675 3.783-10.552 5.22 1.466 2.938 6.138 8.252 11.473 10 5.424-1.53 9.527-6.72 11.617-10-.683-1.274-9.401-6.211-11.473-5.032-.266-.147-.626-.203-1.064-.188m.964 5.938c2.173-.873 4.33-.282 6.082.844a13.5 13.5 0 0 1-6.082 1.437 13.8 13.8 0 0 1-5.823-1.281c1.937-1.45 3.88-1.964 5.823-1" style="font-size:medium;font-style:normal;font-variant:normal;font-weight:400;font-stretch:normal;text-indent:0;text-align:start;text-decoration:none;line-height:normal;letter-spacing:normal;word-spacing:normal;text-transform:none;direction:ltr;block-progression:tb;writing-mode:lr-tb;text-anchor:start;baseline-shift:baseline;color:#000;fill:#000;fill-opacity:1;stroke:none;stroke-width:2;marker:none;visibility:visible;display:inline;overflow:visible;font-family:Sans;-inkscape-font-specification:Sans" transform="translate(113.968 119.84)scale(.34183)"/></svg>