<svg xmlns="http://www.w3.org/2000/svg" viewBox="0 0 750.002 500"><path d="M47.857 460.394h240v53.333h-240z" style="fill:#00ab39;fill-opacity:1" transform="translate(-149.554 -1438.737)scale(3.125)"/><path d="M47.857 567.061h240v53.333h-240z" style="fill:#000;fill-opacity:1" transform="translate(-149.554 -1438.737)scale(3.125)"/><path d="M47.857 513.728h240v53.333h-240z" style="fill:#fff;fill-opacity:1" transform="translate(-149.554 -1438.737)scale(3.125)"/><g transform="translate(100.602 139.96)scale(.24134)"><path d="m462.013 206.042 90.376 15.203h146.966l87.841-16.048-75.172-19.426h-171.46z" style="fill:#ed1c24;fill-opacity:1;fill-rule:evenodd;stroke:#000;stroke-width:.91024864px;stroke-linecap:butt;stroke-linejoin:miter;stroke-opacity:1"/><path d="M510.875 82.188 489.5 107.25l-33.906-5.906-20.656 19.187-31.688-5.906c12.874 35.11 33.587 55.538 42.75 92.906l93.625-20.656h171.781l93.625 20.656c9.163-37.368 29.877-57.797 42.75-92.906l-31.718 5.906-20.625-19.187-33.907 5.906-21.375-25.062-25.812 19.906-32.438-17.688-28.75 11.781-20.656-7.906v-5.344l-7 2.688-7-2.687v5.343l-20.625 7.906-28.781-11.78-32.407 17.687z" style="fill:#eac102;fill-opacity:1;fill-rule:evenodd;stroke:#000;stroke-width:.91024864px;stroke-linecap:butt;stroke-linejoin:miter;stroke-opacity:1"/><path d="M795.46 200.063a8.5 8.5 0 0 0-1.438.156c-110.295 19.064-222.881 16.663-337.125-.031A8.5 8.5 0 1 0 454.46 217c115.593 16.891 230.023 19.404 342.469-.031a8.5 8.5 0 0 0-1.47-16.906" style="opacity:1;fill:#eac102;fill-opacity:1;fill-rule:evenodd;stroke:#000;stroke-width:.91024864;stroke-linecap:round;stroke-linejoin:round;marker:none;marker-start:none;marker-mid:none;marker-end:none;stroke-miterlimit:4;stroke-dasharray:none;stroke-dashoffset:0;stroke-opacity:1;visibility:visible;display:inline;overflow:visible"/><path d="M625.253 173.156c-66.37-.002-132.605 9.17-179.562 27.531a8.5 8.5 0 1 0 6.187 15.813c87.132-34.07 259.205-34.086 347.688.031a8.508 8.508 0 0 0 6.125-15.875c-47.558-18.337-114.068-27.497-180.438-27.5" style="opacity:1;fill:#eac102;fill-opacity:1;fill-rule:evenodd;stroke:#000;stroke-width:.91024864;stroke-linecap:round;stroke-linejoin:round;marker:none;marker-start:none;marker-mid:none;marker-end:none;stroke-miterlimit:4;stroke-dasharray:none;stroke-dashoffset:0;stroke-opacity:1;visibility:visible;display:inline;overflow:visible"/><path d="M625.012 110.5c-76.776 0-153.288 11.015-207.125 33.75a6.5 6.5 0 1 0 5.062 11.969c51.127-21.59 126.548-32.719 202.063-32.719s151.292 11.14 203.187 32.75a6.5 6.5 0 1 0 5-12c-54.547-22.715-131.411-33.75-208.187-33.75" style="opacity:1;fill:#eac102;fill-opacity:1;fill-rule:evenodd;stroke:#000;stroke-width:.91024864;stroke-linecap:round;stroke-linejoin:round;marker:none;marker-start:none;marker-mid:none;marker-end:none;stroke-miterlimit:4;stroke-dasharray:none;stroke-dashoffset:0;stroke-opacity:1;visibility:visible;display:inline;overflow:visible"/><path d="m625.5-26.094-.469.782c-5.787 8.952-29.377 9.426-30.312 21.968-1.024 13.73 22.794 16.478 18.062 24.5-4.468 7.576-10.437-14.895-26.031-10.593-15.8 3.86-2.4 20.492-16.219 29.687 12.098 6.106 9.696 29.633 24.813 23.594 8.771-6.417 18.059-15.875 24.5-8.469 1.523 6.848.098 14.06-2.688 21.438-6.746 6.04-13.44 8.981-19.875 9.28-7.354.343-15.186-2.544-23.781-10.718a7.53 7.53 0 0 0-6.156-2 7.49 7.49 0 0 0-5.407 3.531c-4.403 7.228-11.847 13.761-19.312 15.25s-16.089-.535-26.906-14.437c-.024-.03-.04-.064-.063-.094-2.637-6.024-2.094-11.843-1.593-15.656 13.77-5.508 18.102 14.64 30.968 8.093 13.797-7.019 2.417-22.581 16.5-30.687-9.96-3.043-8.965-31.585-21.968-28.344-13.085 3.262-13.288 28.625-25.657 22.688-8.424-5.758 12.626-10.645 12.157-26.688-.386-13.19-24.635-3.573-28.563-20.375-4.027 15.114-29.036 13.23-25.906 29.657 2.626 13.782 21.616 17.4 16.812 23.656-7.664 7.737-21.519-14.475-28.812-10.75s-2.45 31.3-10.281 35.781c11.44 2.959 16.98 22.749 29.156 16.75 12.302-6.062 10.36-20.155 21.281-16.75.764 6.775 2.68 12.971 1.563 20.688-3.935 8.26-19.628 21.65-42.657 4.874a7.52 7.52 0 0 0-7.594-.75 7.5 7.5 0 0 0-4.312 6.282c-.677 9.538-7.269 15.34-15.875 16.594-8.3 1.209-18.227-2.027-25.594-13.938 1.106-2.344 2.977-4.402 6.25-6.031 5.104-1.912 10.187 2.397 18.75 1.812 9.661-1.929-2.19-20.657 5.438-29.906-13.531-3.227-11.647-20.38-33.031-15.375-11.058 8.397-1.205 20.852-7.532 21.594-6.288.737-4.971-15.1-13.531-21.313-8.767-6.363-30.41-8.91-27.562 16.375 24.683-6.605 27.848 17.89 36.406 34.563a7.5 7.5 0 0 0 .969 4.375c10.016 17.543 26.875 24.832 41.593 22.687 11.178-1.628 21.224-8.836 25.938-19.406 23.296 11.534 45.018 2.713 53.969-11.656 10.775 9.313 22.358 12.454 32.625 10.406 10.1-2.015 18.224-8.098 24.218-15.281 8.96 6.54 18.573 9.947 28.188 9.5 9.835-.458 19.131-4.684 27.437-11.594 8.299 6.91 17.57 11.136 27.407 11.594 9.613.447 19.227-2.962 28.187-9.5 5.995 7.19 14.112 13.265 24.219 15.281 10.267 2.048 21.849-1.093 32.625-10.406 8.95 14.37 30.672 23.19 53.968 11.656 4.714 10.57 14.76 17.778 25.938 19.406 14.719 2.145 31.577-5.144 41.594-22.687a7.47 7.47 0 0 0 1.187-4.375c8.563-16.674 11.748-41.17 36.438-34.563 2.846-25.285-18.796-22.738-27.563-16.375-8.56 6.213-7.243 22.05-13.531 21.313-6.327-.742 3.495-13.197-7.562-21.594-21.385-5.004-19.5 12.148-33.032 15.375 7.627 9.249-4.192 27.977 5.469 29.906 8.563.585 13.615-3.724 18.719-1.812 3.188 1.586 5.07 3.574 6.187 5.844-7.378 12.06-17.377 15.34-25.718 14.124-8.607-1.253-15.23-7.055-15.907-16.593a7.5 7.5 0 0 0-4.312-6.281 7.52 7.52 0 0 0-7.594.75c-22.434 16.34-37.89 4.063-42.312-4.22-1.326-8.019.651-14.38 1.437-21.343 10.92-3.405 8.979 10.688 21.281 16.75C784.706 87.749 790.28 67.959 801.72 65c-7.832-4.48-2.988-32.057-10.282-35.781-7.293-3.725-21.148 18.487-28.812 10.75-4.804-6.256 14.186-9.874 16.813-23.656 3.13-16.426-21.88-14.543-25.907-29.657-3.927 16.802-28.208 7.186-28.593 20.375-.47 16.043 20.611 20.93 12.187 26.688-12.369 5.937-12.572-19.426-25.656-22.688-13.004-3.241-12.01 25.301-21.969 28.344 14.083 8.106 2.703 23.668 16.5 30.688 12.866 6.545 17.167-13.602 30.938-8.094.487 3.713 1.062 9.333-1.344 15.187-.176.185-.373.358-.532.563-10.817 13.902-19.44 15.926-26.906 14.437s-14.908-8.022-19.312-15.25a7.49 7.49 0 0 0-5.407-3.531 7.53 7.53 0 0 0-6.156 2c-8.595 8.174-16.395 11.061-23.75 10.719-6.357-.296-12.93-3.169-19.593-9.063-2.832-7.453-4.32-14.74-2.782-21.656 6.441-7.406 15.729 2.052 24.5 8.469 15.117 6.04 12.715-17.488 24.813-23.594-13.82-9.195-.45-25.827-16.25-29.687-15.594-4.302-21.564 18.169-26.032 10.593-4.731-8.022 19.118-10.77 18.094-24.5-.935-12.542-24.525-13.016-30.312-21.968z" style="fill:#eac102;fill-opacity:1;fill-rule:evenodd;stroke:#000;stroke-width:.91024864;stroke-linecap:round;stroke-linejoin:round;stroke-miterlimit:4;stroke-dasharray:none;stroke-opacity:1"/><path d="M463.937 92.48c0 6.03-4.89 10.92-10.92 10.92-6.032 0-10.921-4.89-10.921-10.92 0-6.032 4.89-10.921 10.92-10.921 6.032 0 10.921 4.89 10.921 10.92" style="fill:#e3e4e5;fill-opacity:1;fill-rule:evenodd;stroke:#000;stroke-width:.91024864;stroke-linecap:round;stroke-linejoin:round;marker:none;marker-start:none;marker-mid:none;marker-end:none;stroke-miterlimit:4;stroke-dasharray:none;stroke-dashoffset:0;stroke-opacity:1;visibility:visible;display:inline;overflow:visible" transform="translate(-1.106 -3.013)"/><path d="M463.937 92.48c0 6.03-4.89 10.92-10.92 10.92-6.032 0-10.921-4.89-10.921-10.92 0-6.032 4.89-10.921 10.92-10.921 6.032 0 10.921 4.89 10.921 10.92" style="fill:#e3e4e5;fill-opacity:1;fill-rule:evenodd;stroke:#000;stroke-width:.91024864;stroke-linecap:round;stroke-linejoin:round;marker:none;marker-start:none;marker-mid:none;marker-end:none;stroke-miterlimit:4;stroke-dasharray:none;stroke-dashoffset:0;stroke-opacity:1;visibility:visible;display:inline;overflow:visible" transform="translate(346.094 -3.013)"/><path d="M463.937 92.48c0 6.03-4.89 10.92-10.92 10.92-6.032 0-10.921-4.89-10.921-10.92 0-6.032 4.89-10.921 10.92-10.921 6.032 0 10.921 4.89 10.921 10.92" style="fill:#e3e4e5;fill-opacity:1;fill-rule:evenodd;stroke:#000;stroke-width:.91024864;stroke-linecap:round;stroke-linejoin:round;marker:none;marker-start:none;marker-mid:none;marker-end:none;stroke-miterlimit:4;stroke-dasharray:none;stroke-dashoffset:0;stroke-opacity:1;visibility:visible;display:inline;overflow:visible" transform="translate(229.357 -21.088)"/><path d="M463.937 92.48c0 6.03-4.89 10.92-10.92 10.92-6.032 0-10.921-4.89-10.921-10.92 0-6.032 4.89-10.921 10.92-10.921 6.032 0 10.921 4.89 10.921 10.92" style="fill:#e3e4e5;fill-opacity:1;fill-rule:evenodd;stroke:#000;stroke-width:.91024864;stroke-linecap:round;stroke-linejoin:round;marker:none;marker-start:none;marker-mid:none;marker-end:none;stroke-miterlimit:4;stroke-dasharray:none;stroke-dashoffset:0;stroke-opacity:1;visibility:visible;display:inline;overflow:visible" transform="translate(115.632 -21.088)"/><path d="M463.937 92.48c0 6.03-4.89 10.92-10.92 10.92-6.032 0-10.921-4.89-10.921-10.92 0-6.032 4.89-10.921 10.92-10.921 6.032 0 10.921 4.89 10.921 10.92" style="opacity:1;fill:#ed1c24;fill-opacity:1;fill-rule:evenodd;stroke:#000;stroke-width:.91024864;stroke-linecap:round;stroke-linejoin:round;marker:none;marker-start:none;marker-mid:none;marker-end:none;stroke-miterlimit:4;stroke-dasharray:none;stroke-dashoffset:0;stroke-opacity:1;visibility:visible;display:inline;overflow:visible" transform="translate(172.494 -56.573)"/><path d="M463.937 92.48c0 6.03-4.89 10.92-10.92 10.92-6.032 0-10.921-4.89-10.921-10.92 0-6.032 4.89-10.921 10.92-10.921 6.032 0 10.921 4.89 10.921 10.92" style="fill:#ed1c24;fill-opacity:1;fill-rule:evenodd;stroke:#000;stroke-width:.91024864;stroke-linecap:round;stroke-linejoin:round;marker:none;marker-start:none;marker-mid:none;marker-end:none;stroke-miterlimit:4;stroke-dasharray:none;stroke-dashoffset:0;stroke-opacity:1;visibility:visible;display:inline;overflow:visible" transform="translate(51.851 -42.793)"/><path d="M463.937 92.48c0 6.03-4.89 10.92-10.92 10.92-6.032 0-10.921-4.89-10.921-10.92 0-6.032 4.89-10.921 10.92-10.921 6.032 0 10.921 4.89 10.921 10.92" style="fill:#ed1c24;fill-opacity:1;fill-rule:evenodd;stroke:#000;stroke-width:.91024864;stroke-linecap:round;stroke-linejoin:round;marker:none;marker-start:none;marker-mid:none;marker-end:none;stroke-miterlimit:4;stroke-dasharray:none;stroke-dashoffset:0;stroke-opacity:1;visibility:visible;display:inline;overflow:visible" transform="matrix(-1 0 0 1 1199.17 -42.793)"/><path d="M385.378 79.882c-4.103 1.572-7.063 5.471-7.063 10.125 0 6.028 4.91 10.937 10.938 10.937 1.644 0 3.163-.442 4.562-1.094-.013-.242.017-.476 0-.718-.172-2.396-.53-4.798-1.219-7.188a28 28 0 0 0-1.281-3.562 28 28 0 0 0-1.875-3.5 29 29 0 0 0-2.5-3.438c-.454-.534-1.051-1.037-1.562-1.562" style="fill:#ed1c24;fill-opacity:1;fill-rule:evenodd;stroke:#000;stroke-width:.91024864;stroke-linecap:round;stroke-linejoin:round;marker:none;marker-start:none;marker-mid:none;marker-end:none;stroke-miterlimit:4;stroke-dasharray:none;stroke-dashoffset:0;stroke-opacity:1;visibility:visible;display:inline;overflow:visible"/><path d="M865.644 79.882c4.103 1.572 7.063 5.471 7.063 10.125 0 6.028-4.91 10.937-10.938 10.937-1.644 0-3.163-.442-4.562-1.094.013-.242-.018-.476 0-.718.171-2.396.53-4.798 1.218-7.188a28 28 0 0 1 1.282-3.562 28 28 0 0 1 1.875-3.5 29 29 0 0 1 2.5-3.438c.453-.534 1.051-1.037 1.562-1.562" style="fill:#ed1c24;fill-opacity:1;fill-rule:evenodd;stroke:#000;stroke-width:.91024864;stroke-linecap:round;stroke-linejoin:round;marker:none;marker-start:none;marker-mid:none;marker-end:none;stroke-miterlimit:4;stroke-dasharray:none;stroke-dashoffset:0;stroke-opacity:1;visibility:visible;display:inline;overflow:visible"/><path d="m596.298 148.15 29.213 16.912 29.212-16.912-29.212-16.912zm-166.503 20.663.368 14.745 12.902 11.058 17.324-25.065z" style="fill:#ed1c24;fill-opacity:1;fill-rule:evenodd;stroke:#000;stroke-width:.91024864px;stroke-linecap:butt;stroke-linejoin:miter;stroke-opacity:1"/><path d="M488.035 153.148a8.662 8.662 0 1 1-17.325 0 8.662 8.662 0 0 1 17.325 0" style="fill:#eac102;fill-opacity:1;fill-rule:evenodd;stroke:#000;stroke-width:.91024864;stroke-linecap:round;stroke-linejoin:round;marker:none;marker-start:none;marker-mid:none;marker-end:none;stroke-miterlimit:4;stroke-dasharray:none;stroke-dashoffset:0;stroke-opacity:1;visibility:visible;display:inline;overflow:visible" transform="translate(-5.53 2.212)"/><path d="M488.035 153.148a8.662 8.662 0 1 1-17.325 0 8.662 8.662 0 0 1 17.325 0" style="fill:#eac102;fill-opacity:1;fill-rule:evenodd;stroke:#000;stroke-width:.91024864;stroke-linecap:round;stroke-linejoin:round;marker:none;marker-start:none;marker-mid:none;marker-end:none;stroke-miterlimit:4;stroke-dasharray:none;stroke-dashoffset:0;stroke-opacity:1;visibility:visible;display:inline;overflow:visible" transform="translate(4.423 23.222)"/><path d="M488.035 153.148a8.662 8.662 0 1 1-17.325 0 8.662 8.662 0 0 1 17.325 0" style="fill:#eac102;fill-opacity:1;fill-rule:evenodd;stroke:#000;stroke-width:.91024864;stroke-linecap:round;stroke-linejoin:round;marker:none;marker-start:none;marker-mid:none;marker-end:none;stroke-miterlimit:4;stroke-dasharray:none;stroke-dashoffset:0;stroke-opacity:1;visibility:visible;display:inline;overflow:visible" transform="rotate(10.881 600.198 622.36)"/><path d="M488.035 153.148a8.662 8.662 0 1 1-17.325 0 8.662 8.662 0 0 1 17.325 0" style="fill:#eac102;fill-opacity:1;fill-rule:evenodd;stroke:#000;stroke-width:.91024864;stroke-linecap:round;stroke-linejoin:round;marker:none;marker-start:none;marker-mid:none;marker-end:none;stroke-miterlimit:4;stroke-dasharray:none;stroke-dashoffset:0;stroke-opacity:1;visibility:visible;display:inline;overflow:visible" transform="rotate(10.881 473.4 641.526)"/><rect width="49.025" height="26.171" x="475.132" y="208.624" rx="9.584" ry="9.584" style="fill:#008f4c;fill-opacity:1;fill-rule:evenodd;stroke:#000;stroke-width:.91024858;stroke-linecap:round;stroke-linejoin:round;marker:none;marker-start:none;marker-mid:none;marker-end:none;stroke-miterlimit:4;stroke-dasharray:none;stroke-dashoffset:0;stroke-opacity:1;visibility:visible;display:inline;overflow:visible" transform="rotate(-7.376)"/><path d="m820.82 168.813-.37 14.745-12.9 11.058-17.325-25.065z" style="fill:#ed1c24;fill-opacity:1;fill-rule:evenodd;stroke:#000;stroke-width:.91024864px;stroke-linecap:butt;stroke-linejoin:miter;stroke-opacity:1"/><path d="M488.035 153.148a8.662 8.662 0 1 1-17.325 0 8.662 8.662 0 0 1 17.325 0" style="fill:#eac102;fill-opacity:1;fill-rule:evenodd;stroke:#000;stroke-width:.91024864;stroke-linecap:round;stroke-linejoin:round;marker:none;marker-start:none;marker-mid:none;marker-end:none;stroke-miterlimit:4;stroke-dasharray:none;stroke-dashoffset:0;stroke-opacity:1;visibility:visible;display:inline;overflow:visible" transform="matrix(-1 0 0 1 1256.143 2.212)"/><path d="M488.035 153.148a8.662 8.662 0 1 1-17.325 0 8.662 8.662 0 0 1 17.325 0" style="fill:#eac102;fill-opacity:1;fill-rule:evenodd;stroke:#000;stroke-width:.91024864;stroke-linecap:round;stroke-linejoin:round;marker:none;marker-start:none;marker-mid:none;marker-end:none;stroke-miterlimit:4;stroke-dasharray:none;stroke-dashoffset:0;stroke-opacity:1;visibility:visible;display:inline;overflow:visible" transform="matrix(-1 0 0 1 1246.19 23.222)"/><path d="M488.035 153.148a8.662 8.662 0 1 1-17.325 0 8.662 8.662 0 0 1 17.325 0" style="fill:#eac102;fill-opacity:1;fill-rule:evenodd;stroke:#000;stroke-width:.91024864;stroke-linecap:round;stroke-linejoin:round;marker:none;marker-start:none;marker-mid:none;marker-end:none;stroke-miterlimit:4;stroke-dasharray:none;stroke-dashoffset:0;stroke-opacity:1;visibility:visible;display:inline;overflow:visible" transform="rotate(169.119 566.033 2.391)scale(1 -1)"/><path d="M488.035 153.148a8.662 8.662 0 1 1-17.325 0 8.662 8.662 0 0 1 17.325 0" style="fill:#eac102;fill-opacity:1;fill-rule:evenodd;stroke:#000;stroke-width:.91024864;stroke-linecap:round;stroke-linejoin:round;marker:none;marker-start:none;marker-mid:none;marker-end:none;stroke-miterlimit:4;stroke-dasharray:none;stroke-dashoffset:0;stroke-opacity:1;visibility:visible;display:inline;overflow:visible" transform="rotate(-10.881 151.91 -5924)scale(-1 1)"/><rect width="49.025" height="26.171" x="-765.133" y="48.063" rx="9.584" ry="9.584" style="fill:#008f4c;fill-opacity:1;fill-rule:evenodd;stroke:#000;stroke-width:.91024858;stroke-linecap:round;stroke-linejoin:round;marker:none;marker-start:none;marker-mid:none;marker-end:none;stroke-miterlimit:4;stroke-dasharray:none;stroke-dashoffset:0;stroke-opacity:1;visibility:visible;display:inline;overflow:visible" transform="rotate(7.376)scale(-1 1)"/></g><path d="m569.696-26.094-.468.782c-5.787 8.952-29.378 9.426-30.313 21.968-1.024 13.73 22.794 16.478 18.063 24.5-4.468 7.576-10.438-14.895-26.032-10.593-15.8 3.86-2.399 20.492-16.218 29.687 12.098 6.106 9.695 29.633 24.812 23.594 8.772-6.417 18.06-15.875 24.5-8.469 1.523 6.848.098 14.06-2.687 21.438-6.746 6.04-13.44 8.981-19.875 9.28-6.344.296-13.045-1.826-20.282-7.656 1.6-1.9 2.563-4.354 2.563-7.03 0-6.029-4.91-10.938-10.938-10.938s-10.906 4.91-10.906 10.937c0 2.878 1.116 5.486 2.938 7.438-4.483 6.428-11.241 11.958-18.032 13.312-7.465 1.49-16.088-.535-26.906-14.437-.023-.03-.039-.064-.062-.094-2.638-6.024-2.094-11.843-1.594-15.656 13.77-5.508 18.102 14.64 30.969 8.093 13.797-7.019 2.417-22.581 16.5-30.687-9.96-3.043-8.965-31.585-21.97-28.344-13.083 3.262-13.287 28.625-25.655 22.688-8.424-5.758 12.625-10.645 12.156-26.688-.386-13.19-24.635-3.573-28.563-20.375C437.67 1.77 412.66-.114 415.79 16.313c2.627 13.782 21.617 17.4 16.813 23.656-7.665 7.737-21.52-14.475-28.813-10.75s-2.45 31.3-10.28 35.781c11.44 2.959 16.981 22.749 29.156 16.75 12.303-6.062 10.361-20.155 21.281-16.75.765 6.775 2.68 12.971 1.563 20.688-3.726 7.82-18.005 20.227-39.063 7.28a10.9 10.9 0 0 0 .563-3.5c0-6.027-4.878-10.937-10.906-10.937s-10.938 4.91-10.938 10.938c0 3.998 2.167 7.472 5.375 9.375-1.64 7.9-7.725 12.715-15.469 13.844-8.299 1.209-18.226-2.027-25.593-13.938 1.105-2.344 2.977-4.402 6.25-6.031 5.103-1.912 10.187 2.397 18.75 1.812 9.66-1.929-2.19-20.657 5.437-29.906-13.531-3.227-11.646-20.38-33.031-15.375-11.058 8.397-1.204 20.852-7.531 21.594-6.288.737-4.972-15.1-13.532-21.313-8.766-6.363-30.409-8.91-27.562 16.375 16.006-4.283 22.94 4.523 28.187 15.781-2.407 1.982-3.937 4.95-3.937 8.313 0 6.028 4.91 10.938 10.937 10.938.422 0 .814-.009 1.22-.063a7.5 7.5 0 0 0 .968 3.969c3.877 6.79 8.75 12.047 14.156 15.812 3.538 8.631 7.498 16.437 11.594 23.906a6.51 6.51 0 0 0-3.406 4.875 6.52 6.52 0 0 0 2.593 6.094 6.47 6.47 0 0 0 6.563.688c.216-.092.439-.19.656-.281 2.413 4.266 4.819 8.552 7.125 12.906l-.937-.031.375 14.75 11.656 10a146 146 0 0 1 2.5 7.718 8.5 8.5 0 0 0-4.313 6.063 8.47 8.47 0 0 0 3.188 8.125 8.5 8.5 0 0 0 8.687 1.031c.074-.029.146-.065.22-.094a8.4 8.4 0 0 0 2.343.594c115.593 16.891 230.024 19.404 342.469-.031a8.7 8.7 0 0 0 2.156-.625c.165.063.336.124.5.187a8.51 8.51 0 0 0 11-4.875c1.546-4.008-.16-8.472-3.813-10.5a146 146 0 0 1 2.657-8.156l11.03-9.437.376-14.75h-.5c2.302-4.346 4.685-8.617 7.094-12.875.257.106.525.205.78.312a6.49 6.49 0 0 0 6.5-.781 6.53 6.53 0 0 0 2.532-6.063c-.28-2.09-1.57-3.867-3.406-4.844 4.135-7.54 8.156-15.425 11.719-24.156 5.258-3.745 10.025-8.93 13.812-15.562.782-1.202 1.137-2.585 1.156-3.969.415.057.818.063 1.25.063 6.029 0 10.938-4.91 10.938-10.938 0-3.364-1.53-6.33-3.938-8.312 5.255-11.257 12.211-20.065 28.22-15.782 2.846-25.285-18.797-22.738-27.563-16.375-8.56 6.213-7.244 22.05-13.532 21.313-6.327-.742 3.496-13.197-7.562-21.594-21.385-5.004-19.5 12.148-33.031 15.375 7.627 9.249-4.192 27.977 5.468 29.906 8.563.585 13.616-3.724 18.72-1.812 3.187 1.586 5.07 3.574 6.187 5.844-7.378 12.06-17.377 15.34-25.72 14.124-7.692-1.12-13.806-5.879-15.5-13.687a10.92 10.92 0 0 0 5.595-9.531c0-6.028-4.91-10.938-10.938-10.938s-10.906 4.91-10.906 10.938c0 1.18.185 2.31.531 3.375-20.59 12.791-34.711 1.356-38.906-6.5-1.326-8.02.652-14.38 1.437-21.344 10.92-3.405 8.98 10.688 21.282 16.75 12.175 5.999 17.748-13.791 29.187-16.75-7.831-4.48-2.987-32.057-10.281-35.781-7.294-3.725-21.148 18.487-28.813 10.75-4.803-6.256 14.187-9.874 16.813-23.656 3.13-16.426-21.88-14.543-25.906-29.657C693.8 3.458 669.52-6.158 669.134 7.031c-.47 16.043 20.611 20.93 12.187 26.688-12.368 5.937-12.571-19.426-25.656-22.688-13.003-3.241-12.009 25.301-21.969 28.344 14.084 8.106 2.703 23.668 16.5 30.688 12.867 6.545 17.168-13.602 30.938-8.094.487 3.713 1.063 9.333-1.344 15.187-.176.185-.373.358-.531.563-10.817 13.902-19.441 15.926-26.906 14.437-6.733-1.343-13.454-6.798-17.938-13.156a10.87 10.87 0 0 0 3.063-7.594c0-6.028-4.878-10.937-10.907-10.937-6.028 0-10.937 4.91-10.937 10.937 0 2.629.951 5.021 2.5 6.906-7.29 5.927-14.017 8.08-20.406 7.782-6.358-.296-12.93-3.169-19.594-9.063-2.832-7.453-4.32-14.74-2.781-21.656 6.44-7.406 15.728 2.052 24.5 8.469 15.117 6.04 12.714-17.488 24.812-23.594-13.82-9.195-.45-25.827-16.25-29.687-15.594-4.302-21.563 18.169-26.031 10.593-4.732-8.022 19.117-10.77 18.094-24.5-.936-12.542-24.526-13.016-30.313-21.968z" style="fill:none;fill-opacity:1;fill-rule:evenodd;stroke:#000;stroke-width:2.73074627;stroke-linecap:butt;stroke-linejoin:miter;stroke-miterlimit:4;stroke-dasharray:none;stroke-opacity:1" transform="translate(114.07 139.96)scale(.24134)"/><path d="M110.736 521.096c.014 8.488-.03 16.976.022 25.464.27 7.617 6.1 14.574 13.546 16.183 6.888 1.678 14.599-1.338 18.486-7.284 2.329-3.326 3.186-7.442 2.994-11.448v-22.915z" style="fill:none;fill-opacity:1;fill-rule:evenodd;stroke:none;stroke-width:1;stroke-linecap:butt;stroke-linejoin:miter;marker:none;marker-start:none;marker-mid:none;marker-end:none;stroke-miterlimit:4;stroke-dasharray:none;stroke-dashoffset:0;stroke-opacity:1;visibility:visible;display:inline;overflow:visible" transform="translate(-149.554 -1427.03)scale(3.125)"/><path d="M119.223 560.663c.083.051.163.106.246.156-.078-.053-.14-.104-.237-.152z" style="fill:#0071bc;fill-opacity:1;fill-rule:evenodd;stroke:#000;stroke-width:.07029692;stroke-linecap:butt;stroke-linejoin:miter;marker:none;marker-start:none;marker-mid:none;marker-end:none;stroke-miterlimit:4;stroke-dasharray:none;stroke-dashoffset:0;stroke-opacity:1;visibility:visible;display:inline;overflow:visible" transform="translate(-149.554 -1427.03)scale(3.125)"/><path d="m133.377 562.405-.026.004a1.5 1.5 0 0 1-.694-.169 2 2 0 0 1-.264-.154q-.118-.08-.213-.149a3 3 0 0 0-.297-.193.4.4 0 0 0-.178-.06.4.4 0 0 0-.177.06c-.076.04-.173.102-.3.193q-.093.069-.212.15c-.08.052-.167.106-.264.153q-.144.073-.316.121a1.5 1.5 0 0 1-1.072-.12 2 2 0 0 1-.262-.155q-.119-.08-.213-.149a3 3 0 0 0-.299-.193.4.4 0 0 0-.177-.06.4.4 0 0 0-.178.06c-.076.04-.173.102-.3.193q-.093.069-.212.15a2 2 0 0 1-.262.153q-.145.073-.318.121a1.5 1.5 0 0 1-.752 0 1.7 1.7 0 0 1-.318-.12 2 2 0 0 1-.261-.155q-.119-.08-.214-.149a3 3 0 0 0-.298-.193.4.4 0 0 0-.178-.06.4.4 0 0 0-.178.06q-.112.058-.299.193-.095.069-.213.15c-.08.052-.167.106-.264.153q-.143.073-.316.121a1.5 1.5 0 0 1-1.072-.12 2 2 0 0 1-.261-.155q-.119-.08-.214-.149a3 3 0 0 0-.298-.193.4.4 0 0 0-.178-.06.4.4 0 0 0-.178.06c-.038.02-.1.064-.15.096 1.585.68 3.267 1.133 5.007 1.279 2.314.243 4.656-.026 6.87-.714z" style="fill:#0071bc;fill-opacity:1;fill-rule:evenodd;stroke:#000;stroke-width:.07029692;stroke-linecap:butt;stroke-linejoin:miter;marker:none;marker-start:none;marker-mid:none;marker-end:none;stroke-miterlimit:4;stroke-dasharray:none;stroke-dashoffset:0;stroke-opacity:1;visibility:visible;display:inline;overflow:visible" transform="translate(-149.554 -1427.03)scale(3.125)"/><path d="M135.172 561.744a.4.4 0 0 0-.176-.06.4.4 0 0 0-.178.06c-.076.04-.172.102-.298.193q-.096.069-.214.15c.292-.109.58-.22.866-.343z" style="fill:#0071bc;fill-opacity:1;fill-rule:evenodd;stroke:#000;stroke-width:.07029692;stroke-linecap:butt;stroke-linejoin:miter;marker:none;marker-start:none;marker-mid:none;marker-end:none;stroke-miterlimit:4;stroke-dasharray:none;stroke-dashoffset:0;stroke-opacity:1;visibility:visible;display:inline;overflow:visible" transform="translate(-149.554 -1427.03)scale(3.125)"/><path d="M136.426 561.142a3 3 0 0 1-.261-.17c-.126-.09-.282-.209-.475-.305a1.7 1.7 0 0 0-.318-.12 1.47 1.47 0 0 0-.751 0q-.174.047-.319.12c-.193.096-.348.215-.474.306a3 3 0 0 1-.3.193.4.4 0 0 1-.177.057.4.4 0 0 1-.178-.057 3 3 0 0 1-.299-.193c-.126-.091-.282-.21-.474-.306a1.7 1.7 0 0 0-.319-.12 1.47 1.47 0 0 0-.753 0q-.173.047-.317.12t-.263.154q-.12.081-.213.152a3 3 0 0 1-.3.193.4.4 0 0 1-.177.057.4.4 0 0 1-.178-.057 3 3 0 0 1-.299-.193c-.126-.091-.282-.21-.474-.306a1.7 1.7 0 0 0-.319-.12 1.47 1.47 0 0 0-.751 0q-.173.047-.319.12c-.192.096-.348.215-.474.306a3 3 0 0 1-.299.193.4.4 0 0 1-.178.057.4.4 0 0 1-.178-.057 3 3 0 0 1-.299-.193c-.126-.091-.281-.21-.474-.306a1.7 1.7 0 0 0-.319-.12 1.47 1.47 0 0 0-.753 0q-.173.047-.316.12-.145.073-.264.154t-.213.152a3 3 0 0 1-.299.193.4.4 0 0 1-.178.057.4.4 0 0 1-.178-.057 3 3 0 0 1-.299-.193c-.126-.091-.281-.21-.474-.306a1.7 1.7 0 0 0-.319-.12 1.47 1.47 0 0 0-.75 0q-.174.047-.32.12c-.192.096-.348.215-.474.306-.126.09-.223.153-.299.193a.4.4 0 0 1-.16.05q.637.34 1.3.624c.05-.032.112-.076.15-.096a.4.4 0 0 1 .178-.06c.046 0 .102.02.178.06s.172.102.298.193q.096.069.214.15c.078.052.165.106.261.153q.144.073.319.121a1.5 1.5 0 0 0 .753 0c.116-.03.22-.073.316-.12q.145-.074.264-.155.12-.08.213-.149c.126-.09.223-.153.299-.193a.4.4 0 0 1 .178-.06c.046 0 .102.02.178.06s.172.102.298.193q.096.069.214.15c.078.052.165.106.261.153q.145.073.318.121a1.5 1.5 0 0 0 .752 0c.115-.03.222-.073.318-.12q.144-.074.262-.155.118-.08.213-.149.187-.134.299-.193a.4.4 0 0 1 .178-.06c.046 0 .101.02.177.06s.173.102.3.193q.093.069.212.15c.08.052.165.106.262.153q.145.073.318.121a1.5 1.5 0 0 0 .754 0c.115-.03.22-.073.316-.12q.145-.074.264-.155.119-.08.213-.149.187-.134.299-.193a.4.4 0 0 1 .177-.06c.047 0 .103.02.178.06.076.04.17.102.297.193q.095.069.213.15c.08.052.167.106.264.153q.143.073.316.121.174.046.378.048c.01 0 .017-.004.026-.004q.465-.144.923-.314l.006-.005q.119-.08.214-.149c.126-.09.222-.153.298-.193a.4.4 0 0 1 .178-.06.4.4 0 0 1 .176.06h.002a18 18 0 0 0 1.252-.602z" style="fill:#e3e4e5;fill-opacity:1;fill-rule:evenodd;stroke:#000;stroke-width:.07029692;stroke-linecap:butt;stroke-linejoin:miter;marker:none;marker-start:none;marker-mid:none;marker-end:none;stroke-miterlimit:4;stroke-dasharray:none;stroke-dashoffset:0;stroke-opacity:1;visibility:visible;display:inline;overflow:visible" transform="translate(-149.554 -1427.03)scale(3.125)"/><path d="m138.909 559.565-.145-.104a3 3 0 0 0-.299-.193.4.4 0 0 0-.178-.057.4.4 0 0 0-.178.057q-.112.059-.299.193c-.126.09-.281.21-.474.306q-.145.073-.319.12a1.47 1.47 0 0 1-.751 0 1.7 1.7 0 0 1-.319-.12c-.192-.096-.348-.215-.474-.306a3 3 0 0 0-.299-.193.4.4 0 0 0-.178-.057.4.4 0 0 0-.178.057c-.076.04-.172.103-.298.193-.127.09-.282.21-.475.306q-.145.073-.318.12a1.47 1.47 0 0 1-.754 0 1.7 1.7 0 0 1-.316-.12 2 2 0 0 1-.264-.154q-.118-.081-.213-.152a3 3 0 0 0-.297-.193.4.4 0 0 0-.178-.057.4.4 0 0 0-.177.057c-.076.04-.173.103-.3.193q-.093.07-.212.152-.12.08-.264.154-.144.073-.316.12a1.5 1.5 0 0 1-.754 0 1.7 1.7 0 0 1-.318-.12c-.193-.096-.349-.215-.475-.306a3 3 0 0 0-.299-.193.4.4 0 0 0-.177-.057.4.4 0 0 0-.178.057c-.076.04-.173.103-.3.193-.125.09-.281.21-.474.306q-.145.073-.318.12a1.47 1.47 0 0 1-.752 0 1.7 1.7 0 0 1-.318-.12c-.193-.096-.348-.215-.475-.306a3 3 0 0 0-.298-.193.4.4 0 0 0-.178-.057.4.4 0 0 0-.178.057q-.112.059-.299.193-.095.07-.213.152-.12.08-.264.154-.143.073-.316.12a1.5 1.5 0 0 1-.753 0 1.7 1.7 0 0 1-.319-.12c-.193-.096-.348-.215-.475-.306a3 3 0 0 0-.298-.193.4.4 0 0 0-.178-.057.4.4 0 0 0-.178.057q-.112.059-.299.193c-.126.09-.282.21-.474.306q-.146.073-.319.12a1.47 1.47 0 0 1-.751 0 1.7 1.7 0 0 1-.319-.12c-.192-.096-.348-.215-.474-.306a3 3 0 0 0-.3-.193.4.4 0 0 0-.177-.057.4.4 0 0 0-.178.057q-.112.059-.299.193c-.08.057-.193.127-.298.194q.705.54 1.46 1.008l.01.004c.095.048.158.099.236.152.24.142.487.267.732.398a.4.4 0 0 0 .16-.051c.076-.04.173-.103.3-.193.125-.09.28-.21.474-.306q.145-.073.318-.12a1.47 1.47 0 0 1 .751 0q.174.047.319.12c.193.096.348.215.474.306.127.09.223.153.3.193.075.04.13.057.177.057a.4.4 0 0 0 .178-.057 3 3 0 0 0 .299-.193q.094-.07.213-.152.12-.08.264-.154.143-.073.316-.12a1.5 1.5 0 0 1 .753 0q.174.047.319.12c.193.096.348.215.474.306.127.09.223.153.3.193.075.04.13.057.177.057a.4.4 0 0 0 .178-.057 3 3 0 0 0 .299-.193c.126-.09.282-.21.474-.306q.146-.073.319-.12a1.47 1.47 0 0 1 .751 0q.174.047.319.12c.192.096.348.215.474.306q.187.134.299.193c.076.04.131.057.178.057a.4.4 0 0 0 .178-.057 3 3 0 0 0 .299-.193q.094-.07.213-.152.119-.08.263-.154.144-.073.317-.12a1.5 1.5 0 0 1 .753 0q.173.047.319.12c.192.096.348.215.474.306q.187.134.299.193c.076.04.131.057.178.057a.4.4 0 0 0 .178-.057 3 3 0 0 0 .299-.193c.126-.09.281-.21.474-.306q.144-.073.319-.12a1.47 1.47 0 0 1 .75 0q.174.047.32.12c.192.096.348.215.474.306.11.079.19.129.261.169.869-.457 1.7-.985 2.483-1.577z" style="fill:#0071bc;fill-opacity:1;fill-rule:evenodd;stroke:#000;stroke-width:.07029692;stroke-linecap:butt;stroke-linejoin:miter;marker:none;marker-start:none;marker-mid:none;marker-end:none;stroke-miterlimit:4;stroke-dasharray:none;stroke-dashoffset:0;stroke-opacity:1;visibility:visible;display:inline;overflow:visible" transform="translate(-149.554 -1427.03)scale(3.125)"/><path d="M139.917 558.743a.4.4 0 0 1-.16-.053 3 3 0 0 1-.3-.193c-.062-.045-.133-.099-.212-.152a2 2 0 0 0-.264-.153 1.5 1.5 0 0 0-1.07-.12 1.6 1.6 0 0 0-.318.12c-.193.096-.349.214-.475.305-.126.09-.222.153-.298.193a.4.4 0 0 1-.178.06.4.4 0 0 1-.178-.06 3 3 0 0 1-.299-.193c-.126-.09-.282-.21-.475-.305a1.7 1.7 0 0 0-.318-.121 1.47 1.47 0 0 0-.751 0 1.7 1.7 0 0 0-.319.12c-.193.097-.348.215-.474.306-.127.09-.223.153-.3.193a.4.4 0 0 1-.177.06.4.4 0 0 1-.178-.06 3 3 0 0 1-.299-.193c-.126-.09-.282-.21-.474-.305a1.7 1.7 0 0 0-.319-.121 1.47 1.47 0 0 0-.753 0c-.116.03-.22.073-.317.12q-.144.074-.263.154c-.08.053-.15.107-.213.152-.127.09-.223.153-.3.193a.4.4 0 0 1-.177.06.4.4 0 0 1-.178-.06 3 3 0 0 1-.299-.193c-.126-.09-.282-.21-.474-.305a1.7 1.7 0 0 0-.319-.121 1.47 1.47 0 0 0-.751 0c-.115.03-.222.073-.319.12-.192.097-.348.215-.474.306-.126.09-.223.153-.299.193a.4.4 0 0 1-.178.06.4.4 0 0 1-.178-.06 3 3 0 0 1-.299-.193c-.126-.09-.281-.21-.474-.305a1.7 1.7 0 0 0-.319-.121 1.47 1.47 0 0 0-.753 0 1.7 1.7 0 0 0-.316.12q-.145.074-.264.154c-.08.053-.15.107-.213.152-.126.09-.223.153-.299.193a.4.4 0 0 1-.178.06.4.4 0 0 1-.178-.06 3 3 0 0 1-.299-.193c-.126-.09-.281-.21-.474-.305a1.7 1.7 0 0 0-.319-.121 1.47 1.47 0 0 0-.75 0c-.116.03-.223.073-.32.12-.192.097-.348.215-.474.306-.126.09-.223.153-.299.193a.4.4 0 0 1-.178.06.4.4 0 0 1-.178-.06 3 3 0 0 1-.298-.193c-.126-.09-.282-.21-.475-.305a1.7 1.7 0 0 0-.318-.121 1.47 1.47 0 0 0-.754 0c-.115.03-.22.073-.316.12q-.145.074-.264.154c-.079.053-.15.107-.213.152-.126.09-.221.153-.296.193a.4.4 0 0 1-.178.06.4.4 0 0 1-.178-.06 3 3 0 0 1-.3-.193l-.107-.077q.695.655 1.455 1.235c.105-.067.219-.137.298-.194.126-.09.223-.153.3-.193a.4.4 0 0 1 .177-.057c.047 0 .102.017.178.057q.112.059.299.193c.126.09.282.21.474.306q.145.073.319.12a1.47 1.47 0 0 0 .751 0q.173-.047.319-.12c.192-.096.348-.215.474-.306.126-.09.223-.153.299-.193a.4.4 0 0 1 .178-.057c.046 0 .102.017.178.057s.172.103.298.193c.127.09.282.21.475.306q.144.073.319.12a1.47 1.47 0 0 0 .753 0q.173-.047.316-.12.145-.073.264-.154t.213-.152c.126-.09.223-.153.299-.193a.4.4 0 0 1 .178-.057c.046 0 .102.017.178.057a3 3 0 0 1 .298.193c.127.09.282.21.475.306q.145.073.318.12a1.47 1.47 0 0 0 .752 0q.173-.047.318-.12c.193-.096.349-.215.475-.306q.187-.134.299-.193a.4.4 0 0 1 .178-.057c.046 0 .101.017.177.057s.173.103.3.193c.125.09.281.21.474.306q.145.073.318.12a1.47 1.47 0 0 0 .754 0q.172-.047.316-.12t.264-.154q.119-.081.213-.152.187-.134.299-.193a.4.4 0 0 1 .177-.057.4.4 0 0 1 .178.057c.076.04.17.103.297.193q.095.07.213.152.12.08.264.154.143.073.316.12a1.5 1.5 0 0 0 .754 0q.173-.047.318-.12c.193-.096.348-.215.475-.306.126-.09.222-.153.298-.193a.4.4 0 0 1 .178-.057c.047 0 .102.017.178.057s.173.103.299.193.282.21.474.306q.146.073.319.12a1.47 1.47 0 0 0 .751 0q.174-.047.319-.12c.193-.096.348-.215.474-.306.126-.09.223-.153.3-.193a.4.4 0 0 1 .177-.057c.047 0 .102.017.178.057q.112.059.299.193l.145.104q.519-.393 1.008-.822z" style="fill:#e3e4e5;fill-opacity:1;fill-rule:evenodd;stroke:#000;stroke-width:.07029692;stroke-linecap:butt;stroke-linejoin:miter;marker:none;marker-start:none;marker-mid:none;marker-end:none;stroke-miterlimit:4;stroke-dasharray:none;stroke-dashoffset:0;stroke-opacity:1;visibility:visible;display:inline;overflow:visible" transform="translate(-149.554 -1427.03)scale(3.125)"/><path d="M141.789 556.814c-.009-.004-.023-.015-.031-.02a.4.4 0 0 0-.178-.059.4.4 0 0 0-.178.06q-.112.058-.299.193-.094.068-.213.15a2 2 0 0 1-.261.153q-.145.073-.319.12a1.5 1.5 0 0 1-.753 0 1.7 1.7 0 0 1-.317-.12 2 2 0 0 1-.263-.154q-.12-.08-.213-.15a3 3 0 0 0-.299-.193.4.4 0 0 0-.178-.059.4.4 0 0 0-.178.06q-.112.058-.299.193-.094.068-.213.15a2 2 0 0 1-.261.153q-.145.073-.319.12a1.5 1.5 0 0 1-.751 0 1.7 1.7 0 0 1-.319-.12 2 2 0 0 1-.261-.154q-.119-.08-.213-.15a3 3 0 0 0-.299-.193.4.4 0 0 0-.178-.059.4.4 0 0 0-.178.06c-.076.04-.172.102-.298.193l-.214.15a2 2 0 0 1-.26.153q-.146.073-.32.12a1.5 1.5 0 0 1-.753 0 1.7 1.7 0 0 1-.316-.12 2 2 0 0 1-.264-.154q-.118-.08-.213-.15a3 3 0 0 0-.297-.193.4.4 0 0 0-.178-.059.4.4 0 0 0-.177.06c-.076.04-.173.102-.3.193q-.093.068-.212.15-.12.08-.264.153t-.316.12a1.5 1.5 0 0 1-1.072-.12 2 2 0 0 1-.262-.154q-.119-.08-.213-.15a3 3 0 0 0-.299-.193.4.4 0 0 0-.177-.059.4.4 0 0 0-.178.06c-.076.04-.173.102-.3.193q-.093.068-.212.15a2 2 0 0 1-.262.153q-.145.073-.318.12a1.5 1.5 0 0 1-.752 0 1.7 1.7 0 0 1-.318-.12 2 2 0 0 1-.261-.154q-.119-.08-.214-.15a3 3 0 0 0-.298-.193.4.4 0 0 0-.178-.059.4.4 0 0 0-.178.06q-.112.058-.299.193l-.213.15q-.12.08-.264.153-.143.073-.316.12a1.5 1.5 0 0 1-1.072-.12 2 2 0 0 1-.261-.154q-.119-.08-.214-.15a3 3 0 0 0-.298-.193.4.4 0 0 0-.178-.059.4.4 0 0 0-.178.06 3 3 0 0 0-.299.193l-.213.15a2 2 0 0 1-.261.153q-.146.073-.319.12a1.5 1.5 0 0 1-.751 0 1.7 1.7 0 0 1-.319-.12 2 2 0 0 1-.261-.154q-.12-.08-.213-.15a3 3 0 0 0-.3-.193.4.4 0 0 0-.177-.059.4.4 0 0 0-.178.06q-.112.058-.299.193-.094.068-.213.15a2 2 0 0 1-.261.153q-.145.073-.319.12a1.5 1.5 0 0 1-.753 0 1.7 1.7 0 0 1-.317-.12 2 2 0 0 1-.263-.154q-.12-.08-.213-.15a3 3 0 0 0-.299-.193.4.4 0 0 0-.178-.059.4.4 0 0 0-.178.06c-.05.026-.127.079-.198.127.448.528.935 1.023 1.44 1.498l.107.077c.126.09.223.153.299.193s.131.06.178.06a.4.4 0 0 0 .178-.06c.075-.04.17-.102.296-.193.063-.045.134-.099.213-.152q.12-.08.264-.153a1.5 1.5 0 0 1 1.07-.12c.115.029.222.072.318.12.193.096.349.214.475.305.126.09.222.153.298.193s.132.06.178.06a.4.4 0 0 0 .178-.06c.076-.04.173-.102.3-.193.125-.09.28-.21.474-.305a1.6 1.6 0 0 1 .318-.121 1.47 1.47 0 0 1 .751 0c.116.03.223.073.319.12.193.097.348.215.474.306.127.09.223.153.3.193.075.04.13.06.177.06a.4.4 0 0 0 .178-.06q.112-.058.299-.193c.063-.045.134-.099.213-.152q.12-.08.264-.153a1.5 1.5 0 0 1 1.07-.12c.115.029.222.072.318.12.193.096.348.214.474.305.127.09.223.153.3.193.075.04.13.06.177.06a.4.4 0 0 0 .178-.06q.112-.058.299-.193c.126-.09.282-.21.474-.305.097-.048.204-.091.319-.121a1.47 1.47 0 0 1 .751 0c.116.03.222.073.319.12.192.097.348.215.474.306q.187.134.299.193c.076.04.131.06.178.06a.4.4 0 0 0 .178-.06 3 3 0 0 0 .299-.193c.063-.045.134-.099.213-.152q.119-.08.263-.153a1.5 1.5 0 0 1 1.07-.12c.115.029.222.072.319.12.192.096.348.214.474.305q.187.134.299.193c.076.04.131.06.178.06a.4.4 0 0 0 .178-.06 3 3 0 0 0 .299-.193c.126-.09.281-.21.474-.305.096-.048.203-.091.319-.121a1.47 1.47 0 0 1 .75 0c.116.03.223.073.32.12.192.097.348.215.474.306q.187.134.299.193c.076.04.131.06.178.06a.4.4 0 0 0 .178-.06c.076-.04.172-.102.298-.193.126-.09.282-.21.475-.305a1.6 1.6 0 0 1 .318-.121 1.47 1.47 0 0 1 .754 0c.115.03.22.073.316.12q.146.074.264.154c.079.053.15.107.213.152q.187.134.299.193a.4.4 0 0 0 .16.053c.672-.593 1.3-1.236 1.872-1.929z" style="fill:#0071bc;fill-opacity:1;fill-rule:evenodd;stroke:#000;stroke-width:.07029692;stroke-linecap:butt;stroke-linejoin:miter;marker:none;marker-start:none;marker-mid:none;marker-end:none;stroke-miterlimit:4;stroke-dasharray:none;stroke-dashoffset:0;stroke-opacity:1;visibility:visible;display:inline;overflow:visible" transform="translate(-149.554 -1427.03)scale(3.125)"/><path d="M110.753 542.438c.012 1.646.023 3.29.052 4.934.258 3.139 1.475 6.107 3.33 8.612.118-.085.248-.182.416-.266q.145-.074.318-.12a1.47 1.47 0 0 1 .754 0q.172.046.316.12.145.072.264.154c.079.053.15.106.213.151a3 3 0 0 0 .299.194c.076.04.131.057.178.057a.4.4 0 0 0 .178-.057c.075-.04.17-.103.296-.194.063-.045.134-.098.213-.151q.12-.08.264-.154.143-.074.316-.12a1.5 1.5 0 0 1 .754 0q.173.046.318.12c.193.096.349.215.475.305.126.091.222.154.298.194s.132.057.178.057a.4.4 0 0 0 .178-.057c.076-.04.173-.103.3-.194.125-.09.28-.21.474-.305q.145-.074.318-.12a1.47 1.47 0 0 1 .751 0q.174.046.319.12c.193.096.348.215.474.305a3 3 0 0 0 .3.194c.075.04.13.057.177.057a.4.4 0 0 0 .178-.057 3 3 0 0 0 .299-.194c.063-.045.134-.098.213-.151q.12-.08.264-.154.143-.074.316-.12a1.5 1.5 0 0 1 .753 0q.174.046.319.12c.193.096.348.215.474.305a3 3 0 0 0 .3.194c.075.04.13.057.177.057a.4.4 0 0 0 .178-.057 3 3 0 0 0 .299-.194c.126-.09.282-.21.474-.305q.146-.074.319-.12a1.47 1.47 0 0 1 .751 0q.174.046.319.12c.192.096.348.215.474.305a3 3 0 0 0 .299.194c.076.04.131.057.178.057a.4.4 0 0 0 .178-.057 3 3 0 0 0 .299-.194c.063-.045.134-.098.213-.151q.119-.08.263-.154t.317-.12a1.5 1.5 0 0 1 .753 0q.173.046.319.12c.192.096.348.215.474.305a3 3 0 0 0 .299.194c.076.04.131.057.178.057a.4.4 0 0 0 .178-.057 3 3 0 0 0 .299-.194c.126-.09.281-.21.474-.305q.144-.074.319-.12a1.47 1.47 0 0 1 .75 0q.174.046.32.12c.192.096.348.215.474.305a3 3 0 0 0 .299.194c.076.04.131.057.178.057a.4.4 0 0 0 .178-.057 3 3 0 0 0 .298-.194c.126-.09.282-.21.475-.305q.145-.074.318-.12a1.47 1.47 0 0 1 .754 0q.172.046.316.12.146.072.264.154c.079.053.15.106.213.151a3 3 0 0 0 .299.194c.076.04.131.057.178.057a.4.4 0 0 0 .178-.057 3 3 0 0 0 .298-.194c.126-.09.282-.21.475-.305q.145-.074.318-.12a1.47 1.47 0 0 1 .752 0q.173.046.318.12c.097.048.16.1.24.154q.358-.504.678-1.037c2.34-3.618 2.788-8.042 2.582-12.247v-.15z" style="fill:#0071bc;fill-opacity:1;fill-rule:evenodd;stroke:#000;stroke-width:.07029692;stroke-linecap:butt;stroke-linejoin:miter;marker:none;marker-start:none;marker-mid:none;marker-end:none;stroke-miterlimit:4;stroke-dasharray:none;stroke-dashoffset:0;stroke-opacity:1;visibility:visible;display:inline;overflow:visible" transform="translate(-149.554 -1427.03)scale(3.125)"/><path d="M128.25 521.097h-17.526c.038 7.113-.026 14.229.029 21.341h17.497z" style="fill:#eac102;fill-opacity:1;fill-rule:evenodd;stroke:#000;stroke-width:.21089077;stroke-linecap:butt;stroke-linejoin:miter;marker:none;marker-start:none;marker-mid:none;marker-end:none;stroke-miterlimit:4;stroke-dasharray:none;stroke-dashoffset:0;stroke-opacity:1;visibility:visible;display:inline;overflow:visible" transform="translate(-149.554 -1427.03)scale(3.125)"/><path d="M128.25 521.097v21.341h17.524v-21.341z" style="fill:#ed1c24;fill-opacity:1;fill-rule:evenodd;stroke:#000;stroke-width:.21089077;stroke-linecap:butt;stroke-linejoin:miter;marker:none;marker-start:none;marker-mid:none;marker-end:none;stroke-miterlimit:4;stroke-dasharray:none;stroke-dashoffset:0;stroke-opacity:1;visibility:visible;display:inline;overflow:visible" transform="translate(-149.554 -1427.03)scale(3.125)"/><path d="M110.736 521.096c.014 8.488-.03 16.976.022 25.464.27 7.617 6.1 14.574 13.546 16.183 6.888 1.678 14.599-1.338 18.486-7.284 2.329-3.326 3.186-7.442 2.994-11.448v-22.915z" style="fill:none;fill-opacity:1;fill-rule:evenodd;stroke:#000;stroke-width:.21089077;stroke-linecap:butt;stroke-linejoin:miter;marker:none;marker-start:none;marker-mid:none;marker-end:none;stroke-miterlimit:4;stroke-dasharray:none;stroke-dashoffset:0;stroke-opacity:1;visibility:visible;display:inline;overflow:visible" transform="translate(-149.554 -1427.03)scale(3.125)"/><path d="M110.725 521.096c.047 8.759-.074 17.522.08 26.277.662 8.075 7.624 15.07 15.704 15.747 6.523.686 13.282-2.618 16.683-8.284 2.34-3.619 2.789-8.042 2.582-12.248v-21.492z" style="fill:none;fill-opacity:1;fill-rule:evenodd;stroke:#000;stroke-width:.21089077;stroke-linecap:butt;stroke-linejoin:miter;marker:none;marker-start:none;marker-mid:none;marker-end:none;stroke-miterlimit:4;stroke-dasharray:none;stroke-dashoffset:0;stroke-opacity:1;visibility:visible;display:inline;overflow:visible" transform="translate(-149.554 -1427.03)scale(3.125)"/><path d="M206.857 467.79c-17.784-.125-23.933-14.467-27.428-23.428-16.532 6.512-37.594-29.899-32.572-40-3.894 4.762-10.604 9.524-7.428 14.286-7.497-3.497-10.568-2.568-12 0-6.163 8.38 6.727 15.619 3.428 23.428h-7.428c5.715 3.085 11.435 6.168 9.714 13.715 1.921 5.524-3.387 11.047 8 16.571 1.7-16.12 16.64-26.432 14.286-4.571 8.337 1.697 11.249 1.677 15.263 10.1 7.397 2.969 24.935 13.998 26.45 25.328-17.615 22.52-32.835 9.108-47.428-13.714-3.928 8.065-7.42 16.692-21.714 11.429 5.575 8.504 7.888 13.954 2.857 19.428 6.439 7.539 7.312 10.643 3.303 15.34-4.38 5.131 3.687 12.622 9.269 17.803-.762-25.83 25.333-32.892 37.714 9.143 14.15-26.81 25.317-8.66 37.143-16 7.748-1.546 32.775 28.083 18.857 31.428-61.829 14.815-25.225 31.356-21.714 56.572-13.937 1.476-23.522 4.258-22.286 10.286-5.88 4.595-12.862 8.09-11.429 20l52-1.143c7.64-5.707-.924-16.816-6.285-26.857-6.098-31.92 8.812-30.987 20-12.572-.842-9.042.31-16.272 16-10.286l34.665-9.288c22.54-71.19-26.979-54.261-28.38-105.569 4.953 3.688 9.905 4.691 14.857 2.286-4.848-2.943-8.819-6.94-11.428-12.571 5.143 3.067 10.286 6.294 15.428 3.428-6.974-3.121-8.132-12.058-9.142-21.143 8.883-3.99 11.288-16.08 14.285-27.428-5.714 2.494-11.428 4.213-17.143-2.286 3.81-2.108 7.62-2.14 11.429-11.429-3.261-.034-5.845.948-12-3.428 6.027-3.792 8.81-9.745 10.286-16.572-3.842 1.492-7.49 3.178-14.286 1.715-.634-8.173-8.15-11.431-19.429-12L256 388.362c-13.87 13.498-33.003 2.433-34.286 13.143-5.284.762-16.369 1.524-24.571 2.286 1.236 6.229-2.312 13.414 5.714 18.285 7.828-8.529 13.882-8.78 17.143 4 2.996 12.983-8.614 7.71-17.143 6.286-2.24 12.243.234 21.08 25.143 13.714 4.117 12.45-22.013 6.633-21.143 21.715z" style="fill:#ed1c24;fill-opacity:1;fill-rule:evenodd;stroke:#000;stroke-width:1px;stroke-linecap:butt;stroke-linejoin:miter;stroke-opacity:1" transform="translate(180.576 137.765)scale(.18518)"/><path d="M254.857 591.22c22.364 7.827-14.084 36.489 34.857 52 .652 11.967-26.182 11.244-24 18.856l6.286 4c-6.182 12.9 22.127 8.556 34.857 12L336 651.22c-29.466-14.253-43.816-35.484-33.714-68" style="fill:#ed1c24;fill-opacity:1;fill-rule:evenodd;stroke:#000;stroke-width:1px;stroke-linecap:butt;stroke-linejoin:miter;stroke-opacity:1" transform="translate(180.576 137.765)scale(.18518)"/><path d="M295.429 580.934c12.24 2.642 23.084.629 26.285-26.858.85-33.562-31.503-51.647-26.285-88 .962-13.695 10.943-46.697 38.857-39.428 20.88 10.323-1.68 39.378 28.571 51.428-5.86-1.155-11.031.447-18.286-6.285-.275 9.65 5.892 15.436 13.143 20.571-12.265 1.095-30.368-1.326-29.143-42.286 1.595-21.62-21.347-5.39-24 19.429-2.007 18.791 29.728 49.75 25.715 85.143-1.429 29.072-12.788 35.798-26.286 37.714M172.571 402.648c19.447 3.985 12.358 16.422 22.374 19.288 12.746 3.648 19.785 9.234 27.912 15.569-24.698-13.18-34.055-1.471-40-8-5.944-6.529 1.16-19.24-10.286-26.857zm52.179 1.656c-3.561 2.672 1.384 4.735 4.13 4.797 3.94.09 7.21 4.14 9.16 8.579-5.093-2.565-9.671-4.401-13.053-4.54-1.613-2.004-2.285-3.678.253-5.108m19.176 47.855c2.825 3.297 5.394 8.13 6.913 19.258 2.58-4.073 5.49-7.899 2.963-15.801m0-11.357c11.224 5.53 14.759 13.624 18.27 21.726.104-7.471 2.827-14.506-4.445-23.207m-61.326 21.346c2.45 7.291-2.82 12.207-5.75 17.844 8.069 1.486 14.53-.642 20.834-3.125-8.569 13.315-15.323 18.036-27.92 22.847 3.931 3.196 9.416 5.948 19.587 7.36.482 6.568-2.71 12.61-5.209 18.75 13.946-3.427 24.623-10.824 32.292-21.874 2.63 8.792 5.934 17.373 15.625 23.958.83-8.611 1.403-17.26 8.333-25" style="fill:#ed1c24;fill-opacity:1;fill-rule:evenodd;stroke:#000;stroke-width:1px;stroke-linecap:butt;stroke-linejoin:miter;stroke-opacity:1" transform="translate(180.576 137.765)scale(.18518)"/><path d="M231.282 488.035c-.661 7.397-2.885 12.841-6.168 16.96 4.166.676 7.935.164 10.793-3.083m7.71-16.961c5.552 5.755 10.662 11.952 12.335 21.587 2.835-6.23 5.396-12.528 3.083-20.045" style="fill:#ed1c24;fill-opacity:1;fill-rule:evenodd;stroke:#000;stroke-width:1px;stroke-linecap:butt;stroke-linejoin:miter;stroke-opacity:1" transform="translate(180.576 137.765)scale(.18518)"/><g style="fill:#eac102;fill-opacity:1"><g style="fill:#eac102;fill-opacity:1;stroke-width:.44722459;stroke-miterlimit:4;stroke-dasharray:none"><path d="m55.284 284.931 8.449-10.431-.431-52.845c-6.511-6.62-5.944-10.999-7.155-16.508l-.216-8.276 34.285-.147L90 205c-1.212 5.51-.644 9.889-7.155 16.509l-.431 52.844 8.448 10.431zm8.294-10.362 18.319-.216M56.034 201.4l33.837.109M66.164 221.66l.108 47.629m3.878-47.683.216 47.737m3.772-47.953.215 47.737m3.88-47.521.215 47.737" style="fill:#eac102;fill-opacity:1;fill-rule:evenodd;stroke:#000;stroke-width:.42564666;stroke-linecap:butt;stroke-linejoin:miter;stroke-miterlimit:4;stroke-dasharray:none;stroke-opacity:1" transform="matrix(.46216 0 0 .4322 186.984 188.683)"/><path d="M64.009 206.25c1.971.622 2.25 6.326 4.849 5.065m-8.298-3.556v1.832c0 .56.144.933.324 1.293.216.433.368.615.862.862.538.269.738.584 1.293.862.264.132.857.75 1.077.97m15.841-9.375c.51.51.741.702.97 1.616.147.59 0 1.443 0 2.047 0 .659-.508.94-.862 1.293-.339.339-.875.549-1.293.863-.357.267-.438.78-.54 1.185-.147.59-.201 1.13-.323 1.616-.104.42.037.902.108 1.186m-.107 4.094c-.007.027 1.7-.02 2.047-.107.711-.178 1.67-.525 2.263-.97a6.8 6.8 0 0 0 1.293-1.293c.346-.462.323-.886.323-1.509 0-.532.108-1.152.108-1.724v-3.448m1.186-4.957c0-.576-.033 1.165.107 1.724.026.105 0 .215 0 .323m-14.44 10.13c.046.184-.022 1.168-.107 1.508-.09.357-1.027.323-1.401.323h-.862m-3.772-2.047c-.539 0 0 1.078 0 1.616v.54m7.435-12.609c0 .171-.163 1.345.324 1.832.203.203.881.275 1.077.324m1.293 2.263c.356.355-1.058-.225-1.508 0-.1.05-.358 1.146-.431 1.293-.176.352-.902.215-1.401.215h-.323m3.017 1.832c-.114 0 .256.918.323 1.185M57.866 203.88c-.5 0 .315.953.54 1.4" style="fill:#eac102;fill-opacity:1;fill-rule:evenodd;stroke:#000;stroke-width:.42564666;stroke-linecap:butt;stroke-linejoin:miter;stroke-miterlimit:4;stroke-dasharray:none;stroke-opacity:1" transform="matrix(.46216 0 0 .4322 186.984 188.683)"/></g><g style="fill:#eac102;fill-opacity:1;stroke-width:.44722459;stroke-miterlimit:4;stroke-dasharray:none"><path d="m55.284 284.931 8.449-10.431-.431-52.845c-6.511-6.62-5.944-10.999-7.155-16.508l-.216-8.276 34.285-.147L90 205c-1.212 5.51-.644 9.889-7.155 16.509l-.431 52.844 8.448 10.431zm8.294-10.362 18.319-.216M56.034 201.4l33.837.109M66.164 221.66l.108 47.629m3.878-47.683.216 47.737m3.772-47.953.215 47.737m3.88-47.521.215 47.737" style="fill:#eac102;fill-opacity:1;fill-rule:evenodd;stroke:#000;stroke-width:.42564666;stroke-linecap:butt;stroke-linejoin:miter;stroke-miterlimit:4;stroke-dasharray:none;stroke-opacity:1" transform="matrix(.46216 0 0 .4322 248.152 188.683)"/><path d="M64.009 206.25c1.971.622 2.25 6.326 4.849 5.065m-8.298-3.556v1.832c0 .56.144.933.324 1.293.216.433.368.615.862.862.538.269.738.584 1.293.862.264.132.857.75 1.077.97m15.841-9.375c.51.51.741.702.97 1.616.147.59 0 1.443 0 2.047 0 .659-.508.94-.862 1.293-.339.339-.875.549-1.293.863-.357.267-.438.78-.54 1.185-.147.59-.201 1.13-.323 1.616-.104.42.037.902.108 1.186m-.107 4.094c-.007.027 1.7-.02 2.047-.107.711-.178 1.67-.525 2.263-.97a6.8 6.8 0 0 0 1.293-1.293c.346-.462.323-.886.323-1.509 0-.532.108-1.152.108-1.724v-3.448m1.186-4.957c0-.576-.033 1.165.107 1.724.026.105 0 .215 0 .323m-14.44 10.13c.046.184-.022 1.168-.107 1.508-.09.357-1.027.323-1.401.323h-.862m-3.772-2.047c-.539 0 0 1.078 0 1.616v.54m7.435-12.609c0 .171-.163 1.345.324 1.832.203.203.881.275 1.077.324m1.293 2.263c.356.355-1.058-.225-1.508 0-.1.05-.358 1.146-.431 1.293-.176.352-.902.215-1.401.215h-.323m3.017 1.832c-.114 0 .256.918.323 1.185M57.866 203.88c-.5 0 .315.953.54 1.4" style="fill:#eac102;fill-opacity:1;fill-rule:evenodd;stroke:#000;stroke-width:.42564666;stroke-linecap:butt;stroke-linejoin:miter;stroke-miterlimit:4;stroke-dasharray:none;stroke-opacity:1" transform="matrix(.46216 0 0 .4322 248.152 188.683)"/></g><g style="fill:#eac102;fill-opacity:1;stroke-width:.44722459;stroke-miterlimit:4;stroke-dasharray:none"><path d="M83.207 226.554c-7.882 6.178-16.515 9.648-25.71 11.098-3.343 10.66-.537 22.882 6.028 24.639l.09-4.784c10.825-2.092 15.156-5.61 19.744-9.618 2.07-10.269 1.701-18.91-.152-21.335z" style="fill:#e3e4e5;fill-opacity:1;fill-rule:evenodd;stroke:#000;stroke-width:.42564666;stroke-linecap:butt;stroke-linejoin:miter;stroke-miterlimit:4;stroke-dasharray:none;stroke-opacity:1" transform="matrix(.46216 0 0 .4322 186.984 188.683)"/><path d="m63.587 257.442-4.59.963" style="fill:#eac102;fill-opacity:1;fill-rule:evenodd;stroke:#000;stroke-width:.42564666;stroke-linecap:butt;stroke-linejoin:miter;stroke-miterlimit:4;stroke-dasharray:none;stroke-opacity:1" transform="matrix(.46216 0 0 .4322 186.984 188.683)"/></g><g style="fill:#eac102;fill-opacity:1;stroke-width:.44722459;stroke-miterlimit:4;stroke-dasharray:none"><path d="M-14.684 255.927c8.05 4.89 15.888 10.26 25.71 11.099 3.342 10.66.536 22.881-6.028 24.638l-.09-4.291c-10.461-1.274-15.03-6.528-19.592-10.11-2.07-10.27-1.854-18.91 0-21.336z" style="fill:#e3e4e5;fill-opacity:1;fill-rule:evenodd;stroke:#000;stroke-width:.42564666;stroke-linecap:butt;stroke-linejoin:miter;stroke-miterlimit:4;stroke-dasharray:none;stroke-opacity:1" transform="matrix(.46216 0 0 .4322 284.001 175.988)"/><path d="m4.837 287.308 4.688.47" style="fill:#eac102;fill-opacity:1;fill-rule:evenodd;stroke:#000;stroke-width:.42564666;stroke-linecap:butt;stroke-linejoin:miter;stroke-miterlimit:4;stroke-dasharray:none;stroke-opacity:1" transform="matrix(.46216 0 0 .4322 284.001 175.988)"/></g><path d="M-1067.448 943.047c5.883-.136 18.466-2.138 24.079-7.452 9.14-8.187 20.527-5.507 35.47-.418 15.52 5.488 31.043 11.557 50.372 9.426l-.071-42.932c-13.282 2.067-36.15-3.19-54.843-11.538-15.706-6.812-24.1-6.852-36.77.81-6.457 5.266-12.914 7.71-18.237 8.259-5.324-.55-11.781-2.992-18.238-8.258-12.671-7.662-21.064-7.622-36.77-.81-18.693 8.348-41.266 13.605-54.548 11.537l-.071 42.932c19.329 2.132 34.557-3.937 50.076-9.425 14.944-5.09 26.33-7.77 35.471.417 5.612 5.314 18.196 7.316 24.08 7.452z" style="fill:#e3e4e5;fill-opacity:1;fill-rule:evenodd;stroke:#000;stroke-width:.824175;stroke-linecap:butt;stroke-linejoin:miter;stroke-miterlimit:4;stroke-dasharray:none;stroke-opacity:1" transform="matrix(.23868 0 0 .2232 506.078 94.98)"/><text xml:space="preserve" x="-1348.725" y="662.646" style="font-size:29.53642082px;font-style:normal;font-weight:400;fill:#000;fill-opacity:1;stroke:none;stroke-width:1;stroke-linecap:butt;stroke-linejoin:miter;stroke-miterlimit:4;stroke-dasharray:none;stroke-opacity:1;font-family:Times New Roman" transform="matrix(.23058 -.04555 .04737 .2217 506.078 94.98)"><tspan x="-1348.725" y="662.646" style="font-weight:700;fill:#000;fill-opacity:1;stroke-width:1;stroke-miterlimit:4;stroke-dasharray:none">PLVS</tspan></text><text xml:space="preserve" x="-1013.187" y="1026.396" style="font-size:27.43619156px;font-style:normal;font-weight:400;fill:#000;fill-opacity:1;stroke:none;stroke-width:1;stroke-linecap:butt;stroke-linejoin:miter;stroke-miterlimit:4;stroke-dasharray:none;stroke-opacity:1;font-family:Franklin Gothic Medium" transform="matrix(.20555 .05096 -.03937 .24943 506.078 94.98)"><tspan x="-1013.187" y="1026.396" style="font-weight:700;fill:#000;fill-opacity:1;stroke-width:1;stroke-miterlimit:4;stroke-dasharray:none;font-family:Times New Roman">VLTRA</tspan></text><path d="M-1097.299 931.66v-45.44m55.475-.001 1.18 46.032" style="fill:#eac102;fill-opacity:1;fill-rule:evenodd;stroke:#000;stroke-width:.824175;stroke-linecap:butt;stroke-linejoin:miter;stroke-miterlimit:4;stroke-dasharray:none;stroke-opacity:1" transform="matrix(.23868 0 0 .2232 506.078 94.98)"/></g><path d="M142.514 555.872c-.08-.054-.143-.106-.24-.154a1.7 1.7 0 0 0-.318-.12 1.47 1.47 0 0 0-.752 0q-.173.046-.318.12c-.193.096-.349.215-.475.305a3 3 0 0 1-.298.194.4.4 0 0 1-.178.057.4.4 0 0 1-.178-.057 3 3 0 0 1-.3-.194c-.062-.045-.133-.098-.212-.151a2 2 0 0 0-.264-.154q-.143-.074-.316-.12a1.5 1.5 0 0 0-.754 0q-.173.046-.318.12c-.193.096-.349.215-.475.305a3 3 0 0 1-.298.194.4.4 0 0 1-.178.057.4.4 0 0 1-.178-.057 3 3 0 0 1-.299-.194c-.126-.09-.282-.21-.475-.305a1.7 1.7 0 0 0-.318-.12 1.47 1.47 0 0 0-.751 0q-.174.046-.319.12c-.193.096-.348.215-.474.305a3 3 0 0 1-.3.194.4.4 0 0 1-.177.057.4.4 0 0 1-.178-.057 3 3 0 0 1-.299-.194c-.126-.09-.282-.21-.474-.305a1.7 1.7 0 0 0-.319-.12 1.47 1.47 0 0 0-.753 0q-.173.046-.317.12-.144.072-.263.154c-.08.053-.15.106-.213.151a3 3 0 0 1-.3.194.4.4 0 0 1-.177.057.4.4 0 0 1-.178-.057 3 3 0 0 1-.299-.194c-.126-.09-.282-.21-.474-.305a1.7 1.7 0 0 0-.319-.12 1.47 1.47 0 0 0-.751 0q-.173.046-.319.12c-.192.096-.348.215-.474.305a3 3 0 0 1-.299.194.4.4 0 0 1-.178.057.4.4 0 0 1-.178-.057 3 3 0 0 1-.299-.194c-.126-.09-.281-.21-.474-.305a1.7 1.7 0 0 0-.319-.12 1.47 1.47 0 0 0-.753 0q-.173.046-.316.12-.145.072-.264.154c-.08.053-.15.106-.213.151a3 3 0 0 1-.299.194.4.4 0 0 1-.178.057.4.4 0 0 1-.178-.057 3 3 0 0 1-.299-.194c-.126-.09-.281-.21-.474-.305a1.7 1.7 0 0 0-.319-.12 1.47 1.47 0 0 0-.75 0q-.174.046-.32.12c-.192.096-.348.215-.474.305a3 3 0 0 1-.299.194.4.4 0 0 1-.178.057.4.4 0 0 1-.178-.057 3 3 0 0 1-.298-.194c-.126-.09-.282-.21-.475-.305a1.7 1.7 0 0 0-.318-.12 1.47 1.47 0 0 0-.754 0q-.172.046-.316.12-.145.072-.264.154c-.079.053-.15.106-.213.151a3 3 0 0 1-.296.194.4.4 0 0 1-.178.057.4.4 0 0 1-.178-.057 3 3 0 0 1-.3-.194c-.062-.045-.133-.098-.212-.151a2 2 0 0 0-.264-.154q-.143-.074-.316-.12a1.5 1.5 0 0 0-.754 0q-.173.046-.318.12c-.168.084-.298.181-.415.266.236.319.477.635.733.938.071-.048.148-.1.198-.128a.4.4 0 0 1 .178-.059c.047 0 .102.019.178.06q.112.058.299.193l.213.15q.119.08.263.153t.317.12a1.5 1.5 0 0 0 1.072-.12q.143-.073.261-.154.12-.08.213-.15a3 3 0 0 1 .3-.193.4.4 0 0 1 .177-.059c.047 0 .102.019.178.06q.112.058.299.193l.213.15q.118.08.261.153.145.073.319.12a1.5 1.5 0 0 0 .751 0q.173-.047.319-.12.143-.073.261-.154.119-.08.213-.15a3 3 0 0 1 .299-.193.4.4 0 0 1 .178-.059c.046 0 .102.019.178.06s.172.102.298.193l.214.15q.117.08.261.153t.319.12a1.5 1.5 0 0 0 .753 0q.173-.047.316-.12.145-.073.264-.154.12-.08.213-.15c.126-.09.223-.152.299-.193a.4.4 0 0 1 .178-.059c.046 0 .102.019.178.06s.172.102.298.193l.214.15q.117.08.261.153t.318.12a1.5 1.5 0 0 0 .752 0q.173-.047.318-.12.144-.073.262-.154.118-.08.213-.15.187-.133.299-.193a.4.4 0 0 1 .178-.059c.046 0 .101.019.177.06s.173.102.3.193q.093.068.212.15.118.08.262.153t.318.12a1.5 1.5 0 0 0 .754 0q.172-.047.316-.12t.264-.154.213-.15c.126-.09.223-.152.299-.193a.4.4 0 0 1 .177-.059.4.4 0 0 1 .178.06c.076.04.17.102.297.193l.213.15q.12.08.264.153.143.073.316.12a1.5 1.5 0 0 0 1.072-.12q.144-.073.261-.154.119-.08.214-.15c.126-.09.222-.152.298-.193a.4.4 0 0 1 .178-.059c.047 0 .102.019.178.06s.173.102.299.193q.094.068.213.15.118.08.261.153.146.073.319.12a1.5 1.5 0 0 0 .751 0q.174-.047.319-.12.143-.073.261-.154.12-.08.213-.15a3 3 0 0 1 .3-.193.4.4 0 0 1 .177-.059c.047 0 .102.019.178.06q.112.058.299.193l.213.15q.119.08.263.153t.317.12a1.5 1.5 0 0 0 1.072-.12q.143-.073.261-.154.12-.08.213-.15a3 3 0 0 1 .3-.193.4.4 0 0 1 .177-.059c.047 0 .102.019.178.06.008.004.022.015.03.02q.38-.46.726-.943z" style="fill:#e3e4e5;fill-opacity:1;fill-rule:evenodd;stroke:#000;stroke-width:.07029692;stroke-linecap:butt;stroke-linejoin:miter;marker:none;marker-start:none;marker-mid:none;marker-end:none;stroke-miterlimit:4;stroke-dasharray:none;stroke-dashoffset:0;stroke-opacity:1;visibility:visible;display:inline;overflow:visible" transform="translate(-149.554 -1427.03)scale(3.125)"/><path d="M524 509.406v59.688h-8.594v-48.188h-21.25V595.5l8.625 6.313v74.03l-16.656 21.813v68.875h105.594v-68.875l-16.625-21.812v-74.032l8.593-6.312v-74.594H562.47v48.188h-8.625v-59.688z" style="fill:#eac102;fill-opacity:1;fill-rule:evenodd;stroke:#000;stroke-width:1.03916645px;stroke-linecap:butt;stroke-linejoin:miter;stroke-opacity:1" transform="matrix(.21967 0 0 .20344 161.823 105.184)"/><path d="M591.303 745.145H486.02m105.283-8.982H486.02m105.283-12.017H486.02m105.283-12.018H486.02m105.283-12.018H486.02" style="fill:none;fill-rule:evenodd;stroke:#000;stroke-width:1.03916645px;stroke-linecap:butt;stroke-linejoin:miter;stroke-opacity:1" transform="matrix(.21967 0 0 .20344 161.823 105.184)"/><path d="M584.166 688.093h-90.241" style="fill:none;fill-rule:evenodd;stroke:#000;stroke-width:1.03916657px;stroke-linecap:round;stroke-linejoin:round;stroke-opacity:1" transform="matrix(.21967 0 0 .20344 161.823 105.184)"/><path d="M575.644 676.076h-73.109m73.109-9.836h-73.109m73.109-11.762h-73.109m73.109-11.173h-73.109m73.109-11.173h-73.109m73.109-11.172h-73.109m73.109-11.173h-73.109m73.109-8.34h-73.109" style="fill:none;fill-rule:evenodd;stroke:#000;stroke-width:1.03916645px;stroke-linecap:butt;stroke-linejoin:miter;stroke-opacity:1" transform="matrix(.21967 0 0 .20344 161.823 105.184)"/><path d="M510.425 736.138V724.3m0-12.325v-11.839m0-11.683v-11.839m22.239 35.361v-11.839m0-11.683v-11.839m11.334 35.361v-11.839m0-11.683v-11.839m22.88 59.524V724.3m0-12.325v-11.839m0-11.683v-11.839" style="fill:none;fill-rule:evenodd;stroke:#000;stroke-width:1.03916633px;stroke-linecap:butt;stroke-linejoin:miter;stroke-opacity:1" transform="matrix(.21967 0 0 .20344 161.823 105.184)"/><path d="M502.086 700v-11.838M526.962 700v-11.838M551.838 700v-11.838M576.714 700v-11.838" style="fill:none;fill-rule:evenodd;stroke:#000;stroke-width:1.03916633px;stroke-linecap:butt;stroke-linejoin:miter;stroke-opacity:1" transform="matrix(.21967 0 0 .20344 161.718 105.184)"/><path d="M502.086 700v-11.838M526.962 700v-11.838M551.838 700v-11.838M576.714 700v-11.838" style="fill:none;fill-rule:evenodd;stroke:#000;stroke-width:1.03916633px;stroke-linecap:butt;stroke-linejoin:miter;stroke-opacity:1" transform="matrix(.21967 0 0 .20344 161.718 110.012)"/><path d="M538.344 714.356c-5.5 0-9.475 5.23-9.475 11.086v41.09h18.95v-41.09c0-5.855-3.976-11.086-9.475-11.086" style="opacity:1;fill:#0071bc;fill-opacity:1;fill-rule:evenodd;stroke:#000;stroke-width:1.03916633;stroke-linecap:round;stroke-linejoin:round;marker:none;marker-start:none;marker-mid:none;marker-end:none;stroke-miterlimit:4;stroke-dasharray:none;stroke-dashoffset:0;stroke-opacity:1;visibility:visible;display:inline;overflow:visible" transform="matrix(.21967 0 0 .20344 161.823 105.184)"/><path d="M538.344 708.165c-8.798 0-15.157 8.3-15.157 17.593v40.773h8v-40.773c0-5.767 3.588-9.593 7.157-9.593s7.156 3.826 7.156 9.593v40.773h8v-40.773c0-9.292-6.359-17.593-15.156-17.593" style="opacity:1;fill:#eac102;fill-opacity:1;fill-rule:evenodd;stroke:#000;stroke-width:1.03916621;stroke-linecap:round;stroke-linejoin:round;marker:none;marker-start:none;marker-mid:none;marker-end:none;stroke-miterlimit:4;stroke-dasharray:none;stroke-dashoffset:0;stroke-opacity:1;visibility:visible;display:inline;overflow:visible" transform="matrix(.21967 0 0 .20344 161.823 105.184)"/><path d="M538.922 675.584v-8.981m-18.176 8.981v-9.409m36.352 9.409v-8.981" style="fill:none;fill-rule:evenodd;stroke:#000;stroke-width:1.03916645px;stroke-linecap:butt;stroke-linejoin:miter;stroke-opacity:1" transform="matrix(.21967 0 0 .20344 161.823 105.184)"/><path d="M538.922 675.584v-8.981m-18.176 8.981v-9.409m36.352 9.409v-8.981" style="fill:none;fill-rule:evenodd;stroke:#000;stroke-width:.98049283px;stroke-linecap:butt;stroke-linejoin:miter;stroke-opacity:1" transform="matrix(.21967 0 0 .22852 161.823 83.836)"/><path d="M538.922 632.29v-10.833" style="fill:none;fill-rule:evenodd;stroke:#000;stroke-width:1.03916645px;stroke-linecap:butt;stroke-linejoin:miter;stroke-opacity:1" transform="matrix(.21967 0 0 .20344 161.823 105.184)"/><path d="M538.922 675.584v-9.86m-18.176 9.86v-9.409m36.352 9.409v-9.658" style="fill:none;fill-rule:evenodd;stroke:#000;stroke-width:1.15501404px;stroke-linecap:butt;stroke-linejoin:miter;stroke-opacity:1" transform="matrix(.21967 0 0 .16468 161.823 117.943)"/><path d="M522.11 617.127c-4.086 0-7.04 3.925-7.04 8.319v25.046h14.08v-25.046c0-4.394-2.954-8.32-7.04-8.32" style="opacity:1;fill:#0071bc;fill-opacity:1;fill-rule:evenodd;stroke:#000;stroke-width:1.03916633;stroke-linecap:round;stroke-linejoin:round;marker:none;marker-start:none;marker-mid:none;marker-end:none;stroke-miterlimit:4;stroke-dasharray:none;stroke-dashoffset:0;stroke-opacity:1;visibility:visible;display:inline;overflow:visible" transform="matrix(.21967 0 0 .20344 161.823 105.184)"/><path d="M556.606 617.127c-4.086 0-7.04 3.925-7.04 8.319v25.046h14.08v-25.046c0-4.394-2.954-8.32-7.04-8.32" style="opacity:1;fill:#0071bc;fill-opacity:1;fill-rule:evenodd;stroke:#000;stroke-width:1.03916633;stroke-linecap:round;stroke-linejoin:round;marker:none;marker-start:none;marker-mid:none;marker-end:none;stroke-miterlimit:4;stroke-dasharray:none;stroke-dashoffset:0;stroke-opacity:1;visibility:visible;display:inline;overflow:visible" transform="matrix(.21967 0 0 .20344 161.823 105.184)"/><path d="M528.815 665.748v-11.12m20.528 11.12v-11.12" style="fill:none;fill-rule:evenodd;stroke:#000;stroke-width:1.03916645px;stroke-linecap:butt;stroke-linejoin:miter;stroke-opacity:1" transform="matrix(.21967 0 0 .20344 161.789 105.184)"/><path d="M528.815 665.748v-11.12m20.528 11.12v-11.12" style="fill:none;fill-rule:evenodd;stroke:#000;stroke-width:1.03916645px;stroke-linecap:butt;stroke-linejoin:miter;stroke-opacity:1" transform="matrix(.21967 0 0 .20344 161.789 96.178)"/><path d="M582.815 595.887H494.51m89.238-4.555h-89.234m89.234-11.12h-89.234m89.234-11.12h-89.234m68.048-10.428h20.9m-20.9-11.79h20.9m-20.9-11.79h20.9m-89.227 23.58h20.9m-20.9-11.79h20.9m-20.9-11.79h20.9m8.976 23.58h29.207m-29.207-11.79h29.207m-29.207-11.79h29.207m-29.207-10.718h29.207m-48.633-3.349v7.904m68.327-7.904v7.904" style="fill:none;fill-rule:evenodd;stroke:#000;stroke-width:1.03916645px;stroke-linecap:butt;stroke-linejoin:miter;stroke-opacity:1" transform="matrix(.21967 0 0 .20344 161.823 105.184)"/><path d="M534.025 509.093v7.904m9.245-7.904v7.904" style="fill:none;fill-rule:evenodd;stroke:#000;stroke-width:1.03916645px;stroke-linecap:butt;stroke-linejoin:miter;stroke-opacity:1" transform="matrix(.21967 0 0 .20344 161.838 105.184)"/><path d="M504.685 534.682v12.326m68.327-12.326v12.326m-68.327 11.924v9.914m68.327-9.914v9.914" style="fill:none;fill-rule:evenodd;stroke:#000;stroke-width:1.03916645px;stroke-linecap:butt;stroke-linejoin:miter;stroke-opacity:1" transform="matrix(.21967 0 0 .20344 161.823 105.184)"/><path d="M504.685 580.502v11.253m68.327-11.253v11.253" style="fill:none;fill-rule:evenodd;stroke:#000;stroke-width:1.03916633px;stroke-linecap:butt;stroke-linejoin:miter;stroke-opacity:1" transform="matrix(.21967 0 0 .20344 161.823 105.184)"/><path d="M515.432 569.029v10.947m47.141-10.947v10.947m-8.73-10.947v10.947m-29.899-10.947v10.947m14.77-55.652v10.803" style="fill:none;fill-rule:evenodd;stroke:#000;stroke-width:1.03916645px;stroke-linecap:butt;stroke-linejoin:miter;stroke-opacity:1" transform="matrix(.21967 0 0 .20344 161.823 105.184)"/><path d="M534.025 509.093v7.904m9.245-7.904v7.904" style="fill:none;fill-rule:evenodd;stroke:#000;stroke-width:.86562181px;stroke-linecap:butt;stroke-linejoin:miter;stroke-opacity:1" transform="matrix(.21967 0 0 .2932 161.838 64.82)"/><path d="M538.714 547.348v10.803" style="fill:none;fill-rule:evenodd;stroke:#000;stroke-width:1.03916645px;stroke-linecap:butt;stroke-linejoin:miter;stroke-opacity:1" transform="matrix(.21967 0 0 .20344 161.823 105.184)"/><path d="M534.025 509.093v7.904m9.245-7.904v7.904" style="fill:none;fill-rule:evenodd;stroke:#000;stroke-width:.88943774px;stroke-linecap:butt;stroke-linejoin:miter;stroke-opacity:1" transform="matrix(.21967 0 0 .2777 161.838 77.385)"/><path d="M538.714 569.282v10.803" style="fill:none;fill-rule:evenodd;stroke:#000;stroke-width:1.03916645px;stroke-linecap:butt;stroke-linejoin:miter;stroke-opacity:1" transform="matrix(.21967 0 0 .20344 161.823 105.184)"/><path d="M534.025 509.093v7.904m9.245-7.904v7.904" style="fill:none;fill-rule:evenodd;stroke:#000;stroke-width:.88943774px;stroke-linecap:butt;stroke-linejoin:miter;stroke-opacity:1" transform="matrix(.21967 0 0 .2777 161.838 81.895)"/><path d="M121.983 534.603c.005 3.044-.01 6.088.008 9.131.097 2.732 2.188 5.227 4.858 5.804 2.47.601 5.235-.48 6.629-2.613.835-1.192 1.142-2.668 1.073-4.105v-8.217z" style="fill:#e3e4e5;fill-opacity:1;fill-rule:evenodd;stroke:#000;stroke-width:.21089077;stroke-linecap:butt;stroke-linejoin:miter;marker:none;marker-start:none;marker-mid:none;marker-end:none;stroke-miterlimit:4;stroke-dasharray:none;stroke-dashoffset:0;stroke-opacity:1;visibility:visible;display:inline;overflow:visible" transform="translate(-149.554 -1427.03)scale(3.125)"/><path d="M209.544 798.093c-3.804 23.305-11.97 44.74-24.77 64.19 15.743-9.087 27.511-13.334 14.072 13.107 12.974-15.719 23.435-18.87 28.721 3.855-1.48-23.211 10.573-21.61 24.288-16.963-29.323-15.4-22.137-41.231-26.698-63.707z" style="fill:#e3e4e5;fill-opacity:1;fill-rule:evenodd;stroke:#000;stroke-width:1;stroke-linecap:butt;stroke-linejoin:miter;stroke-miterlimit:4;stroke-dasharray:none;stroke-opacity:1" transform="translate(203.283 93.239)scale(.21968)"/><path d="M214.972 798.95c6.713 7.174 10.422 5.772 14.863-2.385 5.864-8.103 10.023-6.65 15.886.681 5.203 9.906 14.837 2.732 19.7 7.432 6.961.872 10.01-2.17 8.794-9.476-.197-10.266 6.24-9.476 11.18-11.18 8.067-2.364 10.784-11.202-.682-13.225-7.584-2.788-10.736-7.055-2.044-15.269 5.28-9.672 2.51-16.249-8.454-16.226-9.479 7.777-8.122-3.731-7.773-11.521-3.104-9.262-8.816-4.619-14.587.34-4.33 6.036-5.006 1.423-8.454-1.362 4.016-10.77-5.568-10.981-13.906-9.818-3.194-8.84-6.289-17.937-16.568-8.178-7.819-4.119-14.559-4.82-16.973 8.178-1.974 6.805-5.118 9.71-9.817 7.432-7.317-1.44-14.324-2.364-16.291 5.112-.482 5.185-4.414 5.198-8.454 5.046-8.794-1.074-11.345 5.23-10.158 15.95-7.163 4.035-11.069 13.48 2.572 16.184-.774 9.394-3.344 18.664 3.753 23.612-1.842 10.18 1.197 17.769 11.054 8.186 8.226-9.633 8.275-5.979 12.413-2.58 7.583 8.923 9.735 6.064 15.61 7.432 7.567 1.456 14.374 1.391 18.336-4.365z" style="fill:#008f4c;fill-opacity:1;fill-rule:evenodd;stroke:#000;stroke-width:1;stroke-linecap:butt;stroke-linejoin:miter;stroke-miterlimit:4;stroke-dasharray:none;stroke-opacity:1" transform="translate(203.283 93.239)scale(.21968)"/></svg>