<svg xmlns="http://www.w3.org/2000/svg" viewBox="0 0 750 500"><path d="M0 0h375v500H0z" style="font-size:12px;fill:#b81626;fill-opacity:1;fill-rule:evenodd;stroke-width:1pt"/><path d="M375 0h375v500H375z" style="fill:#fff;fill-opacity:1"/><path d="M72.831 354.877v-23.462l4.048-8.742v-75.71l-3.128-6.356v-17.673l5.878-1.222v-50.923l-3.15-5.24v-11.805l3.073-1.152v6.287l2.92-1.467v-6.147l3.15-1.223h7.76v7.684h6.914v-7.754h7.644v7.51h6.454v-7.684h6.761l3.342 1.99v6.427l1.92 1.013v-6.322l3.036 1.432v11.56l-2.958 5.17v72.508h6.53v-2.725h21.167V148.07l-4.322-6.479v-14.844l3.937-1.606v7.893l4.034-1.956v-7.614l4.264-1.676h10.218v9.57h8.836v-9.745H191.3v9.57h8.567v-9.535h8.758l4.187 2.27v8.208l2.728 1.118v-7.859l4.11 1.781v14.652l-3.784 6.688v92.486h23.107v2.69h3.803v-73.87l-3.15-4.75v-12.18l2.949-1.086v6.495l3.178-1.778v-6.075l2.988-1.26h7.904v7.83h6.71v-8.003h7.66v7.706h6.573v-7.73h6.71l3.096 1.877v6.668l2.309 1.012v-6.371l2.96 1.308v11.63l-2.96 5.399v52.868l5.125.349v16.747l-3.611 7.614v74.638l4.187 9.221v23.226l-49.923 19.79H121.807z" style="fill:#cab313;fill-opacity:1;fill-rule:evenodd;stroke:#000;stroke-width:1.23347223;stroke-linecap:butt;stroke-linejoin:miter;stroke-miterlimit:4;stroke-dasharray:none;stroke-opacity:1" transform="translate(3.313 1.704)"/><path d="M126.322 216.77h6.569v7.387l8.508-1.677v-8.732h7.568v7.073h5.148v17.586c-11.62-7.226-17.034-5.967-27.582.384zm116.411-.328h-6.331v7.395l-8.202-1.679v-8.74h-7.294v7.08h-4.962V238.1c11.2-7.233 16.42-5.972 26.586.385z" style="fill:#cab313;fill-opacity:1;fill-rule:evenodd;stroke:#000;stroke-width:1.23347223;stroke-linecap:butt;stroke-linejoin:miter;stroke-miterlimit:4;stroke-dasharray:none;stroke-opacity:1" transform="translate(3.313 1.704)"/><path d="M98.173 194.626h8.346V186c3.301-4.168 2.601-9.705-4.14-12.87-7.314 3.71-7.058 8.932-4.302 12.704zm81.487-16.784h10.276V167.22c4.065-5.132 3.204-11.95-5.097-15.848-9.007 4.568-8.691 10.999-5.297 15.644zm83.115 16.734h8.346v-8.627c3.3-4.168 2.601-9.705-4.14-12.87-7.315 3.709-7.058 8.931-4.302 12.704zm-82.761 40.408h10.443v-13.586c4.131-6.564 3.255-15.283-5.18-20.268-9.152 5.842-8.831 14.066-5.383 20.007z" style="fill:#0f47af;fill-opacity:1;fill-rule:evenodd;stroke:#000;stroke-width:1.23347223;stroke-linecap:butt;stroke-linejoin:miter;stroke-miterlimit:4;stroke-dasharray:none;stroke-opacity:1" transform="translate(3.313 1.704)"/><path d="m74.059 240.782 50.227 19.89h121.486l48.78-19.721" style="fill:none;fill-rule:evenodd;stroke:#000;stroke-width:1.23347223;stroke-linecap:butt;stroke-linejoin:miter;stroke-miterlimit:4;stroke-dasharray:none;stroke-opacity:1" transform="translate(3.313 1.704)"/><path d="m77.26 247.594 50.17 20.548h114.71l49.057-20.707M77.4 264.95l50.093 20.529m.49-.568H241.49m.412.699 49.257-20.607M77.324 285.68l50.174 20.495m-50.626-1.939c.027 0 50.748 21.19 50.748 21.19m.296-18.947H241.7l49.478-20.817m-163.613 40.073h113.706l50.06-21.177" style="fill:none;fill-rule:evenodd;stroke:#000;stroke-width:1.23347223;stroke-linecap:butt;stroke-linejoin:miter;stroke-miterlimit:4;stroke-dasharray:none;stroke-opacity:1" transform="translate(3.313 1.704)"/><path d="M172.493 343.369h24.761v-19.597c8.48-15.104 1.898-28.68-12.657-38.896-17.473 9.67-20.447 25.47-12.35 39.642z" style="fill:#0f47af;fill-opacity:1;fill-rule:evenodd;stroke:#000;stroke-width:1.23347223;stroke-linecap:butt;stroke-linejoin:miter;stroke-miterlimit:4;stroke-dasharray:none;stroke-opacity:1" transform="translate(3.313 1.704)"/><path d="m77.055 322.475 50.784 21.305h113.92l49.6-21.379" style="fill:none;fill-rule:evenodd;stroke:#000;stroke-width:1.23347223;stroke-linecap:butt;stroke-linejoin:miter;stroke-miterlimit:4;stroke-dasharray:none;stroke-opacity:1" transform="translate(3.313 1.704)"/><path d="m73.062 331.91 48.861 20.672h123.484l50.136-20.648" style="fill:none;fill-rule:evenodd;stroke:#000;stroke-width:1.23347223;stroke-linecap:butt;stroke-linejoin:miter;stroke-miterlimit:4;stroke-dasharray:none;stroke-opacity:1" transform="translate(3.313 1.704)"/><path d="M124.074 243.68v17.08l3.67 7.596v75.066l-5.91 8.887v22.672M245.4 243.544v18.276l-3.749 6.47v75.264l3.89 9.796v21.463M76.499 165.6l9.072-2.914h35.693l8.04 3.038m-49.954 5.112 8.883-2.79h29.35l8.95 3.087" style="fill:none;fill-rule:evenodd;stroke:#000;stroke-width:1.23347223;stroke-linecap:butt;stroke-linejoin:miter;stroke-miterlimit:4;stroke-dasharray:none;stroke-opacity:1" transform="translate(3.313 1.704)"/><path d="m126.778 203.016-9.426-3.238H88.128l-8.669 2.893c-1.559.912-1.781 2.97 0 3.926l8.801-2.47h29.364l9.303 2.915c1.053-1.178.907-2.737-.15-4.026z" style="fill:#cab313;fill-opacity:1;fill-rule:evenodd;stroke:#000;stroke-width:1.23347223;stroke-linecap:butt;stroke-linejoin:miter;stroke-miterlimit:4;stroke-dasharray:none;stroke-opacity:1" transform="translate(3.313 1.704)"/><path d="M79.296 206.622c-1.905 1.007-1.409 3.58 0 4.124l8.964-3.037h29.337l8.828 3.037c1.11-.764 1.664-1.795.081-3.852l-8.964-2.791H88.226z" style="fill:#cab313;fill-opacity:1;fill-rule:evenodd;stroke:#000;stroke-width:1.23347223;stroke-linecap:butt;stroke-linejoin:miter;stroke-miterlimit:4;stroke-dasharray:none;stroke-opacity:1" transform="translate(3.313 1.704)"/><path d="M85.843 150.19v12.694l2.499 4.482v71.609m32.65-88.958v12.892l-3.341 5.31v83.5" style="fill:none;fill-rule:evenodd;stroke:#000;stroke-width:1.23347223;stroke-linecap:butt;stroke-linejoin:miter;stroke-miterlimit:4;stroke-dasharray:none;stroke-opacity:1" transform="translate(3.313 1.704)"/><path d="m242.765 202.374 9.426-3.238h29.224l8.668 2.892c1.56.913 1.782 2.971 0 3.927l-8.8-2.47h-29.364l-9.304 2.915c-1.052-1.178-.907-2.737.15-4.026z" style="fill:#cab313;fill-opacity:1;fill-rule:evenodd;stroke:#000;stroke-width:1.23347223;stroke-linecap:butt;stroke-linejoin:miter;stroke-miterlimit:4;stroke-dasharray:none;stroke-opacity:1" transform="translate(3.313 1.704)"/><path d="M290.246 205.98c1.905 1.007 1.41 3.58 0 4.124l-8.964-3.037h-29.336l-8.828 3.037c-1.11-.764-1.664-1.795-.082-3.852L252 203.46h29.316z" style="fill:#cab313;fill-opacity:1;fill-rule:evenodd;stroke:#000;stroke-width:1.23347223;stroke-linecap:butt;stroke-linejoin:miter;stroke-miterlimit:4;stroke-dasharray:none;stroke-opacity:1" transform="translate(3.313 1.704)"/><path d="M283.7 149.548v12.694l-2.5 4.482v71.609m-32.65-88.958v12.892l3.342 5.31v83.5" style="fill:none;fill-rule:evenodd;stroke:#000;stroke-width:1.23347223;stroke-linecap:butt;stroke-linejoin:miter;stroke-miterlimit:4;stroke-dasharray:none;stroke-opacity:1" transform="translate(3.313 1.704)"/><path d="m73.81 223.712 9.235 3.581v9.83l8.448 2.445v-8.817l8.312 3.186v9.854l7.252 2.519v-9.484l9.296 3.711v10.898l4.687 1.57v-10.687l2.996 1.38 11.08-.055v10.471h8.421v-10.52h9.942v10.026h7.959v-10.125h9.942v9.878h8.23v-9.83h12.006v10.25h8.177v-10.25h9.452v9.534h8.693v-9.484h9.664v9.413h8.74v-9.483h9.008l3.111-1.45v10.776l3.592-1.397v-10.688l9.642-3.754v9.779l7.308-2.83v-10.058l8.192-3.108v9.115l8.144-2.829v-9.849l9.297-3.493" style="fill:none;fill-rule:evenodd;stroke:#000;stroke-width:1.23347223;stroke-linecap:butt;stroke-linejoin:miter;stroke-miterlimit:4;stroke-dasharray:none;stroke-opacity:1" transform="translate(3.313 1.704)"/><path d="m153.605 188.406 12.294-4.224h38.116l11.307 3.773c2.033 1.19 2.323 3.874 0 5.121l-11.48-3.22h-38.297l-12.135 3.8c-1.372-1.536-1.183-3.57.195-5.25z" style="fill:#cab313;fill-opacity:1;fill-rule:evenodd;stroke:#000;stroke-width:1.23347223;stroke-linecap:butt;stroke-linejoin:miter;stroke-miterlimit:4;stroke-dasharray:none;stroke-opacity:1" transform="translate(3.313 1.704)"/><path d="M215.534 193.109c2.485 1.313 1.838 4.668 0 5.379l-11.691-3.962H165.58l-11.514 3.962c-1.448-.997-2.171-2.341-.107-5.025l11.692-3.64h38.236z" style="fill:#cab313;fill-opacity:1;fill-rule:evenodd;stroke:#000;stroke-width:1.23347223;stroke-linecap:butt;stroke-linejoin:miter;stroke-miterlimit:4;stroke-dasharray:none;stroke-opacity:1" transform="translate(3.313 1.704)"/><path d="m239.664 164.746 9.604-2.654h34.823l8.46 2.777m-49.967 5.204 8.989-2.83h28.6l9.45 3.092m-127.479-48.398v15.706l3.457 6.077v99.856m42.832-121.545v15.892l-4.149 6.356v99.122" style="fill:none;fill-rule:evenodd;stroke:#000;stroke-width:1.23347223;stroke-linecap:butt;stroke-linejoin:miter;stroke-miterlimit:4;stroke-dasharray:none;stroke-opacity:1" transform="translate(3.313 1.704)"/><path d="m150.111 141.447 11.734-3.31h46.395l11.192 3.458m-65.708 6.619 12.114-3.704h37.716l12.306 3.963m-136.156 73.14v4.544m209.976-2.839v2.13M92.959 253.88l-.077 17.323m11.985 4.889V296.7m-12.984-5.065v18.895m12.523 5.1v18.091m37.393-65.53v16.695m43.162-.592V268.29m42.565-.05v16.4m-65.653.024v21.857m44.901-21.881v21.93m20.644-.05v19.264m-85.782-19.264v19.215m20.372 0v17.98m44.548-17.832v17.88m69.104-89.649c.054.198 0 17.19 0 17.19m-11.68 25.338v-20.4m12.657 15.56v18.819m-12.386 5.235v18.128m-109.983-93.482v13.133m61.694-12.853v12.259" style="fill:none;fill-rule:evenodd;stroke:#000;stroke-width:1.23347223;stroke-linecap:butt;stroke-linejoin:miter;stroke-miterlimit:4;stroke-dasharray:none;stroke-opacity:1" transform="translate(3.313 1.704)"/></svg>