<?xml version="1.0" standalone="no"?>
<!DOCTYPE svg PUBLIC "-//W3C//DTD SVG 20010904//EN"
 "http://www.w3.org/TR/2001/REC-SVG-20010904/DTD/svg10.dtd">
<svg version="1.0" xmlns="http://www.w3.org/2000/svg"
 width="1600.000000pt" height="1507.000000pt" viewBox="0 0 1600.000000 1507.000000"
 preserveAspectRatio="xMidYMid meet">
<metadata>
Created by potrace 1.16, written by Peter Selinger 2001-2019
</metadata>
<g transform="translate(0.000000,1507.000000) scale(0.100000,-0.100000)"
fill="#000000" stroke="none">
<path d="M5742 15043 c3 -26 45 -58 118 -90 53 -23 205 -164 281 -260 96 -121
204 -326 219 -416 5 -29 16 -74 24 -102 13 -42 14 -73 6 -194 -11 -161 -15
-177 -76 -307 -64 -133 -146 -205 -304 -262 -94 -34 -146 -42 -273 -42 -116 0
-204 12 -322 45 -294 81 -486 124 -630 140 -27 3 -100 12 -161 21 -168 22
-464 3 -714 -46 -172 -34 -206 -35 -321 -7 -252 62 -679 93 -1064 77 -371 -15
-579 -57 -880 -177 -63 -25 -82 -28 -185 -27 -111 0 -306 30 -350 54 -9 5 -39
17 -66 26 -56 19 -189 104 -216 139 -10 13 -38 45 -62 70 -42 46 -166 275
-166 308 0 9 -9 39 -20 67 -29 74 -30 229 -2 331 38 138 80 205 204 328 61 61
115 111 118 111 4 0 45 23 91 50 81 49 129 94 115 108 -30 29 -172 -18 -414
-135 -62 -31 -128 -66 -148 -79 -19 -13 -37 -24 -40 -24 -18 0 -121 -83 -203
-164 -150 -149 -227 -284 -277 -489 -21 -86 -24 -122 -24 -284 0 -197 -2 -187
62 -391 34 -111 130 -283 219 -394 84 -104 207 -214 329 -293 71 -46 238 -128
314 -154 78 -27 83 -33 57 -69 -11 -17 -21 -35 -21 -40 0 -15 -122 -143 -166
-175 -121 -87 -141 -103 -142 -112 -1 -9 125 -58 186 -72 21 -5 17 -10 -38
-44 -33 -22 -64 -39 -68 -39 -4 -1 -18 -10 -31 -21 l-24 -20 59 -60 c175 -178
391 -293 669 -354 70 -16 110 -17 326 -11 l246 7 -3 -113 c-2 -62 -6 -358 -8
-658 -4 -492 -3 -563 15 -725 46 -424 70 -612 120 -915 40 -246 81 -471 158
-870 11 -58 29 -157 41 -220 12 -63 31 -161 42 -217 25 -122 22 -163 -38 -593
-41 -298 -43 -771 -3 -980 44 -231 106 -496 159 -675 9 -33 28 -96 40 -140 31
-111 60 -201 82 -259 10 -27 18 -54 18 -61 0 -7 8 -34 19 -61 10 -27 28 -75
39 -107 73 -201 117 -308 189 -467 19 -41 40 -89 48 -107 23 -52 74 -215 125
-398 13 -44 31 -109 41 -145 63 -226 88 -359 95 -495 8 -188 55 -481 105 -657
11 -36 19 -72 19 -79 0 -7 18 -72 41 -144 58 -185 74 -239 97 -330 90 -353
142 -664 142 -850 0 -182 -55 -613 -101 -782 -10 -39 -19 -79 -19 -89 0 -9 -8
-42 -19 -73 -10 -31 -28 -90 -41 -131 -12 -41 -30 -97 -40 -125 -10 -27 -21
-62 -24 -78 l-6 -27 485 0 c552 0 497 -11 469 95 -8 33 -21 93 -28 133 -12 72
-12 73 8 68 53 -15 104 -18 111 -6 7 11 -8 111 -55 370 -68 376 -94 576 -110
850 -12 206 5 571 36 770 18 119 60 298 80 349 20 48 17 178 -5 274 -42 177
-52 469 -29 782 15 200 17 204 98 161 33 -17 81 -51 107 -76 191 -179 407
-323 543 -361 61 -16 202 -16 270 0 203 51 584 291 813 514 27 25 48 37 68 37
l29 0 0 -322 c0 -422 -1 -410 100 -978 93 -523 100 -594 100 -979 0 -363 -2
-387 -61 -741 -53 -316 -131 -668 -204 -917 l-6 -23 456 0 457 0 -6 93 c-4 50
-9 118 -12 150 l-6 57 72 0 73 0 -6 37 c-9 61 -35 308 -46 448 -14 166 -14
700 -1 819 43 378 89 627 151 821 41 128 72 221 84 255 30 83 64 208 113 420
51 216 133 634 147 750 8 63 16 72 71 76 375 28 465 38 834 94 181 27 416 58
564 74 176 19 291 3 421 -59 114 -54 177 -117 237 -235 41 -81 43 -90 48 -194
l5 -108 39 36 c75 68 141 124 211 176 68 51 291 169 425 225 36 15 73 34 83
43 19 17 21 16 46 -28 5 -8 18 -94 30 -190 50 -402 133 -798 238 -1143 52
-171 56 -195 60 -447 5 -224 3 -253 -17 -345 -70 -325 -156 -532 -326 -790
-59 -90 -374 -409 -434 -440 -19 -10 -45 -23 -57 -29 -14 -7 -67 -101 -157
-281 -75 -148 -136 -273 -136 -277 0 -5 222 -8 494 -8 l495 0 11 58 c29 143
53 232 63 232 6 0 32 -21 58 -46 41 -40 51 -45 77 -39 25 5 31 13 42 53 14 55
41 163 70 282 49 195 65 251 106 375 131 394 241 653 416 975 56 103 133 228
213 346 32 48 146 196 192 249 48 55 49 60 29 107 -15 35 -42 125 -74 248 -39
144 -37 411 3 503 7 18 22 57 33 87 81 224 110 267 300 447 119 113 151 138
226 174 48 23 90 39 93 35 3 -3 -4 -65 -17 -137 -19 -110 -21 -151 -16 -242 4
-61 14 -126 22 -145 8 -19 14 -40 14 -47 0 -12 50 -121 73 -160 15 -24 101
-104 142 -131 17 -11 61 -31 100 -44 92 -32 234 -31 310 1 28 12 66 28 85 36
62 26 168 115 210 175 22 32 40 62 40 65 0 4 6 14 14 22 7 9 23 50 35 91 19
65 22 94 19 218 -2 78 -2 142 -2 142 3 0 82 -168 108 -230 16 -36 34 -80 42
-97 18 -44 96 -280 122 -373 71 -250 112 -450 162 -780 29 -195 29 -700 0
-980 -45 -422 -98 -637 -243 -990 -40 -98 -111 -260 -126 -287 -8 -14 -66
-134 -89 -185 -2 -5 206 -8 462 -8 l466 0 4 23 c9 40 16 141 17 240 l2 99 31
-7 c17 -3 52 -9 78 -12 45 -5 47 -4 54 22 4 16 -2 81 -15 154 -19 109 -22 167
-23 426 -1 255 2 324 20 460 54 404 111 649 233 1010 28 83 57 171 66 198 17
55 28 59 41 14 22 -75 156 -350 188 -388 8 -8 14 -18 14 -22 0 -7 31 -52 86
-127 44 -59 220 -232 269 -265 85 -56 274 -145 309 -145 23 0 20 52 -4 83 -11
14 -20 28 -20 31 0 3 -13 24 -29 48 -69 102 -149 263 -184 368 -49 147 -61
244 -53 439 3 97 10 199 15 226 32 172 68 348 112 540 11 50 30 131 41 180 11
50 28 124 38 165 44 183 87 386 120 570 20 106 21 142 18 475 -4 377 -3 365
-59 615 -25 111 -62 235 -134 440 -17 49 -22 62 -104 268 -27 68 -99 240 -120
287 -10 22 -37 85 -61 140 -23 55 -48 114 -55 130 -7 17 -25 61 -40 99 l-27
68 21 236 c31 343 31 960 1 1172 -43 299 -84 507 -119 605 -10 28 -28 82 -41
120 -12 39 -31 86 -41 105 -10 19 -32 67 -50 105 -46 102 -172 286 -252 372
-28 29 -59 98 -77 170 -4 17 -27 56 -51 87 -82 104 -148 118 -641 135 -253 8
-605 2 -988 -19 -398 -22 -688 -40 -790 -50 -58 -6 -163 -14 -235 -20 -150
-10 -383 -32 -605 -58 -184 -20 -662 -22 -1120 -3 -157 7 -647 16 -1090 22
-443 5 -836 13 -875 18 -38 5 -131 14 -205 20 -187 16 -349 40 -536 79 -19 5
-47 26 -75 57 -75 85 -110 124 -209 229 -111 118 -629 638 -680 682 -60 52
-331 267 -410 324 -96 70 -254 175 -337 221 -127 73 -174 101 -171 103 2 2 37
21 78 43 112 59 191 102 230 125 50 30 221 145 245 166 26 21 65 85 65 103 0
25 -97 116 -183 172 -203 133 -377 221 -542 274 l-80 26 75 19 c272 68 269 67
350 97 147 53 196 73 224 90 17 11 58 34 91 52 130 70 240 162 360 303 50 58
184 312 185 349 0 11 9 49 19 85 42 149 64 301 57 402 -4 52 -13 115 -20 140
-7 25 -24 81 -37 125 -12 44 -26 85 -30 90 -4 6 -26 48 -49 93 -106 210 -332
441 -545 558 -11 6 -38 21 -60 34 -153 88 -356 160 -453 160 -63 0 -63 0 -60
-27z m9512 -8940 c54 -116 64 -139 84 -188 47 -117 84 -232 122 -381 17 -71
20 -113 20 -335 0 -268 -4 -301 -61 -516 -10 -39 -19 -77 -19 -85 0 -13 -70
-231 -109 -338 -11 -30 -53 -129 -93 -220 -40 -91 -83 -196 -95 -235 -32 -101
-62 -215 -65 -250 l-4 -30 -16 35 c-20 43 -51 123 -67 170 -7 19 -26 76 -44
125 l-32 90 0 255 c0 270 1 275 66 595 28 138 81 363 118 510 10 39 28 108 40
155 12 47 31 117 42 157 10 39 19 84 19 100 0 15 7 66 15 113 8 47 20 133 25
192 9 96 17 138 25 138 1 0 15 -26 29 -57z"/>
</g>
</svg>
