<svg xmlns="http://www.w3.org/2000/svg" fill="none" stroke-linecap="square" stroke-miterlimit="10" viewBox="0 0 519.451 302.003"><clipPath id="a"><path d="M0 0h519.451v302.003H0z"/></clipPath><g clip-path="url(#a)"><path d="M0 0h519.451v302.003H0z"/><path fill="#38761d" fill-rule="evenodd" d="M29.588 74.242c0-21.286 17.256-38.541 38.541-38.541h385.374a38.54 38.54 0 0 1 38.542 38.541v154.161c0 21.286-17.256 38.542-38.542 38.542H68.13c-21.285 0-38.541-17.256-38.541-38.542z"/><path fill="#fff" fill-rule="evenodd" d="M35.934 77.675c0-20.338 16.487-36.825 36.825-36.825h373.72a36.825 36.825 0 0 1 36.825 36.825V224.97c0 20.338-16.487 36.825-36.824 36.825H72.76c-20.339 0-36.826-16.487-36.826-36.825z"/><path fill="#38761d" fill-rule="evenodd" d="M43.934 81.287c0-19.34 15.679-35.02 35.02-35.02h361.331a35.02 35.02 0 0 1 35.02 35.02v140.072c0 19.34-15.68 35.019-35.02 35.019H78.953c-19.34 0-35.019-15.679-35.019-35.02z"/><path d="M105.483 78.441h323.276v73.638H105.483z"/><path fill="#fff" d="M117.39 125.84V97.2h9.28q5.282 0 6.875.438 2.47.64 4.125 2.797 1.657 2.156 1.657 5.578 0 2.64-.953 4.437-.954 1.797-2.438 2.828-1.469 1.016-3 1.344-2.062.422-5.984.422h-3.782v10.797zm5.78-23.796v8.125h3.172q3.422 0 4.563-.437 1.156-.454 1.812-1.407.657-.968.657-2.234 0-1.563-.922-2.578-.922-1.016-2.328-1.266-1.032-.203-4.157-.203zm20.93 23.797V97.2h12.156q4.594 0 6.672.78 2.078.766 3.328 2.75 1.25 1.97 1.25 4.5 0 3.22-1.89 5.329-1.89 2.093-5.656 2.64 1.875 1.094 3.093 2.407 1.219 1.312 3.282 4.64l3.5 5.594h-6.907l-4.187-6.234q-2.219-3.344-3.047-4.204-.813-.875-1.734-1.187-.922-.328-2.907-.328h-1.172v11.953zm5.781-16.531h4.266q4.172 0 5.203-.344 1.031-.36 1.61-1.219.593-.86.593-2.14 0-1.454-.781-2.329-.766-.89-2.172-1.125-.703-.109-4.219-.109h-4.5zm21.903 2.39q0-4.375 1.312-7.343.985-2.188 2.672-3.922 1.688-1.75 3.703-2.578 2.672-1.141 6.172-1.141 6.328 0 10.125 3.937 3.797 3.922 3.797 10.907 0 6.937-3.781 10.86-3.766 3.905-10.063 3.905-6.39 0-10.172-3.89-3.765-3.907-3.765-10.735m5.968-.203q0 4.875 2.235 7.39 2.25 2.5 5.703 2.5 3.469 0 5.672-2.484 2.219-2.5 2.219-7.484 0-4.922-2.157-7.344t-5.734-2.422q-3.563 0-5.75 2.454-2.188 2.453-2.188 7.39m33.63 14.344L201.146 97.2h6.266l7.25 21.202 7.015-21.203h6.125l-10.25 28.64zm19.195 0V97.2h5.78v28.64zm11.347 0V97.2h5.625l11.72 19.124V97.2h5.374v28.64h-5.797L247.3 107.17v18.67zm47.153-10.531 5.61 1.78q-1.298 4.688-4.298 6.97-3 2.265-7.61 2.265-5.702 0-9.374-3.89-3.672-3.907-3.672-10.657 0-7.156 3.687-11.109 3.704-3.953 9.72-3.953 5.25 0 8.53 3.11 1.954 1.827 2.938 5.265l-5.734 1.375q-.5-2.234-2.11-3.516-1.61-1.297-3.922-1.297-3.187 0-5.172 2.297-1.968 2.282-1.968 7.39 0 5.438 1.953 7.75 1.953 2.298 5.078 2.298 2.297 0 3.953-1.469 1.672-1.469 2.39-4.61m10.386 10.53V97.2h5.782v28.64zm37.114 0h-6.297l-2.5-6.5h-11.438l-2.36 6.5h-6.14L319 97.2h6.109zm-10.64-11.327-3.954-10.625-3.86 10.625zM349.248 97.2h10.562q3.578 0 5.453.547 2.516.75 4.313 2.64t2.734 4.641.938 6.766q0 3.531-.875 6.094-1.079 3.125-3.063 5.062-1.5 1.47-4.062 2.282-1.922.609-5.125.609h-10.875zm5.78 4.844v18.969h4.313q2.422 0 3.5-.266 1.407-.36 2.328-1.187.938-.844 1.516-2.766.594-1.937.594-5.25 0-3.328-.594-5.094-.578-1.78-1.64-2.78-1.047-1-2.672-1.345-1.204-.28-4.75-.28zm23.122 23.797V97.2h21.234v4.843h-15.453v6.36h14.375v4.812h-14.375v7.797h16v4.828z"/><path d="M99.178 142.774h323.276v73.638H99.178z"/><path fill="#fff" d="M148.397 205.534H139.6l-3.5-9.11h-16.03l-3.298 9.11h-8.594l15.61-40.093h8.562zm-14.89-15.86-5.532-14.874-5.406 14.875zm58.312 1.126 7.86 2.484q-1.813 6.563-6.016 9.75-4.188 3.188-10.64 3.188-7.985 0-13.126-5.453-5.14-5.47-5.14-14.922 0-10.016 5.156-15.547 5.172-5.531 13.594-5.531 7.359 0 11.953 4.343 2.734 2.563 4.11 7.375l-8.017 1.922q-.718-3.125-2.968-4.922-2.25-1.812-5.485-1.812-4.453 0-7.234 3.203-2.766 3.203-2.766 10.36 0 7.609 2.735 10.843 2.734 3.219 7.11 3.219 3.218 0 5.546-2.047 2.328-2.062 3.328-6.453m13.16-5.063q0-6.125 1.828-10.28 1.375-3.063 3.735-5.5 2.36-2.438 5.187-3.61 3.735-1.578 8.64-1.578 8.86 0 14.173 5.5 5.312 5.484 5.312 15.28 0 9.704-5.281 15.188-5.266 5.485-14.094 5.485-8.953 0-14.234-5.453-5.266-5.47-5.266-15.032m8.344-.28q0 6.812 3.14 10.327 3.141 3.516 7.985 3.516t7.938-3.484q3.109-3.485 3.109-10.47 0-6.89-3.031-10.28-3.016-3.391-8.016-3.391t-8.062 3.437-3.063 10.344m36.887 20.077V165.44h17.031q6.422 0 9.328 1.093 2.922 1.078 4.672 3.844 1.75 2.75 1.75 6.313 0 4.5-2.656 7.453-2.657 2.937-7.922 3.703 2.625 1.531 4.328 3.36 1.703 1.827 4.61 6.5l4.89 7.827h-9.672l-5.86-8.718q-3.109-4.688-4.265-5.891-1.14-1.219-2.437-1.672-1.282-.453-4.063-.453h-1.64v16.734zm8.093-23.14h5.985q5.828 0 7.265-.485 1.454-.5 2.266-1.703.828-1.203.828-3 0-2.031-1.078-3.265-1.078-1.25-3.047-1.579-.984-.14-5.906-.14h-6.313zm32.254-16.953h8.094v21.718q0 5.172.313 6.703.515 2.454 2.468 3.954 1.953 1.484 5.344 1.484 3.453 0 5.203-1.406 1.75-1.407 2.094-3.453.36-2.063.36-6.813V165.44h8.093v21.062q0 7.219-.656 10.203-.656 2.969-2.422 5.031-1.766 2.047-4.719 3.266t-7.703 1.219q-5.75 0-8.719-1.328-2.953-1.328-4.687-3.438-1.719-2.125-2.266-4.453-.797-3.453-.797-10.172zm40.582 40.093V165.44h7.875l16.407 26.78v-26.78h7.515v40.093h-8.11l-16.171-26.14v26.14zm10.063-42.312h-3.5q-.031-.625-.031-.985 0-2.875 1.39-4.406 1.407-1.547 3.594-1.547.953 0 1.766.203.828.204 3 1.172 2.172.969 3.406.969.875 0 1.453-.547.594-.547.766-1.828h3.547q-.016 3.688-1.375 5.281-1.36 1.578-3.485 1.578-.937 0-1.828-.187-.64-.172-3.156-1.125t-3.656-.953q-.875 0-1.375.531-.485.531-.516 1.844m66.441 42.312h-8.797l-3.5-9.11h-16.03l-3.298 9.11h-8.593l15.609-40.093h8.562zm-14.89-15.86L387.22 174.8l-5.406 14.875z"/></g></svg>