<svg version="1.1" viewBox="0.0 0.0 519.4514435695538 302.002624671916" fill="none" stroke="none" stroke-linecap="square" stroke-miterlimit="10" xmlns:xlink="http://www.w3.org/1999/xlink" xmlns="http://www.w3.org/2000/svg"><clipPath id="p.0"><path d="m0 0l519.4514 0l0 302.00262l-519.4514 0l0 -302.00262z" clip-rule="nonzero"/></clipPath><g clip-path="url(#p.0)"><path fill="#000000" fill-opacity="0.0" d="m0 0l519.4514 0l0 302.00262l-519.4514 0z" fill-rule="evenodd"/><path fill="#38761d" d="m29.587927 74.24224l0 0c0 -21.285858 17.255594 -38.541454 38.54145 -38.541454l385.37378 0c10.221832 0 20.024994 4.060608 27.25293 11.288532c7.2279053 7.2279243 11.288513 17.03109 11.288513 27.252922l0 154.1612c0 21.285858 -17.255585 38.54146 -38.541443 38.54146l-385.37378 0c-21.285858 0 -38.54145 -17.2556 -38.54145 -38.54146z" fill-rule="evenodd"/><path fill="#ffffff" d="m35.934383 77.67528l0 0c0 -20.337822 16.48706 -36.824883 36.824886 -36.824883l373.7203 0c9.766571 0 19.133118 3.879753 26.039124 10.785759c6.906006 6.906002 10.785767 16.27256 10.785767 26.039124l0 147.29512c0 20.337814 -16.48706 36.82489 -36.82489 36.82489l-373.7203 0c-20.337826 0 -36.824886 -16.487076 -36.824886 -36.82489z" fill-rule="evenodd"/><path fill="#38761d" d="m43.934383 81.28679l0 0c0 -19.3405 15.678574 -35.019073 35.01907 -35.019073l361.33194 0c9.287628 0 18.194855 3.689499 24.762207 10.256851c6.5673523 6.5673485 10.256866 15.4745865 10.256866 24.762222l0 140.0721c0 19.3405 -15.678589 35.019073 -35.019073 35.019073l-361.33194 0c-19.340496 0 -35.01907 -15.678574 -35.01907 -35.019073z" fill-rule="evenodd"/><path fill="#000000" fill-opacity="0.0" d="m105.48294 78.44095l323.2756 0l0 73.63779l-323.2756 0z" fill-rule="evenodd"/><path fill="#ffffff" d="m117.38919 125.84094l0 -28.640625l9.28125 0q5.28125 0 6.875 0.4375q2.46875 0.640625 4.125 2.796875q1.65625 2.15625 1.65625 5.578125q0 2.640625 -0.953125 4.4375q-0.953125 1.796875 -2.4375 2.828125q-1.46875 1.015625 -3.0 1.34375q-2.0625 0.421875 -5.984375 0.421875l-3.78125 0l0 10.796875l-5.78125 0zm5.78125 -23.796875l0 8.125l3.171875 0q3.421875 0 4.5625 -0.4375q1.15625 -0.453125 1.8125 -1.40625q0.65625 -0.96875 0.65625 -2.234375q0 -1.5625 -0.921875 -2.578125q-0.921875 -1.015625 -2.328125 -1.265625q-1.03125 -0.203125 -4.15625 -0.203125l-2.796875 0zm20.929688 23.796875l0 -28.640625l12.15625 0q4.59375 0 6.671875 0.78125q2.078125 0.765625 3.328125 2.75q1.25 1.96875 1.25 4.5q0 3.21875 -1.890625 5.328125q-1.890625 2.09375 -5.65625 2.640625q1.875 1.09375 3.09375 2.40625q1.21875 1.3125 3.28125 4.640625l3.5 5.59375l-6.90625 0l-4.1875 -6.234375q-2.21875 -3.34375 -3.046875 -4.203125q-0.8125 -0.875 -1.734375 -1.1875q-0.921875 -0.328125 -2.90625 -0.328125l-1.171875 0l0 11.953125l-5.78125 0zm5.78125 -16.53125l4.265625 0q4.171875 0 5.203125 -0.34375q1.03125 -0.359375 1.609375 -1.21875q0.59375 -0.859375 0.59375 -2.140625q0 -1.453125 -0.78125 -2.328125q-0.765625 -0.890625 -2.171875 -1.125q-0.703125 -0.109375 -4.21875 -0.109375l-4.5 0l0 7.265625zm21.902344 2.390625q0 -4.375 1.3125 -7.34375q0.984375 -2.1875 2.671875 -3.921875q1.6875 -1.75 3.703125 -2.578125q2.671875 -1.140625 6.171875 -1.140625q6.328125 0 10.125 3.9375q3.796875 3.921875 3.796875 10.90625q0 6.9375 -3.78125 10.859375q-3.765625 3.90625 -10.0625 3.90625q-6.390625 0 -10.171875 -3.890625q-3.765625 -3.90625 -3.765625 -10.734375zm5.96875 -0.203125q0 4.875 2.234375 7.390625q2.25 2.5 5.703125 2.5q3.46875 0 5.671875 -2.484375q2.21875 -2.5 2.21875 -7.484375q0 -4.921875 -2.15625 -7.34375q-2.15625 -2.421875 -5.734375 -2.421875q-3.5625 0 -5.75 2.453125q-2.1875 2.453125 -2.1875 7.390625zm33.628906 14.34375l-10.234375 -28.640625l6.265625 0l7.25 21.203125l7.015625 -21.203125l6.125 0l-10.25 28.640625l-6.171875 0zm19.195312 0l0 -28.640625l5.78125 0l0 28.640625l-5.78125 0zm11.347656 0l0 -28.640625l5.625 0l11.71875 19.125l0 -19.125l5.375 0l0 28.640625l-5.796875 0l-11.546875 -18.671875l0 18.671875l-5.375 0zm47.152344 -10.53125l5.609375 1.78125q-1.296875 4.6875 -4.296875 6.96875q-3.0 2.265625 -7.609375 2.265625q-5.703125 0 -9.375 -3.890625q-3.671875 -3.90625 -3.671875 -10.65625q0 -7.15625 3.6875 -11.109375q3.703125 -3.953125 9.71875 -3.953125q5.25 0 8.53125 3.109375q1.953125 1.828125 2.9375 5.265625l-5.734375 1.375q-0.5 -2.234375 -2.109375 -3.515625q-1.609375 -1.296875 -3.921875 -1.296875q-3.1875 0 -5.171875 2.296875q-1.96875 2.28125 -1.96875 7.390625q0 5.4375 1.953125 7.75q1.953125 2.296875 5.078125 2.296875q2.296875 0 3.953125 -1.46875q1.671875 -1.46875 2.390625 -4.609375zm10.386719 10.53125l0 -28.640625l5.78125 0l0 28.640625l-5.78125 0zm37.11328 0l-6.296875 0l-2.5 -6.5l-11.4375 0l-2.359375 6.5l-6.140625 0l11.15625 -28.640625l6.109375 0l11.46875 28.640625zm-10.640625 -11.328125l-3.953125 -10.625l-3.859375 10.625l7.8125 0zm23.3125 -17.3125l10.5625 0q3.578125 0 5.453125 0.546875q2.515625 0.75 4.3125 2.640625q1.796875 1.890625 2.734375 4.640625q0.9375 2.75 0.9375 6.765625q0 3.53125 -0.875 6.09375q-1.078125 3.125 -3.0625 5.0625q-1.5 1.46875 -4.0625 2.28125q-1.921875 0.609375 -5.125 0.609375l-10.875 0l0 -28.640625zm5.78125 4.84375l0 18.96875l4.3125 0q2.421875 0 3.5 -0.265625q1.40625 -0.359375 2.328125 -1.1875q0.9375 -0.84375 1.515625 -2.765625q0.59375 -1.9375 0.59375 -5.25q0 -3.328125 -0.59375 -5.09375q-0.578125 -1.78125 -1.640625 -2.78125q-1.046875 -1.0 -2.671875 -1.34375q-1.203125 -0.28125 -4.75 -0.28125l-2.59375 0zm23.121094 23.796875l0 -28.640625l21.234375 0l0 4.84375l-15.453125 0l0 6.359375l14.375 0l0 4.8125l-14.375 0l0 7.796875l16.0 0l0 4.828125l-21.78125 0z" fill-rule="nonzero"/><path fill="#000000" fill-opacity="0.0" d="m55.351707 144.68504l408.53543 0l0 73.63779l-408.53543 0z" fill-rule="evenodd"/><path fill="#ffffff" d="m156.72098 207.44504l-8.796875 0l-3.5 -9.109375l-16.03125 0l-3.2968674 9.109375l-8.59375 0l15.609367 -40.09375l8.5625 0l16.046875 40.09375zm-14.890625 -15.859375l-5.53125 -14.875l-5.40625 14.875l10.9375 0zm17.144531 2.8125l7.875 -0.765625q0.703125 3.96875 2.875 5.828125q2.171875 1.859375 5.875 1.859375q3.90625 0 5.890625 -1.65625q1.984375 -1.65625 1.984375 -3.875q0 -1.421875 -0.84375 -2.40625q-0.828125 -1.0 -2.90625 -1.75q-1.421875 -0.484375 -6.484375 -1.75q-6.5 -1.609375 -9.125 -3.953125q-3.703125 -3.3125 -3.703125 -8.078125q0 -3.0625 1.734375 -5.71875q1.75 -2.671875 5.015625 -4.0625q3.265625 -1.390625 7.890625 -1.390625q7.546875 0 11.359375 3.3125q3.8125 3.296875 4.0 8.828125l-8.09375 0.34375q-0.515625 -3.078125 -2.234375 -4.4375q-1.703125 -1.359375 -5.125 -1.359375q-3.515625 0 -5.515625 1.453125q-1.28125 0.9375 -1.28125 2.484375q0 1.421875 1.203125 2.4375q1.53125 1.28125 7.4375 2.6875q5.90625 1.390625 8.734375 2.890625q2.828125 1.484375 4.421875 4.0625q1.609375 2.578125 1.609375 6.390625q0 3.4375 -1.921875 6.453125q-1.90625 3.0 -5.40625 4.46875q-3.5 1.46875 -8.734375 1.46875q-7.59375 0 -11.671875 -3.515625q-4.078125 -3.515625 -4.859375 -10.25zm48.414062 13.046875l0 -33.3125l-11.890625 0l0 -6.78125l31.859375 0l0 6.78125l-11.875 0l0 33.3125l-8.09375 0zm25.128906 -40.09375l8.09375 0l0 21.71875q0 5.171875 0.3125 6.703125q0.515625 2.453125 2.46875 3.953125q1.953125 1.484375 5.34375 1.484375q3.453125 0 5.203125 -1.40625q1.75 -1.40625 2.09375 -3.453125q0.359375 -2.0625 0.359375 -6.8125l0 -22.1875l8.09375 0l0 21.0625q0 7.21875 -0.65625 10.203125q-0.65625 2.96875 -2.421875 5.03125q-1.765625 2.046875 -4.71875 3.265625q-2.953125 1.21875 -7.703125 1.21875q-5.75 0 -8.71875 -1.328125q-2.953125 -1.328125 -4.6875 -3.4375q-1.71875 -2.125 -2.265625 -4.453125q-0.796875 -3.453125 -0.796875 -10.171875l0 -21.390625zm40.535156 40.09375l0 -40.09375l17.03125 0q6.421875 0 9.328125 1.09375q2.921875 1.078125 4.671875 3.84375q1.75 2.75 1.75 6.3125q0 4.5 -2.65625 7.453125q-2.65625 2.9375 -7.921875 3.703125q2.625 1.53125 4.328125 3.359375q1.703125 1.828125 4.609375 6.5l4.890625 7.828125l-9.671875 0l-5.859375 -8.71875q-3.109375 -4.6875 -4.265625 -5.890625q-1.140625 -1.21875 -2.4375 -1.671875q-1.28125 -0.453125 -4.0625 -0.453125l-1.640625 0l0 16.734375l-8.09375 0zm8.09375 -23.140625l5.984375 0q5.828125 0 7.265625 -0.484375q1.453125 -0.5 2.265625 -1.703125q0.828125 -1.203125 0.828125 -3.0q0 -2.03125 -1.078125 -3.265625q-1.078125 -1.25 -3.046875 -1.578125q-0.984375 -0.140625 -5.90625 -0.140625l-6.3125 0l0 10.171875zm32.066406 23.140625l0 -40.09375l8.09375 0l0 40.09375l-8.09375 0zm51.94922 0l-8.796875 0l-3.5 -9.109375l-16.03125 0l-3.296875 9.109375l-8.59375 0l15.609375 -40.09375l8.5625 0l16.046875 40.09375zm-14.890625 -15.859375l-5.53125 -14.875l-5.40625 14.875l10.9375 0zm17.144531 2.8125l7.875 -0.765625q0.703125 3.96875 2.875 5.828125q2.171875 1.859375 5.875 1.859375q3.90625 0 5.890625 -1.65625q1.984375 -1.65625 1.984375 -3.875q0 -1.421875 -0.84375 -2.40625q-0.828125 -1.0 -2.90625 -1.75q-1.421875 -0.484375 -6.484375 -1.75q-6.5 -1.609375 -9.125 -3.953125q-3.703125 -3.3125 -3.703125 -8.078125q0 -3.0625 1.734375 -5.71875q1.75 -2.671875 5.015625 -4.0625q3.265625 -1.390625 7.890625 -1.390625q7.546875 0 11.359375 3.3125q3.8125 3.296875 4.0 8.828125l-8.09375 0.34375q-0.515625 -3.078125 -2.234375 -4.4375q-1.703125 -1.359375 -5.125 -1.359375q-3.515625 0 -5.515625 1.453125q-1.28125 0.9375 -1.28125 2.484375q0 1.421875 1.203125 2.4375q1.53125 1.28125 7.4375 2.6875q5.90625 1.390625 8.734375 2.890625q2.828125 1.484375 4.421875 4.0625q1.609375 2.578125 1.609375 6.390625q0 3.4375 -1.921875 6.453125q-1.90625 3.0 -5.40625 4.46875q-3.5 1.46875 -8.734375 1.46875q-7.59375 0 -11.671875 -3.515625q-4.078125 -3.515625 -4.859375 -10.25z" fill-rule="nonzero"/></g></svg>