<svg version="1.1" viewBox="0.0 0.0 519.4514435695538 302.002624671916" fill="none" stroke="none" stroke-linecap="square" stroke-miterlimit="10" xmlns:xlink="http://www.w3.org/1999/xlink" xmlns="http://www.w3.org/2000/svg"><clipPath id="p.0"><path d="m0 0l519.4514 0l0 302.00262l-519.4514 0l0 -302.00262z" clip-rule="nonzero"/></clipPath><g clip-path="url(#p.0)"><path fill="#000000" fill-opacity="0.0" d="m0 0l519.4514 0l0 302.00262l-519.4514 0z" fill-rule="evenodd"/><path fill="#38761d" d="m29.587927 74.24224l0 0c0 -21.285858 17.255594 -38.541454 38.54145 -38.541454l385.37378 0c10.221832 0 20.024994 4.060608 27.25293 11.288532c7.2279053 7.2279243 11.288513 17.03109 11.288513 27.252922l0 154.1612c0 21.285858 -17.255585 38.54146 -38.541443 38.54146l-385.37378 0c-21.285858 0 -38.54145 -17.2556 -38.54145 -38.54146z" fill-rule="evenodd"/><path fill="#ffffff" d="m35.934383 77.67528l0 0c0 -20.337822 16.48706 -36.824883 36.824886 -36.824883l373.7203 0c9.766571 0 19.133118 3.879753 26.039124 10.785759c6.906006 6.906002 10.785767 16.27256 10.785767 26.039124l0 147.29512c0 20.337814 -16.48706 36.82489 -36.82489 36.82489l-373.7203 0c-20.337826 0 -36.824886 -16.487076 -36.824886 -36.82489z" fill-rule="evenodd"/><path fill="#38761d" d="m43.934383 81.28679l0 0c0 -19.3405 15.678574 -35.019073 35.01907 -35.019073l361.33194 0c9.287628 0 18.194855 3.689499 24.762207 10.256851c6.5673523 6.5673485 10.256866 15.4745865 10.256866 24.762222l0 140.0721c0 19.3405 -15.678589 35.019073 -35.019073 35.019073l-361.33194 0c-19.340496 0 -35.01907 -15.678574 -35.01907 -35.019073z" fill-rule="evenodd"/><path fill="#000000" fill-opacity="0.0" d="m105.48294 78.44095l323.2756 0l0 73.63779l-323.2756 0z" fill-rule="evenodd"/><path fill="#ffffff" d="m117.38919 125.84094l0 -28.640625l9.28125 0q5.28125 0 6.875 0.4375q2.46875 0.640625 4.125 2.796875q1.65625 2.15625 1.65625 5.578125q0 2.640625 -0.953125 4.4375q-0.953125 1.796875 -2.4375 2.828125q-1.46875 1.015625 -3.0 1.34375q-2.0625 0.421875 -5.984375 0.421875l-3.78125 0l0 10.796875l-5.78125 0zm5.78125 -23.796875l0 8.125l3.171875 0q3.421875 0 4.5625 -0.4375q1.15625 -0.453125 1.8125 -1.40625q0.65625 -0.96875 0.65625 -2.234375q0 -1.5625 -0.921875 -2.578125q-0.921875 -1.015625 -2.328125 -1.265625q-1.03125 -0.203125 -4.15625 -0.203125l-2.796875 0zm20.929688 23.796875l0 -28.640625l12.15625 0q4.59375 0 6.671875 0.78125q2.078125 0.765625 3.328125 2.75q1.25 1.96875 1.25 4.5q0 3.21875 -1.890625 5.328125q-1.890625 2.09375 -5.65625 2.640625q1.875 1.09375 3.09375 2.40625q1.21875 1.3125 3.28125 4.640625l3.5 5.59375l-6.90625 0l-4.1875 -6.234375q-2.21875 -3.34375 -3.046875 -4.203125q-0.8125 -0.875 -1.734375 -1.1875q-0.921875 -0.328125 -2.90625 -0.328125l-1.171875 0l0 11.953125l-5.78125 0zm5.78125 -16.53125l4.265625 0q4.171875 0 5.203125 -0.34375q1.03125 -0.359375 1.609375 -1.21875q0.59375 -0.859375 0.59375 -2.140625q0 -1.453125 -0.78125 -2.328125q-0.765625 -0.890625 -2.171875 -1.125q-0.703125 -0.109375 -4.21875 -0.109375l-4.5 0l0 7.265625zm21.902344 2.390625q0 -4.375 1.3125 -7.34375q0.984375 -2.1875 2.671875 -3.921875q1.6875 -1.75 3.703125 -2.578125q2.671875 -1.140625 6.171875 -1.140625q6.328125 0 10.125 3.9375q3.796875 3.921875 3.796875 10.90625q0 6.9375 -3.78125 10.859375q-3.765625 3.90625 -10.0625 3.90625q-6.390625 0 -10.171875 -3.890625q-3.765625 -3.90625 -3.765625 -10.734375zm5.96875 -0.203125q0 4.875 2.234375 7.390625q2.25 2.5 5.703125 2.5q3.46875 0 5.671875 -2.484375q2.21875 -2.5 2.21875 -7.484375q0 -4.921875 -2.15625 -7.34375q-2.15625 -2.421875 -5.734375 -2.421875q-3.5625 0 -5.75 2.453125q-2.1875 2.453125 -2.1875 7.390625zm33.628906 14.34375l-10.234375 -28.640625l6.265625 0l7.25 21.203125l7.015625 -21.203125l6.125 0l-10.25 28.640625l-6.171875 0zm19.195312 0l0 -28.640625l5.78125 0l0 28.640625l-5.78125 0zm11.347656 0l0 -28.640625l5.625 0l11.71875 19.125l0 -19.125l5.375 0l0 28.640625l-5.796875 0l-11.546875 -18.671875l0 18.671875l-5.375 0zm47.152344 -10.53125l5.609375 1.78125q-1.296875 4.6875 -4.296875 6.96875q-3.0 2.265625 -7.609375 2.265625q-5.703125 0 -9.375 -3.890625q-3.671875 -3.90625 -3.671875 -10.65625q0 -7.15625 3.6875 -11.109375q3.703125 -3.953125 9.71875 -3.953125q5.25 0 8.53125 3.109375q1.953125 1.828125 2.9375 5.265625l-5.734375 1.375q-0.5 -2.234375 -2.109375 -3.515625q-1.609375 -1.296875 -3.921875 -1.296875q-3.1875 0 -5.171875 2.296875q-1.96875 2.28125 -1.96875 7.390625q0 5.4375 1.953125 7.75q1.953125 2.296875 5.078125 2.296875q2.296875 0 3.953125 -1.46875q1.671875 -1.46875 2.390625 -4.609375zm10.386719 10.53125l0 -28.640625l5.78125 0l0 28.640625l-5.78125 0zm37.11328 0l-6.296875 0l-2.5 -6.5l-11.4375 0l-2.359375 6.5l-6.140625 0l11.15625 -28.640625l6.109375 0l11.46875 28.640625zm-10.640625 -11.328125l-3.953125 -10.625l-3.859375 10.625l7.8125 0zm23.3125 -17.3125l10.5625 0q3.578125 0 5.453125 0.546875q2.515625 0.75 4.3125 2.640625q1.796875 1.890625 2.734375 4.640625q0.9375 2.75 0.9375 6.765625q0 3.53125 -0.875 6.09375q-1.078125 3.125 -3.0625 5.0625q-1.5 1.46875 -4.0625 2.28125q-1.921875 0.609375 -5.125 0.609375l-10.875 0l0 -28.640625zm5.78125 4.84375l0 18.96875l4.3125 0q2.421875 0 3.5 -0.265625q1.40625 -0.359375 2.328125 -1.1875q0.9375 -0.84375 1.515625 -2.765625q0.59375 -1.9375 0.59375 -5.25q0 -3.328125 -0.59375 -5.09375q-0.578125 -1.78125 -1.640625 -2.78125q-1.046875 -1.0 -2.671875 -1.34375q-1.203125 -0.28125 -4.75 -0.28125l-2.59375 0zm23.121094 23.796875l0 -28.640625l21.234375 0l0 4.84375l-15.453125 0l0 6.359375l14.375 0l0 4.8125l-14.375 0l0 7.796875l16.0 0l0 4.828125l-21.78125 0z" fill-rule="nonzero"/><path fill="#000000" fill-opacity="0.0" d="m55.351707 144.68504l408.53543 0l0 73.63779l-408.53543 0z" fill-rule="evenodd"/><path fill="#ffffff" d="m134.55887 192.71066l0 -6.765625l17.453125 0l0 15.96875q-2.546875 2.46875 -7.375 4.34375q-4.828125 1.875 -9.765625 1.875q-6.296875 0 -10.968742 -2.640625q-4.671875 -2.640625 -7.03125 -7.546875q-2.34375 -4.90625 -2.34375 -10.6875q0 -6.25 2.625 -11.109375q2.625 -4.875 7.671875 -7.484375q3.8593674 -1.984375 9.609367 -1.984375q7.453125 0 11.65625 3.125q4.203125 3.125 5.40625 8.65625l-8.046875 1.5q-0.84375 -2.953125 -3.1875 -4.65625q-2.328125 -1.71875 -5.828125 -1.71875q-5.3125 0 -8.453117 3.375q-3.125 3.359375 -3.125 9.96875q0 7.140625 3.171875 10.71875q3.1718674 3.5625 8.312492 3.5625q2.546875 0 5.09375 -1.0q2.5625 -1.0 4.40625 -2.421875l0 -5.078125l-9.28125 0zm24.667969 14.734375l0 -40.09375l8.09375 0l0 40.09375l-8.09375 0zm15.808594 0l0 -40.09375l12.984375 0q7.390625 0 9.625 0.609375q3.453125 0.90625 5.765625 3.921875q2.328125 3.015625 2.328125 7.8125q0 3.6875 -1.34375 6.203125q-1.328125 2.515625 -3.40625 3.953125q-2.0625 1.4375 -4.1875 1.890625q-2.90625 0.578125 -8.390625 0.578125l-5.28125 0l0 15.125l-8.09375 0zm8.09375 -33.3125l0 11.375l4.421875 0q4.796875 0 6.40625 -0.625q1.609375 -0.625 2.515625 -1.96875q0.921875 -1.34375 0.921875 -3.109375q0 -2.1875 -1.28125 -3.609375q-1.28125 -1.421875 -3.25 -1.78125q-1.453125 -0.28125 -5.828125 -0.28125l-3.90625 0zm29.195312 -6.78125l8.09375 0l0 21.71875q0 5.171875 0.3125 6.703125q0.515625 2.453125 2.46875 3.953125q1.953125 1.484375 5.34375 1.484375q3.453125 0 5.203125 -1.40625q1.75 -1.40625 2.09375 -3.453125q0.359375 -2.0625 0.359375 -6.8125l0 -22.1875l8.09375 0l0 21.0625q0 7.21875 -0.65625 10.203125q-0.65625 2.96875 -2.421875 5.03125q-1.765625 2.046875 -4.71875 3.265625q-2.953125 1.21875 -7.703125 1.21875q-5.75 0 -8.71875 -1.328125q-2.953125 -1.328125 -4.6875 -3.4375q-1.71875 -2.125 -2.265625 -4.453125q-0.796875 -3.453125 -0.796875 -10.171875l0 -21.390625zm37.035156 40.09375l0 -7.296875l21.046875 -26.015625l-18.671875 0l0 -6.78125l29.34375 0l0 6.296875l-21.96875 27.046875l22.8125 0l0 6.75l-32.5625 0zm37.785156 0l0 -40.09375l8.09375 0l0 17.8125l16.34375 -17.8125l10.890625 0l-15.09375 15.625l15.90625 24.46875l-10.46875 0l-11.015625 -18.8125l-6.5625 6.703125l0 12.109375l-8.09375 0zm38.691406 -19.796875q0 -6.125 1.828125 -10.28125q1.375 -3.0625 3.734375 -5.5q2.359375 -2.4375 5.1875 -3.609375q3.734375 -1.578125 8.640625 -1.578125q8.859375 0 14.171875 5.5q5.3125 5.484375 5.3125 15.28125q0 9.703125 -5.28125 15.1875q-5.265625 5.484375 -14.09375 5.484375q-8.953125 0 -14.234375 -5.453125q-5.265625 -5.46875 -5.265625 -15.03125zm8.34375 -0.28125q0 6.8125 3.140625 10.328125q3.140625 3.515625 7.984375 3.515625q4.84375 0 7.9375 -3.484375q3.109375 -3.484375 3.109375 -10.46875q0 -6.890625 -3.03125 -10.28125q-3.015625 -3.390625 -8.015625 -3.390625q-5.0 0 -8.0625 3.4375q-3.0625 3.4375 -3.0625 10.34375zm72.99609 20.078125l-8.796875 0l-3.5 -9.109375l-16.03125 0l-3.296875 9.109375l-8.59375 0l15.609375 -40.09375l8.5625 0l16.046875 40.09375zm-14.890625 -15.859375l-5.53125 -14.875l-5.40625 14.875l10.9375 0z" fill-rule="nonzero"/></g></svg>