<svg xmlns="http://www.w3.org/2000/svg" fill="none" stroke-linecap="square" stroke-miterlimit="10" viewBox="0 0 519.451 302.003"><clipPath id="a"><path d="M0 0h519.451v302.003H0z"/></clipPath><g clip-path="url(#a)"><path d="M0 0h519.451v302.003H0z"/><path fill="#38761d" fill-rule="evenodd" d="M29.588 74.242c0-21.286 17.256-38.541 38.541-38.541h385.374a38.54 38.54 0 0 1 38.542 38.541v154.161c0 21.286-17.256 38.542-38.542 38.542H68.13c-21.285 0-38.541-17.256-38.541-38.542z"/><path fill="#fff" fill-rule="evenodd" d="M35.934 77.675c0-20.338 16.487-36.825 36.825-36.825h373.72a36.825 36.825 0 0 1 36.825 36.825V224.97c0 20.338-16.487 36.825-36.824 36.825H72.76c-20.339 0-36.826-16.487-36.826-36.825z"/><path fill="#38761d" fill-rule="evenodd" d="M43.934 81.287c0-19.34 15.679-35.02 35.02-35.02h361.331a35.02 35.02 0 0 1 35.02 35.02v140.072c0 19.34-15.68 35.019-35.02 35.019H78.953c-19.34 0-35.019-15.679-35.019-35.02z"/><path d="M105.483 78.441h323.276v73.638H105.483z"/><path fill="#fff" d="M117.39 125.84V97.2h9.28q5.282 0 6.875.438 2.47.64 4.125 2.797 1.657 2.156 1.657 5.578 0 2.64-.953 4.437-.954 1.797-2.438 2.828-1.469 1.016-3 1.344-2.062.422-5.984.422h-3.782v10.797zm5.78-23.796v8.125h3.172q3.422 0 4.563-.437 1.156-.454 1.812-1.407.657-.968.657-2.234 0-1.563-.922-2.578-.922-1.016-2.328-1.266-1.032-.203-4.157-.203zm20.93 23.797V97.2h12.156q4.594 0 6.672.78 2.078.766 3.328 2.75 1.25 1.97 1.25 4.5 0 3.22-1.89 5.329-1.89 2.093-5.656 2.64 1.875 1.094 3.093 2.407 1.219 1.312 3.282 4.64l3.5 5.594h-6.907l-4.187-6.234q-2.219-3.344-3.047-4.204-.813-.875-1.734-1.187-.922-.328-2.907-.328h-1.172v11.953zm5.781-16.531h4.266q4.172 0 5.203-.344 1.031-.36 1.61-1.219.593-.86.593-2.14 0-1.454-.781-2.329-.766-.89-2.172-1.125-.703-.109-4.219-.109h-4.5zm21.903 2.39q0-4.375 1.312-7.343.985-2.188 2.672-3.922 1.688-1.75 3.703-2.578 2.672-1.141 6.172-1.141 6.328 0 10.125 3.937 3.797 3.922 3.797 10.907 0 6.937-3.781 10.86-3.766 3.905-10.063 3.905-6.39 0-10.172-3.89-3.765-3.907-3.765-10.735m5.968-.203q0 4.875 2.235 7.39 2.25 2.5 5.703 2.5 3.469 0 5.672-2.484 2.219-2.5 2.219-7.484 0-4.922-2.157-7.344t-5.734-2.422q-3.563 0-5.75 2.454-2.188 2.453-2.188 7.39m33.63 14.344L201.146 97.2h6.266l7.25 21.202 7.015-21.203h6.125l-10.25 28.64zm19.195 0V97.2h5.78v28.64zm11.347 0V97.2h5.625l11.72 19.124V97.2h5.374v28.64h-5.797L247.3 107.17v18.67zm47.153-10.531 5.61 1.78q-1.298 4.688-4.298 6.97-3 2.265-7.61 2.265-5.702 0-9.374-3.89-3.672-3.907-3.672-10.657 0-7.156 3.687-11.109 3.704-3.953 9.72-3.953 5.25 0 8.53 3.11 1.954 1.827 2.938 5.265l-5.734 1.375q-.5-2.234-2.11-3.516-1.61-1.297-3.922-1.297-3.187 0-5.172 2.297-1.968 2.282-1.968 7.39 0 5.438 1.953 7.75 1.953 2.298 5.078 2.298 2.297 0 3.953-1.469 1.672-1.469 2.39-4.61m10.386 10.53V97.2h5.782v28.64zm37.114 0h-6.297l-2.5-6.5h-11.438l-2.36 6.5h-6.14L319 97.2h6.109zm-10.64-11.327-3.954-10.625-3.86 10.625zM349.248 97.2h10.562q3.578 0 5.453.547 2.516.75 4.313 2.64t2.734 4.641.938 6.766q0 3.531-.875 6.094-1.079 3.125-3.063 5.062-1.5 1.47-4.062 2.282-1.922.609-5.125.609h-10.875zm5.78 4.844v18.969h4.313q2.422 0 3.5-.266 1.407-.36 2.328-1.187.938-.844 1.516-2.766.594-1.937.594-5.25 0-3.328-.594-5.094-.578-1.78-1.64-2.78-1.047-1-2.672-1.345-1.204-.28-4.75-.28zm23.122 23.797V97.2h21.234v4.843h-15.453v6.36h14.375v4.812h-14.375v7.797h16v4.828z"/><path d="M26.911 144.685h462.457v73.638H26.91z"/><path fill="#fff" d="M149.452 204.885v-38.172h7.704v15.016h15.109v-15.016h7.703v38.172h-7.703v-16.687h-15.11v16.687zm38.434-38.172h7.703v20.672q0 4.922.297 6.375.485 2.344 2.344 3.766 1.875 1.422 5.094 1.422 3.281 0 4.953-1.344t2-3.297q.344-1.953.344-6.484v-21.11h7.703v20.047q0 6.875-.625 9.719-.625 2.828-2.313 4.781-1.672 1.953-4.484 3.125-2.813 1.156-7.344 1.156-5.469 0-8.297-1.265-2.812-1.266-4.453-3.282-1.64-2.015-2.172-4.234-.75-3.281-.75-9.687zm38.559 38.172v-38.172h28.312v6.453h-20.593v8.469h19.156v6.422h-19.156v10.39h21.312v6.438zm33.616-12.422 7.5-.734q.688 3.781 2.75 5.562 2.078 1.766 5.594 1.766 3.719 0 5.61-1.578 1.89-1.578 1.89-3.688 0-1.36-.797-2.297-.797-.953-2.781-1.656-1.344-.469-6.172-1.672-6.187-1.531-8.687-3.781-3.516-3.14-3.516-7.672 0-2.922 1.64-5.453 1.657-2.547 4.766-3.875 3.125-1.328 7.516-1.328 7.187 0 10.812 3.156 3.64 3.156 3.828 8.406l-7.703.344q-.5-2.937-2.125-4.219-1.625-1.296-4.89-1.296-3.36 0-5.25 1.375-1.235.89-1.235 2.375 0 1.343 1.157 2.312 1.453 1.219 7.078 2.547t8.312 2.75q2.703 1.422 4.219 3.89 1.531 2.454 1.531 6.063 0 3.281-1.828 6.156-1.828 2.86-5.156 4.25t-8.297 1.39q-7.25 0-11.125-3.343t-4.64-9.75m61.945-1.61 7.484 2.36q-1.719 6.25-5.719 9.297-4 3.031-10.14 3.031-7.61 0-12.5-5.187-4.89-5.203-4.89-14.219 0-9.531 4.921-14.797 4.922-5.281 12.937-5.281 7 0 11.375 4.14 2.61 2.454 3.907 7.032l-7.625 1.828q-.688-2.969-2.828-4.688-2.141-1.718-5.22-1.718-4.25 0-6.89 3.047-2.64 3.046-2.64 9.859 0 7.25 2.593 10.328 2.61 3.063 6.782 3.063 3.078 0 5.28-1.954 2.22-1.953 3.173-6.14m48.512 14.032h-8.375l-3.329-8.672H343.55l-3.156 8.672h-8.172l14.875-38.172h8.14zm-14.188-15.11-5.25-14.156-5.156 14.157z"/></g></svg>