<svg version="1.1" viewBox="0.0 0.0 519.4514435695538 302.002624671916" fill="none" stroke="none" stroke-linecap="square" stroke-miterlimit="10" xmlns:xlink="http://www.w3.org/1999/xlink" xmlns="http://www.w3.org/2000/svg"><clipPath id="p.0"><path d="m0 0l519.4514 0l0 302.00262l-519.4514 0l0 -302.00262z" clip-rule="nonzero"/></clipPath><g clip-path="url(#p.0)"><path fill="#000000" fill-opacity="0.0" d="m0 0l519.4514 0l0 302.00262l-519.4514 0z" fill-rule="evenodd"/><path fill="#38761d" d="m29.587927 74.24224l0 0c0 -21.285858 17.255594 -38.541454 38.54145 -38.541454l385.37378 0c10.221832 0 20.024994 4.060608 27.25293 11.288532c7.2279053 7.2279243 11.288513 17.03109 11.288513 27.252922l0 154.1612c0 21.285858 -17.255585 38.54146 -38.541443 38.54146l-385.37378 0c-21.285858 0 -38.54145 -17.2556 -38.54145 -38.54146z" fill-rule="evenodd"/><path fill="#ffffff" d="m35.934383 77.67528l0 0c0 -20.337822 16.48706 -36.824883 36.824886 -36.824883l373.7203 0c9.766571 0 19.133118 3.879753 26.039124 10.785759c6.906006 6.906002 10.785767 16.27256 10.785767 26.039124l0 147.29512c0 20.337814 -16.48706 36.82489 -36.82489 36.82489l-373.7203 0c-20.337826 0 -36.824886 -16.487076 -36.824886 -36.82489z" fill-rule="evenodd"/><path fill="#38761d" d="m43.934383 81.28679l0 0c0 -19.3405 15.678574 -35.019073 35.01907 -35.019073l361.33194 0c9.287628 0 18.194855 3.689499 24.762207 10.256851c6.5673523 6.5673485 10.256866 15.4745865 10.256866 24.762222l0 140.0721c0 19.3405 -15.678589 35.019073 -35.019073 35.019073l-361.33194 0c-19.340496 0 -35.01907 -15.678574 -35.01907 -35.019073z" fill-rule="evenodd"/><path fill="#000000" fill-opacity="0.0" d="m105.48294 78.44095l323.2756 0l0 73.63779l-323.2756 0z" fill-rule="evenodd"/><path fill="#ffffff" d="m117.38919 125.84094l0 -28.640625l9.28125 0q5.28125 0 6.875 0.4375q2.46875 0.640625 4.125 2.796875q1.65625 2.15625 1.65625 5.578125q0 2.640625 -0.953125 4.4375q-0.953125 1.796875 -2.4375 2.828125q-1.46875 1.015625 -3.0 1.34375q-2.0625 0.421875 -5.984375 0.421875l-3.78125 0l0 10.796875l-5.78125 0zm5.78125 -23.796875l0 8.125l3.171875 0q3.421875 0 4.5625 -0.4375q1.15625 -0.453125 1.8125 -1.40625q0.65625 -0.96875 0.65625 -2.234375q0 -1.5625 -0.921875 -2.578125q-0.921875 -1.015625 -2.328125 -1.265625q-1.03125 -0.203125 -4.15625 -0.203125l-2.796875 0zm20.929688 23.796875l0 -28.640625l12.15625 0q4.59375 0 6.671875 0.78125q2.078125 0.765625 3.328125 2.75q1.25 1.96875 1.25 4.5q0 3.21875 -1.890625 5.328125q-1.890625 2.09375 -5.65625 2.640625q1.875 1.09375 3.09375 2.40625q1.21875 1.3125 3.28125 4.640625l3.5 5.59375l-6.90625 0l-4.1875 -6.234375q-2.21875 -3.34375 -3.046875 -4.203125q-0.8125 -0.875 -1.734375 -1.1875q-0.921875 -0.328125 -2.90625 -0.328125l-1.171875 0l0 11.953125l-5.78125 0zm5.78125 -16.53125l4.265625 0q4.171875 0 5.203125 -0.34375q1.03125 -0.359375 1.609375 -1.21875q0.59375 -0.859375 0.59375 -2.140625q0 -1.453125 -0.78125 -2.328125q-0.765625 -0.890625 -2.171875 -1.125q-0.703125 -0.109375 -4.21875 -0.109375l-4.5 0l0 7.265625zm21.902344 2.390625q0 -4.375 1.3125 -7.34375q0.984375 -2.1875 2.671875 -3.921875q1.6875 -1.75 3.703125 -2.578125q2.671875 -1.140625 6.171875 -1.140625q6.328125 0 10.125 3.9375q3.796875 3.921875 3.796875 10.90625q0 6.9375 -3.78125 10.859375q-3.765625 3.90625 -10.0625 3.90625q-6.390625 0 -10.171875 -3.890625q-3.765625 -3.90625 -3.765625 -10.734375zm5.96875 -0.203125q0 4.875 2.234375 7.390625q2.25 2.5 5.703125 2.5q3.46875 0 5.671875 -2.484375q2.21875 -2.5 2.21875 -7.484375q0 -4.921875 -2.15625 -7.34375q-2.15625 -2.421875 -5.734375 -2.421875q-3.5625 0 -5.75 2.453125q-2.1875 2.453125 -2.1875 7.390625zm33.628906 14.34375l-10.234375 -28.640625l6.265625 0l7.25 21.203125l7.015625 -21.203125l6.125 0l-10.25 28.640625l-6.171875 0zm19.195312 0l0 -28.640625l5.78125 0l0 28.640625l-5.78125 0zm11.347656 0l0 -28.640625l5.625 0l11.71875 19.125l0 -19.125l5.375 0l0 28.640625l-5.796875 0l-11.546875 -18.671875l0 18.671875l-5.375 0zm47.152344 -10.53125l5.609375 1.78125q-1.296875 4.6875 -4.296875 6.96875q-3.0 2.265625 -7.609375 2.265625q-5.703125 0 -9.375 -3.890625q-3.671875 -3.90625 -3.671875 -10.65625q0 -7.15625 3.6875 -11.109375q3.703125 -3.953125 9.71875 -3.953125q5.25 0 8.53125 3.109375q1.953125 1.828125 2.9375 5.265625l-5.734375 1.375q-0.5 -2.234375 -2.109375 -3.515625q-1.609375 -1.296875 -3.921875 -1.296875q-3.1875 0 -5.171875 2.296875q-1.96875 2.28125 -1.96875 7.390625q0 5.4375 1.953125 7.75q1.953125 2.296875 5.078125 2.296875q2.296875 0 3.953125 -1.46875q1.671875 -1.46875 2.390625 -4.609375zm10.386719 10.53125l0 -28.640625l5.78125 0l0 28.640625l-5.78125 0zm37.11328 0l-6.296875 0l-2.5 -6.5l-11.4375 0l-2.359375 6.5l-6.140625 0l11.15625 -28.640625l6.109375 0l11.46875 28.640625zm-10.640625 -11.328125l-3.953125 -10.625l-3.859375 10.625l7.8125 0zm23.3125 -17.3125l10.5625 0q3.578125 0 5.453125 0.546875q2.515625 0.75 4.3125 2.640625q1.796875 1.890625 2.734375 4.640625q0.9375 2.75 0.9375 6.765625q0 3.53125 -0.875 6.09375q-1.078125 3.125 -3.0625 5.0625q-1.5 1.46875 -4.0625 2.28125q-1.921875 0.609375 -5.125 0.609375l-10.875 0l0 -28.640625zm5.78125 4.84375l0 18.96875l4.3125 0q2.421875 0 3.5 -0.265625q1.40625 -0.359375 2.328125 -1.1875q0.9375 -0.84375 1.515625 -2.765625q0.59375 -1.9375 0.59375 -5.25q0 -3.328125 -0.59375 -5.09375q-0.578125 -1.78125 -1.640625 -2.78125q-1.046875 -1.0 -2.671875 -1.34375q-1.203125 -0.28125 -4.75 -0.28125l-2.59375 0zm23.121094 23.796875l0 -28.640625l21.234375 0l0 4.84375l-15.453125 0l0 6.359375l14.375 0l0 4.8125l-14.375 0l0 7.796875l16.0 0l0 4.828125l-21.78125 0z" fill-rule="nonzero"/><path fill="#000000" fill-opacity="0.0" d="m26.911068 144.68504l462.4567 0l0 73.63779l-462.4567 0z" fill-rule="evenodd"/><path fill="#ffffff" d="m149.45248 204.88504l0 -38.171875l7.703125 0l0 15.015625l15.109375 0l0 -15.015625l7.703125 0l0 38.171875l-7.703125 0l0 -16.6875l-15.109375 0l0 16.6875l-7.703125 0zm38.433746 -38.171875l7.703125 0l0 20.671875q0 4.921875 0.296875 6.375q0.484375 2.34375 2.34375 3.765625q1.875 1.421875 5.09375 1.421875q3.28125 0 4.953125 -1.34375q1.671875 -1.34375 2.0 -3.296875q0.34375 -1.953125 0.34375 -6.484375l0 -21.109375l7.703125 0l0 20.046875q0 6.875 -0.625 9.71875q-0.625 2.828125 -2.3125 4.78125q-1.671875 1.953125 -4.484375 3.125q-2.8125 1.15625 -7.34375 1.15625q-5.46875 0 -8.296875 -1.265625q-2.8125 -1.265625 -4.453125 -3.28125q-1.640625 -2.015625 -2.171875 -4.234375q-0.75 -3.28125 -0.75 -9.6875l0 -20.359375zm38.558746 38.171875l0 -38.171875l28.3125 0l0 6.453125l-20.59375 0l0 8.46875l19.15625 0l0 6.421875l-19.15625 0l0 10.390625l21.3125 0l0 6.4375l-29.03125 0zm33.616302 -12.421875l7.5 -0.734375q0.6875 3.78125 2.75 5.5625q2.078125 1.765625 5.59375 1.765625q3.71875 0 5.609375 -1.578125q1.890625 -1.578125 1.890625 -3.6875q0 -1.359375 -0.796875 -2.296875q-0.796875 -0.953125 -2.78125 -1.65625q-1.34375 -0.46875 -6.171875 -1.671875q-6.1875 -1.53125 -8.6875 -3.78125q-3.515625 -3.140625 -3.515625 -7.671875q0 -2.921875 1.640625 -5.453125q1.65625 -2.546875 4.765625 -3.875q3.125 -1.328125 7.515625 -1.328125q7.1875 0 10.8125 3.15625q3.640625 3.15625 3.828125 8.40625l-7.703125 0.34375q-0.5 -2.9375 -2.125 -4.21875q-1.625 -1.296875 -4.890625 -1.296875q-3.359375 0 -5.25 1.375q-1.234375 0.890625 -1.234375 2.375q0 1.34375 1.15625 2.3125q1.453125 1.21875 7.078125 2.546875q5.625 1.328125 8.3125 2.75q2.703125 1.421875 4.21875 3.890625q1.53125 2.453125 1.53125 6.0625q0 3.28125 -1.828125 6.15625q-1.828125 2.859375 -5.15625 4.25q-3.328125 1.390625 -8.296875 1.390625q-7.25 0 -11.125 -3.34375q-3.875 -3.34375 -4.640625 -9.75zm61.944458 -1.609375l7.484375 2.359375q-1.71875 6.25 -5.71875 9.296875q-4.0 3.03125 -10.140625 3.03125q-7.609375 0 -12.5 -5.1875q-4.890625 -5.203125 -4.890625 -14.21875q0 -9.53125 4.921875 -14.796875q4.921875 -5.28125 12.9375 -5.28125q7.0 0 11.375 4.140625q2.609375 2.453125 3.90625 7.03125l-7.625 1.828125q-0.6875 -2.96875 -2.828125 -4.6875q-2.140625 -1.71875 -5.21875 -1.71875q-4.25 0 -6.890625 3.046875q-2.640625 3.046875 -2.640625 9.859375q0 7.25 2.59375 10.328125q2.609375 3.0625 6.78125 3.0625q3.078125 0 5.28125 -1.953125q2.21875 -1.953125 3.171875 -6.140625zm48.51187 14.03125l-8.375 0l-3.328125 -8.671875l-15.265625 0l-3.15625 8.671875l-8.171875 0l14.875 -38.171875l8.140625 0l15.28125 38.171875zm-14.1875 -15.109375l-5.25 -14.15625l-5.15625 14.15625l10.40625 0z" fill-rule="nonzero"/></g></svg>