<svg xmlns="http://www.w3.org/2000/svg" fill="none" stroke-linecap="square" stroke-miterlimit="10" viewBox="0 0 519.451 302.003"><clipPath id="a"><path d="M0 0h519.451v302.003H0z"/></clipPath><g clip-path="url(#a)"><path d="M0 0h519.451v302.003H0z"/><path fill="#38761d" fill-rule="evenodd" d="M29.588 74.242c0-21.286 17.256-38.541 38.541-38.541h385.374a38.54 38.54 0 0 1 38.542 38.541v154.161c0 21.286-17.256 38.542-38.542 38.542H68.13c-21.285 0-38.541-17.256-38.541-38.542z"/><path fill="#fff" fill-rule="evenodd" d="M35.934 77.675c0-20.338 16.487-36.825 36.825-36.825h373.72a36.825 36.825 0 0 1 36.825 36.825V224.97c0 20.338-16.487 36.825-36.824 36.825H72.76c-20.339 0-36.826-16.487-36.826-36.825z"/><path fill="#38761d" fill-rule="evenodd" d="M43.934 81.287c0-19.34 15.679-35.02 35.02-35.02h361.331a35.02 35.02 0 0 1 35.02 35.02v140.072c0 19.34-15.68 35.019-35.02 35.019H78.953c-19.34 0-35.019-15.679-35.019-35.02z"/><path d="M105.483 78.441h323.276v73.638H105.483z"/><path fill="#fff" d="M117.39 125.84V97.2h9.28q5.282 0 6.875.438 2.47.64 4.125 2.797 1.657 2.156 1.657 5.578 0 2.64-.953 4.437-.954 1.797-2.438 2.828-1.469 1.016-3 1.344-2.062.422-5.984.422h-3.782v10.797zm5.78-23.796v8.125h3.172q3.422 0 4.563-.437 1.156-.454 1.812-1.407.657-.968.657-2.234 0-1.563-.922-2.578-.922-1.016-2.328-1.266-1.032-.203-4.157-.203zm20.93 23.797V97.2h12.156q4.594 0 6.672.78 2.078.766 3.328 2.75 1.25 1.97 1.25 4.5 0 3.22-1.89 5.329-1.89 2.093-5.656 2.64 1.875 1.094 3.093 2.407 1.219 1.312 3.282 4.64l3.5 5.594h-6.907l-4.187-6.234q-2.219-3.344-3.047-4.204-.813-.875-1.734-1.187-.922-.328-2.907-.328h-1.172v11.953zm5.781-16.531h4.266q4.172 0 5.203-.344 1.031-.36 1.61-1.219.593-.86.593-2.14 0-1.454-.781-2.329-.766-.89-2.172-1.125-.703-.109-4.219-.109h-4.5zm21.903 2.39q0-4.375 1.312-7.343.985-2.188 2.672-3.922 1.688-1.75 3.703-2.578 2.672-1.141 6.172-1.141 6.328 0 10.125 3.937 3.797 3.922 3.797 10.907 0 6.937-3.781 10.86-3.766 3.905-10.063 3.905-6.39 0-10.172-3.89-3.765-3.907-3.765-10.735m5.968-.203q0 4.875 2.235 7.39 2.25 2.5 5.703 2.5 3.469 0 5.672-2.484 2.219-2.5 2.219-7.484 0-4.922-2.157-7.344t-5.734-2.422q-3.563 0-5.75 2.454-2.188 2.453-2.188 7.39m33.63 14.344L201.146 97.2h6.266l7.25 21.202 7.015-21.203h6.125l-10.25 28.64zm19.195 0V97.2h5.78v28.64zm11.347 0V97.2h5.625l11.72 19.124V97.2h5.374v28.64h-5.797L247.3 107.17v18.67zm47.153-10.531 5.61 1.78q-1.298 4.688-4.298 6.97-3 2.265-7.61 2.265-5.702 0-9.374-3.89-3.672-3.907-3.672-10.657 0-7.156 3.687-11.109 3.704-3.953 9.72-3.953 5.25 0 8.53 3.11 1.954 1.827 2.938 5.265l-5.734 1.375q-.5-2.234-2.11-3.516-1.61-1.297-3.922-1.297-3.187 0-5.172 2.297-1.968 2.282-1.968 7.39 0 5.438 1.953 7.75 1.953 2.298 5.078 2.298 2.297 0 3.953-1.469 1.672-1.469 2.39-4.61m10.386 10.53V97.2h5.782v28.64zm37.114 0h-6.297l-2.5-6.5h-11.438l-2.36 6.5h-6.14L319 97.2h6.109zm-10.64-11.327-3.954-10.625-3.86 10.625zM349.248 97.2h10.562q3.578 0 5.453.547 2.516.75 4.313 2.64t2.734 4.641.938 6.766q0 3.531-.875 6.094-1.079 3.125-3.063 5.062-1.5 1.47-4.062 2.282-1.922.609-5.125.609h-10.875zm5.78 4.844v18.969h4.313q2.422 0 3.5-.266 1.407-.36 2.328-1.187.938-.844 1.516-2.766.594-1.937.594-5.25 0-3.328-.594-5.094-.578-1.78-1.64-2.78-1.047-1-2.672-1.345-1.204-.28-4.75-.28zm23.122 23.797V97.2h21.234v4.843h-15.453v6.36h14.375v4.812h-14.375v7.797h16v4.828z"/><path d="M99.178 142.774h323.276v73.638H99.178z"/><path fill="#fff" d="M124.785 185.737q0-6.125 1.828-10.28 1.375-3.063 3.735-5.5 2.359-2.438 5.187-3.61 3.734-1.578 8.64-1.578 8.86 0 14.173 5.5 5.312 5.484 5.312 15.28 0 9.704-5.281 15.188-5.266 5.485-14.094 5.485-8.953 0-14.234-5.453-5.266-5.47-5.266-15.032m8.344-.28q0 6.812 3.14 10.327 3.141 3.516 7.985 3.516t7.937-3.484q3.11-3.485 3.11-10.47 0-6.89-3.032-10.28-3.015-3.391-8.015-3.391t-8.063 3.437-3.062 10.344m36.793-20.016h8.094v21.718q0 5.172.312 6.703.516 2.454 2.469 3.954 1.953 1.484 5.344 1.484 3.453 0 5.203-1.406 1.75-1.407 2.093-3.453.36-2.063.36-6.813V165.44h8.094v21.062q0 7.219-.657 10.203-.656 2.969-2.422 5.031-1.765 2.047-4.718 3.266t-7.703 1.219q-5.75 0-8.72-1.328-2.952-1.328-4.687-3.438-1.718-2.125-2.265-4.453-.797-3.453-.797-10.172zm40.535 40.093V165.44h17.031q6.422 0 9.328 1.093 2.922 1.078 4.672 3.844 1.75 2.75 1.75 6.313 0 4.5-2.656 7.453-2.656 2.937-7.922 3.703 2.625 1.531 4.328 3.36 1.703 1.827 4.61 6.5l4.89 7.827h-9.672l-5.86-8.718q-3.108-4.688-4.265-5.891-1.14-1.219-2.437-1.672-1.281-.453-4.063-.453h-1.64v16.734zm8.094-23.14h5.984q5.828 0 7.266-.485 1.453-.5 2.265-1.703.828-1.203.828-3 0-2.031-1.078-3.265-1.078-1.25-3.047-1.579-.984-.14-5.906-.14h-6.312zm32.316 23.14V165.44h29.719v6.78H258.96v8.891h20.125v6.75H258.96v10.922h22.39v6.75zm37.43 0V165.44h7.875l16.406 26.78v-26.78h7.516v40.093h-8.11l-16.172-26.14v26.14zm38.316-13.047 7.875-.765q.703 3.969 2.875 5.828t5.875 1.86q3.906 0 5.89-1.657 1.985-1.656 1.985-3.875 0-1.422-.844-2.406-.828-1-2.906-1.75-1.422-.485-6.484-1.75-6.5-1.61-9.125-3.953-3.703-3.313-3.703-8.078 0-3.063 1.734-5.72 1.75-2.671 5.016-4.062 3.265-1.39 7.89-1.39 7.547 0 11.36 3.312 3.812 3.297 4 8.828l-8.094.344q-.516-3.078-2.234-4.437-1.704-1.36-5.125-1.36-3.516 0-5.516 1.453-1.281.938-1.281 2.485 0 1.422 1.203 2.437 1.531 1.281 7.437 2.688 5.907 1.39 8.735 2.89 2.828 1.485 4.422 4.063 1.609 2.578 1.609 6.39 0 3.438-1.922 6.454-1.906 3-5.406 4.468-3.5 1.469-8.735 1.469-7.593 0-11.671-3.516-4.079-3.515-4.86-10.25m39.399 13.047V165.44h29.718v6.78h-21.625v8.891h20.125v6.75h-20.125v10.922h22.391v6.75z"/></g></svg>