<svg xmlns="http://www.w3.org/2000/svg" fill="none" stroke-linecap="square" stroke-miterlimit="10" viewBox="0 0 519.451 302.003"><clipPath id="a"><path d="M0 0h519.451v302.003H0z"/></clipPath><g clip-path="url(#a)"><path d="M0 0h519.451v302.003H0z"/><path fill="#38761d" fill-rule="evenodd" d="M29.588 74.242c0-21.286 17.256-38.541 38.541-38.541h385.374a38.54 38.54 0 0 1 38.542 38.541v154.161c0 21.286-17.256 38.542-38.542 38.542H68.13c-21.285 0-38.541-17.256-38.541-38.542z"/><path fill="#fff" fill-rule="evenodd" d="M35.934 77.675c0-20.338 16.487-36.825 36.825-36.825h373.72a36.825 36.825 0 0 1 36.825 36.825V224.97c0 20.338-16.487 36.825-36.824 36.825H72.76c-20.339 0-36.826-16.487-36.826-36.825z"/><path fill="#38761d" fill-rule="evenodd" d="M43.934 81.287c0-19.34 15.679-35.02 35.02-35.02h361.331a35.02 35.02 0 0 1 35.02 35.02v140.072c0 19.34-15.68 35.019-35.02 35.019H78.953c-19.34 0-35.019-15.679-35.019-35.02z"/><path d="M105.483 78.441h323.276v73.638H105.483z"/><path fill="#fff" d="M117.39 125.84V97.2h9.28q5.282 0 6.875.438 2.47.64 4.125 2.797 1.657 2.156 1.657 5.578 0 2.64-.953 4.437-.954 1.797-2.438 2.828-1.469 1.016-3 1.344-2.062.422-5.984.422h-3.782v10.797zm5.78-23.796v8.125h3.172q3.422 0 4.563-.437 1.156-.454 1.812-1.407.657-.968.657-2.234 0-1.563-.922-2.578-.922-1.016-2.328-1.266-1.032-.203-4.157-.203zm20.93 23.797V97.2h12.156q4.594 0 6.672.78 2.078.766 3.328 2.75 1.25 1.97 1.25 4.5 0 3.22-1.89 5.329-1.89 2.093-5.656 2.64 1.875 1.094 3.093 2.407 1.219 1.312 3.282 4.64l3.5 5.594h-6.907l-4.187-6.234q-2.219-3.344-3.047-4.204-.813-.875-1.734-1.187-.922-.328-2.907-.328h-1.172v11.953zm5.781-16.531h4.266q4.172 0 5.203-.344 1.031-.36 1.61-1.219.593-.86.593-2.14 0-1.454-.781-2.329-.766-.89-2.172-1.125-.703-.109-4.219-.109h-4.5zm21.903 2.39q0-4.375 1.312-7.343.985-2.188 2.672-3.922 1.688-1.75 3.703-2.578 2.672-1.141 6.172-1.141 6.328 0 10.125 3.937 3.797 3.922 3.797 10.907 0 6.937-3.781 10.86-3.766 3.905-10.063 3.905-6.39 0-10.172-3.89-3.765-3.907-3.765-10.735m5.968-.203q0 4.875 2.235 7.39 2.25 2.5 5.703 2.5 3.469 0 5.672-2.484 2.219-2.5 2.219-7.484 0-4.922-2.157-7.344t-5.734-2.422q-3.563 0-5.75 2.454-2.188 2.453-2.188 7.39m33.63 14.344L201.146 97.2h6.266l7.25 21.202 7.015-21.203h6.125l-10.25 28.64zm19.195 0V97.2h5.78v28.64zm11.347 0V97.2h5.625l11.72 19.124V97.2h5.374v28.64h-5.797L247.3 107.17v18.67zm47.153-10.531 5.61 1.78q-1.298 4.688-4.298 6.97-3 2.265-7.61 2.265-5.702 0-9.374-3.89-3.672-3.907-3.672-10.657 0-7.156 3.687-11.109 3.704-3.953 9.72-3.953 5.25 0 8.53 3.11 1.954 1.827 2.938 5.265l-5.734 1.375q-.5-2.234-2.11-3.516-1.61-1.297-3.922-1.297-3.187 0-5.172 2.297-1.968 2.282-1.968 7.39 0 5.438 1.953 7.75 1.953 2.298 5.078 2.298 2.297 0 3.953-1.469 1.672-1.469 2.39-4.61m10.386 10.53V97.2h5.782v28.64zm37.114 0h-6.297l-2.5-6.5h-11.438l-2.36 6.5h-6.14L319 97.2h6.109zm-10.64-11.327-3.954-10.625-3.86 10.625zM349.248 97.2h10.562q3.578 0 5.453.547 2.516.75 4.313 2.64t2.734 4.641.938 6.766q0 3.531-.875 6.094-1.079 3.125-3.063 5.062-1.5 1.47-4.062 2.282-1.922.609-5.125.609h-10.875zm5.78 4.844v18.969h4.313q2.422 0 3.5-.266 1.407-.36 2.328-1.187.938-.844 1.516-2.766.594-1.937.594-5.25 0-3.328-.594-5.094-.578-1.78-1.64-2.78-1.047-1-2.672-1.345-1.204-.28-4.75-.28zm23.122 23.797V97.2h21.234v4.843h-15.453v6.36h14.375v4.812h-14.375v7.797h16v4.828z"/><path d="M55.352 144.685h408.535v73.638H55.352z"/><path fill="#fff" d="m95.567 207.445-14.328-40.094h8.78l10.141 29.672 9.829-29.672h8.578l-14.36 40.094zm59.117 0h-8.797l-3.5-9.11h-16.031l-3.297 9.11h-8.594l15.61-40.094h8.562zm-14.89-15.86-5.532-14.874-5.406 14.875zm19.41 15.86v-39.766h8.093v33.016h20.125v6.75zm34.206 0v-39.766h8.094v33.016h20.125v6.75zm70.13 0h-8.798l-3.5-9.11h-16.03l-3.298 9.11h-8.593l15.609-40.094h8.562zm-14.891-15.86-5.532-14.874-5.406 14.875zm19.16-24.234h14.797q5 0 7.625.766 3.531 1.047 6.047 3.703 2.515 2.64 3.828 6.484t1.312 9.485q0 4.937-1.234 8.531-1.5 4.375-4.297 7.078-2.094 2.047-5.688 3.203-2.671.844-7.156.844H267.81zm8.094 6.782v26.562h6.046q3.391 0 4.891-.39 1.969-.485 3.266-1.657 1.297-1.187 2.11-3.875.827-2.703.827-7.344 0-4.656-.828-7.14-.812-2.485-2.297-3.875-1.469-1.406-3.734-1.89-1.688-.391-6.64-.391zm30.738 13.515q0-6.125 1.828-10.281 1.375-3.063 3.734-5.5 2.36-2.438 5.188-3.61 3.734-1.578 8.64-1.578 8.86 0 14.172 5.5 5.313 5.485 5.313 15.282 0 9.703-5.281 15.187-5.266 5.485-14.094 5.485-8.953 0-14.234-5.454-5.266-5.468-5.266-15.03m8.344-.281q0 6.812 3.14 10.328t7.985 3.516 7.937-3.485q3.11-3.484 3.11-10.468 0-6.891-3.032-10.282-3.015-3.39-8.015-3.39t-8.063 3.437-3.062 10.344m37.074 20.078V167.68h8.094v33.016h20.125v6.75zm33.738 0v-40.094h8.094v40.094zm15.777-40.094h14.797q5 0 7.625.766 3.532 1.047 6.047 3.703 2.516 2.64 3.828 6.484 1.313 3.844 1.313 9.485 0 4.937-1.235 8.531-1.5 4.375-4.296 7.078-2.094 2.047-5.688 3.203-2.672.844-7.156.844h-15.235zm8.094 6.782v26.562h6.047q3.39 0 4.89-.39 1.97-.485 3.266-1.657 1.297-1.187 2.11-3.875.828-2.703.828-7.344 0-4.656-.828-7.14-.813-2.485-2.297-3.875-1.469-1.406-3.735-1.89-1.687-.391-6.64-.391z"/></g></svg>